<?xml version="1.0" encoding="UTF-8"?>
<svg width="36px" height="36px" viewBox="0 0 36 36" version="1.1" xmlns="http://www.w3.org/2000/svg" xmlns:xlink="http://www.w3.org/1999/xlink">
    <!-- Generator: Sketch 50.2 (55047) - http://www.bohemiancoding.com/sketch -->
    <title>Group 4</title>
    <desc>Created with Sketch.</desc>
    <defs></defs>
    <g id="Page-1" stroke="none" stroke-width="1" fill="none" fill-rule="evenodd">
        <g id="Канал-офф-Ранг-без-лиги-виден-мне-Copy" transform="translate(-672.000000, -879.000000)">
            <g id="Задания-выполненные" transform="translate(40.000000, 779.000000)">
                <g id="Дневные" transform="translate(16.000000, 86.000000)">
                    <g id="2" transform="translate(592.000000, 0.000000)">
                        <g id="Group-4" transform="translate(24.000000, 14.000000)">
                            <circle id="Oval-8" fill="#F5A623" cx="18" cy="18" r="18"></circle>
                            <path d="M10.772815,11.9993154 C9.80089753,11.9993154 9,12.8002141 9,13.7721304 L9,23.2271437 C9,24.1990599 9.80089753,24.9999586 10.772815,24.9999586 L23.1825199,24.9999586 C24.1544373,24.9999586 24.9553349,24.1990599 24.9553349,23.2271437 L24.9553349,22.4330703 L29.3966057,24.9260914 C29.5796683,25.0274052 29.802655,25.0243763 29.9828983,24.9181277 C30.1631415,24.811879 30.2737735,24.6182484 30.2737798,24.4090203 L30.2737798,12.5902538 C30.2738414,12.4302796 30.2090483,12.2771141 30.0942028,12.1657488 C29.9793573,12.0543835 29.8242712,11.9943327 29.6643747,11.9993154 C29.5705174,12.0023149 29.478726,12.0276367 29.3966057,12.0731827 L24.9553349,14.5662038 L24.9553349,13.7721304 C24.9553349,12.8002141 24.1544373,11.9993154 23.1825199,11.9993154 L10.772815,11.9993154 Z M10.772815,13.1811921 L23.1825199,13.1811921 C23.5201209,13.1811921 23.7734582,13.4345303 23.7734582,13.7721304 L23.7734582,23.2271437 C23.7734582,23.5647467 23.5201209,23.818082 23.1825199,23.818082 L10.772815,23.818082 C10.435214,23.818082 10.1818767,23.5647467 10.1818767,23.2271437 L10.1818767,13.7721304 C10.1818767,13.4345303 10.435214,13.1811921 10.772815,13.1811921 Z M29.0919032,13.5966956 L29.0919032,23.4025785 L24.9553349,21.0757588 L24.9553349,15.9235153 L29.0919032,13.5966956 Z M16.9130336,14.9447737 C16.6085844,14.9782297 16.3801418,15.2387344 16.3867291,15.5449454 L16.3867291,17.9086987 L14.0229758,17.9086987 C14.0045191,17.9078327 13.986032,17.9078327 13.9675753,17.9086987 C13.7564233,17.9185541 13.5665737,18.0403238 13.4695577,18.2281275 C13.3725418,18.4159312 13.3831026,18.6412292 13.4972612,18.8191341 C13.6114197,18.9970389 13.8118277,19.1005153 14.0229758,19.0905754 L16.3867291,19.0905754 L16.3867291,21.4543287 C16.3837151,21.6674423 16.4956835,21.8656698 16.6797594,21.9731062 C16.8638352,22.0805425 17.0914996,22.0805425 17.2755755,21.9731062 C17.4596513,21.8656698 17.5716197,21.6674423 17.5686058,21.4543287 L17.5686058,19.0905754 L19.9323591,19.0905754 C20.1454727,19.0935893 20.3437002,18.9816209 20.4511366,18.7975451 C20.5585729,18.6134693 20.5585729,18.3858048 20.4511366,18.201729 C20.3437002,18.0176531 20.1454727,17.9056848 19.9323591,17.9086987 L17.5686058,17.9086987 L17.5686058,15.5449454 C17.5722718,15.3747574 17.5023761,15.2112534 17.3768188,15.0963066 C17.2512616,14.9813598 17.0822375,14.9261344 16.9130336,14.9447737 Z" id="Shape" fill="#FFFFFF" fill-rule="nonzero"></path>
                        </g>
                    </g>
                </g>
            </g>
        </g>
    </g>
</svg>