<?xml version="1.0" encoding="UTF-8"?>
<svg width="36px" height="36px" viewBox="0 0 36 36" version="1.1" xmlns="http://www.w3.org/2000/svg" xmlns:xlink="http://www.w3.org/1999/xlink">
    <!-- Generator: Sketch 50.2 (55047) - http://www.bohemiancoding.com/sketch -->
    <title>Group 5</title>
    <desc>Created with Sketch.</desc>
    <defs></defs>
    <g id="Page-1" stroke="none" stroke-width="1" fill="none" fill-rule="evenodd">
        <g id="Канал-офф-Ранг-без-лиги-виден-мне-Copy-2" transform="translate(-672.000000, -879.000000)">
            <g id="Задания-дневные" transform="translate(40.000000, 779.000000)">
                <g id="Дневные" transform="translate(16.000000, 86.000000)">
                    <g id="3" transform="translate(592.000000, 0.000000)">
                        <g id="Group-5" transform="translate(24.000000, 14.000000)">
                            <circle id="Oval-8" fill="#F5A623" cx="18" cy="18" r="18"></circle>
                            <path d="M19.3248993,19.9464516 L22.8734297,22.6109677 L22.8734297,26.016129 L21.9197085,26.016129 L21.9197085,23.2793548 L18.5962906,20.847871 C18.2044916,20.5606452 17.6872482,20.5606452 17.2954492,20.847871 L13.9720313,23.2793548 L13.9720313,26.016129 L13.0354942,26.016129 L13.0715809,22.5585806 L16.5805878,19.9717419 C16.948329,19.7007742 17.1682863,19.2563871 17.1682863,18.7849032 L17.1682863,17.4860645 C17.1682863,16.9965161 16.9345817,16.5449032 16.5445011,16.2739355 L13.0320574,13.8027097 L13.0320574,9.98387097 L22.8665561,9.98387097 L22.8339061,13.8550968 L19.360986,16.2504516 C18.9709054,16.5178065 18.7389192,16.9712258 18.7389192,17.4607742 L18.7389192,18.7596129 C18.7389192,19.2310968 18.9571581,19.6736774 19.3248993,19.9464516 Z M23.5401754,14.9877419 C23.930256,14.7185806 24.1622422,14.2651613 24.1622422,13.7774194 L24.1622422,9.98387097 L25.25,9.98387097 L25.25,7.5 L10.75,7.5 L10.75,9.98387097 L11.7432448,9.98387097 L11.7432448,13.8027097 C11.7432448,14.2904516 11.9769495,14.743871 12.3670301,15.0130323 L15.8794738,17.4860645 L15.8399502,18.8607742 L12.3309434,21.4494194 C11.9632022,21.7203871 11.7432448,22.1647742 11.7432448,22.6362581 L11.7432448,26.016129 L10.75,26.016129 L10.75,28.5 L25.25,28.5 L25.25,26.016129 L24.1622422,26.016129 L24.1622422,22.6109677 C24.1622422,22.1376774 23.9422849,21.6932903 23.5745437,21.424129 L20.0277317,18.7596129 L20.0672553,17.3830968 L23.5401754,14.9877419 Z" id="Fill-1" fill="#FFFFFF"></path>
                        </g>
                    </g>
                </g>
            </g>
        </g>
    </g>
</svg>