<?xml version="1.0" encoding="UTF-8"?>
<svg width="36px" height="36px" viewBox="0 0 36 36" version="1.1" xmlns="http://www.w3.org/2000/svg" xmlns:xlink="http://www.w3.org/1999/xlink">
    <!-- Generator: Sketch 50.2 (55047) - http://www.bohemiancoding.com/sketch -->
    <title>Group 4</title>
    <desc>Created with Sketch.</desc>
    <defs></defs>
    <g id="Page-1" stroke="none" stroke-width="1" fill="none" fill-rule="evenodd">
        <g id="Канал-офф-Ранг-без-лиги-виден-мне-Copy" transform="translate(-672.000000, -1039.000000)">
            <g id="Задания-выполненные" transform="translate(40.000000, 779.000000)">
                <g id="Дневные" transform="translate(16.000000, 86.000000)">
                    <g id="2-copy-3" transform="translate(592.000000, 160.000000)">
                        <g id="Group-4" transform="translate(24.000000, 14.000000)">
                            <circle id="Oval-8" fill="#F5A623" cx="18" cy="18" r="18"></circle>
                            <path d="M8.67331748,10 C7.21236634,10 6,11.1586989 6,12.6031977 L6,22.5339147 C6,23.9784107 7.20956323,25.1458774 8.67331748,25.1458774 L9.40957541,25.1458774 C9.61187716,25.1487384 9.80004811,25.0424505 9.90203392,24.8677133 C10.0040197,24.6929762 10.0040197,24.4768618 9.90203392,24.3021246 C9.80004811,24.1273874 9.61187716,24.0210995 9.40957541,24.0239605 L8.67331748,24.0239605 C7.79533789,24.0239605 7.12191684,23.3574297 7.12191684,22.5339147 L7.12191684,19.8255374 L13.818358,15.1888654 L19.9450758,20.2462562 C20.1532,20.419866 20.4556795,20.419866 20.6638037,20.2462562 L23.6701903,17.7394732 L26.1945032,19.7992424 L26.1945032,20.1060166 C26.1014845,20.0998152 26.0085553,20.0972516 25.914024,20.0972516 C23.6916338,20.0972516 21.8611689,21.8371502 21.7156008,24.0239605 L11.6271142,24.0239605 C11.6095939,24.0231384 11.5920446,24.0231384 11.5745243,24.0239605 C11.3740846,24.033316 11.1938666,24.1489079 11.1017725,24.3271838 C11.0096785,24.5054597 11.0197035,24.7193277 11.1280705,24.888207 C11.2364374,25.0570863 11.4266782,25.155313 11.6271142,25.1458774 L21.7944856,25.1458774 C22.1846243,27.063845 23.8837822,28.5116279 25.914024,28.5116279 C28.2309458,28.5116279 30.1212121,26.6213663 30.1212121,24.3044397 C30.1212121,22.4816791 28.9442524,20.9339974 27.31642,20.3514359 L27.31642,12.6031977 C27.31642,11.1558071 26.095289,10 24.6343376,10 L8.67331748,10 Z M8.67331748,11.1219168 L24.6343376,11.1219168 C25.5151205,11.1219168 26.1945032,11.7825548 26.1945032,12.6031977 L26.1945032,18.3442565 L24.0295543,16.5737315 C23.82143,16.4001217 23.5189505,16.4001217 23.3108263,16.5737315 L20.3044397,19.0805144 L14.2127819,14.0494186 C14.0949795,13.953166 13.9431394,13.9088793 13.7920631,13.9267089 C13.7007118,13.937522 13.613421,13.9706323 13.5378788,14.0231237 L7.12191684,18.4669662 L7.12191684,12.6031977 C7.12191684,11.779663 7.79253478,11.1219168 8.67331748,11.1219168 Z M20.3044397,11.6828753 C19.0718492,11.6828753 18.0606061,12.6941178 18.0606061,13.9267089 C18.0606061,15.1592973 19.0718469,16.1705426 20.3044397,16.1705426 C21.5370309,16.1705426 22.5482734,15.1592973 22.5482734,13.9267089 C22.5482734,12.694115 21.5370286,11.6828753 20.3044397,11.6828753 Z M20.3044397,12.8047921 C20.9307016,12.8047921 21.4263566,13.3004437 21.4263566,13.9267089 C21.4263566,14.5529685 20.9306993,15.0486258 20.3044397,15.0486258 C19.6781768,15.0486258 19.1825229,14.5529685 19.1825229,13.9267089 C19.1825229,13.3004409 19.6781745,12.8047921 20.3044397,12.8047921 Z M25.914024,21.2191684 C27.6246165,21.2191684 28.9992953,22.5938531 28.9992953,24.3044397 C28.9992953,26.0150544 27.6246165,27.3897111 25.914024,27.3897111 C24.2034315,27.3897111 22.8287526,26.0150544 22.8287526,24.3044397 C22.8287526,22.5938531 24.2034315,21.2191684 25.914024,21.2191684 Z M25.8526691,22.3323203 C25.5636655,22.364079 25.3468125,22.6113676 25.3530655,22.9020437 L25.3530655,23.7434813 L24.5116279,23.7434813 C24.4941076,23.7426592 24.4765584,23.7426592 24.4590381,23.7434813 C24.2585983,23.7528368 24.0783803,23.8684287 23.9862863,24.0467046 C23.8941922,24.2249805 23.9042173,24.4388485 24.0125842,24.6077278 C24.1209512,24.7766071 24.3111919,24.8748338 24.5116279,24.8653982 L25.3530655,24.8653982 L25.3530655,25.7068358 C25.3502045,25.9091376 25.4564924,26.0973085 25.6312296,26.1992943 C25.8059668,26.3012801 26.0220812,26.3012801 26.1968183,26.1992943 C26.3715555,26.0973085 26.4778434,25.9091376 26.4749824,25.7068358 L26.4749824,24.8653982 L27.31642,24.8653982 C27.5187218,24.8682592 27.7068927,24.7619713 27.8088785,24.5872341 C27.9108643,24.4124969 27.9108643,24.1963826 27.8088785,24.0216454 C27.7068927,23.8469082 27.5187218,23.7406203 27.31642,23.7434813 L26.4749824,23.7434813 L26.4749824,22.9020437 C26.4784624,22.7404898 26.4121127,22.5852808 26.2929253,22.4761656 C26.1737379,22.3670503 26.0132889,22.3146267 25.8526691,22.3323203 Z" id="Shape" fill="#FFFFFF" fill-rule="nonzero"></path>
                        </g>
                    </g>
                </g>
            </g>
        </g>
    </g>
</svg>