<?xml version="1.0" encoding="UTF-8"?>
<svg width="36px" height="36px" viewBox="0 0 36 36" version="1.1" xmlns="http://www.w3.org/2000/svg" xmlns:xlink="http://www.w3.org/1999/xlink">
    <!-- Generator: Sketch 50.2 (55047) - http://www.bohemiancoding.com/sketch -->
    <title>Group 4</title>
    <desc>Created with Sketch.</desc>
    <defs></defs>
    <g id="Page-1" stroke="none" stroke-width="1" fill="none" fill-rule="evenodd">
        <g id="Канал-офф-Ранг-без-лиги-виден-мне-Copy-2" transform="translate(-80.000000, -879.000000)">
            <g id="Задания-дневные" transform="translate(40.000000, 779.000000)">
                <g id="Дневные" transform="translate(16.000000, 86.000000)">
                    <g id="3-copy">
                        <g id="Group-4" transform="translate(24.000000, 14.000000)">
                            <circle id="Oval-8" fill="#F5A623" cx="18" cy="18" r="18"></circle>
                            <path d="M18.3826574,17.2768427 L18.3826574,14.6234679 L16.9659504,14.6234679 L16.9659504,17.2768427 L14.0144775,17.2768427 L14.0144775,18.60353 L16.9659504,18.60353 L16.9659504,21.4780193 L18.3826574,21.4780193 L18.3826574,18.60353 L21.3341303,18.60353 L21.3341303,17.2768427 L18.3826574,17.2768427 Z M17.7333333,24.2419513 L10.4817345,28 L11.8666667,20.0403252 L6,14.4032522 L14.1075339,13.2419513 L17.7333333,6 L21.3591327,13.2419513 L29.4666667,14.4032522 L23.6,20.0403252 L24.9849321,28 L17.7333333,24.2419513 Z" id="Mask-Copy-2" fill="#FFFFFF"></path>
                        </g>
                    </g>
                </g>
            </g>
        </g>
    </g>
</svg>