<?xml version="1.0" encoding="UTF-8"?>
<svg width="36px" height="36px" viewBox="0 0 36 36" version="1.1" xmlns="http://www.w3.org/2000/svg" xmlns:xlink="http://www.w3.org/1999/xlink">
    <!-- Generator: Sketch 50.2 (55047) - http://www.bohemiancoding.com/sketch -->
    <title>Group 4</title>
    <desc>Created with Sketch.</desc>
    <defs></defs>
    <g id="Page-1" stroke="none" stroke-width="1" fill="none" fill-rule="evenodd">
        <g id="Канал-офф-Ранг-без-лиги-виден-мне" transform="translate(-80.000000, -958.000000)">
            <g id="Задания-недельные" transform="translate(40.000000, 778.000000)">
                <g id="Дневные" transform="translate(16.000000, 86.000000)">
                    <g id="1-copy-4" transform="translate(0.000000, 80.000000)">
                        <g id="Group-4" transform="translate(24.000000, 14.000000)">
                            <circle id="Oval-8" fill="#F5A623" cx="18" cy="18" r="18"></circle>
                            <path d="M14.6060606,9 C13.6840304,9 12.9242424,9.75978939 12.9242424,10.6818182 L12.9242424,11.5227273 C12.9213832,11.724902 13.0276043,11.9129547 13.2022317,12.0148764 C13.3768592,12.1167982 13.5928378,12.1167982 13.7674652,12.0148764 C13.9420926,11.9129547 14.0483138,11.724902 14.0454545,11.5227273 L14.0454545,10.6818182 C14.0454545,10.3615439 14.2857889,10.1212121 14.6060606,10.1212121 L25.8181818,10.1212121 C26.1384535,10.1212121 26.3787879,10.3615439 26.3787879,10.6818182 L26.3787879,21.8939394 C26.3787879,22.2142136 26.1384535,22.4545455 25.8181818,22.4545455 L24.9772727,22.4545455 C24.775098,22.4516862 24.5870453,22.5579074 24.4851236,22.7325348 C24.3832018,22.9071622 24.3832018,23.1231408 24.4851236,23.2977683 C24.5870453,23.4723957 24.775098,23.5786168 24.9772727,23.5757576 L25.8181818,23.5757576 C26.740212,23.5757576 27.5,22.8159682 27.5,21.8939394 L27.5,10.6818182 C27.5,9.75978939 26.740212,9 25.8181818,9 L14.6060606,9 Z M10.6818182,12.9242424 C9.75978827,12.9242424 9,13.6840318 9,14.6060606 L9,25.8181818 C9,26.7402106 9.75978827,27.5 10.6818182,27.5 L21.8939394,27.5 C22.8159693,27.5 23.5757576,26.7402106 23.5757576,25.8181818 L23.5757576,14.6060606 C23.5757576,13.6840318 22.8159693,12.9242424 21.8939394,12.9242424 L10.6818182,12.9242424 Z M10.6818182,14.0454545 L21.8939394,14.0454545 C22.2142117,14.0454545 22.4545455,14.2857892 22.4545455,14.6060606 L22.4545455,25.8181818 C22.4545455,26.1384561 22.2142117,26.3787879 21.8939394,26.3787879 L10.6818182,26.3787879 C10.3615459,26.3787879 10.1212121,26.1384561 10.1212121,25.8181818 L10.1212121,14.6060606 C10.1212121,14.2857892 10.3615459,14.0454545 10.6818182,14.0454545 Z M16.2265625,15.7185133 C15.9377404,15.750252 15.7210236,15.9973853 15.7272727,16.2878788 L15.7272727,19.6515152 L12.3636364,19.6515152 C12.3461271,19.6506936 12.3285889,19.6506936 12.3110795,19.6515152 C12.1107657,19.6608647 11.9306609,19.776384 11.8386247,19.954548 C11.7465885,20.1327119 11.7566073,20.3464455 11.8649061,20.5152188 C11.973205,20.683992 12.1633263,20.782157 12.3636364,20.7727273 L15.7272727,20.7727273 L15.7272727,24.1363636 C15.7244135,24.3385383 15.8306346,24.5265911 16.0052621,24.6285128 C16.1798895,24.7304346 16.3958681,24.7304346 16.5704955,24.6285128 C16.7451229,24.5265911 16.8513441,24.3385383 16.8484848,24.1363636 L16.8484848,20.7727273 L20.2121212,20.7727273 C20.4142959,20.7755865 20.6023486,20.6693654 20.7042704,20.4947379 C20.8061921,20.3201105 20.8061921,20.1041319 20.7042704,19.9295045 C20.6023486,19.7548771 20.4142959,19.6486559 20.2121212,19.6515152 L16.8484848,19.6515152 L16.8484848,16.2878788 C16.8519627,16.1264264 16.7856547,15.9713148 16.6665421,15.8622682 C16.5474296,15.7532215 16.3870814,15.7008308 16.2265625,15.7185133 Z" id="Shape" fill="#FFFFFF" fill-rule="nonzero"></path>
                        </g>
                    </g>
                </g>
            </g>
        </g>
    </g>
</svg>