<?xml version="1.0" encoding="UTF-8"?>
<svg width="36px" height="36px" viewBox="0 0 36 36" version="1.1" xmlns="http://www.w3.org/2000/svg" xmlns:xlink="http://www.w3.org/1999/xlink">
    <!-- Generator: Sketch 50.2 (55047) - http://www.bohemiancoding.com/sketch -->
    <title>Group 4</title>
    <desc>Created with Sketch.</desc>
    <defs></defs>
    <g id="Page-1" stroke="none" stroke-width="1" fill="none" fill-rule="evenodd">
        <g id="Канал-офф-Ранг-без-лиги-виден-мне" transform="translate(-80.000000, -1038.000000)">
            <g id="Задания-недельные" transform="translate(40.000000, 778.000000)">
                <g id="Дневные" transform="translate(16.000000, 86.000000)">
                    <g id="1-copy-3" transform="translate(0.000000, 160.000000)">
                        <g id="Group-4" transform="translate(24.000000, 14.000000)">
                            <circle id="Oval-8" fill="#F5A623" cx="18" cy="18" r="18"></circle>
                            <path d="M15.8679742,16.9940689 L15.8679742,26.0012045 C15.8679742,26.0730172 15.8818144,26.1440464 15.9092338,26.2103752 C15.9345641,26.2720035 16.5552866,27.7231416 18.4754266,27.7231416 C20.3958277,27.7231416 21.0162891,26.2720035 21.0416194,26.2103752 C21.0690388,26.1440464 21.0831401,26.0732783 21.0831401,26.0012045 L21.0831401,16.9940689 C22.3580107,16.1469406 23.2009608,14.6989363 23.2009608,13.0569071 C23.2009608,11.1923893 22.0981795,9.49787166 20.3916495,8.73952996 C20.2216494,8.66458366 20.0257966,8.6797296 19.870159,8.7807896 C19.7145214,8.88211073 19.6205121,9.05524453 19.6205121,9.2409129 L19.6205121,12.1081966 C19.5902202,12.2625285 19.4186532,12.7759238 18.4751654,12.7759238 C17.5199265,12.7759238 17.3559325,12.2497328 17.3298188,12.1123748 L17.3298188,9.2409129 C17.3298188,9.05524453 17.2360706,8.88211073 17.0801719,8.7807896 C16.9245342,8.6797296 16.7289427,8.66484479 16.5586814,8.73952996 C14.8521514,9.49787166 13.7496312,11.1926505 13.7496312,13.0569071 C13.7501535,14.6989363 14.5928424,16.1469406 15.8679742,16.9940689 Z" id="Path" fill="#FFFFFF" transform="translate(18.475296, 18.207803) rotate(45.000000) translate(-18.475296, -18.207803) "></path>
                        </g>
                    </g>
                </g>
            </g>
        </g>
    </g>
</svg>