<?xml version="1.0" encoding="UTF-8"?>
<svg width="36px" height="36px" viewBox="0 0 36 36" version="1.1" xmlns="http://www.w3.org/2000/svg" xmlns:xlink="http://www.w3.org/1999/xlink">
    <!-- Generator: Sketch 50.2 (55047) - http://www.bohemiancoding.com/sketch -->
    <title>Group 4</title>
    <desc>Created with Sketch.</desc>
    <defs></defs>
    <g id="Page-1" stroke="none" stroke-width="1" fill="none" fill-rule="evenodd">
        <g id="Канал-офф-Ранг-без-лиги-виден-мне" transform="translate(-672.000000, -878.000000)">
            <g id="Задания-недельные" transform="translate(40.000000, 778.000000)">
                <g id="Дневные" transform="translate(16.000000, 86.000000)">
                    <g id="2" transform="translate(592.000000, 0.000000)">
                        <g id="Group-4" transform="translate(24.000000, 14.000000)">
                            <circle id="Oval-8" fill="#F5A623" cx="18" cy="18" r="18"></circle>
                            <path d="M18.0399578,19.9484014 C16.923569,19.9484014 16.0185571,19.0433895 16.0185571,17.9270007 C16.0185571,16.8106119 16.923569,15.9056 18.0399578,15.9056 C19.1563466,15.9056 20.0613585,16.8106119 20.0613585,17.9270007 C20.0613585,19.0433895 19.1563466,19.9484014 18.0399578,19.9484014 Z M25.9716233,10.2839291 C27.9759199,12.3529104 29.0799156,15.0796245 29.0799156,17.961831 C29.0799156,20.8443484 27.9759199,23.5710625 25.9716233,25.6400439 C25.7977828,25.8191711 25.5595685,25.9214851 25.3098478,25.923662 C25.3073599,25.923662 25.304561,25.923662 25.3017622,25.923662 C25.0548403,25.923662 24.8178699,25.8260128 24.6430965,25.6515503 L24.5488682,25.5576329 C24.1878149,25.1978236 24.1825281,24.6144163 24.5373617,24.2480763 C26.1778062,22.5532095 27.0812168,20.3206501 27.0812168,17.961831 C27.0812168,15.6033228 26.1774952,13.3707635 24.5373617,11.6755857 C24.1834611,11.3095567 24.1881259,10.7277043 24.5476242,10.3675839 L24.6415416,10.2736666 C24.816626,10.0982712 25.0542183,10 25.3017622,10 C25.3039391,10 25.306116,10 25.3086038,10 C25.5589466,10.0021769 25.7974718,10.1041799 25.9716233,10.2839291 Z M8.99900983,17.961831 C8.99900983,20.3203392 9.90242046,22.5528985 11.5431759,24.2477653 C11.8973875,24.6137943 11.8924117,25.1959577 11.5322914,25.556078 L11.438063,25.6503064 C11.2632896,25.8257018 11.0256973,25.923662 10.7784644,25.923662 C10.7759766,25.923662 10.7734887,25.923662 10.7710008,25.923662 C10.5209691,25.9214851 10.2824438,25.8194821 10.1082923,25.6397329 C8.1036848,23.5710625 7,20.8443484 7,17.961831 C7,15.0796245 8.1036848,12.3529104 10.1079814,10.2839291 C10.2818218,10.1041799 10.5203471,10.0021769 10.7703788,10 C10.7728667,10 10.7756656,10 10.7781535,10 C11.0253863,10 11.2623567,10.0979602 11.4374411,10.2727336 L11.5316694,10.366651 C11.8924117,10.7267713 11.8973875,11.3095567 11.5428649,11.6755857 C9.90242046,13.3710744 8.99900983,15.6036338 8.99900983,17.961831 Z M22.8947404,13.8642962 C23.9648388,14.968603 24.5538439,16.4237005 24.5538439,17.961831 C24.5538439,19.5002724 23.9645279,20.95537 22.8947404,22.0596767 C22.720278,22.2394259 22.4811307,22.3417399 22.230477,22.3432948 C22.2286111,22.3432948 22.2264342,22.3432948 22.2245683,22.3432948 C21.9760915,22.3432948 21.7375662,22.2440907 21.5627928,22.0677623 L21.5170781,22.0217366 C21.1588236,21.6613053 21.1550918,21.0806968 21.5086815,20.7152898 C22.2270562,19.9732802 22.6226288,18.9952332 22.6226288,17.961831 C22.6226288,16.9287397 22.2270562,15.9506928 21.5083705,15.2083722 C21.1550918,14.8429652 21.1591346,14.2623567 21.5170781,13.9019254 L21.5627928,13.8558996 C21.7378772,13.6795713 21.9760915,13.5803672 22.2245683,13.5803672 C22.2264342,13.5803672 22.2286111,13.5803672 22.230477,13.5803672 C22.4811307,13.5822331 22.720278,13.6842361 22.8947404,13.8642962 Z M14.5606607,13.9000595 C14.921092,14.2598688 14.9257568,14.8423432 14.5715452,15.2086832 C13.8528594,15.9510037 13.4572869,16.9290507 13.4572869,17.962142 C13.4572869,18.9958552 13.8531704,19.9732802 14.5715452,20.7156007 C14.9254458,21.0819408 14.920781,21.6641042 14.5606607,22.0242245 L14.5146349,22.0702502 C14.3398615,22.2456456 14.1022692,22.3436058 13.8550363,22.3436058 C13.8528594,22.3436058 13.8503716,22.3436058 13.8478837,22.3436058 C13.597852,22.3414289 13.3590157,22.2394259 13.1851752,22.0599877 C12.1153878,20.9559919 11.5263827,19.5005834 11.5263827,17.962142 C11.5263827,16.4237005 12.1153878,14.968603 13.1848643,13.8646072 C13.3590157,13.684858 13.597541,13.5825441 13.8475727,13.5806781 C13.8500606,13.5806781 13.8525485,13.5806781 13.8550363,13.5806781 C14.1022692,13.5806781 14.3398615,13.6789493 14.5146349,13.8540337 L14.5606607,13.9000595 Z" id="Oval" fill="#FFFFFF" fill-rule="nonzero"></path>
                        </g>
                    </g>
                </g>
            </g>
        </g>
    </g>
</svg>