<?xml version="1.0" encoding="UTF-8"?>
<svg width="36px" height="36px" viewBox="0 0 36 36" version="1.1" xmlns="http://www.w3.org/2000/svg" xmlns:xlink="http://www.w3.org/1999/xlink">
    <!-- Generator: Sketch 50.2 (55047) - http://www.bohemiancoding.com/sketch -->
    <title>Group 4</title>
    <desc>Created with Sketch.</desc>
    <defs></defs>
    <g id="Page-1" stroke="none" stroke-width="1" fill="none" fill-rule="evenodd">
        <g id="Канал-офф-Ранг-без-лиги-виден-мне-Copy" transform="translate(-672.000000, -959.000000)">
            <g id="Задания-выполненные" transform="translate(40.000000, 779.000000)">
                <g id="Дневные" transform="translate(16.000000, 86.000000)">
                    <g id="1-copy-5" transform="translate(592.000000, 80.000000)">
                        <g id="Group-4" transform="translate(24.000000, 14.000000)">
                            <circle id="Oval-8" fill="#F5A623" cx="18" cy="18" r="18"></circle>
                            <path d="M12.8333333,7 C11.8282377,7 11,7.82823889 11,8.83333333 L11,27.1666667 C11,28.1717611 11.8282377,29 12.8333333,29 L22.6111111,29 C23.6162068,29 24.4444444,28.1717611 24.4444444,27.1666667 L24.4444444,8.83333333 C24.4444444,7.82823889 23.6162068,7 22.6111111,7 L12.8333333,7 Z M12.8333333,8.22222222 L22.6111111,8.22222222 C22.9602367,8.22222222 23.2222222,8.48420861 23.2222222,8.83333333 L23.2222222,24.1111111 L12.2222222,24.1111111 L12.2222222,10.3611111 L21.3888889,10.3611111 C21.6092785,10.3642295 21.8142746,10.2484392 21.9253795,10.058079 C22.0364843,9.86771871 22.0364843,9.63228129 21.9253795,9.44192102 C21.8142746,9.25156076 21.6092785,9.13577047 21.3888889,9.13888889 L12.2222222,9.13888889 L12.2222222,8.83333333 C12.2222222,8.48420861 12.4842077,8.22222222 12.8333333,8.22222222 Z M12.2222222,25.3333333 L23.2222222,25.3333333 L23.2222222,27.1666667 C23.2222222,27.5157944 22.9602367,27.7777778 22.6111111,27.7777778 L12.8333333,27.7777778 C12.4842077,27.7777778 12.2222222,27.5157944 12.2222222,27.1666667 L12.2222222,25.3333333 Z M17.7222222,25.9444444 C18.0597294,25.9444444 18.3333333,26.2180484 18.3333333,26.5555556 C18.3333333,26.8930628 18.0597294,27.1666667 17.7222222,27.1666667 C17.384715,27.1666667 17.1111111,26.8930628 17.1111111,26.5555556 C17.1111111,26.2180484 17.384715,25.9444444 17.7222222,25.9444444 Z M17.6157757,13.1891397 C17.7908422,13.1698547 17.9657226,13.2269935 18.0956302,13.345923 C18.2255378,13.4648524 18.2978552,13.6340216 18.2940622,13.8101062 L18.2940622,16.2557588 L20.7397148,16.2557588 C20.9602123,16.2526404 21.1653081,16.3684883 21.2764669,16.558942 C21.3876257,16.7493957 21.3876257,16.9849483 21.2764669,17.175402 C21.1653081,17.3658557 20.9602123,17.4817035 20.7397148,17.4785851 L18.2940622,17.4785851 L18.2940622,19.9242378 C18.2971806,20.1447353 18.1813327,20.3498311 17.990879,20.4609899 C17.8004253,20.5721487 17.5648727,20.5721487 17.374419,20.4609899 C17.1839653,20.3498311 17.0681175,20.1447353 17.0712359,19.9242378 L17.0712359,17.4785851 L14.6255832,17.4785851 C14.4071193,17.4888694 14.1997676,17.3818079 14.0816537,17.1977389 C13.9635398,17.01367 13.952613,16.7805659 14.0529904,16.5862552 C14.1533677,16.3919444 14.3497952,16.2659557 14.5682633,16.2557588 C14.5873594,16.2548628 14.6064871,16.2548628 14.6255832,16.2557588 L17.0712359,16.2557588 L17.0712359,13.8101062 C17.0644203,13.4932856 17.300778,13.2237549 17.6157757,13.1891397 Z" id="Shape" fill="#FFFFFF" fill-rule="nonzero"></path>
                        </g>
                    </g>
                </g>
            </g>
        </g>
    </g>
</svg>