<?xml version="1.0" encoding="utf-8"?>
<!-- Generator: Adobe Illustrator 17.0.0, SVG Export Plug-In . SVG Version: 6.00 Build 0)  -->
<!DOCTYPE svg PUBLIC "-//W3C//DTD SVG 1.1//EN" "http://www.w3.org/Graphics/SVG/1.1/DTD/svg11.dtd">
<svg version="1.1" id="Layer_1" xmlns="http://www.w3.org/2000/svg" xmlns:xlink="http://www.w3.org/1999/xlink" x="0px" y="0px"
	 width="76px" height="76px" viewBox="-17 -17.5 76 76" enable-background="new -17 -17.5 76 76" xml:space="preserve">
<title>Монтажная область 6</title>
<desc>Created with Sketch.</desc>
<g id="Page-1">
	<g id="лига-призы" transform="translate(-714.000000, -4220.000000)">
		<g id="Монтажная-область-6" transform="translate(714.000000, 4220.000000)">
			<path id="Shape" d="M42,17.425c0-2.264-1.835-4.1-4.098-4.1H24.585V4.1c0-2.264-1.835-4.1-4.098-4.1h-3.073
				c-0.566,0-1.024,0.459-1.024,1.025v7.959L12.685,16.4h-1.416v-2.05c0-0.566-0.459-1.025-1.024-1.025h-9.22
				C0.459,13.325,0,13.784,0,14.35v25.625C0,40.541,0.459,41,1.024,41h9.22c0.566,0,1.024-0.459,1.024-1.025v-2.05h0.782
				l3.882,1.942l0.017,0.008l0.079,0.033l0.028,0.01l0.082,0.024l0.027,0.008l0.086,0.014h0.027
				c0.034,0.004,0.068,0.006,0.102,0.006h18.448c1.592-0.002,3.038-0.925,3.71-2.369c0.672-1.444,0.447-3.146-0.576-4.366
				c1.027-0.618,1.732-1.656,1.929-2.839c0.197-1.183-0.133-2.393-0.904-3.311c1.027-0.618,1.732-1.656,1.929-2.839
				c0.197-1.183-0.133-2.393-0.904-3.311C41.245,20.195,41.999,18.863,42,17.425z M9.22,38.95H2.049V15.375H9.22V38.95z
				 M34.829,37.925H16.632l-3.88-1.941l-0.017-0.008l-0.07-0.031l-0.026-0.009l-0.07-0.023l-0.029-0.008l-0.068-0.014h-0.033
				l-0.067-0.008h-0.035h-0.045h-1.024V18.459h2.049c0.043,0,0.086-0.003,0.128-0.009h0.027c0.037-0.005,0.074-0.013,0.11-0.023
				h0.017c0.083-0.024,0.163-0.059,0.238-0.102l0.023-0.014c0.032-0.021,0.063-0.042,0.093-0.065l0.013-0.01
				c0.031-0.026,0.06-0.054,0.088-0.082l0.028-0.031c0.02-0.023,0.04-0.047,0.059-0.073l0.022-0.028
				c0.022-0.033,0.042-0.069,0.061-0.105l0.009-0.014l4.098-8.2c0.008-0.015,0.014-0.032,0.02-0.047l0.01-0.022l0.027-0.074
				c-0.001-0.006-0.001-0.013,0-0.019c0.008-0.027,0.014-0.055,0.02-0.082c0.001-0.005,0.001-0.009,0-0.014
				c0.007-0.03,0.011-0.06,0.014-0.091c0,0,0-0.006,0-0.009c0-0.032,0-0.064,0-0.096V2.072h2.049c1.132,0,2.049,0.918,2.049,2.05
				v10.25c0,0.566,0.459,1.025,1.024,1.025h14.357c1.132,0,2.049,0.918,2.049,2.05s-0.917,2.05-2.049,2.05h-2.049
				c-0.366,0-0.704,0.195-0.887,0.513s-0.183,0.708,0,1.025c0.183,0.317,0.521,0.513,0.887,0.513h1.024
				c1.132,0,2.049,0.918,2.049,2.05c0,1.132-0.917,2.05-2.049,2.05h-2.049c-0.566,0-1.024,0.459-1.024,1.025
				s0.459,1.025,1.024,1.025h1.024c1.132,0,2.049,0.918,2.049,2.05c0,1.132-0.917,2.05-2.049,2.05h-2.049
				c-0.566,0-1.024,0.459-1.024,1.025s0.459,1.025,1.024,1.025h1.024c1.132,0,2.049,0.918,2.049,2.05s-0.917,2.05-2.049,2.05V37.925
				z"/>
		</g>
	</g>
</g>
</svg>
