<?xml version="1.0" encoding="utf-8"?>
<!-- Generator: Adobe Illustrator 17.0.0, SVG Export Plug-In . SVG Version: 6.00 Build 0)  -->
<!DOCTYPE svg PUBLIC "-//W3C//DTD SVG 1.1//EN" "http://www.w3.org/Graphics/SVG/1.1/DTD/svg11.dtd">
<svg version="1.1" id="Layer_1" xmlns="http://www.w3.org/2000/svg" xmlns:xlink="http://www.w3.org/1999/xlink" x="0px" y="0px"
	 width="76px" height="76px" viewBox="-6 -10.5 76 76" enable-background="new -6 -10.5 76 76" xml:space="preserve">
<title>Монтажная область 7</title>
<desc>Created with Sketch.</desc>
<g id="Page-1">
	<g id="лига-призы" transform="translate(-834.000000, -4215.000000)">
		<g id="Монтажная-область-7" transform="translate(834.000000, 4215.000000)">
			<path id="Shape" d="M60,18.333c-2.209,0-4,1.796-4,4.01v0.573c0,3.797-3.07,6.875-6.857,6.875H37.714v-1.541
				c3.534-2.046,5.712-5.826,5.714-9.917v-8.021c-0.004-2.721-1.913-5.065-4.571-5.613V1.146C38.857,0.513,38.345,0,37.714,0h-6.857
				c-5.678,0.006-10.279,4.62-10.286,10.312v8.021c0.004,4.091,2.181,7.87,5.714,9.917v1.541H14.857
				c-3.785-0.004-6.853-3.08-6.857-6.875v-0.573c0-2.215-1.791-4.01-4-4.01s-4,1.796-4,4.01v0.573
				c0.01,8.222,6.656,14.886,14.857,14.896h5.714v16.042c0,0.633,0.512,1.146,1.143,1.146c0.631,0,1.143-0.513,1.143-1.146V36.667
				c0-0.633-0.512-1.146-1.143-1.146h-6.857C7.918,35.512,2.294,29.874,2.286,22.917v-0.573c0-0.949,0.768-1.719,1.714-1.719
				s1.714,0.77,1.714,1.719v0.573c0.006,5.044,4.072,9.138,9.103,9.167h0.044h7.451l7.686,9.631
				c-1.912,0.936-2.927,3.072-2.448,5.151c0.479,2.079,2.326,3.551,4.454,3.551s3.975-1.472,4.454-3.551
				c0.479-2.079-0.535-4.214-2.448-5.151l7.681-9.631h7.45h0.046c5.029-0.031,9.092-4.124,9.097-9.167v-0.573
				c0-0.949,0.768-1.719,1.714-1.719s1.714,0.77,1.714,1.719v0.573c-0.008,6.958-5.632,12.596-12.571,12.604h-6.857
				c-0.631,0-1.143,0.513-1.143,1.146v17.188c0,0.633,0.512,1.146,1.143,1.146c0.631,0,1.143-0.513,1.143-1.146V37.812h5.714
				C57.344,37.803,63.991,31.139,64,22.917v-0.573C64,20.129,62.209,18.333,60,18.333z M30.857,2.292h5.714v3.437
				c0,0.633,0.512,1.146,1.143,1.146c1.894,0,3.429,1.539,3.429,3.438v1.311l-1.646-1.114c-0.351-0.238-0.805-0.261-1.179-0.06
				c-0.286,0.129-2.364,1.011-5.747,1.011c-2.396-0.026-4.775-0.393-7.069-1.089c-0.01-0.004-0.021-0.007-0.031-0.009h-0.009
				c-0.211-0.063-0.435-0.063-0.646,0h-0.009c-0.032,0.009-0.064,0.02-0.094,0.033l-0.026,0.011c-0.024,0.01-0.05,0.021-0.074,0.034
				l-0.034,0.02c-0.021,0.011-0.041,0.024-0.061,0.037l-0.014,0.009l-1.647,1.114v-1.309C22.863,5.885,26.441,2.297,30.857,2.292z
				 M22.857,18.333v-3.945l2.477-1.676c2.356,0.665,4.79,1.014,7.237,1.037c3.024,0,5.154-0.626,6.154-1.003l2.417,1.636v3.95
				c0,5.063-4.093,9.167-9.143,9.167S22.857,23.396,22.857,18.333z M32,29.792c1.163,0.001,2.319-0.177,3.429-0.527v1.272L32,34.833
				l-3.429-4.297v-1.272C29.681,29.615,30.837,29.793,32,29.792z M26.88,32.083l3.651,4.583l-0.823,1.03l-4.473-5.613H26.88z
				 M32,48.125c-1.262,0-2.286-1.026-2.286-2.292c0-1.266,1.023-2.292,2.286-2.292c1.262,0,2.286,1.026,2.286,2.292
				C34.286,47.099,33.262,48.125,32,48.125z M32,40.56l-0.821-1.028l5.943-7.448h1.643L32,40.56z"/>
		</g>
	</g>
</g>
</svg>
