<?xml version="1.0" encoding="utf-8"?>
<!-- Generator: Adobe Illustrator 17.0.0, SVG Export Plug-In . SVG Version: 6.00 Build 0)  -->
<!DOCTYPE svg PUBLIC "-//W3C//DTD SVG 1.1//EN" "http://www.w3.org/Graphics/SVG/1.1/DTD/svg11.dtd">
<svg version="1.1" id="Layer_1" xmlns="http://www.w3.org/2000/svg" xmlns:xlink="http://www.w3.org/1999/xlink" x="0px" y="0px"
	 width="76px" height="76px" viewBox="-17.5 -13 76 76" enable-background="new -17.5 -13 76 76" xml:space="preserve">
<title>Монтажная область 5</title>
<desc>Created with Sketch.</desc>
<g id="Page-1">
	<g id="лига-призы" transform="translate(-556.000000, -4215.000000)">
		<g id="Монтажная-область-5" transform="translate(556.000000, 4215.000000)">
			<path id="Shape" d="M37.455,41.433c-1.362-0.248-2.757,0.195-3.736,1.184c-0.765-0.762-1.785-1.205-2.858-1.242
				c-0.044-0.007-0.088-0.011-0.132-0.011c-0.392,0-0.782,0.055-1.159,0.163c-0.628-1.659-2.204-2.754-3.961-2.751
				c-0.392,0-0.781,0.057-1.157,0.169c-0.138-0.36-0.323-0.701-0.55-1.012v-7.071c1.022-0.367,1.705-1.343,1.707-2.439h0.854
				c0.471,0,0.852-0.386,0.852-0.862v-0.863h4.266c0.471,0,0.854-0.386,0.854-0.863v-2.589c-0.004-3.001-2.183-5.545-5.12-5.978
				v-5.592c0.002-0.476-0.048-0.951-0.147-1.416c-0.02-0.141-0.065-0.277-0.132-0.401l-5.822-9.454
				C21.057,0.156,20.787,0.003,20.495,0c-0.297,0-0.573,0.156-0.73,0.411l-5.822,9.453c-0.069,0.124-0.113,0.26-0.132,0.401
				c-0.097,0.464-0.144,0.937-0.14,1.412v5.587c-2.936,0.433-5.115,2.977-5.12,5.978v2.593c0,0.477,0.382,0.863,0.854,0.863h4.266
				v0.863c0,0.476,0.382,0.862,0.852,0.862h0.854c0.001,1.097,0.685,2.074,1.707,2.441v7.069c-0.226,0.31-0.411,0.649-0.549,1.008
				c-0.276-0.08-0.559-0.131-0.846-0.151h-0.036c-0.091,0-0.183-0.009-0.277-0.009c-1.758-0.001-3.334,1.095-3.963,2.755
				C9.939,41.12,8.359,41.534,7.27,42.62c-0.979-0.99-2.375-1.432-3.737-1.184c-2.184,0.385-3.712,2.398-3.516,4.631
				S2.067,50.009,4.283,50h32.42c2.222,0.017,4.084-1.695,4.28-3.933c0.196-2.238-1.341-4.253-3.531-4.631L37.455,41.433z
				 M23.907,28.424c-0.001,0.476-0.383,0.862-0.854,0.862h-5.118c-0.429,0-0.791-0.322-0.846-0.752c0.002-0.037,0.002-0.073,0-0.11
				h6.811H23.907z M30.734,23.246v1.725H27.32v-5.952C29.305,19.431,30.731,21.197,30.734,23.246z M13.664,24.971h-3.407v-1.725
				c0.002-2.049,1.428-3.815,3.413-4.227L13.664,24.971z M15.37,26.697V11.677c0-0.554,0.153-1.096,0.443-1.566l4.682-7.595
				l4.674,7.597c0.29,0.469,0.445,1.011,0.446,1.564v15.021H15.37z M36.701,48.268H4.281c-1.255,0.01-2.332-0.902-2.544-2.153
				s0.505-2.473,1.692-2.885s2.495,0.106,3.088,1.224c0.3,0.557,1.199,0.557,1.499,0c0.333-0.614,0.897-1.065,1.564-1.251
				c0.667-0.186,1.38-0.091,1.977,0.264c0.25,0.151,0.559,0.164,0.82,0.032c0.261-0.131,0.437-0.388,0.468-0.681
				c0.13-1.313,1.222-2.314,2.527-2.316c0.054,0,0.107,0,0.16,0h0.025c0.396,0.032,0.78,0.158,1.119,0.367
				c0.033,0.02,0.067,0.038,0.102,0.054c0.946,0.628,1.371,1.809,1.047,2.905s-1.322,1.846-2.453,1.844
				c-0.471,0-0.854,0.386-0.854,0.863s0.382,0.863,0.854,0.863c1.806,0.002,3.417-1.148,4.022-2.868
				c0.604-1.721,0.071-3.64-1.331-4.791c0.103-0.348,0.278-0.67,0.513-0.945c0.091-0.107,0.155-0.234,0.187-0.372
				c0.001-0.004,0.001-0.007,0-0.011c0.005-0.02,0.008-0.04,0.011-0.06v-0.024v-0.051c0-0.012,0-0.024,0-0.036v-7.227h0.854V33.6
				c0,0.477,0.382,0.863,0.854,0.863c0.471,0,0.854-0.386,0.854-0.863v-2.588h0.854v7.237c0,0.013,0,0.027,0,0.04s0,0.029,0,0.044
				c0,0.015,0,0.028,0.007,0.043c0.007,0.015,0,0.027,0.007,0.04c0.007,0.013,0.008,0.029,0.012,0.045
				c0.002,0.012,0.005,0.023,0.009,0.035c0,0.016,0.011,0.032,0.017,0.048l0.011,0.031l0.024,0.048
				c0.004,0.009,0.008,0.018,0.013,0.027c0.008,0.016,0.017,0.031,0.026,0.045c0.006,0.008,0.012,0.017,0.017,0.027l0.03,0.04
				l0.021,0.028l0.008,0.011c0.346,0.401,0.56,0.9,0.613,1.429c0.031,0.293,0.208,0.549,0.468,0.68
				c0.26,0.131,0.569,0.12,0.819-0.031c0.392-0.245,0.844-0.375,1.305-0.377c1.121,0.001,2.109,0.745,2.431,1.831
				c-0.998,0.818-1.577,2.047-1.577,3.345c-0.012,0.316,0.147,0.614,0.416,0.776c0.269,0.162,0.604,0.162,0.873,0
				c0.269-0.162,0.429-0.459,0.416-0.776c0.001-0.87,0.434-1.681,1.151-2.16c0.036-0.015,0.071-0.033,0.105-0.054
				c0.597-0.354,1.31-0.449,1.977-0.263c0.667,0.186,1.231,0.637,1.564,1.25c0.3,0.557,1.199,0.557,1.499,0
				c0.596-1.108,1.897-1.618,3.076-1.206c1.179,0.412,1.891,1.626,1.682,2.87C39,47.36,37.934,48.27,36.686,48.267L36.701,48.268z
				 M23.406,13.55c0,1.626-1.303,2.944-2.911,2.944c-1.608,0-2.911-1.318-2.911-2.944s1.303-2.944,2.911-2.944
				C22.102,10.606,23.406,11.924,23.406,13.55z"/>
		</g>
	</g>
</g>
</svg>
