<?xml version="1.0" encoding="utf-8"?>
<!-- Generator: Adobe Illustrator 17.0.0, SVG Export Plug-In . SVG Version: 6.00 Build 0)  -->
<!DOCTYPE svg PUBLIC "-//W3C//DTD SVG 1.1//EN" "http://www.w3.org/Graphics/SVG/1.1/DTD/svg11.dtd">
<svg version="1.1" id="Layer_1" xmlns="http://www.w3.org/2000/svg" xmlns:xlink="http://www.w3.org/1999/xlink" x="0px" y="0px"
	 width="76px" height="76px" viewBox="-13 -14.5 76 76" enable-background="new -13 -14.5 76 76" xml:space="preserve">
<title>Монтажная область 3</title>
<desc>Created with Sketch.</desc>
<g id="Page-1">
	<g id="лига-призы" transform="translate(-1317.000000, -4216.000000)">
		<g id="Монтажная-область-3" transform="translate(1317.000000, 4216.000000)">
			<path id="Shape" d="M32,29.175c0-1.712-1.398-3.1-3.122-3.1H18.732V19.1c0-1.712-1.398-3.1-3.122-3.1h-2.341
				c-0.431,0-0.78,0.347-0.78,0.775v6.018L9.664,28.4H8.585v-1.55c0-0.428-0.349-0.775-0.78-0.775H0.78
				C0.349,26.075,0,26.422,0,26.85v19.375C0,46.653,0.349,47,0.78,47h7.024c0.431,0,0.78-0.347,0.78-0.775v-1.55h0.596l2.958,1.469
				l0.013,0.006l0.06,0.025l0.021,0.008l0.062,0.018l0.02,0.006l0.065,0.011h0.02c0.026,0.003,0.052,0.005,0.078,0.005h14.056
				c1.213-0.001,2.315-0.7,2.827-1.791c0.512-1.092,0.341-2.379-0.439-3.301c0.782-0.468,1.319-1.252,1.47-2.146
				s-0.102-1.809-0.689-2.504c0.782-0.468,1.319-1.252,1.47-2.146s-0.102-1.809-0.689-2.504C31.424,31.269,31.999,30.262,32,29.175z
				 M7.024,45.45H1.561V27.625h5.463V45.45z M26.537,44.675H12.672l-2.956-1.468l-0.013-0.006L9.65,43.178l-0.02-0.007l-0.054-0.017
				l-0.022-0.006l-0.052-0.011H9.477l-0.051-0.006H9.4H9.366h-0.78V29.957h1.561c0.033,0,0.065-0.003,0.098-0.007h0.02
				c0.028-0.004,0.056-0.01,0.084-0.017h0.013c0.064-0.018,0.124-0.044,0.181-0.077l0.018-0.011
				c0.024-0.015,0.048-0.032,0.071-0.049l0.01-0.008c0.023-0.019,0.046-0.041,0.067-0.062l0.021-0.023
				c0.016-0.017,0.03-0.036,0.045-0.055l0.017-0.021c0.017-0.025,0.032-0.052,0.047-0.079l0.007-0.011l3.122-6.2
				c0.006-0.012,0.011-0.024,0.016-0.036l0.008-0.016l0.02-0.056c0-0.005,0-0.01,0-0.015c0.006-0.02,0.011-0.042,0.016-0.062
				c0-0.004,0-0.007,0-0.011c0.005-0.023,0.009-0.046,0.011-0.069c0,0,0-0.005,0-0.007c0-0.024,0-0.048,0-0.073v-5.425h1.561
				c0.862,0,1.561,0.694,1.561,1.55v7.75c0,0.428,0.349,0.775,0.78,0.775h10.939c0.862,0,1.561,0.694,1.561,1.55
				s-0.699,1.55-1.561,1.55h-1.561c-0.431,0-0.78,0.347-0.78,0.775s0.349,0.775,0.78,0.775h0.78c0.862,0,1.561,0.694,1.561,1.55
				s-0.699,1.55-1.561,1.55h-1.561c-0.431,0-0.78,0.347-0.78,0.775s0.349,0.775,0.78,0.775h0.78c0.862,0,1.561,0.694,1.561,1.55
				c0,0.856-0.699,1.55-1.561,1.55h-1.561c-0.431,0-0.78,0.347-0.78,0.775s0.349,0.775,0.78,0.775h0.78
				c0.862,0,1.561,0.694,1.561,1.55s-0.699,1.55-1.561,1.55V44.675z"/>
			<path id="Shape_1_" d="M28.968,20.772c0.3,0.303,0.785,0.303,1.084,0l8.987-9.1c2.619-2.67,2.614-6.983-0.01-9.648
				c-2.624-2.664-6.88-2.676-9.519-0.027c-2.636-2.667-6.907-2.663-9.538,0.009s-2.628,7,0.009,9.667L28.968,20.772z M21.066,3.11
				c2.037-2.061,5.336-2.061,7.373,0l0.528,0.533c0.3,0.303,0.785,0.303,1.084,0l0.529-0.535c1.316-1.335,3.234-1.857,5.032-1.37
				c1.798,0.487,3.204,1.91,3.687,3.732s-0.03,3.767-1.346,5.102l-8.444,8.551l-8.444-8.551c-0.978-0.989-1.527-2.331-1.527-3.731
				S20.088,4.098,21.066,3.11L21.066,3.11z"/>
			<path id="Shape_2_" d="M42,19c-4.418,0-8,3.358-8,7.5s3.582,7.5,8,7.5s8-3.358,8-7.5C49.996,22.36,46.416,19.004,42,19z M42,32.5
				c-3.535,0-6.4-2.686-6.4-6s2.865-6,6.4-6s6.4,2.686,6.4,6C48.396,29.812,45.533,32.496,42,32.5L42,32.5z"/>
			<path id="Shape_3_" d="M45.2,26.2h-2.4v-2.4c0-0.442-0.358-0.8-0.8-0.8s-0.8,0.358-0.8,0.8v2.4h-2.4c-0.442,0-0.8,0.358-0.8,0.8
				s0.358,0.8,0.8,0.8h2.4v2.4c0,0.442,0.358,0.8,0.8,0.8s0.8-0.358,0.8-0.8v-2.4h2.4c0.442,0,0.8-0.358,0.8-0.8
				S45.642,26.2,45.2,26.2z"/>
		</g>
	</g>
</g>
</svg>
