<?xml version="1.0" encoding="utf-8"?>
<!-- Generator: Adobe Illustrator 17.0.0, SVG Export Plug-In . SVG Version: 6.00 Build 0)  -->
<!DOCTYPE svg PUBLIC "-//W3C//DTD SVG 1.1//EN" "http://www.w3.org/Graphics/SVG/1.1/DTD/svg11.dtd">
<svg version="1.1" id="Layer_1" xmlns="http://www.w3.org/2000/svg" xmlns:xlink="http://www.w3.org/1999/xlink" x="0px" y="0px"
	 width="76px" height="76px" viewBox="-7.5 -9.5 76 76" enable-background="new -7.5 -9.5 76 76" xml:space="preserve">
<title>Монтажная область 8</title>
<desc>Created with Sketch.</desc>
<g id="Page-1">
	<g id="лига-призы" transform="translate(-413.000000, -4212.000000)">
		<g id="Монтажная-область-8" transform="translate(413.000000, 4212.000000)">
			<path id="Shape" d="M30.006,35h-0.011c-0.551,0.003-0.996,0.452-0.994,1.003S29.449,37,30,37s0.998-0.446,1-0.997
				S30.557,35.003,30.006,35z"/>
			<path id="Shape_1_" d="M30.006,41h-0.011c-0.551,0.003-0.996,0.452-0.994,1.003S29.449,43,30,43s0.998-0.446,1-0.997
				S30.557,41.003,30.006,41z"/>
			<path id="Shape_2_" d="M30.006,46h-0.011c-0.551,0.003-0.996,0.452-0.994,1.003S29.449,48,30,48s0.998-0.446,1-0.997
				S30.557,46.003,30.006,46z"/>
			<path id="Shape_3_" d="M30.006,52h-0.011c-0.551,0.003-0.996,0.452-0.994,1.003S29.449,54,30,54s0.998-0.446,1-0.997
				S30.557,52.003,30.006,52z"/>
			<path id="Shape_4_" d="M57.188,17.208c-2.106,0-3.812,1.685-3.812,3.764v0.538c0,3.564-2.926,6.453-6.536,6.453H35.946v-1.447
				c3.368-1.92,5.444-5.468,5.446-9.308V9.679c-0.004-2.554-1.823-4.754-4.357-5.268V1.075C37.036,0.482,36.548,0,35.946,0h-6.536
				c-5.412,0.005-9.798,4.336-9.804,9.679v7.528c0.002,3.84,2.078,7.388,5.446,9.308v1.447H14.161c-3.61,0-6.536-2.889-6.536-6.453
				v-0.538c0-2.079-1.707-3.764-3.812-3.764S0,18.893,0,20.972v0.538c0.009,7.718,6.344,13.972,14.161,13.981h0.502
				c-0.333,1.044-0.503,2.132-0.502,3.226v2.151c-0.005,4.156-3.416,7.523-7.625,7.528H5.991c-2.106,0-3.812,1.685-3.812,3.764
				s1.707,3.764,3.812,3.764h0.545c5.354-0.001,10.316-2.775,13.071-7.308v7.308c0,0.594,0.488,1.075,1.089,1.075
				c0.602,0,1.089-0.482,1.089-1.075V40.868c0-0.594-0.488-1.075-1.089-1.075c-0.602,0-1.089,0.482-1.089,1.075
				C19.6,47.992,13.752,53.766,6.536,53.774H5.991c-0.902,0-1.634-0.722-1.634-1.613s0.732-1.613,1.634-1.613h0.545
				c5.412-0.006,9.798-4.336,9.804-9.679v-2.151c0.005-4.75,3.904-8.599,8.714-8.604H25.7l1.829,1.807l0.025,0.024
				c0.019,0.019,0.039,0.035,0.059,0.052l0.046,0.036c0.028,0.022,0.057,0.042,0.087,0.06l0.034,0.02
				c0.031,0.018,0.063,0.034,0.095,0.048l0.023,0.011c0.042,0.018,0.085,0.033,0.129,0.046h0.015
				c0.038,0.011,0.078,0.019,0.117,0.024c0.01,0.001,0.021,0.001,0.031,0c0.045,0.006,0.091,0.009,0.136,0.009h0.007
				c0.035,0,0.072,0,0.108,0h0.039c0.026-0.003,0.051-0.007,0.076-0.012l0.041-0.011c0.026-0.007,0.052-0.013,0.079-0.023
				l0.03-0.011c0.047-0.016,0.092-0.036,0.136-0.059l1.663-0.82l1.694,0.835c0.009,0.005,0.018,0.009,0.027,0.012l0.072,0.031
				l0.045,0.015c0.022,0.008,0.045,0.013,0.068,0.02l0.045,0.011l0.074,0.012h0.041c0.035,0,0.072,0,0.108,0h0.007
				c0.046,0,0.091-0.003,0.136-0.009c0.01,0.001,0.021,0.001,0.031,0c0.039-0.006,0.078-0.013,0.116-0.023
				c0.005-0.001,0.011-0.001,0.016,0c0.044-0.012,0.086-0.028,0.128-0.046l0.026-0.011c0.031-0.015,0.063-0.03,0.093-0.047
				l0.037-0.022c0.027-0.017,0.053-0.036,0.079-0.055c0.022-0.016,0.044-0.034,0.064-0.052l0.048-0.042l0.018-0.019l0.012-0.011
				l1.818-1.803h0.64c4.811,0.005,8.709,3.854,8.714,8.604v2.151c0.006,5.343,4.392,9.673,9.804,9.679h0.545
				c0.902,0,1.634,0.722,1.634,1.613s-0.732,1.613-1.634,1.613h-0.545c-7.216-0.007-13.064-5.781-13.071-12.906
				c0-0.594-0.488-1.075-1.089-1.075c-0.602,0-1.089,0.482-1.089,1.075v15.057c0,0.594,0.488,1.075,1.089,1.075
				c0.602,0,1.089-0.482,1.089-1.075v-7.308c2.756,4.533,7.717,7.306,13.071,7.308h0.545c2.106,0,3.812-1.685,3.812-3.764
				s-1.707-3.764-3.812-3.764h-0.545c-4.209-0.005-7.62-3.373-7.625-7.528v-2.151c0-1.094-0.169-2.183-0.502-3.226h0.502
				C54.656,35.482,60.991,29.227,61,21.509v-0.538C61,18.893,59.293,17.208,57.188,17.208z M29.411,2.151h5.446v3.226
				c0,0.594,0.488,1.075,1.089,1.075c1.805,0,3.268,1.445,3.268,3.226v1.23l-1.57-1.046c-0.259-0.171-0.579-0.225-0.881-0.148
				c-0.031,0.008-0.064,0.017-0.095,0.028h-0.01c-0.031,0.011-0.061,0.023-0.09,0.038h-0.01c-0.02,0.009-2.042,0.964-5.51,0.964
				c-2.283-0.025-4.551-0.369-6.737-1.02l-0.029-0.008h-0.012c-0.235-0.068-0.486-0.055-0.712,0.036L23.542,9.76l-0.079,0.038
				l-0.027,0.015c-0.022,0.012-0.044,0.024-0.064,0.038L23.36,9.858l-1.57,1.046V9.679C21.795,5.525,25.203,2.158,29.411,2.151z
				 M21.786,17.208v-3.701l2.361-1.573c2.246,0.623,4.565,0.95,6.898,0.972c2.883,0,4.913-0.586,5.866-0.941l2.304,1.535v3.708
				c0,4.752-3.902,8.604-8.714,8.604S21.786,21.959,21.786,17.208z M30.5,27.962c1.108,0.001,2.211-0.166,3.268-0.495v1.125
				l-1.304,1.288l-1.475-0.729l-0.029-0.011l-0.045-0.02l-0.052-0.02l-0.053-0.016l-0.046-0.013L30.7,29.058h-0.035l-0.08-0.009
				h-0.019c-0.191-0.012-0.382,0.026-0.554,0.11l-1.476,0.729l-1.303-1.288v-1.125C28.29,27.801,29.392,27.965,30.5,27.962z
				 M15.624,33.34h-1.464c-6.614-0.007-11.975-5.3-11.982-11.83v-0.538c0-0.891,0.732-1.613,1.634-1.613s1.634,0.722,1.634,1.613
				v0.538c0.005,4.725,3.865,8.564,8.65,8.604h0.064h4.364C17.349,30.986,16.362,32.083,15.624,33.34z M46.837,33.34h-1.464
				c-0.737-1.256-1.722-2.354-2.897-3.226h4.364h0.064c4.786-0.04,8.645-3.879,8.65-8.604v-0.538c0-0.891,0.732-1.613,1.634-1.613
				s1.634,0.722,1.634,1.613v0.538c-0.008,6.531-5.368,11.823-11.982,11.83H46.837z"/>
		</g>
	</g>
</g>
</svg>
