<?xml version="1.0" encoding="utf-8"?>
<!-- Generator: Adobe Illustrator 17.0.0, SVG Export Plug-In . SVG Version: 6.00 Build 0)  -->
<!DOCTYPE svg PUBLIC "-//W3C//DTD SVG 1.1//EN" "http://www.w3.org/Graphics/SVG/1.1/DTD/svg11.dtd">
<svg version="1.1" id="Layer_1" xmlns="http://www.w3.org/2000/svg" xmlns:xlink="http://www.w3.org/1999/xlink" x="0px" y="0px"
	 width="76px" height="76px" viewBox="-15 -13.5 76 76" enable-background="new -15 -13.5 76 76" xml:space="preserve">
<title>Монтажная область 1</title>
<desc>Created with Sketch.</desc>
<g id="Page-1">
	<g id="лига-призы" transform="translate(-1028.000000, -4219.000000)">
		<g id="Монтажная-область-1" transform="translate(1028.000000, 4219.000000)">
			<path id="Shape" d="M42.759,21.222c-0.095-0.963-0.533-1.857-1.234-2.513C41.381,8.369,33.127,0,23.002,0
				S4.625,8.369,4.479,18.713c-0.7,0.655-1.139,1.548-1.234,2.509C1.342,21.692,0.003,23.42,0,25.406v4.436
				c0.001,1.988,1.341,3.717,3.244,4.187c0.209,1.847,1.54,3.276,3.146,3.276h1.624c1.755,0,3.175-1.697,3.175-3.784V21.732
				c0-1.167-0.446-2.21-1.144-2.906c0.087-7.26,5.865-13.139,12.957-13.139s12.871,5.878,12.956,13.138
				c-0.698,0.693-1.144,1.739-1.144,2.906v11.79c0,1.999,1.309,3.64,2.958,3.774v3.32c-0.003,2.267-1.813,4.104-4.047,4.106h-3.33
				c-0.441-1.309-1.653-2.189-3.016-2.191h-2.22c-1.76,0-3.188,1.448-3.188,3.235S23.399,49,25.16,49h2.22
				c1.363-0.002,2.575-0.882,3.016-2.191h3.33c3.37-0.004,6.1-2.775,6.104-6.194v-3.32c1.508-0.122,2.73-1.504,2.925-3.265
				c1.902-0.469,3.241-2.196,3.244-4.182v-4.439C46,23.422,44.661,21.693,42.759,21.222z M3.215,31.796
				c-0.711-0.384-1.156-1.134-1.156-1.951v-4.436c0.001-0.817,0.445-1.568,1.156-1.952V31.796z M27.38,46.909h-2.22
				c-0.611-0.018-1.097-0.526-1.097-1.146s0.486-1.128,1.097-1.146h2.22c0.611,0.018,1.097,0.526,1.097,1.146
				S27.991,46.891,27.38,46.909z M9.13,33.522c0,0.903-0.522,1.696-1.117,1.696H6.39c-0.595,0-1.117-0.792-1.117-1.696V21.732
				c0-0.906,0.523-1.698,1.117-1.698h1.624c0.595,0,1.117,0.792,1.117,1.696V33.522z M23.002,3.6
				c-7.938,0-14.455,6.346-14.981,14.347H6.569c0.528-8.836,7.697-15.86,16.437-15.86s15.908,7.025,16.436,15.86h-1.458
				C37.458,9.942,30.939,3.6,23.002,3.6z M40.73,33.522c0,0.903-0.522,1.696-1.117,1.696h-1.624c-0.595,0-1.117-0.792-1.117-1.696
				V21.732c0-0.903,0.522-1.696,1.117-1.696h1.624c0.596,0,1.117,0.792,1.117,1.696V33.522z M43.948,29.845
				c-0.001,0.817-0.445,1.567-1.156,1.951v-8.338c0.711,0.384,1.155,1.134,1.156,1.951V29.845z"/>
		</g>
	</g>
</g>
</svg>
