<?xml version="1.0" encoding="utf-8"?>
<!-- Generator: Adobe Illustrator 17.0.0, SVG Export Plug-In . SVG Version: 6.00 Build 0)  -->
<!DOCTYPE svg PUBLIC "-//W3C//DTD SVG 1.1//EN" "http://www.w3.org/Graphics/SVG/1.1/DTD/svg11.dtd">
<svg version="1.1" id="Layer_1" xmlns="http://www.w3.org/2000/svg" xmlns:xlink="http://www.w3.org/1999/xlink" x="0px" y="0px"
	 width="76px" height="76px" viewBox="-9 -18.5 76 76" enable-background="new -9 -18.5 76 76" xml:space="preserve">
<title>Монтажная область 2</title>
<desc>Created with Sketch.</desc>
<g id="Page-1">
	<g id="лига-призы" transform="translate(-1157.000000, -4224.000000)">
		<g id="Монтажная-область-2" transform="translate(1157.000000, 4224.000000)">
			<path id="Shape" d="M35.462,28.262h-1.846v-2.099c2.854-1.597,4.613-4.548,4.615-7.742v-5.368
				c-0.003-2.125-1.545-3.956-3.692-4.384V5.895C34.538,5.401,34.125,5,33.615,5h-5.538c-4.586,0.005-8.303,3.607-8.308,8.053v5.414
				c0,0,0,0.009,0,0.015c0.024,3.173,1.78,6.097,4.615,7.684v2.098h-1.846c-3.059,0-5.538,2.404-5.538,5.368v3.579
				C17,38.199,17.827,39,18.846,39h20.308C40.173,39,41,38.199,41,37.211v-3.579c0-1.424-0.583-2.79-1.622-3.797
				C38.34,28.828,36.931,28.262,35.462,28.262z M21.615,13.052c0.004-3.457,2.895-6.259,6.462-6.263h4.615v2.684
				c0,0.494,0.413,0.895,0.923,0.895c1.529,0,2.769,1.202,2.769,2.684v1.022l-1.33-0.87c-0.014-0.009-0.029-0.015-0.043-0.022
				l-0.044-0.022c-0.039-0.021-0.079-0.039-0.121-0.054l-0.036-0.01c-0.045-0.014-0.091-0.024-0.137-0.031
				c-0.012-0.001-0.024-0.001-0.036,0c-0.046-0.005-0.092-0.007-0.138-0.006c-0.015-0.001-0.031-0.001-0.046,0
				c-0.043,0.003-0.086,0.009-0.128,0.019c-0.018,0-0.036,0.01-0.054,0.015c-0.039,0.012-0.078,0.025-0.115,0.041l-0.023,0.008
				c-0.017,0.009-1.737,0.803-4.67,0.803c-1.935-0.021-3.858-0.307-5.71-0.849c-0.021-0.006-0.041-0.01-0.062-0.013
				c-0.027-0.007-0.053-0.013-0.081-0.018c-0.035-0.005-0.07-0.008-0.105-0.009h-0.07c-0.037,0.002-0.073,0.005-0.11,0.011
				c-0.022,0.003-0.045,0.006-0.067,0.011c-0.036,0.008-0.07,0.019-0.105,0.03c-0.023,0.007-0.045,0.016-0.067,0.026
				c-0.033,0.015-0.065,0.031-0.096,0.049c-0.014,0.008-0.03,0.013-0.044,0.022l-1.33,0.871V13.052z M21.615,18.42v-2.185
				l2.001-1.309c1.903,0.519,3.869,0.792,5.845,0.81c2.442,0,4.162-0.489,4.971-0.783l1.952,1.277v2.188
				c0,3.953-3.306,7.158-7.385,7.158s-7.385-3.205-7.385-7.158V18.42z M31.769,26.953v1.831l-1.105,1.071l-1.25-0.606
				c-0.02-0.009-0.039-0.013-0.058-0.02c-0.031-0.014-0.062-0.025-0.095-0.035c-0.024-0.007-0.05-0.012-0.075-0.017
				c-0.034-0.007-0.069-0.013-0.104-0.017h-0.067c-0.038-0.002-0.077-0.002-0.115,0l-0.055,0.008
				c-0.041,0.007-0.082,0.016-0.122,0.028c-0.016,0-0.031,0.011-0.046,0.017c-0.015,0.006-0.061,0.019-0.091,0.034l-1.251,0.606
				l-1.104-1.071v-1.826c1.803,0.549,3.736,0.549,5.538,0V26.953z M39.154,37.207H18.846v-3.579c0-1.977,1.653-3.579,3.692-3.579
				h2.387l1.575,1.527l0.014,0.011c0.036,0.033,0.074,0.064,0.115,0.091l0.028,0.018c0.045,0.028,0.093,0.053,0.142,0.073
				l0.033,0.011c0.038,0.014,0.076,0.026,0.115,0.035l0.046,0.01c0.051,0.008,0.102,0.013,0.153,0.013
				c0.053-0.001,0.107-0.006,0.159-0.016h0.027c0.05-0.01,0.099-0.024,0.147-0.042l0.035-0.015l0.044-0.018l1.433-0.695l1.435,0.696
				c0.016,0.008,0.033,0.013,0.051,0.02l0.024,0.01c0.049,0.019,0.1,0.033,0.151,0.044h0.025c0.053,0.01,0.106,0.015,0.159,0.016
				c0.051-0.001,0.103-0.005,0.153-0.013l0.046-0.01c0.041-0.009,0.082-0.021,0.121-0.035l0.032-0.011
				c0.05-0.02,0.097-0.045,0.143-0.073l0.024-0.017c0.041-0.028,0.08-0.059,0.115-0.094l0.012-0.009l0.017-0.018l0.007-0.007
				l1.551-1.502h2.387c2.039,0,3.692,1.602,3.692,3.579L39.154,37.207z"/>
			<path id="Shape_1_" d="M55.812,15.028c0.257,0.701,0.389,1.443,0.388,2.191c0,0.324,0.172,0.623,0.45,0.785
				c0.278,0.162,0.622,0.162,0.9,0S58,17.543,58,17.219V8.156C57.995,3.654,54.371,0.005,49.9,0c-1.604,0-3.263,0.632-4.83,1.829
				c-1.852,0.171-3.269,1.735-3.27,3.608v7.25c0.004,2.586,1.376,4.974,3.6,6.267v1.89h-1.748c-0.017,0-0.034,0-0.052,0
				c-1.988,0-3.6,1.623-3.6,3.625v3.625C40,28.594,40.403,29,40.9,29h16.2c0.497,0,0.9-0.406,0.9-0.906v-3.625
				c0-2.002-1.612-3.625-3.6-3.625c-0.018,0-0.035,0-0.053,0H52.6v-1.885C54.105,18.08,55.246,16.684,55.812,15.028z M46.3,3.166
				c0.906-0.668,2.181-1.359,3.6-1.359c3.478,0.004,6.296,2.842,6.3,6.344v3.943c-0.068-0.084-0.137-0.167-0.208-0.248
				c-0.021-0.026-0.042-0.052-0.065-0.076c-1.533-1.729-3.725-2.718-6.027-2.719h-1.8c-0.994,0-1.8-0.811-1.8-1.813V3.166z
				 M43.6,5.432c0.001-0.647,0.344-1.244,0.9-1.568v3.38c-0.001,0.646-0.344,1.243-0.9,1.567V5.432z M54.4,22.651
				c0.011,0,0.022,0,0.035,0c0.98,0.019,1.765,0.825,1.765,1.812v2.719H41.8v-2.719c0-0.987,0.785-1.793,1.765-1.812
				c0.011,0,0.022,0,0.035,0h2.435l2.45,1.654h0.007L48.5,24.31c0.004,0.003,0.008,0.005,0.012,0.007
				c0.031,0.02,0.063,0.038,0.096,0.054l0.028,0.012c0.028,0.013,0.057,0.024,0.087,0.033l0.036,0.011
				c0.028,0.008,0.055,0.014,0.083,0.019l0.038,0.007c0.037,0.005,0.075,0.008,0.113,0.008h0.018c0.038,0,0.075-0.003,0.112-0.008
				l0.038-0.007c0.028-0.006,0.055-0.011,0.082-0.019l0.037-0.011c0.029-0.009,0.058-0.02,0.087-0.033l0.027-0.012
				c0.033-0.016,0.066-0.034,0.097-0.054l0.012-0.007l0.009-0.006h0.006l2.45-1.645L54.4,22.651z M47.2,21.254v-1.55
				c1.181,0.305,2.419,0.305,3.6,0v1.56L49,22.473L47.2,21.254z M49,18.11c-2.982,0-5.4-2.434-5.4-5.438v-1.918
				c0.698-0.182,1.325-0.571,1.8-1.116c0.681,0.785,1.665,1.235,2.7,1.236h1.8c1.694-0.001,3.317,0.687,4.5,1.908
				c-0.054,2.964-2.456,5.338-5.4,5.338V18.11z"/>
			<path id="Shape_2_" d="M18,28.097v-3.614c0-1.996-1.612-3.614-3.6-3.614c-0.018,0-0.035,0-0.052,0H12.6v-1.883
				c2.224-1.289,3.596-3.67,3.6-6.248V8.673c0.001-1.92-0.716-3.77-2.01-5.184c-0.012-0.015-0.027-0.028-0.04-0.042
				c-2.141-2.309-5.471-3.068-8.396-1.915S0.903,5.517,0.9,8.671v0.452c0,0.008,0,0.015,0,0.023c0,0.028,0.006,0.055,0.009,0.082
				c0.003,0.033,0.007,0.065,0.014,0.097c0,0.024,0.013,0.045,0.021,0.069c0.009,0.034,0.021,0.067,0.035,0.099
				c0.008,0.018,0.019,0.035,0.028,0.052C1.024,9.58,1.044,9.613,1.065,9.645c0.01,0.015,0.023,0.027,0.034,0.042
				C1.124,9.718,1.15,9.748,1.178,9.776c0.013,0.012,0.027,0.023,0.04,0.034C1.249,9.836,1.281,9.86,1.314,9.883
				C1.329,9.892,1.345,9.899,1.36,9.908c0.036,0.021,0.074,0.039,0.113,0.054c0.016,0.007,0.034,0.01,0.049,0.016
				c0.04,0.014,0.082,0.025,0.124,0.033h0.013l0.14,0.021v2.705c0.004,2.578,1.376,4.959,3.6,6.248v1.884H3.653
				c-0.018,0-0.035,0-0.053,0c-1.988,0-3.6,1.618-3.6,3.614v3.614C0,28.595,0.403,29,0.9,29h16.2C17.597,29,18,28.595,18,28.097z
				 M13.653,5.805c0.303,0.541,0.518,1.127,0.638,1.736c-0.352-0.279-0.752-0.493-1.179-0.63L13.653,5.805z M8.549,2.799
				c1.419-0.001,2.79,0.518,3.855,1.46L11.07,6.988c-0.357,0.105-0.726,0.245-1.125,0.402c-1.498,0.595-3.514,1.398-7.24,0.945
				C2.886,5.227,5.448,2.8,8.549,2.799z M3.599,12.737v-2.505c3.5,0.234,5.571-0.59,7.013-1.162c1.696-0.678,2.198-0.874,3.787,1.15
				v2.514c0,2.994-2.418,5.421-5.4,5.421s-5.4-2.427-5.4-5.421V12.737z M10.799,19.732v1.665l-0.178,0.178l-1.218-0.612
				c-0.018-0.008-0.037-0.015-0.056-0.02c-0.03-0.014-0.06-0.026-0.091-0.035C9.231,20.9,9.205,20.896,9.18,20.89
				c-0.025-0.006-0.065-0.012-0.098-0.016c-0.033-0.003-0.046,0-0.07,0c-0.037-0.002-0.075-0.002-0.113,0
				c-0.019,0.002-0.038,0.005-0.056,0.009c-0.038,0.006-0.076,0.015-0.113,0.027c-0.016,0-0.03,0.011-0.046,0.017
				c-0.03,0.01-0.059,0.021-0.088,0.034l-1.22,0.612L7.2,21.395v-1.666c1.181,0.304,2.419,0.304,3.6,0L10.799,19.732z
				 M16.199,27.196h-14.4v-2.71c0-0.984,0.785-1.788,1.765-1.807c0.012,0,0.024,0,0.035,0h2.335l0.631,0.634l0.015,0.012
				c0.035,0.033,0.073,0.062,0.113,0.089l0.028,0.02c0.044,0.028,0.09,0.052,0.137,0.072l0.033,0.011
				c0.037,0.014,0.074,0.026,0.113,0.035l0.045,0.009c0.049,0.009,0.099,0.014,0.15,0.015c0.052,0,0.103-0.005,0.154-0.015H7.38
				c0.048-0.01,0.095-0.024,0.141-0.042l0.036-0.016l0.043-0.018l1.396-0.701l1.4,0.702c0.016,0.008,0.033,0.014,0.048,0.02
				l0.026,0.011c0.047,0.018,0.096,0.032,0.145,0.043h0.027c0.051,0.009,0.102,0.014,0.154,0.015c0.05,0,0.1-0.005,0.15-0.015
				l0.045-0.009c0.038-0.009,0.076-0.021,0.113-0.035l0.031-0.011c0.048-0.021,0.095-0.045,0.14-0.073l0.025-0.017
				c0.04-0.029,0.078-0.06,0.113-0.095l0.011-0.009l0.018-0.018l0.007-0.007l0.606-0.609h2.332c0.012,0,0.024,0,0.035,0
				c0.98,0.019,1.765,0.823,1.765,1.807L16.199,27.196z"/>
		</g>
	</g>
</g>
</svg>
