<?xml version="1.0" encoding="utf-8"?>
<!-- Generator: Adobe Illustrator 21.0.0, SVG Export Plug-In . SVG Version: 6.00 Build 0)  -->
<svg version="1.1" id="Layer_1" xmlns="http://www.w3.org/2000/svg" xmlns:xlink="http://www.w3.org/1999/xlink" x="0px" y="0px"
	 viewBox="0 0 127 32" style="enable-background:new 0 0 127 32;" xml:space="preserve">
<style type="text/css">
	.st0{fill:#9013FE;}
	.st1{fill:#FFFFFF;}
	.st2{enable-background:new    ;}
</style>
<title>4BE04856-FF2E-42B7-BFBD-795496939963</title>
<desc>Created with sketchtool.</desc>
<g id="ui_x2F_buttons_x2F_withicon_x2F_Amazing-1-norm" transform="translate(231.000000, 1272.000000)">
	<path id="Rectangle-Copy-6" class="st0" d="M-227-1272h119c2.2,0,4,1.8,4,4v24c0,2.2-1.8,4-4,4h-119c-2.2,0-4-1.8-4-4v-24
		C-231-1270.2-229.2-1272-227-1272z"/>
	<g id="ui_x2F_icons_x2F_regular_x2F_like-white" transform="translate(14.000000, 8.000000)">
		<path id="like" class="st1" d="M-230-1266c0,1,0.1,2.5,1.4,3.8c1.2,1.2,5,3.9,5.1,4c0.1,0.1,0.3,0.1,0.4,0.1s0.3-0.1,0.4-0.1
			c0.1-0.1,4-2.8,5.1-4c1.3-1.3,1.4-2.8,1.4-3.8c0-2.2-1.7-4-3.9-4c-1.2,0-2.3,0.7-3,1.7c-0.7-1-1.9-1.7-3.2-1.7
			C-228.2-1270-230-1268.2-230-1266z"/>
	</g>
	<g class="st2">
		<path class="st1" d="M-185.7-1259.3h-2.9v6.9h-1.6v-8.4h6.2v8.4h-1.6V-1259.3z"/>
		<path class="st1" d="M-182.3-1256.5c0-1.4,0.3-2.5,0.9-3.2c0.6-0.8,1.5-1.1,2.6-1.1c0.6,0,1.1,0.1,1.6,0.3
			c0.4,0.2,0.8,0.5,1.1,0.9c0.3,0.4,0.5,0.8,0.7,1.4c0.1,0.5,0.2,1.1,0.2,1.8c0,1.4-0.3,2.5-0.9,3.2s-1.5,1.1-2.6,1.1
			c-0.6,0-1.1-0.1-1.6-0.3c-0.4-0.2-0.8-0.5-1.1-0.9c-0.3-0.4-0.5-0.8-0.7-1.4S-182.3-1255.9-182.3-1256.5z M-180.5-1256.5
			c0,0.4,0,0.8,0.1,1.2c0.1,0.4,0.2,0.7,0.3,0.9c0.1,0.3,0.3,0.5,0.6,0.6c0.2,0.1,0.5,0.2,0.8,0.2c0.6,0,1-0.2,1.4-0.7
			c0.3-0.5,0.5-1.2,0.5-2.2c0-0.4,0-0.8-0.1-1.1c-0.1-0.4-0.2-0.7-0.3-0.9c-0.1-0.3-0.3-0.5-0.6-0.6c-0.2-0.1-0.5-0.2-0.9-0.2
			c-0.6,0-1,0.2-1.4,0.7C-180.4-1258.3-180.5-1257.5-180.5-1256.5z"/>
		<path class="st1" d="M-171.6-1256.6l-2.3-4.1h2l1.3,2.4l0.3,0.9l0.3-0.9l1.4-2.4h1.8l-2.4,4l2.5,4.4h-2l-1.5-2.6l-0.3-0.9
			l-0.3,0.9l-1.5,2.6h-1.8L-171.6-1256.6z"/>
		<path class="st1" d="M-159.7-1258.8c0,0.2,0,0.4-0.1,0.6s-0.1,0.4-0.3,0.6s-0.3,0.3-0.5,0.5c-0.2,0.1-0.4,0.2-0.7,0.3v0.1
			c0.2,0,0.5,0.1,0.7,0.2c0.2,0.1,0.4,0.2,0.6,0.4c0.2,0.2,0.3,0.4,0.4,0.6s0.1,0.5,0.1,0.9c0,0.4-0.1,0.8-0.3,1.1
			c-0.2,0.3-0.4,0.6-0.7,0.8c-0.3,0.2-0.7,0.3-1,0.4c-0.4,0.1-0.8,0.1-1.2,0.1c-0.1,0-0.3,0-0.5,0s-0.4,0-0.7,0
			c-0.2,0-0.5,0-0.7-0.1c-0.3,0-0.5-0.1-0.7-0.1v-8.3c0.2,0,0.3,0,0.5-0.1c0.2,0,0.4,0,0.6-0.1c0.2,0,0.5,0,0.7,0c0.2,0,0.5,0,0.7,0
			c0.4,0,0.8,0,1.1,0.1s0.7,0.2,1,0.3s0.5,0.4,0.7,0.6C-159.8-1259.5-159.7-1259.2-159.7-1258.8z M-163.2-1257.2c0.1,0,0.2,0,0.4,0
			c0.1,0,0.3,0,0.4,0c0.3-0.1,0.6-0.2,0.8-0.4c0.2-0.2,0.3-0.4,0.3-0.7c0-0.2,0-0.4-0.1-0.5s-0.2-0.2-0.3-0.3
			c-0.1-0.1-0.3-0.1-0.4-0.2c-0.2,0-0.3,0-0.5,0c-0.2,0-0.4,0-0.6,0s-0.3,0-0.4,0v2.2H-163.2z M-162.7-1253.6c0.2,0,0.4,0,0.6-0.1
			c0.2,0,0.4-0.1,0.5-0.2c0.1-0.1,0.3-0.2,0.3-0.4s0.1-0.3,0.1-0.5c0-0.3-0.1-0.5-0.2-0.6c-0.1-0.2-0.2-0.3-0.4-0.4
			s-0.4-0.1-0.6-0.2c-0.2,0-0.4,0-0.6,0h-0.9v2.3c0,0,0.1,0,0.2,0s0.2,0,0.3,0c0.1,0,0.2,0,0.3,0
			C-162.9-1253.6-162.8-1253.6-162.7-1253.6z"/>
		<path class="st1" d="M-153.5-1254.2h-2.6l-0.6,1.9h-1.6l3-8.5h1.2l3,8.5h-1.7L-153.5-1254.2z M-155.7-1255.5h1.8l-0.6-1.9
			l-0.3-1.3h-0.1l-0.3,1.3L-155.7-1255.5z"/>
		<path class="st1" d="M-145.7-1259.3h-1.8c0,0.8-0.1,1.5-0.1,2.1s-0.1,1.2-0.2,1.7c-0.1,0.5-0.2,0.9-0.3,1.3
			c-0.1,0.4-0.3,0.7-0.4,1c-0.1,0.2-0.2,0.3-0.4,0.5c-0.1,0.1-0.3,0.2-0.4,0.3c-0.2,0.1-0.3,0.1-0.5,0.2s-0.3,0-0.4,0
			c-0.2,0-0.3,0-0.5,0s-0.2-0.1-0.4-0.1l0.2-1.4c0,0,0.1,0,0.1,0s0.1,0,0.1,0c0.1,0,0.3,0,0.4-0.1c0.1-0.1,0.2-0.2,0.3-0.3
			c0.1-0.2,0.2-0.4,0.3-0.8c0.1-0.3,0.2-0.8,0.2-1.3c0.1-0.5,0.1-1.2,0.2-1.9c0-0.7,0.1-1.6,0.1-2.6h5v8.4h-1.6V-1259.3z"/>
		<path class="st1" d="M-137.1-1257l0.1-1.1h-0.1l-0.6,1.1l-3.1,4.6h-1.2v-8.4h1.6v4.6l-0.1,1.1h0.1l0.6-1.2l3.1-4.5h1.2v8.4h-1.6
			V-1257z"/>
		<path class="st1" d="M-127.5-1259.3h-2.4v6.9h-1.6v-6.9h-2.5v-1.5h6.6V-1259.3z"/>
		<path class="st1" d="M-126-1260.7h1.6v3c0,0,0.1,0,0.2,0c0.1,0,0.2,0,0.3,0c0.1,0,0.2,0,0.3,0c0.1,0,0.2,0,0.3,0
			c0.4,0,0.8,0,1.1,0.1c0.4,0.1,0.7,0.2,1,0.4c0.3,0.2,0.5,0.5,0.7,0.8c0.2,0.3,0.3,0.8,0.3,1.3c0,1-0.3,1.7-0.9,2.2
			c-0.6,0.5-1.5,0.7-2.6,0.7c-0.1,0-0.3,0-0.4,0c-0.2,0-0.4,0-0.6,0c-0.2,0-0.5,0-0.7-0.1c-0.2,0-0.4-0.1-0.6-0.1V-1260.7z
			 M-123.6-1253.7c0.2,0,0.4,0,0.6-0.1c0.2,0,0.4-0.1,0.5-0.2c0.2-0.1,0.3-0.2,0.4-0.4c0.1-0.2,0.1-0.4,0.1-0.6c0-0.3,0-0.5-0.1-0.7
			c-0.1-0.2-0.2-0.3-0.4-0.4c-0.1-0.1-0.3-0.2-0.5-0.2s-0.4,0-0.6,0c-0.1,0-0.1,0-0.2,0s-0.2,0-0.2,0c-0.1,0-0.2,0-0.2,0
			c-0.1,0-0.1,0-0.1,0v2.5c0.1,0,0.2,0,0.4,0.1C-123.9-1253.7-123.7-1253.7-123.6-1253.7z"/>
	</g>
</g>
</svg>
