<svg xmlns="http://www.w3.org/2000/svg" width="46" height="40" viewBox="0 0 46 40">
    <path fill="#000" fill-rule="nonzero" d="M21.605 15.891v11.151a1.321 1.321 0 0 0 2.644 0v-11.15a1.322 1.322 0 0 0-2.644 0zm.224 14.163c-.281.29-.44.687-.44 1.092 0 .413.159.81.45 1.092.283.29.687.449 1.085.449.413 0 .81-.158 1.093-.45.29-.281.45-.677.45-1.091 0-.397-.16-.801-.45-1.092-.573-.562-1.605-.572-2.188 0zm23.75 7.8L24.073.66a1.323 1.323 0 0 0-2.29 0L.176 38.02A1.321 1.321 0 0 0 1.323 40h43.225a1.321 1.321 0 0 0 1.032-2.147zm-41.966-.495L22.927 3.96l19.313 33.4H3.613z"/>
</svg>
