<?xml version="1.0" encoding="UTF-8"?>
<svg width="16px" height="16px" viewBox="0 0 16 16" version="1.1" xmlns="http://www.w3.org/2000/svg" xmlns:xlink="http://www.w3.org/1999/xlink">
    <!-- Generator: Sketch 50.2 (55047) - http://www.bohemiancoding.com/sketch -->
    <title>Shape</title>
    <desc>Created with Sketch.</desc>
    <defs></defs>
    <g id="Symbols" stroke="none" stroke-width="1" fill="none" fill-rule="evenodd">
        <g id="ui/icons/unknown16" fill="#D9D9D9" fill-rule="nonzero">
            <path d="M6.25121759,5.36950624 C6.44489516,5.18430096 6.6639968,4.9744981 6.85829447,4.63964034 C6.88330513,4.59664625 6.92299146,4.56398729 6.97032568,4.54786451 C7.01269911,4.53339534 7.05775963,4.52616076 7.10406036,4.52616076 C7.28843645,4.52616076 7.45999716,4.63778002 7.64189285,4.75580704 C7.7917501,4.85316384 7.96165721,4.96354288 8.08588371,4.96354288 C9.19813454,4.96354288 9.89657266,5.09293853 10.17231,5.68679431 C10.1824383,5.66798439 10.190913,5.64958789 10.2014546,5.63077798 C10.4804992,5.14296049 10.4666503,4.5201664 10.2599507,4.37134072 C9.38953841,3.74482598 7.52469415,3.25390797 6.73737517,3.59041935 C6.5414239,3.67434049 6.43848748,3.79608816 6.41368352,3.97385216 C6.40417533,4.04165052 6.3618019,4.10035398 6.30020541,4.13073922 C6.27622825,4.14272795 5.69829602,4.43872568 5.75617192,4.97801204 C5.79110416,5.30232798 5.8314106,5.57124771 5.87192373,5.79365941 C5.97486015,5.63491202 6.11086853,5.50386275 6.25121759,5.36950624 Z M10.1007919,7.75671137 C10.1410984,7.75671137 10.1741703,7.7238457 10.1741703,7.68333204 L10.1741703,7.12337545 C10.1741703,7.08265509 10.1410984,7.04958272 10.1007919,7.04958272 C9.98648701,7.04958272 9.89409227,6.95718678 9.89409227,6.8428804 L9.89409227,6.42286128 C9.89409227,5.63801256 9.63241051,5.37674082 8.08567701,5.37674082 C7.83887762,5.37674082 7.6144018,5.23080898 7.41638353,5.10224014 C7.33287687,5.04787743 7.22477295,4.97780534 7.15284147,4.95072733 C6.94572842,5.2771103 6.7208392,5.49228742 6.53687651,5.6683978 C6.26796026,5.92574219 6.10570103,6.08097563 6.10570103,6.42286128 L6.10570103,6.84267369 C6.10570103,6.95698008 6.01330629,7.04937602 5.89900138,7.04937602 C5.87130363,7.04937602 5.82562301,7.08389531 5.82562301,7.12316875 L5.82562301,7.68312534 C5.82562301,7.72363899 5.85848825,7.75650466 5.89900138,7.75650466 C5.98519514,7.75650466 6.06229411,7.81004057 6.09267896,7.89044777 C6.09681295,7.90160969 6.50773186,8.99341136 6.77148062,9.38903961 L6.79463098,9.424179 C6.95399641,9.66602072 7.17247794,9.99736455 7.99989665,9.99736455 C8.82710866,9.99736455 9.04559019,9.66581402 9.20516232,9.424179 L9.22851938,9.38903961 C9.49206144,8.99320466 9.90318705,7.90160969 9.90711434,7.89044777 C9.93729249,7.81024727 10.0143915,7.75671137 10.1007919,7.75671137 Z M7.99989665,0 C3.58169158,0 0,3.58173785 0,8 C0,12.4182622 3.58169158,16 7.99989665,16 C12.4181017,16 16,12.4182622 16,8 C16,3.58173785 12.4181017,0 7.99989665,0 Z M6.31922178,10.9711392 C5.5897787,10.9711392 4.38616663,11.3988063 4.2809565,11.9256905 L4.14205434,12.7591143 C4.12531166,12.8601917 4.03767101,12.9319174 3.93845518,12.9319174 C3.9272934,12.9319174 3.91571822,12.9310906 3.90414304,12.9290236 C3.79149173,12.9102137 3.71542625,12.803762 3.73423592,12.6913159 L3.87437829,11.8512777 C4.0444921,10.9998708 5.55629336,10.5577345 6.31922178,10.5577345 C6.43352668,10.5577345 6.52592143,10.6501305 6.52592143,10.7644369 C6.52592143,10.8787432 6.43331998,10.9711392 6.31922178,10.9711392 Z M7.99989665,10.4111826 C6.94986242,10.4111826 6.63650574,9.93597396 6.44944256,9.65196496 L6.42753239,9.61868589 C6.1877608,9.25902385 5.86282894,8.44358318 5.74749054,8.14593184 C5.55319286,8.08206082 5.4122237,7.89892256 5.4122237,7.68333204 L5.4122237,7.12337545 C5.4122237,6.94271762 5.51826062,6.78376353 5.66832457,6.69984239 C5.59618639,6.49065964 5.44756934,5.97225021 5.34525301,5.02224634 C5.27290813,4.34984368 5.80350614,3.94904788 6.02488147,3.81221094 C6.09474595,3.5418443 6.28304934,3.33514198 6.57490925,3.21029378 C7.51353237,2.80887786 9.5187257,3.3285275 10.5017892,4.03586285 C10.9559084,4.36307263 10.896999,5.24713846 10.5602852,5.83582668 C10.3535856,6.19693564 10.3112122,6.5408883 10.3074916,6.57747461 L10.3074916,6.68227269 C10.4726446,6.76019947 10.5875696,6.92845516 10.5875696,7.12337545 L10.5875696,7.68333204 C10.5875696,7.89892256 10.4466004,8.08226752 10.2520961,8.14593184 C10.1369644,8.44358318 9.8120325,9.25902385 9.57226091,9.61868589 L9.55014404,9.65196496 C9.36328756,9.93597396 9.04993088,10.4111826 7.99989665,10.4111826 Z M12.0954436,12.9292303 C12.0836617,12.9312973 12.0724999,12.9321241 12.0611314,12.9321241 C11.9619156,12.9321241 11.8742749,12.8603984 11.857739,12.759321 L11.7175966,11.9188693 C11.61342,11.4002532 10.5177051,10.9773403 9.68057152,10.9773403 C9.56626662,10.9773403 9.47387187,10.8849443 9.47387187,10.7706379 C9.47387187,10.6563316 9.56626662,10.5639356 9.68057152,10.5639356 C10.5974912,10.5639356 11.9571615,11.008759 12.1241748,11.8442498 L12.2655574,12.6915226 C12.2841603,12.8039687 12.2080949,12.9104204 12.0954436,12.9292303 Z" id="Shape"></path>
        </g>
    </g>
</svg>