<svg xmlns="http://www.w3.org/2000/svg" width="121" height="120" viewBox="0 0 121 120">
    <g fill="none" fill-rule="evenodd">
        <path fill="#D9D9D9" fill-rule="nonzero" d="M103.877 76.572c3.074-3.573 4.796-8.125 4.796-12.85 0-10.152-7.685-18.528-17.499-19.522a12.446 12.446 0 0 0 4.845-9.88c0-6.788-5.478-12.31-12.213-12.31h-1.423a8.876 8.876 0 0 0 2.565-6.254v-3.444C84.948 5.522 79.468 0 72.734 0h-1.082c-.43 0-.833.21-1.076.565a1.312 1.312 0 0 0-.147 1.208c1.598 4.196 1.625 7.494.085 10.082-3.523 5.915-14.859 7.433-24.862 8.772-3.234.433-6.292.843-9.014 1.382-6.673.073-12.08 5.568-12.08 12.312 0 4.028 1.903 7.613 4.845 9.88-9.813.993-17.499 9.369-17.499 19.521 0 4.775 1.713 9.326 4.771 12.852C7.258 78.263 0 86.66 0 96.484c0 10.787 8.595 19.761 20 20.875 16.21 1.518 28.27 2.277 40.319 2.277 12.05 0 24.09-.76 40.265-2.277 11.35-1.109 19.91-10.083 19.91-20.875 0-9.83-7.232-18.23-16.617-19.912zm-3.544 38.183c-32.142 3.017-47.862 3.017-80.084 0-7.19-.702-13.097-4.928-15.89-10.724h13.068v-2.615H3.337a17.296 17.296 0 0 1-.654-3.557H12.78v-2.614H2.677c.088-1.222.298-2.412.629-3.557H8.96v-2.615H4.302c2.742-5.804 8.551-9.959 15.28-10.183a1.306 1.306 0 0 0 .809-2.299c-3.732-3.204-5.872-7.895-5.872-12.869 0-9.377 7.554-17.006 16.84-17.006h5.412a1.307 1.307 0 0 0 0-2.614c-5.291 0-9.598-4.388-9.598-9.781 0-5.347 4.307-9.697 9.598-9.697.086 0 .172-.008.257-.026 2.67-.535 5.732-.945 8.972-1.379 10.589-1.418 22.59-3.024 26.76-10.027 1.706-2.865 1.948-6.407.724-10.548 4.943.389 8.85 4.576 8.85 9.668v3.444c0 3.506-2.717 6.253-6.186 6.253a1.307 1.307 0 0 0 0 2.615h7.658c5.292 0 9.598 4.35 9.598 9.697 0 5.393-4.306 9.781-9.598 9.781a1.307 1.307 0 0 0 0 2.614h5.411c6.277 0 11.753 3.492 14.649 8.646H91.324v2.615h13.724c.406 1.135.697 2.323.855 3.556H95.97v2.614h10.064a16.868 16.868 0 0 1-.47 3.557H99.79v2.615h4.908a17.308 17.308 0 0 1-4.52 6.28c-.404.355-.55.92-.369 1.425.18.505.651.848 1.188.866 9.308.31 16.884 8.203 16.884 17.594 0 9.44-7.545 17.294-17.547 18.271zM49.567 62.8c0-3.825-3.088-6.937-6.886-6.937-3.795 0-6.884 3.112-6.884 6.937 0 3.87 3.089 7.019 6.884 7.019 3.798 0 6.886-3.149 6.886-7.02zm-6.886 4.404c-2.354 0-4.27-1.976-4.27-4.404 0-2.383 1.916-4.322 4.27-4.322 2.355 0 4.272 1.939 4.272 4.322 0 2.428-1.917 4.404-4.272 4.404zm35.215-11.34c-3.844 0-6.969 3.111-6.969 6.936 0 3.805 3.19 7.019 6.969 7.019 3.796 0 6.884-3.149 6.884-7.02 0-3.824-3.088-6.936-6.884-6.936zm0 11.34c-2.36 0-4.354-2.017-4.354-4.404 0-2.383 1.953-4.322 4.354-4.322 2.354 0 4.27 1.939 4.27 4.322 0 2.428-1.916 4.404-4.27 4.404zM60.326 86.21c6.04.015 11.694 2.893 15.921 8.106a1.309 1.309 0 0 1-1.015 2.131c-.38 0-.757-.165-1.015-.483-3.723-4.59-8.658-7.126-13.898-7.14h-.042c-5.257 0-10.228 2.536-14.003 7.144a1.308 1.308 0 0 1-2.024-1.656c4.281-5.226 9.972-8.102 16.027-8.102h.048zm-28.52-14.988c-5.236 9.173-6.74 15.807-4.472 19.715 1.863 3.205 5.456 3.242 5.608 3.242.151 0 3.744-.037 5.607-3.242 2.268-3.908.764-10.542-4.473-19.715-.462-.815-1.806-.815-2.27 0zm4.496 18.375c-1.064 1.866-3.177 1.962-3.36 1.967-.184-.005-2.297-.1-3.36-1.967-.917-1.605-1.604-5.643 3.36-15.016 4.964 9.373 4.276 13.41 3.36 15.016z"/>
    </g>
</svg>
