<svg xmlns="http://www.w3.org/2000/svg" width="187" height="187" viewBox="0 0 187 187">
    <path fill="#D9D9D9" fill-rule="nonzero" d="M144.332 18.984a4.043 4.043 0 1 1 4.044-4.043 4.059 4.059 0 0 1-4.044 4.043zm0-5.004a.945.945 0 1 1 0 1.89.945.945 0 0 1 0-1.89zM90.615 124.944v.023a2.13 2.13 0 0 1-2.93.508c-.953-.652-1.242-1.951-.658-2.96l3.48-5.302-5.188-3.556a2.221 2.221 0 0 1-1.059-2.006 2.21 2.21 0 0 1 1.24-1.895 2.123 2.123 0 0 1 2.218.234l5.188 3.556 3.48-5.301a2.13 2.13 0 0 1 2.928-.509c.954.652 1.243 1.951.66 2.96l-3.48 5.302 5.187 3.557a2.221 2.221 0 0 1 1.059 2.006 2.21 2.21 0 0 1-1.24 1.894 2.123 2.123 0 0 1-2.218-.234l-5.188-3.556-3.48 5.28zM84.909 186.5c-.487 0-.942-.243-1.21-.647a1.435 1.435 0 0 1-.127-1.36 9.096 9.096 0 0 0-2.542-10.535 9.095 9.095 0 0 0-2.731-1.558 1.442 1.442 0 0 1-.945-1.56 10.86 10.86 0 0 0-5.366-10.98 11.012 11.012 0 0 0-12.256.878 1.46 1.46 0 0 1-1.946-.13 9.346 9.346 0 0 0-.756-.707 9.184 9.184 0 0 0-8.484-1.732 1.457 1.457 0 0 1-1.627-.592 5.682 5.682 0 0 0-1.104-1.284 5.72 5.72 0 0 0-4.704-1.338 5.694 5.694 0 0 0-4.012 2.781 1.46 1.46 0 0 1-2.063.462 3.36 3.36 0 0 0-2.702-.462 1.462 1.462 0 0 1-.93 0l-.48-.202a1.438 1.438 0 0 1-.363-2.425l.146-.13a1.135 1.135 0 0 0 0-1.515 1.438 1.438 0 0 1 .087-2.093 2.52 2.52 0 0 0 .29-.274 2.471 2.471 0 0 0-.305-3.492 2.474 2.474 0 0 0-.639-.361 1.442 1.442 0 0 1-.872-1.443 4.213 4.213 0 0 0-1.312-3.586 4.275 4.275 0 0 0-3.685-1.076 1.454 1.454 0 0 1-1.598-.895 5.045 5.045 0 0 0-3.632-3.175 1.447 1.447 0 0 1-1.09-1.155 4.222 4.222 0 0 0-1.452-2.554 4.381 4.381 0 0 0-4.91-.404 1.458 1.458 0 0 1-1.976-.505 1.707 1.707 0 0 0-2.673-.346 1.46 1.46 0 0 1-1.73.201 1.168 1.168 0 0 0-1.452.246 1.134 1.134 0 0 0-.189 1.125c.004.068.004.135 0 .202a2.05 2.05 0 0 1 0 .26 1.443 1.443 0 0 1-1.078 1.622 1.455 1.455 0 0 1-1.726-.915 1.808 1.808 0 0 1-.087-.39 3.994 3.994 0 0 1 .976-3.986 4.057 4.057 0 0 1 3.993-1.05 4.659 4.659 0 0 1 5.404.39l.145.115a7.176 7.176 0 0 1 5.664.287 7.099 7.099 0 0 1 3.663 4.302 7.846 7.846 0 0 1 4.358 3.652c3.922-.057 7.16 3.032 7.264 6.927l.45.332a5.345 5.345 0 0 1 .944 7.216c.322.705.433 1.487.32 2.252a6.281 6.281 0 0 1 1.54.36 8.755 8.755 0 0 1 12.29-1.082c.388.326.743.689 1.06 1.083 3.603-.745 7.35.19 10.17 2.54a14.005 14.005 0 0 1 16.445.996 13.641 13.641 0 0 1 4.94 11.358c.913.43 1.767.972 2.542 1.616a11.999 11.999 0 0 1 3.341 13.899 1.453 1.453 0 0 1-1.278.837zm45.225 0c-.476 0-.92-.234-1.192-.624a7.597 7.597 0 0 1-.499-7.855 7.616 7.616 0 0 1 6.733-4.09c.4.007.797.041 1.192.102a10.41 10.41 0 0 1 7.992-3.86 12.03 12.03 0 0 1 11.35-8.346 11.872 11.872 0 0 1 3.923.653 8.953 8.953 0 0 1 8.008-4.95c.719.009 1.435.097 2.136.262a6.449 6.449 0 0 1 6.423-5.95 6.398 6.398 0 0 1 4.752 2.119 4.99 4.99 0 0 1 4.635-.755 1.455 1.455 0 1 1-1.09 2.7c-.406-.16-1.162-.218-2.993 1.233a1.455 1.455 0 0 1-2.194-.464 3.533 3.533 0 0 0-4.581-1.571 3.525 3.525 0 0 0-1.842 4.473 1.455 1.455 0 0 1-2.107 1.77 6.022 6.022 0 0 0-3.14-.899 6.088 6.088 0 0 0-5.812 4.354 1.452 1.452 0 0 1-2.035.886 8.975 8.975 0 0 0-4.04-.958 9.109 9.109 0 0 0-8.85 7.256 1.453 1.453 0 0 1-1.583 1.147h-.843a7.515 7.515 0 0 0-6.264 3.396 1.454 1.454 0 0 1-1.627.595 4 4 0 0 0-1.366-.232 4.71 4.71 0 0 0-4.17 2.485 4.697 4.697 0 0 0 .246 4.844 1.45 1.45 0 0 1-1.162 2.279zm.745-160.69a73.235 73.235 0 0 0-8.28-2.385C120.846 10.492 108.251.5 93.485.5h-.145c-14.853 0-27.188 9.817-28.954 22.793-14.853 3.234-23.495 9.086-23.452 16.708 0 3.277 2.765 6.232 8.165 8.778 2.736 3.672 10.713 5.852 17.618 7.168h.26c.8.073 1.507-.523 1.579-1.33a1.465 1.465 0 0 0-1.318-1.596c-11.132-2.062-16.214-5.09-16.228-7.037 0-2.926 3.865-5.852 10.626-7.9 7.76-2.399 18.82-3.701 31.849-3.76 27.694-.131 42.532 6.467 42.547 11.28 0 1.975-5.154 5.077-16.49 7.315-.799.15-1.327.926-1.18 1.734a1.473 1.473 0 0 0 1.716 1.192c7.065-1.346 15.215-3.672 17.923-7.432h.115c5.284-2.604 7.963-5.56 7.948-8.778-.043-5.486-5.429-10.314-15.186-13.825zm-2.475 6.247a2.024 2.024 0 0 1 1.346-.293 12.92 12.92 0 0 1 5.211 1.346c3.533 1.653 5.125 3.775 5.053 4.39-.391.438-3.026.584-6.558-1.069s-5.154-3.848-5.052-4.374zm2.374-3.16c-2.317-.22-4.256.307-4.995 1.93-.362.79-.666 2.459 1.448 4.682l.29.278c-7.123-2.457-17.141-4.023-28.954-4.389l.637-.204c2.895-1.156 3.373-2.81 3.373-3.702 0-.892-.405-2.472-3.417-3.584a12.64 12.64 0 0 0-1.273-.395c12.348.292 23.626 2.077 32.022 5.091l.869.293zM92.82 25.78c4.198 0 6.558 1.243 6.833 1.784-.275.542-2.664 1.83-6.92 1.844h-.102c-4.343 0-6.673-1.317-6.862-1.741.174-.512 2.577-1.858 6.935-1.887h.116zm.506-22.355c13.03 0 24.162 8.324 26.232 19.355A134.11 134.11 0 0 0 94.123 20.5h-.724a149.25 149.25 0 0 0-26.058 2.18C69.454 11.663 80.297 3.426 93.326 3.426zM51.981 36.768c-3.518 1.682-6.153 1.55-6.544 1.126-.072-.57 1.448-2.721 5.01-4.389 3.56-1.668 6.21-1.55 6.543-1.141.115.541-1.448 2.721-5.01 4.404zm-8.093 3.584c.872.528 1.88.782 2.896.731h.463a14.344 14.344 0 0 0 3.648-.746 8.048 8.048 0 0 0-2.707 4.609c-2.476-1.522-4.04-3.102-4.3-4.58v-.014zm16.91-5.077a49.007 49.007 0 0 0-3.056 1.068c1.738-1.682 2.65-3.57 1.882-5.237-.361-.79-1.447-2.092-4.444-1.931h-.463c7.166-2.926 17.951-5.165 32.703-5.677-.406.117-.81.234-1.173.38-2.895 1.156-3.373 2.81-3.373 3.702 0 1.887 1.723 3.16 4.097 3.906a105.681 105.681 0 0 0-26.174 3.79zm77.985 9.261a7.718 7.718 0 0 0-2.663-4.17c.69.161 1.392.264 2.099.308h.39c2.708 0 3.692-1.23 4.04-1.99a2.95 2.95 0 0 0 .231-.79c.173.504.266 1.032.275 1.565 0 1.624-1.549 3.395-4.372 5.092v-.015zm-30.33 6.876h-.058a1.465 1.465 0 0 1 1.406.33 1.4 1.4 0 0 1 .41 1.359c-.12.492-.498.884-.993 1.028a60.051 60.051 0 0 1-15.455 1.812h-.375a57.198 57.198 0 0 1-15.628-1.84 1.428 1.428 0 0 1-.977-1.044 1.4 1.4 0 0 1 .433-1.351c.38-.343.918-.46 1.41-.309a55.761 55.761 0 0 0 15.123 1.713c4.956.074 9.9-.497 14.704-1.698zm5.527-2.358l28.577 117.206a1.451 1.451 0 0 1-1.055 1.755h-.347c-.68.02-1.283-.44-1.446-1.103l-28.591-117.51c-.737-1.146-7.198-3.206-17.794-3.206h-.361c-10.942.044-17.52 2.249-18.17 3.467L50.755 150.49a1.446 1.446 0 0 1-1.445 1.117h-.333a1.446 1.446 0 0 1-.898-.654c-.201-.33-.263-.726-.171-1.101L71.93 49.054c.969-4.483 13.458-5.803 20.974-5.803 4.79-.065 9.573.422 14.252 1.45 4.322 1.002 6.534 2.453 6.823 4.353zm37.284 86.614a4.043 4.043 0 1 1 4.043-4.044 4.059 4.059 0 0 1-4.043 4.044zm0-5.004a.945.945 0 1 0 0 1.89.945.945 0 0 0 0-1.89zM24.184 74.438a4.043 4.043 0 1 1 4.043-4.044 4.059 4.059 0 0 1-4.044 4.044zm0-5.004a.945.945 0 1 0 .944.945.945.945 0 0 0-.945-.93v-.015zm153.651-8.86a1.437 1.437 0 0 1-1.446-1.233c-.318-2.297-.796-5.048-1.085-6.055a45.306 45.306 0 0 0-4.687-1.021c-.799 0-1.446-.635-1.446-1.418 0-.783.647-1.418 1.446-1.418a45.277 45.277 0 0 0 4.687-1.021c.29-.993.767-3.744 1.085-6.055 0-.783.648-1.418 1.446-1.418.8 0 1.447.635 1.447 1.418.318 2.311.795 5.048 1.085 6.055 1.542.422 3.107.763 4.686 1.02.8 0 1.447.636 1.447 1.419s-.648 1.418-1.447 1.418c-1.58.257-3.144.598-4.686 1.02-.29.993-.767 3.744-1.085 6.056a1.437 1.437 0 0 1-1.447 1.233zm-.925-9.685c.205.088.392.213.55.369.163.156.292.345.375.553.084-.209.212-.397.376-.553.158-.156.345-.281.55-.369a1.766 1.766 0 0 1-.55-.368 1.558 1.558 0 0 1-.376-.553 1.558 1.558 0 0 1-.376.553c-.159.15-.345.27-.55.354v.014zM12.616 25.916a1.458 1.458 0 0 1-1.463-1.212 61.258 61.258 0 0 0-1.727-8.106 52.04 52.04 0 0 0-7.463-1.861A1.453 1.453 0 0 1 .5 13.295c0-.797.655-1.443 1.463-1.443a51.82 51.82 0 0 0 7.463-1.846 60.919 60.919 0 0 0 1.741-8.064c0-.796.655-1.442 1.463-1.442.809 0 1.464.646 1.464 1.442a60.832 60.832 0 0 0 1.741 8.121 51.82 51.82 0 0 0 7.463 1.847c.808 0 1.463.646 1.463 1.442 0 .797-.655 1.443-1.463 1.443a52.064 52.064 0 0 0-7.492 1.803 61.26 61.26 0 0 0-1.742 8.12 1.458 1.458 0 0 1-1.448 1.198zM8.767 13.323c2.283.664 2.678 1.082 2.84 1.27.16.187.482.52 1.009 2.452.527-1.933.863-2.294 1.01-2.452.146-.159.57-.606 2.838-1.27-2.268-.663-2.663-1.053-2.839-1.269-.175-.216-.482-.52-1.01-2.452-.526 1.933-.863 2.293-1.009 2.452-.146.159-.585.606-2.839 1.27z"/>
</svg>
