<svg xmlns="http://www.w3.org/2000/svg" width="126" height="126" viewBox="0 0 126 126">
    <g fill="none" fill-rule="evenodd">
        <path fill="#D9D9D9" fill-rule="nonzero" d="M123.261.001a2.665 2.665 0 0 0-1.832.802L90.407 31.824c-1.036-.496-2.177-.801-3.394-.801H12.332c-4.366 0-7.964 3.598-7.964 7.964v48.032c0 4.365 3.598 7.963 7.964 7.963h14.917L.82 121.413a2.665 2.665 0 1 0 3.768 3.769L125.197 4.57a2.665 2.665 0 0 0-1.936-4.57zM12.331 36.353H85.88l-53.3 53.3H12.332c-1.51 0-2.634-1.125-2.634-2.634V38.987c0-1.51 1.125-2.634 2.634-2.634zm102.373 4.185a7.42 7.42 0 0 0-3.269.833L94.977 49.98v-7.725l-5.33 5.33v6.798a2.665 2.665 0 0 0 3.904 2.363l20.362-10.65c.247-.129.564-.22.916-.229 1.117-.026 1.468.587 1.468.583v33.073c0 .061-.016.203-.531.427-.515.224-1.286.245-1.853-.053l-20.362-10.65a2.665 2.665 0 0 0-3.904 2.365v15.407c0 1.509-1.125 2.633-2.634 2.633H47.58l-5.33 5.33h44.763c4.366 0 7.964-3.598 7.964-7.963V76.015l16.458 8.61c2.136 1.116 4.503 1.065 6.455.218 1.951-.848 3.732-2.777 3.737-5.299V46.45c-.006-3.672-3.457-5.998-6.923-5.913z"/>
    </g>
</svg>
