<svg xmlns="http://www.w3.org/2000/svg" width="48" height="55" viewBox="0 0 48 55">
    <path fill="#D9D9D9" fill-rule="evenodd" d="M42.71 53.532H5.292c-2.156 0-3.91-1.864-3.91-4.154v-31.14h45.235v31.14c0 2.29-1.753 4.154-3.909 4.154zM4.428 5.574v1.96c0 1.066.817 1.934 1.82 1.934h1.506c1.004 0 1.82-.868 1.82-1.934V5.469h11.732v2.065c0 1.066.817 1.934 1.82 1.934h1.507c1.003 0 1.82-.868 1.82-1.934V5.469h11.73v2.065c0 1.066.818 1.934 1.822 1.934h1.505c1.004 0 1.82-.868 1.82-1.934V5.526c1.862.318 3.289 2.03 3.289 4.096v7.147H1.382V9.622c0-1.982 1.292-3.631 3.047-4.048zm1.382-3.64c0-.257.197-.465.438-.465h1.506c.242 0 .438.208.438.466v5.599c0 .257-.196.465-.438.465H6.249c-.241 0-.438-.208-.438-.465v-5.6zm16.877 0c0-.257.196-.465.438-.465h1.507c.241 0 .437.208.437.466v5.599c0 .257-.196.465-.437.465h-1.507c-.242 0-.438-.208-.438-.465v-5.6zm16.878 0c0-.257.196-.465.438-.465h1.506c.241 0 .438.208.438.466v5.599c0 .257-.197.465-.438.465h-1.506c-.242 0-.438-.208-.438-.465v-5.6zm3.764 2.108V1.935C43.33.867 42.514 0 41.51 0h-1.506c-1.003 0-1.82.867-1.82 1.935V4H26.451V1.935C26.452.867 25.636 0 24.632 0h-1.507c-1.003 0-1.82.867-1.82 1.935V4H9.575V1.935C9.574.867 8.757 0 7.754 0H6.247c-1.003 0-1.82.867-1.82 1.935v2.144C1.898 4.517 0 6.825 0 9.623v39.755C0 52.478 2.374 55 5.292 55H42.71C45.627 55 48 52.478 48 49.378V9.622c0-2.876-2.044-5.252-4.67-5.58zm-9.076 19.3L23.91 34.33 13.505 23.274l-.977 1.038L22.933 35.37 12.528 46.426l.977 1.038 10.406-11.056 10.343 10.99.977-1.04L24.888 35.37 35.231 24.38l-.977-1.038z"/>
</svg>
