<svg xmlns="http://www.w3.org/2000/svg" width="32" height="32" viewBox="0 0 32 32">
    <g fill="none" fill-rule="evenodd">
       
        <g>
            <circle cx="16" cy="16" r="16" fill="#7FBA40" opacity=".8"/>
            <path fill="#FFF" d="M9.294 10.118c.926 0 1.677.75 1.677 1.676a.559.559 0 0 0 1.117 0 2.794 2.794 0 0 0-5.588 0 .559.559 0 0 0 1.118 0c0-.926.75-1.676 1.676-1.676zm10.618 1.676a.559.559 0 1 0 1.117 0 1.677 1.677 0 0 1 3.353 0 .559.559 0 1 0 1.118 0 2.794 2.794 0 1 0-5.588 0zM15.998 23.53c-3.167 0-6.03-1.565-7.784-4.153-.093-.138 0-.317.158-.317H23.63c.155 0 .247.176.155.312-1.753 2.592-4.618 4.158-7.787 4.158zm-7.626-5.588c-1.06 0-1.676 1.187-1.083 2.062 1.959 2.891 5.166 4.644 8.709 4.644 3.545 0 6.754-1.755 8.713-4.65.591-.873-.024-2.056-1.081-2.056H8.372z"/>
        </g>
    </g>
</svg>
