<svg xmlns="http://www.w3.org/2000/svg" width="32" height="32" viewBox="0 0 32 32">
    <g fill="none" fill-rule="evenodd">
        
        <g>
            <circle cx="16" cy="16" r="16" fill="#D85252" opacity=".8"/>
            <path fill="#FFF" d="M21.5 13a1 1 0 1 1 0-2 1 1 0 0 1 0 2m0-3a2 2 0 1 0 0 4 2 2 0 0 0 0-4m-11 3a1 1 0 1 1 0-2 1 1 0 0 1 0 2m0-3a2 2 0 1 0 0 4 2 2 0 0 0 0-4m11 5.5a3.5 3.5 0 1 1 0-7 3.5 3.5 0 0 1 0 7m-11 0a3.5 3.5 0 1 1 0-7 3.5 3.5 0 0 1 0 7m16-4a.5.5 0 1 1 0 1h-.53a4.5 4.5 0 0 1-8.94 0h-2.06a4.5 4.5 0 0 1-8.94 0H5.5a.5.5 0 0 1 0-1h.53a4.5 4.5 0 0 1 8.94 0h2.06a4.5 4.5 0 0 1 8.94 0h.53zm-10.498 8c3.17 0 6.16 1.634 7.912 4.22a.5.5 0 1 1-.828.56c-1.569-2.315-4.25-3.78-7.084-3.78-2.838 0-5.52 1.464-7.088 3.78a.5.5 0 1 1-.828-.56c1.75-2.587 4.741-4.22 7.916-4.22z"/>
        </g>
    </g>
</svg>
