<?xml version="1.0" encoding="UTF-8"?>
<svg width="16px" height="19px" viewBox="0 0 16 19" version="1.1" xmlns="http://www.w3.org/2000/svg" xmlns:xlink="http://www.w3.org/1999/xlink">
    <!-- Generator: Sketch 51.1 (57501) - http://www.bohemiancoding.com/sketch -->
    <title>Fill 16 Copy 2</title>
    <desc>Created with Sketch.</desc>
    <defs></defs>
    <g id="Page-2" stroke="none" stroke-width="1" fill="none" fill-rule="evenodd">
        <g id="ui" transform="translate(-2000.000000, -3297.000000)" fill="#9013FE">
            <g id="Group-20-Copy-9" transform="translate(1505.000000, 3279.000000)">
                <g id="Group-25" transform="translate(53.000000, 11.000000)">
                    <g id="Group-9">
                        <path d="M442,11.6186341 L442,20.8564796 L450,25.4751137 L458,20.8564796 L458,11.6186341 L450,7 L442,11.6186341 Z M442.479203,20.5795424 L442.479203,11.8951863 L450,7.55310448 L457.520797,11.8951863 L457.520797,20.5795424 L450,24.9218167 L442.479203,20.5795424 Z M457.000409,20.2791455 L450,24.3208112 L442.999591,20.2791455 L442.999591,12.1958142 L450,8.15414852 L457.000409,12.1958142 L457.000409,20.2791455 Z M447.241598,13.1903245 L447.241598,18.2119512 L450,19.8046766 L452.758402,18.2119512 L452.758402,13.1903245 L447.241598,13.1903245 Z" id="Fill-16-Copy-2"></path>
                    </g>
                </g>
            </g>
        </g>
    </g>
</svg>