<?xml version="1.0" encoding="UTF-8"?>
<svg width="84px" height="96px" viewBox="0 0 84 96" version="1.1" xmlns="http://www.w3.org/2000/svg" xmlns:xlink="http://www.w3.org/1999/xlink">
    <!-- Generator: Sketch 50.2 (55047) - http://www.bohemiancoding.com/sketch -->
    <title>Group 8</title>
    <desc>Created with Sketch.</desc>
    <defs></defs>
    <g id="Page-1" stroke="none" stroke-width="1" fill="none" fill-rule="evenodd">
        <g id="rank" transform="translate(-776.000000, -71.000000)">
            <g id="Group-8" transform="translate(776.000000, 71.000000)">
                <path d="M0.1663,24.399 L0.1663,72.4 L41.7353,96.399 L83.3043,72.4 L83.3043,24.399 L41.7353,0.4 L0.1663,24.399 Z M2.6563,70.961 L2.6563,25.836 L41.7353,3.274 L80.8153,25.836 L80.8153,70.961 L41.7353,93.524 L2.6563,70.961 Z" id="Fill-32" fill="#118ACA"></path>
                <polygon id="Fill-33" fill="#118ACA" points="78.1105 69.4001 41.7355 90.4011 5.3605 69.4001 5.3605 27.3981 41.7355 6.3971 78.1105 27.3981"></polygon>
                <polygon id="Fill-59" fill="#FEFEFE" points="25.1398 31.8977 25.1398 62.1097 41.7358 71.6917 58.3318 62.1097 58.3318 31.8977"></polygon>
                <polygon id="Fill-60" fill="#118ACA" points="41.7365 39.595 44.7235 45.648 51.4025 46.618 46.5695 51.33 47.7105 57.982 41.7365 54.841 35.7615 57.982 36.9025 51.33 32.0695 46.618 38.7495 45.648"></polygon>
            </g>
        </g>
    </g>
</svg>