<?xml version="1.0" encoding="UTF-8"?>
<svg width="84px" height="96px" viewBox="0 0 84 96" version="1.1" xmlns="http://www.w3.org/2000/svg" xmlns:xlink="http://www.w3.org/1999/xlink">
    <!-- Generator: Sketch 50.2 (55047) - http://www.bohemiancoding.com/sketch -->
    <title>Group 10</title>
    <desc>Created with Sketch.</desc>
    <defs></defs>
    <g id="Page-1" stroke="none" stroke-width="1" fill="none" fill-rule="evenodd">
        <g id="rank" transform="translate(-997.000000, -71.000000)">
            <g id="Group-10" transform="translate(997.000000, 71.000000)">
                <path d="M0.5006,24.399 L0.5006,72.4 L42.0696,96.399 L83.6386,72.4 L83.6386,24.399 L42.0696,0.4 L0.5006,24.399 Z M2.9886,70.961 L2.9886,25.836 L42.0696,3.274 L81.1486,25.836 L81.1486,70.961 L42.0696,93.524 L2.9886,70.961 Z" id="Fill-3" fill="#118ACA"></path>
                <polygon id="Fill-4" fill="#118ACA" points="78.4446 69.4001 42.0696 90.4011 5.6946 69.4001 5.6946 27.3981 42.0696 6.3971 78.4446 27.3981"></polygon>
                <polygon id="Fill-38" fill="#FEFEFE" points="30.3206 62.1877 20.5326 48.3987 30.3206 34.6107 40.1096 48.3987"></polygon>
                <polygon id="Fill-39" fill="#FEFEFE" points="53.8176 62.1877 44.0296 48.3987 53.8176 34.6107 63.6066 48.3987"></polygon>
            </g>
        </g>
    </g>
</svg>