<?xml version="1.0" encoding="UTF-8"?>
<svg width="84px" height="96px" viewBox="0 0 84 96" version="1.1" xmlns="http://www.w3.org/2000/svg" xmlns:xlink="http://www.w3.org/1999/xlink">
    <!-- Generator: Sketch 50.2 (55047) - http://www.bohemiancoding.com/sketch -->
    <title>Group 11</title>
    <desc>Created with Sketch.</desc>
    <defs></defs>
    <g id="Page-1" stroke="none" stroke-width="1" fill="none" fill-rule="evenodd">
        <g id="rank" transform="translate(-1110.000000, -71.000000)">
            <g id="Group-11" transform="translate(1110.000000, 71.000000)">
                <path d="M0.5001,24.399 L0.5001,72.4 L42.0691,96.399 L83.6381,72.4 L83.6381,24.399 L42.0691,0.4 L0.5001,24.399 Z M2.9891,70.961 L2.9891,25.836 L42.0691,3.274 L81.1491,25.836 L81.1491,70.961 L42.0691,93.524 L2.9891,70.961 Z" id="Fill-42" fill="#118ACA"></path>
                <polygon id="Fill-43" fill="#118ACA" points="78.4446 69.4001 42.0696 90.4011 5.6946 69.4001 5.6946 27.3981 42.0696 6.3971 78.4446 27.3981"></polygon>
                <polygon id="Fill-44" fill="#FEFEFE" points="30.3206 59.9763 20.5326 46.1873 30.3206 32.3993 40.1096 46.1873"></polygon>
                <polygon id="Fill-45" fill="#FEFEFE" points="53.8176 59.8513 44.0296 46.0623 53.8176 32.2743 63.6066 46.0623"></polygon>
                <polygon id="Fill-46" fill="#FEFEFE" points="42.0696 77.2263 32.2806 63.4373 42.0696 49.6493 51.8576 63.4373"></polygon>
            </g>
        </g>
    </g>
</svg>