<?xml version="1.0" encoding="UTF-8"?>
<svg width="84px" height="96px" viewBox="0 0 84 96" version="1.1" xmlns="http://www.w3.org/2000/svg" xmlns:xlink="http://www.w3.org/1999/xlink">
    <!-- Generator: Sketch 50.2 (55047) - http://www.bohemiancoding.com/sketch -->
    <title>Group 6</title>
    <desc>Created with Sketch.</desc>
    <defs></defs>
    <g id="Page-1" stroke="none" stroke-width="1" fill="none" fill-rule="evenodd">
        <g id="rank" transform="translate(-556.000000, -71.000000)">
            <g id="Group-6" transform="translate(556.000000, 71.000000)">
                <path d="M0.000200000002,24.399 L0.000200000002,72.4 L41.5692,96.399 L83.1382,72.4 L83.1382,24.399 L41.5692,0.4 L0.000200000002,24.399 Z M2.4892,70.961 L2.4892,25.836 L41.5692,3.274 L80.6482,25.836 L80.6482,70.961 L41.5692,93.524 L2.4892,70.961 Z" id="Fill-24" fill="#118ACA"></path>
                <polygon id="Fill-25" fill="#118ACA" points="77.9445 69.4001 41.5695 90.4011 5.1945 69.4001 5.1945 27.3981 41.5695 6.3971 77.9445 27.3981"></polygon>
                <polygon id="Fill-34" fill="#FEFEFE" points="27.236 41.098 55.903 41.098 55.903 32.566 27.236 32.566"></polygon>
                <polygon id="Fill-35" fill="#FEFEFE" points="27.2355 45.5032 27.2355 58.6592 41.5695 66.9342 55.9025 58.6592 55.9025 45.5032"></polygon>
            </g>
        </g>
    </g>
</svg>