<?xml version="1.0" encoding="UTF-8"?>
<svg width="84px" height="96px" viewBox="0 0 84 96" version="1.1" xmlns="http://www.w3.org/2000/svg" xmlns:xlink="http://www.w3.org/1999/xlink">
    <!-- Generator: Sketch 50.2 (55047) - http://www.bohemiancoding.com/sketch -->
    <title>Group 7</title>
    <desc>Created with Sketch.</desc>
    <defs></defs>
    <g id="Page-1" stroke="none" stroke-width="1" fill="none" fill-rule="evenodd">
        <g id="rank" transform="translate(-665.000000, -71.000000)">
            <g id="Group-7" transform="translate(665.000000, 71.000000)">
                <path d="M0.1666,24.399 L0.1666,72.4 L41.7356,96.399 L83.3046,72.4 L83.3046,24.399 L41.7356,0.4 L0.1666,24.399 Z M2.6556,70.961 L2.6556,25.836 L41.7356,3.274 L80.8156,25.836 L80.8156,70.961 L41.7356,93.524 L2.6556,70.961 Z" id="Fill-22" fill="#118ACA"></path>
                <polygon id="Fill-23" fill="#118ACA" points="78.1105 69.4001 41.7355 90.4011 5.3605 69.4001 5.3605 27.3981 41.7355 6.3971 78.1105 27.3981"></polygon>
                <polygon id="Fill-29" fill="#FEFEFE" points="27.403 48.789 56.07 48.789 56.07 40.257 27.403 40.257"></polygon>
                <polygon id="Fill-30" fill="#FEFEFE" points="27.403 36.164 56.07 36.164 56.07 27.632 27.403 27.632"></polygon>
                <polygon id="Fill-31" fill="#FEFEFE" points="27.4025 53.1941 27.4025 66.3501 41.7355 74.6251 56.0695 66.3501 56.0695 53.1941"></polygon>
            </g>
        </g>
    </g>
</svg>