<svg xmlns="http://www.w3.org/2000/svg" width="24" height="24" viewBox="0 0 24 24">
    <defs>
        <linearGradient id="a" x1="82.774%" x2="25.153%" y1="15.729%" y2="84.413%">
            <stop offset="0%" stop-color="#A329A7"/>
            <stop offset="30.376%" stop-color="#F1423A"/>
            <stop offset="69.759%" stop-color="#FC892B"/>
            <stop offset="100%" stop-color="#FFBD0F"/>
        </linearGradient>
    </defs>
    <g fill="none" fill-rule="evenodd">
        <circle cx="12" cy="12" r="11" fill="#FFF"/>
        <path fill="url(#a)" fill-rule="nonzero" d="M12 0C5.373 0 0 5.373 0 12s5.373 12 12 12 12-5.373 12-12S18.627 0 12 0zm7.218 15.609a3.646 3.646 0 0 1-3.641 3.642H8.423a3.646 3.646 0 0 1-3.641-3.642V8.456a3.646 3.646 0 0 1 3.641-3.642h7.154a3.646 3.646 0 0 1 3.641 3.642v7.153zm-3.641-9.224H8.423c-1.141 0-2.07.93-2.07 2.07v7.154c0 1.142.929 2.07 2.07 2.07h7.154c1.141 0 2.07-.928 2.07-2.07V8.456c0-1.142-.928-2.07-2.07-2.07zM12 15.751a3.722 3.722 0 0 1-3.718-3.719A3.722 3.722 0 0 1 12 8.314a3.722 3.722 0 0 1 3.718 3.718A3.723 3.723 0 0 1 12 15.751zm3.838-6.668a.88.88 0 0 1 0-1.76.88.88 0 0 1 0 1.76zM12 9.886a2.15 2.15 0 0 1 2.147 2.146A2.15 2.15 0 0 1 12 14.18a2.15 2.15 0 0 1-2.147-2.147A2.15 2.15 0 0 1 12 9.886z"/>
    </g>
</svg>
