<svg xmlns="http://www.w3.org/2000/svg" width="24" height="24" viewBox="0 0 24 24">
    <defs>
        <linearGradient id="a" x1="50%" x2="50%" y1="0%" y2="100%">
            <stop offset="0%" stop-color="#111D2E"/>
            <stop offset="21.248%" stop-color="#051839"/>
            <stop offset="40.695%" stop-color="#0A1B48"/>
            <stop offset="58.11%" stop-color="#132E62"/>
            <stop offset="73.76%" stop-color="#144B7E"/>
            <stop offset="87.279%" stop-color="#136497"/>
            <stop offset="100%" stop-color="#1387B8"/>
        </linearGradient>
    </defs>
    <g fill="none" fill-rule="evenodd">
        <circle cx="12" cy="12" r="12" fill="#FFF"/>
        <path fill="url(#a)" fill-rule="nonzero" d="M.508 15.5l-.015-.006c-.627-1.935-.477-4.366-.477-4.366l.004.001C.467 4.91 5.657 0 11.995 0 18.625 0 24 5.373 24 12s-5.375 12-12.005 12C6.582 24 2.006 20.42.508 15.5zm0 0l4.545 1.875a3.325 3.325 0 0 0 6.32.558c.184-.443.27-.907.257-1.37l4.203-3.004a4.569 4.569 0 0 0 4.663-4.565 4.567 4.567 0 0 0-4.56-4.565 4.568 4.568 0 0 0-4.559 4.625L8.44 13.319a3.293 3.293 0 0 0-1.406.249c-.2.081-.386.181-.562.296L.021 11.13l-.006.074c-.074 1.705.15 3.15.478 4.249l.015.048zm10.163 2.138a2.571 2.571 0 0 1-3.359 1.386 2.553 2.553 0 0 1-1.322-1.26l1.485.614a1.893 1.893 0 1 0 1.454-3.495l-1.534-.635a2.554 2.554 0 0 1 1.894.028c.634.264 1.126.76 1.386 1.395.261.635.26 1.335-.004 1.967zm5.265-5.6a3.044 3.044 0 0 1-3.038-3.043 3.044 3.044 0 0 1 3.038-3.042 3.044 3.044 0 0 1 3.04 3.042 3.044 3.044 0 0 1-3.04 3.042zM13.66 8.99a2.284 2.284 0 0 0 2.281 2.285 2.285 2.285 0 1 0 0-4.57A2.284 2.284 0 0 0 13.66 8.99z"/>
    </g>
</svg>
