<svg xmlns="http://www.w3.org/2000/svg" width="24" height="24" viewBox="0 0 24 24">
    <g fill="none" fill-rule="evenodd">
        <circle cx="12" cy="12" r="11" fill="#FFF"/>
        <path fill="#A8ADF0" fill-rule="nonzero" d="M12 24C5.373 24 0 18.627 0 12S5.373 0 12 0s12 5.373 12 12-5.373 12-12 12zM9.201 12.884a1.7 1.7 0 0 1-1.848-1.843 1.7 1.7 0 0 1 3.386.31 1.702 1.702 0 0 1-1.538 1.533zm5.877 0a1.7 1.7 0 0 1-1.848-1.843 1.7 1.7 0 0 1 3.386.31 1.702 1.702 0 0 1-1.538 1.533zM18.1 6.698l-.048-.12a.015.015 0 0 0-.007-.008l-.119-.054c-.974-.441-2.348-.55-3.564-.598h-1.37c-.015 0-.02.02-.005.027l2.812 1.345c.016.008.007.031-.01.027a15.1 15.1 0 0 0-3.804-.496 15.1 15.1 0 0 0-3.793.493c-.017.004-.026-.02-.01-.027l2.911-1.341c.015-.007.01-.028-.006-.028h-1.48c-1.216.048-2.59.157-3.564.598l-.119.054a.014.014 0 0 0-.007.008l-.048.12c-.997 2.52-1.28 6.797-.978 9.476l.016.14.112.087c1.557 1.205 3.64 1.824 4.95 1.988l.17.022a.12.12 0 0 0 .127-.077l.852-2.272a.12.12 0 0 0-.093-.16l-.262-.04c-.912-.144-2.205-.523-3.297-1.51-.024-.022-.001-.06.028-.049l.288.11c.247.097.502.196.669.236 1.171.278 2.36.418 3.533.418v-.02h.003v.02c1.172 0 2.36-.14 3.531-.418.167-.04.422-.14.67-.236.1-.039.198-.077.287-.11.03-.01.052.027.028.048-1.088.984-2.383 1.362-3.297 1.505l-.262.04a.12.12 0 0 0-.093.16l.852 2.278a.12.12 0 0 0 .128.077l.17-.022c1.31-.164 3.392-.783 4.95-1.988l.111-.086.016-.14c.302-2.68.019-6.957-.978-9.477z"/>
    </g>
</svg>
