<svg xmlns="http://www.w3.org/2000/svg" width="24" height="24" viewBox="0 0 24 24">
    <defs>
        <linearGradient id="a" x1="0%" y1="101%" y2="0%">
            <stop offset="0%" stop-color="#3023AE"/>
            <stop offset="100%" stop-color="#03C4EF"/>
        </linearGradient>
    </defs>
    <g fill="none" fill-rule="evenodd">
        <circle cx="12" cy="12" r="11" fill="#FFF"/>
        <path fill="url(#a)" d="M12 24c6.627 0 12-5.373 12-12S18.627 0 12 0 0 5.373 0 12s5.373 12 12 12zM5.042 12.45l.121 1.157h.038l.13-1.176L6.47 8.8h.84l1.12 3.65.13 1.157h.038l.14-1.176.793-3.631h1.298l-1.802 6.58H8.17l-1.167-3.63-.159-1h-.046l-.159 1.009-1.157 3.621h-.906L2.783 8.8h1.391l.868 3.65zm6.347-3.65h3.873v1.139h-2.595v1.521h2.362v1.139h-2.362v1.596h2.642v1.138h-3.92V8.8zm9.268 1.521c0 .162-.02.324-.061.486a1.333 1.333 0 0 1-.565.798c-.149.102-.33.179-.541.228v.056c.187.031.364.084.532.159a1.365 1.365 0 0 1 .733.784c.071.187.107.408.107.663 0 .336-.072.627-.215.872a1.771 1.771 0 0 1-.574.602 2.64 2.64 0 0 1-.816.346c-.305.074-.62.112-.943.112h-.406a12.667 12.667 0 0 1-1.11-.056 4.14 4.14 0 0 1-.537-.084v-6.44a11.929 11.929 0 0 1 .896-.103 14.367 14.367 0 0 1 1.082-.037c.305 0 .602.023.892.07.289.046.547.129.774.247.227.118.41.283.546.495.137.211.206.479.206.802zm-2.334 4.051c.156 0 .307-.019.453-.056.146-.037.275-.095.387-.173a.824.824 0 0 0 .373-.714c0-.205-.04-.367-.12-.485a.824.824 0 0 0-.318-.275 1.308 1.308 0 0 0-.439-.126 4.23 4.23 0 0 0-.485-.028h-.681v1.801c.03.012.08.022.149.028.068.006.142.01.22.014l.242.01c.084.002.157.004.22.004zm-.42-2.828c.087 0 .189-.003.304-.01a2.66 2.66 0 0 0 .284-.027c.237-.075.44-.187.612-.336a.743.743 0 0 0 .256-.588.782.782 0 0 0-.093-.402.711.711 0 0 0-.247-.252 1.047 1.047 0 0 0-.35-.13 2.191 2.191 0 0 0-.411-.038c-.162 0-.311.003-.448.01a2.841 2.841 0 0 0-.317.028v1.745h.41z"/>
    </g>
</svg>
