<svg xmlns="http://www.w3.org/2000/svg" width="24" height="24" viewBox="0 0 24 24">
    <g fill="none" fill-rule="evenodd">
        <circle cx="12" cy="12" r="11" fill="#FFF"/>
        <path fill="#55ACEE" fill-rule="nonzero" d="M12 24C5.373 24 0 18.627 0 12S5.373 0 12 0s12 5.373 12 12-5.373 12-12 12zm7.35-15.376a5.723 5.723 0 0 1-1.647.451 2.876 2.876 0 0 0 1.261-1.586 5.742 5.742 0 0 1-1.821.695 2.869 2.869 0 0 0-4.888 2.617 8.142 8.142 0 0 1-5.912-2.997 2.868 2.868 0 0 0 .888 3.83 2.848 2.848 0 0 1-1.3-.36v.037c0 1.39.989 2.549 2.301 2.812a2.858 2.858 0 0 1-1.295.05 2.871 2.871 0 0 0 2.68 1.991 5.755 5.755 0 0 1-4.247 1.188 8.113 8.113 0 0 0 4.396 1.289c5.276 0 8.161-4.37 8.161-8.161 0-.125-.003-.249-.008-.371a5.817 5.817 0 0 0 1.431-1.485z"/>
    </g>
</svg>
