<svg xmlns="http://www.w3.org/2000/svg" width="24" height="24" viewBox="0 0 24 24">
    <g fill="none" fill-rule="evenodd">
        <circle cx="12" cy="12" r="11" fill="#FFF"/>
        <path fill="#C4302B" fill-rule="nonzero" d="M12 0c6.628 0 12 5.373 12 12s-5.372 12-12 12S0 18.627 0 12 5.372 0 12 0zm-.29 9.75c.38 0 .677-.12.894-.292.217-.172.325-.407.325-.708V6.93a.8.8 0 0 0-.33-.66c-.222-.17-.505-.254-.851-.254-.379 0-.682.08-.906.241a.762.762 0 0 0-.338.652v1.825c0 .3.11.537.329.715.219.178.512.302.877.302zm-.396-2.752c0-.07.036-.125.107-.17a.541.541 0 0 1 .28-.063c.124 0 .224.021.3.064.076.044.114.1.114.169v1.729a.229.229 0 0 1-.113.202.554.554 0 0 1-.302.073.482.482 0 0 1-.286-.072.235.235 0 0 1-.1-.203v-1.73zm2.908 2.75c.133 0 .269-.076.41-.152.142-.079.278-.193.409-.341v.404h.708V6.01h-.708v2.77c-.066.079-.14.144-.219.196a.402.402 0 0 1-.198.077c-.066 0-.115-.019-.144-.058-.03-.038-.046-.1-.046-.186V6.01h-.707V9.06c0 .217.042.38.124.488.083.109.206.2.37.2zm2.06 1.509H7.718c-1.361 0-2.465 1.061-2.465 2.368v2.003c0 1.308 1.104 2.37 2.465 2.37h8.565c1.362 0 2.466-1.062 2.466-2.37v-2.003c0-1.307-1.104-2.368-2.465-2.368zm-7.29 2.032h-.758v3.137h-.732v-3.137h-.758v-.534h2.248v.534zm2.26 3.18h-.79v-.325c-.146.12-.297.212-.456.274-.157.064-.31.095-.458.095-.183 0-.32-.044-.413-.134-.091-.087-.139-.22-.139-.396v-2.476h.79v2.272c0 .07.017.12.048.151.035.032.09.047.163.047.057 0 .132-.02.22-.063.09-.041.171-.093.246-.159v-2.249h.79v2.963zm2.99-.564c0 .195-.062.342-.184.447-.12.104-.3.155-.53.155-.153 0-.29-.02-.408-.06a1.028 1.028 0 0 1-.334-.185v.21h-.788v-3.717h.788v1.197c.107-.082.218-.147.334-.19.12-.044.24-.065.36-.065.247 0 .435.057.565.174.131.117.197.288.197.513v1.521zm3.004-.836h-1.455v.536c0 .149.024.252.074.31.051.058.138.087.259.087.127 0 .214-.025.265-.073.05-.05.077-.157.077-.325v-.13h.782v.146c0 .291-.094.51-.287.658-.19.147-.476.22-.855.22-.34 0-.61-.078-.805-.234-.195-.154-.294-.37-.294-.643v-1.277c0-.245.108-.447.324-.603.215-.154.491-.231.832-.231.348 0 .616.072.804.215.186.143.28.35.28.619v.725zm-8.679-5.31h.895v-2.18l1.042-3.075h-.91L9.04 6.605h-.057l-.58-2.101h-.902l1.066 3.173v2.082zm4.545 4.372l-.166.027-.16.084v1.708a.687.687 0 0 0 .185.097l.188.03c.096 0 .166-.02.21-.06.045-.037.068-.1.068-.187v-1.417c0-.093-.026-.163-.082-.21a.37.37 0 0 0-.243-.072zm3.054-.124c-.122 0-.208.026-.261.078-.053.05-.078.136-.078.255v.287h.672v-.287c0-.12-.027-.204-.08-.255-.052-.052-.138-.078-.253-.078z"/>
    </g>
</svg>
