<svg xmlns="http://www.w3.org/2000/svg" width="24" height="24" viewBox="0 0 24 24">
    <g fill="none" fill-rule="evenodd">
        <circle cx="12" cy="12" r="11" fill="#FFF"/>
        <path fill="#4D76A1" fill-rule="nonzero" d="M12 24C5.373 24 0 18.627 0 12S5.373 0 12 0s12 5.373 12 12-5.373 12-12 12zm-.453-6.737h.942s.284-.031.43-.188c.133-.143.129-.413.129-.413s-.019-1.264.568-1.45c.578-.184 1.32 1.221 2.108 1.761.595.409 1.047.32 1.047.32l2.104-.03s1.1-.068.579-.933c-.043-.071-.304-.64-1.565-1.81-1.319-1.225-1.142-1.027.447-3.145.968-1.29 1.355-2.078 1.234-2.416-.115-.32-.827-.236-.827-.236l-2.37.015s-.175-.024-.305.054c-.128.076-.21.254-.21.254s-.374.998-.875 1.847c-1.055 1.792-1.476 1.886-1.649 1.775-.4-.259-.3-1.041-.3-1.597 0-1.736.263-2.46-.514-2.647-.257-.063-.447-.104-1.105-.11-.846-.01-1.561.002-1.966.2-.27.133-.478.427-.351.444.156.02.511.095.7.351.242.33.233 1.073.233 1.073s.14 2.043-.325 2.297c-.32.174-.758-.181-1.698-1.807-.482-.832-.846-1.752-.846-1.752s-.07-.172-.196-.264c-.151-.112-.364-.147-.364-.147l-2.251.015s-.338.009-.462.156c-.11.13-.009.401-.009.401s1.763 4.124 3.759 6.202c1.83 1.905 3.908 1.78 3.908 1.78z"/>
    </g>
</svg>
