<?xml version="1.0" encoding="UTF-8"?>
<svg width="42px" height="42px" viewBox="0 0 42 42" version="1.1" xmlns="http://www.w3.org/2000/svg" xmlns:xlink="http://www.w3.org/1999/xlink">
    <!-- Generator: Sketch 50.2 (55047) - http://www.bohemiancoding.com/sketch -->
    <title>step-4</title>
    <desc>Created with Sketch.</desc>
    <defs></defs>
    <g id="Page-1" stroke="none" stroke-width="1" fill="none" fill-rule="evenodd">
        <g id="Канал-настройки-" transform="translate(-687.000000, -875.000000)">
            <g id="Уровень-и-опыт-Copy" transform="translate(647.000000, 498.000000)">
                <g id="Group-6" transform="translate(41.000000, 78.000000)">
                    <g id="step-4" transform="translate(0.000000, 300.000000)">
                        <path d="M25.4590641,6 C20.7142713,6 16.854052,9.94214844 16.854052,14.7876445 C16.854052,15.8648672 17.0414688,16.9116719 17.4115288,17.9057656 L9.18368736,26.3088438 C9.06608568,26.4289922 9,26.5918477 9,26.7616602 L9,31.3595977 C9,31.7132891 9.28075226,32 9.62709295,32 L13.3374385,32 C13.5035726,32 13.6628943,31.9327148 13.780496,31.8128203 L15.030853,30.5378555 C15.1487033,30.417707 15.2148884,30.2546484 15.2148884,30.0846328 L15.2148884,28.5167109 L16.7482851,28.5167109 C17.0946258,28.5167109 17.375378,28.23 17.375378,27.8763086 L17.375378,27.2486523 L17.9900395,27.2486523 C18.3363305,27.2486523 18.6171325,26.9619414 18.6171325,26.60825 L18.6171325,25.23025 L19.9664937,25.23025 C20.132777,25.23025 20.2922479,25.1627617 20.4098993,25.0426641 L22.4049509,23.0052695 C23.3785337,23.3835391 24.403732,23.5751875 25.4589647,23.5751875 C30.2037575,23.5751875 34.0639768,19.6330391 34.0639768,14.787543 C34.0640265,9.94214844 30.2038569,6 25.4590641,6 Z M25.4590641,22.2943828 C24.4326227,22.2943828 23.4398954,22.0826758 22.5083807,21.6650508 C22.2675086,21.5570898 21.996254,21.6165039 21.8186332,21.7932734 C21.8166939,21.7951523 21.8148043,21.7966758 21.8129147,21.7986563 L19.7068252,23.9494453 L17.990139,23.9494453 C17.6437983,23.9494453 17.363046,24.2361563 17.363046,24.5898477 L17.363046,25.9678477 L16.7483845,25.9678477 C16.4020936,25.9678477 16.1212916,26.2545586 16.1212916,26.60825 L16.1212916,27.2359063 L14.5878452,27.2359063 C14.2415543,27.2359063 13.9607523,27.5226172 13.9607523,27.8763086 L13.9607523,29.8190469 L13.0779689,30.7191445 L10.2542853,30.7191445 L10.2542853,29.8141719 L17.9190807,21.98675 C18.1395155,21.7616367 18.1395155,21.3967227 17.9190807,21.1716602 C17.6986459,20.9465977 17.3414153,20.9464961 17.1208313,21.1716602 L10.2542853,28.1839922 L10.2542853,27.0269922 L18.5931149,18.5105703 C18.5950045,18.5086406 18.5964465,18.5068633 18.5981869,18.5049844 C18.7713324,18.3237461 18.8297106,18.0467344 18.7239934,17.8005469 C18.3154456,16.8493125 18.1083871,15.8355664 18.1083871,14.7876953 C18.1083871,10.6484141 21.4059582,7.28085547 25.4592133,7.28085547 C29.5124684,7.28085547 32.8099401,10.6483633 32.8099401,14.7876953 C32.8098406,18.926875 29.5122198,22.2943828 25.4590641,22.2943828 Z M28.0778274,9.71434375 C26.7826176,9.71434375 25.7289264,10.7903984 25.7289264,12.1130977 C25.7289264,13.4357969 26.7826176,14.5118516 28.0778274,14.5118516 C29.3730371,14.5118516 30.4267283,13.4357969 30.4267283,12.1130977 C30.4267283,10.7903984 29.3730868,9.71434375 28.0778274,9.71434375 Z M28.0778274,13.2310469 C27.474205,13.2310469 26.9831123,12.7295312 26.9831123,12.1130977 C26.9831123,11.4966641 27.474205,10.9951484 28.0778274,10.9951484 C28.6814497,10.9951484 29.1725424,11.4966641 29.1725424,12.1130977 C29.1725424,12.7295312 28.6814497,13.2310469 28.0778274,13.2310469 Z" id="Shape" fill="#000000" fill-rule="nonzero"></path>
                    </g>
                </g>
            </g>
        </g>
    </g>
</svg>