<?xml version="1.0" encoding="UTF-8"?>
<svg width="42px" height="42px" viewBox="0 0 42 42" version="1.1" xmlns="http://www.w3.org/2000/svg" xmlns:xlink="http://www.w3.org/1999/xlink">
    <!-- Generator: Sketch 50.2 (55047) - http://www.bohemiancoding.com/sketch -->
    <title>step-2</title>
    <desc>Created with Sketch.</desc>
    <defs></defs>
    <g id="Page-1" stroke="none" stroke-width="1" fill="none" fill-rule="evenodd">
        <g id="Канал-настройки-" transform="translate(-687.000000, -660.000000)">
            <g id="Уровень-и-опыт-Copy" transform="translate(647.000000, 498.000000)">
                <g id="Group-6" transform="translate(41.000000, 78.000000)">
                    <g id="step-2" transform="translate(0.000000, 85.000000)">
                        <path d="M30.7154922,19.0150618 C30.6868574,18.6179151 30.3420273,18.3198048 29.9440938,18.3477395 C29.5466875,18.3763593 29.2477891,18.721537 29.2763711,19.1187363 C29.2941426,19.3640871 29.3030547,19.6158153 29.3030547,19.8667003 C29.3030547,25.6149701 24.6241445,30.2914446 18.8729336,30.2914446 C13.1217227,30.2914446 8.4428125,25.6149174 8.4428125,19.8667003 C8.4428125,14.1184832 13.1217227,9.44200872 18.8729863,9.44200872 C21.1506367,9.44200872 23.313748,10.1624069 25.1283379,11.5252499 C25.4469063,11.7644339 25.8990508,11.7002896 26.1384121,11.3819925 C26.3778262,11.0636426 26.3136484,10.6116281 25.9951328,10.372444 C23.9285254,8.82038326 21.4657246,8 18.8729336,8 C12.3262246,7.99994729 7,13.3233993 7,19.8667003 C7,26.4100013 12.3262246,31.7334006 18.8729863,31.7334006 C25.419748,31.7334006 30.7458672,26.410054 30.7458672,19.8667003 C30.7458672,19.581345 30.735584,19.2948302 30.7154922,19.0150618 Z M33.1770801,9.62943454 C32.0797832,8.53276158 30.2943027,8.53276158 29.1970059,9.62943454 L18.8025332,20.0183908 L15.1177715,16.3354945 C14.0204746,15.2388216 12.2349941,15.2388216 11.1376973,16.3354945 C10.0404004,17.4322202 10.0404004,19.2167712 11.1376973,20.3134969 L17.4838047,26.6563008 C17.8474082,27.019715 18.3249707,27.2013958 18.8025332,27.2013958 C19.2801484,27.2013958 19.7577109,27.019715 20.1213145,26.6563008 L33.1770801,13.6073315 C34.2742715,12.5106585 34.2742715,10.7262129 33.1770801,9.62943454 Z M32.1568809,12.587716 L19.1010625,25.6367907 C18.9365313,25.8012363 18.6686406,25.8012363 18.5041094,25.6367907 L12.158002,19.2939341 C11.6232227,18.7594332 11.6232227,17.8898217 12.158002,17.3553208 C12.4253652,17.0879913 12.7765234,16.9544319 13.1277871,16.9544319 C13.4790508,16.9544319 13.8302617,17.088044 14.0975723,17.3553208 L17.8882246,21.1439999 C18.1324902,21.3880856 18.4572813,21.5224883 18.8025859,21.5224883 C19.1480488,21.5224883 19.4728398,21.3880329 19.7170527,21.1439472 L30.2172578,10.6491027 C30.7518789,10.1146018 31.6221016,10.1146018 32.1568809,10.6491027 C32.6916074,11.1836036 32.6916074,12.0532151 32.1568809,12.587716 Z" id="Shape" fill="#000000" fill-rule="nonzero"></path>
                    </g>
                </g>
            </g>
        </g>
    </g>
</svg>