<?xml version="1.0" encoding="UTF-8"?>
<svg width="42px" height="42px" viewBox="0 0 42 42" version="1.1" xmlns="http://www.w3.org/2000/svg" xmlns:xlink="http://www.w3.org/1999/xlink">
    <!-- Generator: Sketch 50.2 (55047) - http://www.bohemiancoding.com/sketch -->
    <title>step-3</title>
    <desc>Created with Sketch.</desc>
    <defs></defs>
    <g id="Page-1" stroke="none" stroke-width="1" fill="none" fill-rule="evenodd">
        <g id="Канал-настройки-" transform="translate(-687.000000, -740.000000)">
            <g id="Уровень-и-опыт-Copy" transform="translate(647.000000, 498.000000)">
                <g id="Group-6" transform="translate(41.000000, 78.000000)">
                    <g id="step-3" transform="translate(0.000000, 165.000000)">
                        <path d="M30.606582,9.39341797 C27.7735156,6.56029297 24.0066406,5 20,5 C15.9933594,5 12.226543,6.56029297 9.39341797,9.39341797 C6.56029297,12.226543 5,15.9933594 5,20 C5,24.0066406 6.56029297,27.773457 9.39341797,30.606582 C12.226543,33.439707 15.9933594,35 20,35 C24.0066406,35 27.7735156,33.439707 30.606582,30.606582 C33.439707,27.773457 35,24.0066406 35,20 C35,15.9933594 33.439707,12.226543 30.606582,9.39341797 Z M27.0300781,11.4471289 L27.6894922,8.70775391 C30.3152539,10.5014258 32.2861133,13.1858398 33.1634961,16.3224805 L32.8180859,16.3889258 C32.3022852,16.488125 31.8871484,16.8816406 31.7607031,17.391582 L31.6266992,17.9316992 C31.6252344,17.937793 31.6242383,17.9417773 31.6144531,17.9452344 C31.6047852,17.9486914 31.6014453,17.9462305 31.5964063,17.9424805 L30.7960742,17.3423047 C30.3812305,17.0311719 29.8163867,16.9855273 29.3571289,17.2260547 L28.3583398,17.7489453 C27.8793359,17.9997266 27.6024219,18.4908008 27.6357031,19.0305664 C27.6689844,19.5702734 28.004082,20.0236133 28.5105078,20.21375 L28.5578516,20.2315039 C28.5633008,20.2335547 28.5673438,20.2350195 28.5698047,20.2448633 C28.5722656,20.2545898 28.5695117,20.2578125 28.5655859,20.2622656 L27.9434375,20.9777539 C27.937168,20.9849023 27.9263867,20.986543 27.9183008,20.9812695 L26.2413477,19.8992773 C25.8567969,19.6511328 25.3774414,19.61375 24.9591992,19.7995508 C24.540957,19.985293 24.2470508,20.3657422 24.1732227,20.8173242 L24.0438477,21.6079297 C23.9707227,22.0541797 24.1242383,22.5051172 24.4545313,22.8141406 L25.3291016,23.6325195 C25.3360156,23.6389648 25.3372461,23.6493945 25.3320313,23.6572461 L23.9066797,25.8178906 C23.7710938,26.0234961 23.6941016,26.2623828 23.6841992,26.5086523 L23.5605078,29.6019922 C23.560332,29.6068555 23.5582813,29.6114844 23.554707,29.6149414 L21.6565625,31.4754688 C21.650293,31.4816211 21.640625,31.482793 21.6331836,31.4783984 L20.4023633,30.7574023 C20.3976758,30.7546484 20.3943359,30.7500781 20.3932227,30.7448633 C20.3932227,30.7448633 19.7960938,28.0352539 19.7737695,27.9751953 L19.2308984,26.5180859 C19.0494922,26.0312891 18.5979688,25.6876953 18.0805859,25.6427539 L15.5960938,25.4266602 C15.5898242,25.4261328 15.5841992,25.4226172 15.5810352,25.4170508 L14.1676367,22.9800781 C14.1654102,22.9762695 14.1646484,22.9717578 14.1652344,22.9674805 L14.5207227,20.6039844 C14.5214844,20.5989453 14.5241211,20.5944336 14.5281641,20.5913867 L16.6983008,18.9539844 C16.7038086,18.9498242 16.7110742,18.9490039 16.7174609,18.951582 L18.8202734,19.8288477 C18.9399805,19.8787109 19.0660156,19.9111133 19.1947461,19.9251172 L22.107207,20.2416992 C22.4391992,20.277793 22.7704297,20.1905469 23.0414258,19.9963086 L24.9710352,18.6132031 C25.4908789,18.2406055 25.6789063,17.5462695 25.4181055,16.962207 L25.2391016,16.561543 C25.0313867,16.096543 24.5864258,15.7903906 24.0780078,15.7626172 L18.6588477,15.4658984 C18.655918,15.4657227 18.6529883,15.4648438 18.6504102,15.4633789 C18.6449023,15.4602734 18.6419727,15.4577539 18.6416797,15.4577539 L18.6416797,15.4578125 C18.639043,15.4517188 18.6410352,15.4363086 18.6441406,15.4320313 C18.6449609,15.4315039 18.6483594,15.4297461 18.6549805,15.4278711 L20.2818945,14.9893555 C20.4971094,14.9313477 20.6964453,14.8199023 20.8583398,14.6670898 L22.8479492,12.7895703 C22.8509375,12.7866992 22.8549219,12.7848828 22.8591406,12.7844141 L25.8535156,12.4760352 C26.4232227,12.4174414 26.8960156,12.0040039 27.0300781,11.4471289 Z M16.8873828,10.3463281 L18.0067578,8.23941406 C18.172168,7.92798828 18.2243164,7.56623047 18.153418,7.22082031 L18.0014258,6.47990234 C18.6539844,6.38380859 19.3211328,6.33335937 19.9999414,6.33335937 C20.6845508,6.33335937 21.3573828,6.38462891 22.0152734,6.48224609 C22.0152734,6.48224609 21.8549023,6.65755859 21.8271875,6.66863281 L20.2418164,7.30455078 C20.015293,7.39548828 19.8116211,7.5415625 19.652832,7.72707031 L17.1826953,10.6142187 C17.1491211,10.6534766 17.1002539,10.677207 17.0485742,10.6794336 C16.9701172,10.6828906 16.9216602,10.6395898 16.8989844,10.6143945 C16.8111523,10.5166602 16.8788281,10.3626172 16.8873828,10.3463281 Z M11.06,9.67097656 L11.06,11.6713086 C11.06,12.23 10.7799805,12.7446289 10.3113477,13.0486133 L8.87597656,13.9800195 C8.54333984,14.1959961 8.26132813,14.4713281 8.03796875,14.7986914 L6.73519531,16.7076758 C7.42431641,13.9319141 8.96333984,11.4882031 11.06,9.67097656 Z M11.9313477,29.3506836 L11.7425,30.8822656 C9.60546875,29.2567578 7.95957031,27.0175391 7.07052734,24.4293359 L7.91931641,24.4293359 C8.02332031,24.4293359 8.11929687,24.4820117 8.1753125,24.5693164 L9.89064453,27.2420117 C9.96798828,27.3620117 10.0599805,27.4713477 10.165332,27.5673242 L11.8340234,29.0892969 C11.9066797,29.155332 11.9433594,29.2533594 11.9313477,29.3506836 Z M20,33.6666406 C17.4359961,33.6666406 15.035,32.9563086 12.9824023,31.7229687 L13.2546875,29.5139844 C13.319375,28.9879883 13.1240234,28.4606445 12.7326758,28.1039844 C12.7326758,28.1039844 11.0273633,26.5439844 11.0126562,26.5219531 L9.29732422,23.8493164 C8.99462891,23.3773437 8.47929687,23.0959766 7.91931641,23.0959766 L6.68708984,23.0959766 C6.45576172,22.1008203 6.33330078,21.0644141 6.33330078,20 C6.33330078,19.8850391 6.33482422,19.7705469 6.33763672,19.6562891 L9.13929687,15.5506836 C9.26263672,15.3693359 9.41796875,15.2173437 9.60195312,15.0980469 L11.0366211,14.1674023 C11.8859375,13.6167383 12.3933008,12.6833984 12.3933008,11.6714258 L12.3933008,8.65132812 C13.6875781,7.78097656 15.1383008,7.12654297 16.6934375,6.73865234 L16.8473047,7.48871094 C16.8559766,7.53119141 16.8495898,7.57566406 16.8292578,7.61386719 L15.71,9.72072266 C15.6400391,9.85226562 15.5493945,10.1982031 15.5493945,10.1982031 C15.4585156,10.6582812 15.5814453,11.1263281 15.8867187,11.4823437 C16.1778125,11.8218945 16.5948828,12.0130273 17.0392578,12.0130273 C17.0608789,12.0130273 17.7054688,12.0444922 18.1957812,11.4811133 L20.6658594,8.59414062 C20.6853711,8.57128906 20.7105078,8.55330078 20.7382812,8.54216797 L22.3235352,7.90630859 C22.5490039,7.81589844 22.7517969,7.67076172 22.9101172,7.48666016 L23.5085352,6.79085937 C24.561875,7.0709375 25.5659375,7.473125 26.5036719,7.98265625 C26.4882031,8.01804687 25.7336328,11.1352344 25.7336328,11.1352344 C25.7317578,11.1431445 25.7249609,11.1490625 25.7168164,11.1498828 L22.7222656,11.4582617 C22.4280078,11.4886133 22.1475195,11.6170508 21.9325391,11.8200195 L19.9429297,13.6975391 C19.9406445,13.6996484 19.9378906,13.7012891 19.9347266,13.7020508 L18.3077539,14.1405664 C17.7769531,14.2835937 17.3885352,14.7283789 17.3182227,15.2735937 C17.2479102,15.8188086 17.5107617,16.3475 17.9879492,16.6206641 C18.1698828,16.7247266 18.3766602,16.7857812 18.5858398,16.7972656 L24.005,17.0939844 C24.012207,17.0943945 24.0185938,17.0987891 24.0215234,17.1054102 L24.2004687,17.505957 C24.2042188,17.5142773 24.2015234,17.5242383 24.1940234,17.5295703 L22.2644141,18.9126758 C22.2605469,18.9154883 22.2560352,18.9167187 22.2511719,18.9161914 L19.3334375,18.5983203 L17.2308594,17.7211719 C16.7891211,17.5367773 16.2774805,17.6014648 15.895332,17.8896875 L13.7251367,19.5271484 C13.440957,19.7416016 13.2552734,20.0536133 13.2023633,20.4057031 L12.8468164,22.7692578 C12.8013477,23.0718359 12.8608789,23.3842578 13.0143359,23.6489258 L14.427793,26.0860742 C14.6485742,26.4668164 15.042207,26.7168945 15.4807227,26.7550977 L17.9652734,26.9711914 C17.9725977,26.9718359 17.9791016,26.9766992 17.9816797,26.9837305 L18.5252539,28.4434766 L19.0908008,31.0298633 C19.17125,31.3975977 19.4036914,31.7176367 19.7284766,31.9080078 L20.9593555,32.6290625 C21.1714648,32.7533398 21.4073047,32.8138672 21.6416797,32.8138672 C21.9876758,32.8138672 22.3306836,32.6818555 22.5899023,32.4278516 L24.4880469,30.5673242 C24.7353125,30.3249805 24.879043,30.0011328 24.8928711,29.6553125 L25.0165625,26.562207 C25.0166797,26.5586328 25.0177344,26.5551172 25.0197852,26.5523047 L26.4451953,24.3916602 C26.8092383,23.8395898 26.7229883,23.1109766 26.2401172,22.6592188 L25.3654883,21.8408398 C25.3608008,21.8364453 25.3586328,21.83 25.3596289,21.8236133 L25.4891211,21.0329492 C25.4901758,21.0265625 25.4907031,21.0226953 25.5003125,21.018418 C25.5096289,21.0141406 25.5130273,21.0163086 25.5185937,21.0198242 L27.1954297,22.1018164 C27.756875,22.4641016 28.510918,22.3572266 28.9494922,21.8529102 L29.5716406,21.1374219 C29.8623828,20.8032031 29.9710156,20.3472852 29.8623242,19.9179102 C29.7535742,19.4885352 29.4412109,19.1391992 29.0263086,18.983457 L28.9789648,18.9657031 C28.9728711,18.963418 28.9698242,18.9614258 28.969707,18.9614258 C28.9660156,18.9563867 28.9651953,18.9412695 28.9677148,18.9363477 C28.9683008,18.9357617 28.9711133,18.933418 28.9767969,18.9304297 L29.9755859,18.4074805 C29.982207,18.4040234 29.9901758,18.404668 29.9960937,18.4091211 L30.7964258,19.0092969 C31.160293,19.2822266 31.6333203,19.3540039 32.0617578,19.2014258 C32.4901367,19.0489062 32.8112891,18.6942969 32.9208008,18.2528516 L33.0548047,17.712793 C33.0565625,17.7055273 33.0624805,17.6998437 33.0699219,17.6984375 L33.4593945,17.6235547 C33.5955078,18.3956445 33.666875,19.189707 33.666875,20.0001758 C33.6666406,27.5358594 27.5358008,33.6666406 20,33.6666406 Z" id="Shape" fill="#000000" fill-rule="nonzero"></path>
                    </g>
                </g>
            </g>
        </g>
    </g>
</svg>