<?xml version="1.0" encoding="UTF-8"?>
<svg width="42px" height="42px" viewBox="0 0 42 42" version="1.1" xmlns="http://www.w3.org/2000/svg" xmlns:xlink="http://www.w3.org/1999/xlink">
    <!-- Generator: Sketch 50.2 (55047) - http://www.bohemiancoding.com/sketch -->
    <title>step-5</title>
    <desc>Created with Sketch.</desc>
    <defs></defs>
    <g id="Page-1" stroke="none" stroke-width="1" fill="none" fill-rule="evenodd">
        <g id="Канал-настройки-" transform="translate(-687.000000, -1029.000000)">
            <g id="Уровень-и-опыт-Copy" transform="translate(647.000000, 498.000000)">
                <g id="Group-6" transform="translate(41.000000, 78.000000)">
                    <g id="step-5" transform="translate(0.000000, 454.000000)">
                        <path d="M36.2274457,21.7658164 L34.1608067,14.0483164 C33.7617551,12.5570959 32.7755168,11.2999414 31.4549004,10.5990664 C30.1342207,9.89812527 28.581552,9.80786057 27.1948067,10.3516326 C26.1809145,10.7495517 25.3199098,11.449037 24.7054489,12.3738532 C24.7054489,12.3738532 24.7025379,12.3763017 24.6965895,12.3763017 L15.7355215,12.3763017 C15.7301426,12.3763017 15.727295,12.3743164 15.7270418,12.3743164 C15.1127707,11.4491032 14.2520192,10.7496179 13.2374942,10.3515003 C11.8506856,9.80812527 10.2978903,9.89819145 8.97733714,10.5991326 C7.65703714,11.2999414 6.67086214,12.5570959 6.27181058,14.0481841 L4.20517151,21.7657503 C3.52243011,24.3144047 4.58821292,26.776765 6.73945901,27.620912 C7.28089339,27.8332062 7.84991839,27.9333973 8.41723479,27.9333973 C10.2627692,27.9333312 12.0876106,26.8728532 12.8661598,25.1635812 L13.857777,22.99339 C14.4688207,23.8494488 15.442466,24.3805812 16.4992629,24.3805812 C17.9404934,24.3805812 19.2035871,23.3973312 19.6354184,21.9920076 L20.7935918,21.9920076 C21.2253598,23.3973312 22.4880739,24.3805812 23.9290512,24.3805812 C24.9864176,24.3805812 25.9605059,23.8488532 26.5714231,22.9921988 L27.565445,25.162787 C28.0666325,26.263037 28.9378254,27.1203532 30.0184793,27.57664 C31.0991965,28.0329929 32.2954653,28.0487429 33.3870668,27.6208459 C34.4784153,27.1926841 35.369795,26.3581988 35.896991,25.2711841 C36.4240606,24.1844341 36.5414473,22.9395885 36.2274457,21.7658164 Z M34.7078098,24.6404562 C34.3319192,25.4153164 33.6965754,26.0101767 32.9188489,26.3153164 C32.1408692,26.6201914 31.288091,26.6090076 30.5177051,26.2837503 C29.7473825,25.9584267 29.1264035,25.3474194 28.7685481,24.5618385 L27.3824356,21.5349929 C27.2298012,21.201662 26.9028903,20.9998238 26.5496543,21.0184856 C26.1977473,21.0380076 25.894377,21.274787 25.7768637,21.6216841 C25.5003246,22.4379047 24.7577192,22.9863091 23.9291145,22.9863091 C22.9943239,22.9863091 22.1855262,22.2914562 22.0061239,21.334015 C21.9261364,20.9073753 21.5668254,20.5976694 21.1517637,20.5976694 L19.2775629,20.5976694 C18.8624379,20.5976694 18.503127,20.9073753 18.4230762,21.3341473 C18.2436739,22.2914562 17.4345598,22.9863091 16.4993262,22.9863091 C15.6709114,22.9863091 14.9284325,22.4381032 14.6517035,21.6221473 C14.5340637,21.2751841 14.2305668,21.0384709 13.8785332,21.0190812 C13.5257403,20.9992944 13.1983231,21.2027209 13.0459418,21.5363164 L11.6628668,24.5630959 C10.9424098,26.1446473 8.86070979,26.9633826 7.20780354,26.3153164 C5.69639417,25.7223091 4.98979573,24.0060885 5.48914808,22.141765 L7.55585042,14.4240003 C7.85896761,13.29139 8.57809573,12.3745812 9.5809137,11.8423238 C10.1489895,11.5408238 10.7585778,11.3889488 11.3717731,11.3889488 C11.8411934,11.3889488 12.3128285,11.47789 12.7694028,11.6568973 C13.5287778,11.9549562 14.1728543,12.4779488 14.6318965,13.1694267 C14.8818575,13.5457723 15.2944512,13.7704414 15.7355215,13.7704414 L24.6965262,13.7704414 C25.1375332,13.7704414 25.5500004,13.5459709 25.7998348,13.16989 C26.2595731,12.478015 26.903966,11.9548238 27.6630246,11.6568973 C28.7160246,11.2440885 29.8483793,11.3098679 30.8515137,11.8421914 C31.8544582,12.3744488 32.5737129,13.2913238 32.8768301,14.4240003 L34.9434059,22.1415003 C35.1673582,22.9782356 35.0835739,23.865662 34.7078098,24.6404562 Z M29.1202653,15.2955444 C29.58544,15.2955444 29.9625387,14.9011928 29.9625387,14.4147356 C29.9625387,13.9282783 29.58544,13.5339267 29.1202653,13.5339267 C28.6550905,13.5339267 28.2779918,13.9282783 28.2779918,14.4147356 C28.2779918,14.9011928 28.6550905,15.2955444 29.1202653,15.2955444 Z M29.1202653,19.4548017 C29.585475,19.4548017 29.962602,19.0604206 29.962602,18.5739267 C29.962602,18.0874329 29.585475,17.6930517 29.1202653,17.6930517 C28.6550555,17.6930517 28.2779285,18.0874329 28.2779285,18.5739267 C28.2779285,19.0604206 28.6550555,19.4548017 29.1202653,19.4548017 Z M27.131652,17.3752062 C27.5968617,17.3752062 27.9739887,16.980825 27.9739887,16.4943312 C27.9739887,16.0078373 27.5968617,15.6134562 27.131652,15.6134562 C26.6664423,15.6134562 26.2893153,16.0078373 26.2893153,16.4943312 C26.2893153,16.980825 26.6664423,17.3752062 27.131652,17.3752062 Z M31.1089418,17.3752062 C31.5741515,17.3752062 31.9512785,16.980825 31.9512785,16.4943312 C31.9512785,16.0078373 31.5741515,15.6134562 31.1089418,15.6134562 C30.6437321,15.6134562 30.2666051,16.0078373 30.2666051,16.4943312 C30.2666051,16.980825 30.6437321,17.3752062 31.1089418,17.3752062 Z M13.3135582,15.7970297 L12.1331731,15.7970297 L12.1331731,14.56264 C12.1331731,14.1776253 11.8347387,13.8654709 11.4665051,13.8654709 C11.0983348,13.8654709 10.7998371,14.1775591 10.7998371,14.56264 L10.7998371,15.7970297 L9.61945198,15.7970297 C9.25128167,15.7970297 8.95278401,16.1091179 8.95278401,16.4941988 C8.95278401,16.8792135 9.25121839,17.1913679 9.61945198,17.1913679 L10.7998371,17.1913679 L10.7998371,18.4257576 C10.7998371,18.8107723 11.0982715,19.1229267 11.4665051,19.1229267 C11.8346754,19.1229267 12.1331731,18.8108385 12.1331731,18.4257576 L12.1331731,17.1913679 L13.3135582,17.1913679 C13.6817285,17.1913679 13.9802262,16.8792797 13.9802262,16.4941988 C13.9801629,16.1091179 13.6817285,15.7970297 13.3135582,15.7970297 Z M18.683352,15.7970297 L17.9540989,15.7970297 C17.5859285,15.7970297 17.2874309,16.1091179 17.2874309,16.4941988 C17.2874309,16.8792135 17.5858653,17.1913679 17.9540989,17.1913679 L18.683352,17.1913679 C19.0515223,17.1913679 19.35002,16.8792797 19.35002,16.4941988 C19.3499567,16.1091179 19.0515223,15.7970297 18.683352,15.7970297 Z M22.4776957,15.7970297 L21.7484426,15.7970297 C21.3802723,15.7970297 21.0817746,16.1091179 21.0817746,16.4941988 C21.0817746,16.8792135 21.380209,17.1913679 21.7484426,17.1913679 L22.4776957,17.1913679 C22.845866,17.1913679 23.1443637,16.8792797 23.1443637,16.4941988 C23.1443637,16.1091179 22.845866,15.7970297 22.4776957,15.7970297 Z M16.4993262,19.531765 C15.7591887,19.531765 15.1570676,20.1614341 15.1570676,20.9354341 C15.1570676,21.7095003 15.7591887,22.3391694 16.4993262,22.3391694 C17.239527,22.3391694 17.8416481,21.7095003 17.8416481,20.9354341 C17.8415848,20.1614341 17.2394637,19.531765 16.4993262,19.531765 Z M16.4993262,21.2934488 C16.3106215,21.2934488 16.1570379,21.1329047 16.1570379,20.9354341 C16.1570379,20.7380959 16.3105582,20.5774856 16.4993262,20.5774856 C16.6880942,20.5774856 16.8416778,20.7380297 16.8416778,20.9354341 C16.8416145,21.1328385 16.6880942,21.2934488 16.4993262,21.2934488 Z M23.9289879,19.531765 C23.1888504,19.531765 22.5867293,20.1614341 22.5867293,20.9354341 C22.5867293,21.7095003 23.1888504,22.3391694 23.9289879,22.3391694 C24.6691254,22.3391694 25.2712465,21.7095003 25.2712465,20.9354341 C25.2712465,20.1614341 24.6691254,19.531765 23.9289879,19.531765 Z M23.9289879,21.2934488 C23.7402832,21.2934488 23.5866996,21.1329047 23.5866996,20.9354341 C23.5866996,20.7380959 23.74022,20.5774856 23.9289879,20.5774856 C24.1177559,20.5774856 24.2712762,20.7380297 24.2712762,20.9354341 C24.2712762,21.1328385 24.1177559,21.2934488 23.9289879,21.2934488 Z" id="Shape" fill="#000000" fill-rule="nonzero"></path>
                    </g>
                </g>
            </g>
        </g>
    </g>
</svg>