<?xml version="1.0" encoding="UTF-8"?>
<svg width="42px" height="42px" viewBox="0 0 42 42" version="1.1" xmlns="http://www.w3.org/2000/svg" xmlns:xlink="http://www.w3.org/1999/xlink">
    <!-- Generator: Sketch 50.2 (55047) - http://www.bohemiancoding.com/sketch -->
    <title>step-1</title>
    <desc>Created with Sketch.</desc>
    <defs></defs>
    <g id="Page-1" stroke="none" stroke-width="1" fill="none" fill-rule="evenodd">
        <g id="Канал-настройки-" transform="translate(-687.000000, -575.000000)">
            <g id="Уровень-и-опыт-Copy" transform="translate(647.000000, 498.000000)">
                <g id="Group-6" transform="translate(41.000000, 78.000000)">
                    <g id="step-1">
                        <path d="M27.6328581,16.4101762 C27.5732608,12.3212667 24.01454,9.01194286 19.6486635,9.01194286 C17.7065953,9.01194286 15.8355532,9.67571429 14.380354,10.881 C13.0815906,11.9566429 12.1931509,13.394081 11.8413096,14.9722667 C11.8156086,14.9720048 11.7901306,14.9717952 11.7647084,14.9717952 C8.03472203,14.9718476 5,17.8231 5,21.3277 C5,24.8323 8.03472203,27.6835524 11.7647641,27.6835524 L14.2475563,27.6835524 C14.583676,27.6835524 14.8562959,27.4275143 14.8562959,27.1116048 C14.8562959,26.7956952 14.583676,26.5396571 14.2475563,26.5396571 L11.7647641,26.5396571 C8.70595789,26.5396571 6.21747914,24.201581 6.21747914,21.3277 C6.21747914,18.453819 8.70595789,16.1157429 11.7647641,16.1157429 C11.9277228,16.1157429 12.0999918,16.1239667 12.2914947,16.1408857 C12.6160741,16.1691714 12.9074819,15.9525238 12.951692,15.6487143 C13.1709029,14.1390952 13.9641766,12.7506333 15.1854468,11.7391048 C16.4181458,10.7180952 18.0031879,10.1558381 19.6486078,10.1558381 C23.3802667,10.1558381 26.4161037,13.0082429 26.4161037,16.5143095 C26.4161037,16.6405476 26.3910717,16.9669857 26.3910717,16.9669857 C26.3784164,17.1352333 26.4454285,17.300181 26.5743236,17.4176714 C26.7030515,17.5351619 26.8802823,17.5930952 27.0591856,17.5763857 C27.221085,17.5610381 27.3844339,17.5533381 27.5446608,17.5533381 C30.1814916,17.5533381 32.3268261,19.5689571 32.3268261,22.0464714 C32.3268261,24.5239333 30.1815474,26.5395524 27.5446608,26.5395524 L24.8183505,26.5395524 C24.4822308,26.5395524 24.2096109,26.7955905 24.2096109,27.1115 C24.2096109,27.4274095 24.4822308,27.6834476 24.8183505,27.6834476 L27.5446608,27.6834476 C30.852839,27.6834476 33.5443053,25.1547571 33.5443053,22.0464714 C33.5442495,18.9660524 30.9005614,16.4547 27.6328581,16.4101762 Z M19.6487193,11.7001333 C17.1032635,11.7001333 14.9243115,13.4874238 14.5802195,15.8574524 C14.5347828,16.1704286 14.7681544,16.4578429 15.1010963,16.5014762 C15.4561154,16.5479905 15.7449029,16.2988143 15.7865485,16.012081 C16.0486873,14.2060381 17.7090483,12.844081 19.6487193,12.844081 C19.9849505,12.844081 20.2574589,12.5880429 20.2574589,12.2721333 C20.2574589,11.9561714 19.9848947,11.7001333 19.6487193,11.7001333 Z M22.4654569,28.0814905 C22.2415072,27.8459857 21.8566616,27.8255048 21.6058959,28.0360238 L20.1416094,29.2650381 L20.1416094,22.2286524 C20.1416094,21.9127429 19.8689895,21.6567048 19.5328698,21.6567048 C19.1966386,21.6567048 18.9241302,21.9127429 18.9241302,22.2286524 L18.9241302,29.2649857 L17.4598994,28.0359714 C17.2092452,27.8255048 16.8242881,27.8459857 16.6003942,28.0814381 C16.3763887,28.3170476 16.3980199,28.6785286 16.6487856,28.8890476 L18.8630277,30.747681 C19.0539731,30.908019 19.2933657,30.9881095 19.532814,30.9881095 C19.7722066,30.9881095 20.011655,30.9079667 20.2025446,30.7477333 L22.4168982,28.8891 C22.6677197,28.6786857 22.6894066,28.3171 22.4654569,28.0814905 Z" id="Shape" fill="#000000" fill-rule="nonzero"></path>
                    </g>
                </g>
            </g>
        </g>
    </g>
</svg>