<?xml version="1.0" encoding="UTF-8"?>
<svg width="16px" height="16px" viewBox="0 0 16 16" version="1.1" xmlns="http://www.w3.org/2000/svg" xmlns:xlink="http://www.w3.org/1999/xlink">
    <!-- Generator: sketchtool 51 (57462) - http://www.bohemiancoding.com/sketch -->
    <title>6D3CBCBD-1595-4023-A148-7FD882119E45</title>
    <desc>Created with sketchtool.</desc>
    <defs></defs>
    <g id="Symbols" stroke="none" stroke-width="1" fill="none" fill-rule="evenodd">
        <g id="ui/icons/regular/xp" fill-rule="nonzero">
            <g id="XP">
                <path d="M9.4,1.1 L14.8,6.5 C15.6,7.3 15.6,8.5 14.8,9.3 L9.4,14.7 C8.6,15.5 7.4,15.5 6.6,14.7 L1.1,9.4 C0.3,8.6 0.3,7.4 1.1,6.6 L6.5,1.2 C7.4,0.4 8.6,0.4 9.4,1.1 Z" id="Shape" fill="#9013FE"></path>
                <path d="M5.8,8 L4.4,5.6 L5.6,5.6 L6.4,7 L6.6,7.5 L6.7,7 L7.5,5.6 L8.5,5.6 L7.1,7.9 L8.6,10.4 L7.5,10.4 L6.6,9 L6.4,8.5 L6.2,9 L5.3,10.5 L4.3,10.5 L5.8,8 Z M10.6,5.6 C10.9989913,5.6 12.5,5.58710547 12.5,7.1 C12.5,8.61289453 10.9982226,8.8 10.6,8.8 C10.6,8.8 10,8.8 10,8.8 L10,10.5 L9,10.5 L9,5.59999638 C9.73333333,5.59999879 10.2666667,5.6 10.6,5.6 Z M10.4,6.3 C10.1506096,6.3 10,6.3 10,6.3 L10,8.00000037 C10,8.00000037 10.4,8 10.4,8 C10.6439136,8 11.4067229,7.84102519 11.4067229,7.11439558 C11.4067229,6.38776598 10.6493904,6.3 10.4,6.3 Z" id="Shape" fill="#FFFFFF"></path>
            </g>
        </g>
    </g>
</svg>