<?xml version="1.0" encoding="utf-8"?>
<!DOCTYPE svg PUBLIC "-//W3C//DTD SVG 1.1//EN" "http://www.w3.org/Graphics/SVG/1.1/DTD/svg11.dtd">
<svg version="1.1" xmlns="http://www.w3.org/2000/svg" xmlns:xlink="http://www.w3.org/1999/xlink" x="0px" y="0px" viewBox="-53.5 -51.5 400 400" enable-background="new -53.5 -51.5 400 400" xml:space="preserve">
	<filter  id="filter-1" filterUnits="objectBoundingBox" y="-69.1%" x="-68.2%" width="236.4%" height="238.2%">
		<feOffset  result="shadowOffsetOuter1" in="SourceAlpha" dy="0" dx="0"></feOffset>
		<feGaussianBlur  stdDeviation="35" result="shadowBlurOuter1" in="shadowOffsetOuter1"></feGaussianBlur>
			<feColorMatrix  values="0 0 0 0 0.412602588   0 0 0 0 0.736894909   0 0 0 0 1  0 0 0 1 0" result="shadowMatrixOuter1" in="shadowBlurOuter1" type="matrix">
			</feColorMatrix>
		<feMerge>
			<feMergeNode  in="shadowMatrixOuter1"></feMergeNode>
			<feMergeNode  in="SourceGraphic"></feMergeNode>
		</feMerge>
	</filter>
	<g transform="translate(-447.000000, -1749.000000)">
		<g transform="translate(583.716643, 1891.074604) rotate(-18.000000) translate(-583.716643, -1891.074604) translate(506.716643, 1815.074604)" filter="url(#filter-1)">
			<path id="Shape_1_" fill="#41AAFF" d="M148.481,98.269V87.501c0-2.843-2.292-5.147-5.12-5.147V66.913
				C143.361,29.958,113.561,0,76.801,0S10.24,29.958,10.24,66.913l0,15.441c-2.828,0-5.12,2.304-5.12,5.147l0,10.768
				c-3.058,1.087-5.107,3.987-5.12,7.247l0,30.883c0,4.264,3.438,7.721,7.68,7.721h7.68c0,4.264,3.438,7.721,7.68,7.721H38.4
				c4.242,0,7.68-3.457,7.68-7.721l0-46.324c0-4.264-3.438-7.721-7.68-7.721H23.04c-0.874,0.008-1.74,0.169-2.56,0.474v-3.047
				c0-2.843-2.292-5.147-5.12-5.147l0-12.868h2.624c2.761,0.002,5.026-2.198,5.12-4.972c1.327-29.818,26.449-52.909,56.11-51.575
				c27.802,1.251,50.059,23.625,51.303,51.575c0.092,2.775,2.358,4.976,5.12,4.975h2.604v12.868c-2.828,0-5.12,2.304-5.12,5.147
				v3.047c-0.82-0.306-1.686-0.467-2.56-0.476l-15.36,0c-4.242,0-7.68,3.457-7.68,7.721l0,46.324c0,4.264,3.438,7.721,7.68,7.721
				l15.36,0c4.242,0,7.68-3.457,7.68-7.721l7.68,0c4.242,0,7.68-3.457,7.68-7.721v-30.883
				C153.588,102.256,151.539,99.356,148.481,98.269z M20.48,97.796c0-1.421,1.146-2.574,2.56-2.574H38.4
				c1.414,0,2.56,1.152,2.56,2.574l0,46.324c0,1.421-1.146,2.574-2.56,2.574l-15.36,0c-1.414,0-2.56-1.152-2.56-2.574L20.48,97.796z
				 M15.36,138.973H7.68c-1.414,0-2.56-1.152-2.56-2.574l0-30.883c0-1.421,1.146-2.574,2.56-2.574h7.68L15.36,138.973z
				 M15.36,97.796h-5.12l0-10.294h5.12L15.36,97.796z M135.615,64.288c-1.33-31.666-27.287-56.631-58.814-56.567
				C45.253,7.655,19.286,32.651,17.984,64.339h-2.56C16.981,30.263,45.722,3.907,79.619,5.472
				c31.708,1.464,57.087,26.967,58.556,58.841L135.615,64.288z M133.121,144.12c0,1.421-1.146,2.574-2.56,2.574h-15.36
				c-1.414,0-2.56-1.152-2.56-2.574l0-46.324c0-1.421,1.146-2.574,2.56-2.574h15.36c1.414,0,2.56,1.152,2.56,2.574L133.121,144.12z
				 M138.241,87.501h5.12v10.294h-5.12V87.501z M148.481,136.399c0,1.421-1.146,2.574-2.56,2.574h-7.68v-36.03h7.68
				c1.414,0,2.56,1.152,2.56,2.574V136.399z"/>
		</g>
	</g>
</svg>
