<?xml version="1.0" encoding="utf-8"?>
<!DOCTYPE svg PUBLIC "-//W3C//DTD SVG 1.1//EN" "http://www.w3.org/Graphics/SVG/1.1/DTD/svg11.dtd">
<svg version="1.1" xmlns="http://www.w3.org/2000/svg" xmlns:xlink="http://www.w3.org/1999/xlink" x="0px" y="0px" viewBox="-34 -62.5 400 400" enable-background="new -34 -62.5 400 400" xml:space="preserve">
	<filter id="filter-1" filterUnits="objectBoundingBox" y="-108.2%" x="-55.6%" width="211.1%" height="316.5%">
		<feOffset  result="shadowOffsetOuter1" in="SourceAlpha" dy="0" dx="0"></feOffset>
		<feGaussianBlur  stdDeviation="35" result="shadowBlurOuter1" in="shadowOffsetOuter1"></feGaussianBlur>
			<feColorMatrix  values="0 0 0 0 0.412602588   0 0 0 0 0.736894909   0 0 0 0 1  0 0 0 1 0" result="shadowMatrixOuter1" in="shadowBlurOuter1" type="matrix">
			</feColorMatrix>
		<feMerge>
			<feMergeNode  in="shadowMatrixOuter1"></feMergeNode>
			<feMergeNode  in="SourceGraphic"></feMergeNode>
		</feMerge>
	</filter>
	<g transform="translate(-721.000000, -313.000000)">
		<g transform="translate(887.141561, 450.623842) rotate(-19.000000) translate(-887.141561, -450.623842) translate(792.641561, 402.123842)" filter="url(#filter-1)">
			<path fill="#41AAFF" d="M175.669,0.256l-140.59,0c-1.542,0-2.792,1.235-2.792,2.759s1.25,2.759,2.792,2.759
				l140.59,0c3.978,0,7.203,3.186,7.203,7.117v5.462l-176.832,0l0-5.462c0-3.93,3.225-7.116,7.202-7.116l8.806,0
				c1.542,0,2.792-1.235,2.792-2.759s-1.25-2.759-2.792-2.759l-8.806,0C6.18,0.256,0.455,5.912,0.455,12.89l0,70.732
				c0,6.977,5.725,12.634,12.787,12.634l162.426,0c7.062,0,12.787-5.656,12.787-12.634V75.4V57.303l0-18.096V21.11v-8.221
				C188.455,5.912,182.73,0.256,175.669,0.256z M144.691,23.87l16.298,0v12.579l-16.298,0V23.87z M168.387,41.966v12.579l-16.298,0
				V41.966L168.387,41.966z M146.505,41.966l0,12.579l-16.298,0V41.966L146.505,41.966z M122.809,23.87l16.298,0v12.579l-16.298,0
				L122.809,23.87z M124.623,41.966v12.579l-16.298,0l0-12.579L124.623,41.966z M100.927,23.87l16.298,0l0,12.579l-16.298,0
				L100.927,23.87z M79.045,60.063l16.298,0v12.579H79.045V60.063z M64.561,54.545V41.966l16.298,0v12.579L64.561,54.545z
				 M86.444,54.545V41.966l16.298,0v12.579L86.444,54.545z M79.045,23.87l16.298,0l0,12.579l-16.298,0L79.045,23.87z M57.163,23.87
				l16.298,0l0,12.579l-16.298,0L57.163,23.87z M58.977,41.966l0,12.579l-16.298,0l0-12.579L58.977,41.966z M35.281,23.87l16.298,0
				l0,12.579l-16.298,0L35.281,23.87z M37.095,41.966l0,12.579l-16.298,0l0-12.579L37.095,41.966z M6.039,23.87l23.658,0l0,12.579
				l-23.658,0L6.039,23.87z M6.039,41.966h9.174l0,12.579l-9.174,0L6.039,41.966z M12.736,90.713
				c-3.735-0.259-6.697-3.336-6.697-7.091l0-5.462h6.697L12.736,90.713z M6.039,72.642l0-12.579l23.658,0l0,12.579L6.039,72.642z
				 M34.618,90.738l-16.298,0l0-12.579h16.298L34.618,90.738z M35.281,60.063l16.298,0l0,12.579l-16.298,0L35.281,60.063z
				 M56.5,90.738l-16.298,0l0-12.579l16.298,0L56.5,90.738z M57.163,60.063l16.298,0v12.579H57.163L57.163,60.063z M120.715,90.738
				l-58.63,0l0-12.579l40.748,0c1.542,0,2.792-1.235,2.792-2.759c0-1.523-1.25-2.759-2.792-2.759h-1.905V60.063l16.298,0v12.579
				h-1.362c-1.542,0-2.792,1.235-2.792,2.759c0,1.523,1.25,2.759,2.792,2.759l4.852,0L120.715,90.738z M122.809,60.063l16.298,0
				v12.579l-16.298,0V60.063z M142.596,90.738l-16.298,0l0-12.579l16.298,0V90.738z M144.691,60.063l16.298,0l0,12.579l-16.298,0
				V60.063z M164.479,90.738l-16.298,0V78.159h16.298V90.738z M182.871,83.621c0,3.924-3.231,7.117-7.203,7.117h-5.605l0-12.579
				h12.808V83.621z M182.871,57.304v15.338l-16.298,0V60.063l4.606,0c1.542,0,2.792-1.235,2.792-2.759V41.966l8.9,0L182.871,57.304z
				 M182.871,36.449l-16.298,0l0-12.579l16.298,0V36.449z"/>
		</g>
	</g>
</svg>
