<?xml version="1.0" encoding="utf-8"?>
<!DOCTYPE svg PUBLIC "-//W3C//DTD SVG 1.1//EN" "http://www.w3.org/Graphics/SVG/1.1/DTD/svg11.dtd">
<svg version="1.1" xmlns="http://www.w3.org/2000/svg" xmlns:xlink="http://www.w3.org/1999/xlink" x="0px" y="0px" viewBox="-37 -55 400 400" enable-background="new -37 -55 400 400" xml:space="preserve">
	<filter  id="filter-1" filterUnits="objectBoundingBox" y="-67.3%" x="-53.0%" width="206.1%" height="234.6%">
		<feOffset  result="shadowOffsetOuter1" dy="0" dx="0"></feOffset>
		<feGaussianBlur  stdDeviation="35" result="shadowBlurOuter1" in="shadowOffsetOuter1"></feGaussianBlur>
			<feColorMatrix  values="0 0 0 0 0.412602588   0 0 0 0 0.736894909   0 0 0 0 1  0 0 0 1 0" result="shadowMatrixOuter1" in="shadowBlurOuter1" type="matrix">
			</feColorMatrix>
		<feMerge>
			<feMergeNode  in="shadowMatrixOuter1"></feMergeNode>
			<feMergeNode  in="SourceGraphic"></feMergeNode>
		</feMerge>
	</filter>
	<g transform="translate(-1011.000000, -1354.000000)">
		<g transform="translate(1076.000000, 1420.000000)" filter="url(#filter-1)">
			<path fill="#41AAFF" d="M196.768,76.386c-6.06-9.557-7.763-12.243-8.031-12.665
				c0.266,0.419,1.662,2.621-0.758-1.195c-7.601-11.991-4.732-9.317-25.708-20.114c-3.093-1.591-6.468-1.738-8.942,0.325h-2.966
				c-15.162-23.914-8.889-14.021-16.519-26.052c-1.668-2.631-5.145-5.351-6.807-6.211c-0.475-0.245-17.243-8.876-17.72-9.122
				c-3.189-1.581-6.581-2.024-9.439,0.037C81.381,9.342,65.649,2.369,63.711,1.443c-2.854-2.116-6.283-1.692-9.512-0.092
				c-24.78,12.757-20.701,9.3-30.173,24.238h0l-0.023,0.035c0,0-22.324,35.208-22.357,35.26c-1.886,2.899-2.475,7.776-0.017,11.988
				l15.358,26.298c2.59,4.313,6.614,4.579,8.931,3.502c0.307-0.143-0.48,0.356,11.673-7.676c3.318-2.193,3.337-6.219,1.39-9.456
				c-0.005-0.009-9.173-15.353-9.178-15.362L40.696,52.74v8.119c0,1.589,1.298,2.876,2.901,2.876s2.901-1.287,2.901-2.876V51.77
				c0-1.92,0-6.415-3.341-7.413c-2.473-0.738-4.77,1.197-6.128,3.328L23.945,68.632c-0.568,0.91-0.58,2.058-0.029,2.98
				c10.135,16.965,10.825,17.826,10.566,18.511c-0.037,0.051-11.006,7.29-11.059,7.325c-0.98,0.114-0.458,0.48-16.772-27.456
				c-1.778-3.045-0.295-5.71-0.079-6.067c0.025-0.04,22.317-35.197,22.343-35.237c8.684-12.913,3.921-9.857,19.481-17.867
				l16.203,7.617v18.024c0,1.588,1.299,2.876,2.901,2.876s2.901-1.288,2.901-2.876V21.165l8.456,3.976v43.321
				c-14.047,0-10.768-1.366-21.761,10.717c-0.273,0.299-2.393,2.724-2.393,5.878v13.667c0,4.233,3.474,7.676,7.744,7.676h16.411
				v12.745H50.446c-1.623,0-3.793-0.332-3.948-3.193v-40.08c0-1.589-1.298-2.876-2.901-2.876s-2.901,1.287-2.901,2.876
				c0,0.092-0.002,40.186,0.003,40.277c0.18,4.035,2.841,8.747,9.747,8.747c0.913,0,51.329,0,52.178,0
				c0,0.092-0.002,23.038,0.003,23.129c0.164,3.678,2.583,7.973,8.862,7.973h35.664c1.603,0,2.901-1.287,2.901-2.876
				c0-1.589-1.298-2.876-2.901-2.876h-35.665c-1.449,0-2.943-0.289-3.063-2.419c0-65.43,0.009-61.369-0.016-61.998
				c-0.097-0.383,0.122-5.954-4.025-6.141c-3.504-0.158-5.249,3.743-8.407,8.814l-11.318-8.149
				c-0.027-0.477,0.102-0.528,8.369-13.567c5.01-7.832,5.342-9.2,8.888-11.373c18.152-9.345,16.956-9.18,18.379-7.769
				c0.142,0.14,9.352,9.275,9.498,9.41c5.457,5.41,12.701,4.732,17.42-0.142l0,0l9.898-9.812c1.009-0.649,1.912,0.119,17.83,8.313
				c0.827,0.507,2.95,2.008,3.924,3.544c13.545,21.332,13.367,20.949,13.334,21.396l-11.318,8.149
				c-0.134-0.214-3.37-5.394-3.504-5.607c-1.052-1.699-2.862-3.307-4.882-3.208c-2.695,0.122-4.062,2.464-4.062,6.96v61.18
				c-0.169,2.988-2.624,2.419-7.742,2.419c-1.603,0-2.901,1.287-2.901,2.876S159.087,156,160.69,156h4.679
				c5.716,0,8.866-3.849,8.866-8.1V88.789c1.636,2.618,2.734,5.192,5.713,5.667c0.949,0.153,2.41,0.092,3.992-1.046
				c0.049-0.035,11.792-8.49,11.84-8.526C198.186,83.054,198.819,79.569,196.768,76.386z M54.858,7.493
				c1.627-0.837,4.103-2.369,5.351-1.466l7.64,7.574L54.858,7.493z M78.856,100.649h-16.41c-1.071,0-1.942-0.863-1.942-1.925
				V85.057c0-0.749,0.608-1.69,0.907-2.034c8.151-8.96,7.618-8.709,8.951-8.81h8.494V100.649z M84.659,87.463
				c8.739,6.292,9.345,7.231,11.853,7.04c3.219-0.243,4.415-2.998,6.112-5.714v11.09c-0.777,1.028-0.091,0.771-17.965,0.771V87.463
				z M84.659,119.145V106.4c17.913,0,16.9,0.056,17.965-0.159v12.904H84.659z M103.453,5.94c1.355-0.683,3.506,0.678,5.204,1.553
				L95.667,13.6C95.816,13.452,103.265,6.035,103.453,5.94z M81.758,19.255l-9.178-9.099c5.012,0.897,11.338,1.261,18.421-0.064
				L81.758,19.255z M123.531,42.737c-0.387-0.323-0.673-0.487-0.87-0.602c-1.161-0.674-2.457-0.971-3.782-0.93
				c-2.687,0.086-2.872,0.476-19.724,9.151c-4.878,2.524-6.61,6.388-14.04,18.106h-0.455V25.141l8.457-3.976v15.297
				c0,1.588,1.298,2.876,2.901,2.876s2.901-1.287,2.901-2.876V18.437l16.203-7.617l9.155,4.713c0.966,0.59,3.488,2.37,4.656,4.213
				l14.579,22.991H123.531z M138.377,55.085c-2.808,0.074-4.433-2.041-9.028-6.597h18.158
				C142.365,53.586,141.439,55.017,138.377,55.085z M188.715,63.687c-0.003-0.006-0.008-0.012-0.01-0.016
				C188.707,63.675,188.711,63.68,188.715,63.687z"/>
			<g transform="translate(147.802817, 65.464286)">
				<path fill="#41AAFF" d="M13.421,2.062c-0.639-1.945-3.66-2.004-6.449-2.004c-2.847,0-5.81,0.118-6.449,2.062
					C-0.174,4.125,0.116,9.37,0.116,9.37c0,2.239,5.752,5.893,6.798,5.893c1.104,0,6.739-3.712,6.798-5.893
					C13.827,7.543,14.118,4.125,13.421,2.062z M12.433,8.721c-0.116,1.532-4.241,4.832-5.461,4.832
					c-1.278,0-5.461-3.359-5.461-4.832c0-1.12-0.349-4.596,0.232-5.716c0.93-1.709,3.893-1.591,5.171-1.591
					c1.336,0,4.299-0.118,5.171,1.591C12.724,4.125,12.491,7.543,12.433,8.721z"/>
				<path fill="#41AAFF" d="M6.972,1.12c-0.116,0-0.232,0.059-0.29,0.177L4.938,4.479L1.511,5.068
					C1.336,5.127,1.278,5.186,1.22,5.304c-0.058,0.118,0,0.236,0.058,0.354l2.498,2.652l-0.523,3.477
					c0,0.118,0.058,0.236,0.116,0.354c0.058,0.059,0.116,0.059,0.232,0.059c0.058,0,0.116,0,0.174-0.059l3.195-1.532l3.195,1.532
					c0.058,0,0.116,0.059,0.174,0.059c0.058,0,0.116,0,0.232-0.059c0.116-0.059,0.174-0.177,0.116-0.354L10.225,8.25l2.44-2.534
					c0.116-0.118,0.116-0.236,0.058-0.354c-0.058-0.118-0.116-0.236-0.29-0.236L8.947,4.537L7.32,1.355
					C7.204,1.179,7.088,1.12,6.972,1.12L6.972,1.12z"/>
			</g>
			<g transform="translate(105.971831, 25.071429)">
				<path fill="#41AAFF" d="M13.421,2.063c-0.639-1.945-3.66-2.004-6.449-2.004c-2.847,0-5.81,0.118-6.449,2.062
					C-0.174,4.125,0.116,9.37,0.116,9.37c0,2.239,5.752,5.893,6.798,5.893c1.104,0,6.739-3.712,6.798-5.893
					C13.827,7.543,14.118,4.125,13.421,2.063z M12.433,8.721c-0.116,1.532-4.241,4.832-5.461,4.832
					c-1.278,0-5.461-3.359-5.461-4.832c0-1.12-0.349-4.596,0.232-5.716c0.93-1.709,3.893-1.591,5.171-1.591
					c1.336,0,4.299-0.118,5.171,1.591C12.724,4.125,12.491,7.543,12.433,8.721z"/>
				<path fill="#41AAFF" d="M6.972,1.12c-0.116,0-0.232,0.059-0.29,0.177L4.938,4.479L1.511,5.068
					C1.336,5.127,1.278,5.186,1.22,5.304c-0.058,0.118,0,0.236,0.058,0.354l2.498,2.652l-0.523,3.477
					c0,0.118,0.058,0.236,0.116,0.354c0.058,0.059,0.116,0.059,0.232,0.059c0.058,0,0.116,0,0.174-0.059l3.195-1.532l3.195,1.532
					c0.058,0,0.116,0.059,0.174,0.059c0.058,0,0.116,0,0.232-0.059c0.116-0.059,0.174-0.177,0.116-0.354L10.225,8.25l2.44-2.534
					c0.116-0.118,0.116-0.236,0.058-0.354c-0.058-0.118-0.116-0.236-0.29-0.236L8.947,4.538L7.32,1.355
					C7.204,1.179,7.088,1.12,6.972,1.12L6.972,1.12z"/>
			</g>
		</g>
	</g>
</svg>
