<?xml version="1.0" encoding="utf-8"?>
<!DOCTYPE svg PUBLIC "-//W3C//DTD SVG 1.1//EN" "http://www.w3.org/Graphics/SVG/1.1/DTD/svg11.dtd">
<svg version="1.1" xmlns="http://www.w3.org/2000/svg" xmlns:xlink="http://www.w3.org/1999/xlink" x="0px" y="0px" viewBox="-84 -61.5 400 400" enable-background="new -84 -61.5 400 400" xml:space="preserve">
	<filter  id="filter-1" filterUnits="objectBoundingBox" y="-71.4%" x="-105.0%" width="310.0%" height="242.9%">
		<feOffset  result="shadowOffsetOuter1" in="SourceAlpha" dy="0" dx="0"></feOffset>
		<feGaussianBlur  stdDeviation="35" result="shadowBlurOuter1" in="shadowOffsetOuter1"></feGaussianBlur>
			<feColorMatrix  values="0 0 0 0 0.412602588   0 0 0 0 0.736894909   0 0 0 0 1  0 0 0 1 0" result="shadowMatrixOuter1" in="shadowBlurOuter1" type="matrix">
			</feColorMatrix>
		<feMerge>
			<feMergeNode  in="shadowMatrixOuter1"></feMergeNode>
			<feMergeNode  in="SourceGraphic"></feMergeNode>
		</feMerge>
	</filter>
	<g transform="translate(-1370.000000, -1781.000000)">
		<g transform="translate(1436.000000, 1845.000000)" filter="url(#filter-1)">
			<path fill="#41AAFF" d="M99.736,94.889c-0.003-0.11-0.007-0.218-0.012-0.327l-0.005-0.135
				c-0.011-0.31-0.022-0.622-0.038-0.932c-0.007-0.121-0.015-0.241-0.023-0.362l-0.012-0.178c-0.018-0.282-0.036-0.563-0.058-0.847
				c-0.01-0.124-0.022-0.247-0.034-0.37l-0.027-0.288c-0.022-0.239-0.044-0.477-0.07-0.712c-0.015-0.136-0.031-0.271-0.047-0.406
				l-0.026-0.217c-0.03-0.249-0.06-0.496-0.093-0.741c-0.02-0.151-0.042-0.302-0.065-0.452l-0.019-0.131
				c-0.038-0.257-0.076-0.513-0.118-0.774c-0.028-0.17-0.057-0.339-0.086-0.508l-0.012-0.069c-0.045-0.257-0.091-0.512-0.138-0.762
				c-0.036-0.192-0.075-0.384-0.113-0.572c-0.052-0.256-0.105-0.511-0.16-0.765c-0.04-0.185-0.082-0.37-0.124-0.556
				c-0.058-0.257-0.12-0.512-0.183-0.769c-0.044-0.179-0.089-0.357-0.136-0.541c-0.067-0.258-0.136-0.515-0.206-0.771l-0.021-0.075
				c-0.041-0.148-0.082-0.297-0.125-0.448c-0.075-0.259-0.152-0.518-0.233-0.786l-0.15-0.49c-0.084-0.267-0.172-0.534-0.262-0.802
				l-0.046-0.14c-0.036-0.107-0.071-0.214-0.109-0.323c-0.095-0.277-0.194-0.552-0.295-0.83l-0.048-0.134
				c-0.035-0.097-0.07-0.194-0.105-0.286c-0.11-0.294-0.223-0.585-0.339-0.878l-0.14-0.354c-0.133-0.329-0.271-0.656-0.41-0.981
				l-0.031-0.074c-0.024-0.058-0.048-0.116-0.07-0.164c-0.152-0.351-0.308-0.699-0.468-1.045c-0.041-0.108-0.089-0.212-0.145-0.311
				c-0.357-0.758-0.742-1.524-1.145-2.281c-2.917-6.126-4.508-12.064-4.775-17.767c0.008-0.096,0.012-0.193,0.009-0.29
				C88.426,38.949,97.635,29.921,98.3,29.29c0.001-0.001,0.001-0.001,0.002-0.002c0.019-0.017,0.029-0.027,0.033-0.031
				c0,0,0.002-0.002,0.003-0.002c0.116-0.103,0.218-0.216,0.308-0.336c0-0.001,0.001-0.001,0.001-0.002
				c0.089-0.119,0.166-0.246,0.229-0.377c0.32-0.661,0.314-1.452-0.036-2.115c-0.07-0.132-0.154-0.26-0.252-0.381
				c-0.295-0.364-0.599-0.727-0.911-1.088c-0.311-0.361-0.629-0.719-0.951-1.073c-0.581-0.636-1.173-1.261-1.778-1.874
				C85.884,12.81,74.238,6.185,62.636,3.69c-0.673-0.145-1.376,0.027-1.911,0.467c-0.535,0.44-0.846,1.102-0.846,1.801v10.848
				h-3.646V6.327C56.233,2.838,53.437,0,50.001,0c-3.437,0-6.233,2.838-6.233,6.325v10.479h-3.646V5.956
				c0-0.699-0.311-1.361-0.846-1.801c-0.401-0.33-0.896-0.509-1.403-0.517c-0.169-0.003-0.339,0.014-0.508,0.05
				C24.988,6.35,12.563,13.71,3.275,23.882c-0.321,0.351-0.637,0.708-0.949,1.069s-0.617,0.726-0.914,1.092
				c-0.765,0.941-0.675,2.317,0.189,3.151c0.019,0.018,0.036,0.038,0.056,0.056c0.099,0.09,9.936,9.202,9.32,24.994
				c-0.004,0.101,0.001,0.202,0.01,0.301c-0.269,5.699-1.861,11.633-4.776,17.757c-0.428,0.802-0.834,1.614-1.206,2.412
				c-0.004,0.009-0.008,0.018-0.013,0.028c-0.001,0.002-0.002,0.004-0.003,0.007c-0.183,0.394-0.361,0.79-0.534,1.188l-0.101,0.239
				c-0.14,0.326-0.277,0.652-0.407,0.975c-0.032,0.08-0.064,0.161-0.095,0.241l-0.048,0.122c-0.114,0.29-0.228,0.582-0.338,0.874
				c-0.037,0.099-0.073,0.199-0.109,0.298l-0.045,0.126c-0.1,0.275-0.199,0.55-0.293,0.823c-0.039,0.112-0.077,0.225-0.114,0.338
				l-0.044,0.134c-0.088,0.265-0.175,0.53-0.26,0.8c-0.052,0.165-0.102,0.331-0.151,0.494c-0.079,0.261-0.157,0.521-0.232,0.784
				c-0.049,0.173-0.097,0.347-0.145,0.519c-0.071,0.258-0.14,0.516-0.206,0.773c-0.046,0.179-0.091,0.358-0.136,0.54
				c-0.063,0.255-0.124,0.511-0.182,0.766c-0.043,0.186-0.085,0.372-0.125,0.556c-0.056,0.255-0.109,0.51-0.162,0.775
				c-0.037,0.185-0.075,0.372-0.111,0.563c-0.048,0.254-0.094,0.509-0.138,0.764l-0.005,0.032c-0.032,0.181-0.063,0.362-0.093,0.546
				c-0.042,0.257-0.08,0.515-0.118,0.773L0.78,88.891c-0.024,0.16-0.047,0.321-0.07,0.485c-0.033,0.247-0.063,0.494-0.093,0.742
				l-0.021,0.175c-0.018,0.147-0.036,0.294-0.052,0.445c-0.026,0.238-0.048,0.478-0.07,0.718l-0.023,0.248
				c-0.013,0.135-0.025,0.269-0.037,0.41c-0.02,0.243-0.035,0.487-0.051,0.731l-0.017,0.263c-0.009,0.13-0.018,0.261-0.025,0.387
				c-0.016,0.294-0.027,0.589-0.038,0.884l-0.008,0.209c-0.004,0.1-0.008,0.201-0.011,0.301c-0.013,0.465-0.019,0.933-0.019,1.401
				c0,2.147,0.134,4.309,0.4,6.429c0.105,0.838,0.232,1.681,0.377,2.506c0.144,0.818,0.311,1.647,0.497,2.466
				c5.101,22.423,24.509,38.492,47.195,39.076c0.427,0.011,0.856,0.017,1.285,0.017c0.429,0,0.858-0.005,1.283-0.016
				c11.919-0.306,23.344-4.959,32.171-13.101c8.767-8.086,14.414-19.077,15.901-30.948c0.265-2.119,0.399-4.282,0.399-6.428
				C99.755,95.819,99.748,95.352,99.736,94.889z M48.335,6.325c0-0.932,0.747-1.69,1.666-1.69s1.665,0.758,1.665,1.69v10.479h-3.331
				V6.325z M40.121,21.44h5.93h7.898h5.93v4.399H40.121V21.44z M40.121,30.474h19.758v4.399H40.121V30.474z M40.121,39.507h19.758
				v4.399H40.121V39.507z M6.273,27.422c0.117-0.131,0.234-0.261,0.352-0.39c0.249-0.272,0.501-0.543,0.754-0.811
				c3.541-3.745,7.533-7.058,11.785-9.826c5.192-3.38,10.771-5.948,16.39-7.495v10.222v9.034v9.034v9.034v5.794H15.567
				C15.331,39.236,9.244,30.794,6.273,27.422z M47.717,142.087c-20.123-1.017-37.199-15.446-41.746-35.439
				c-0.169-0.743-0.321-1.497-0.452-2.24c-0.132-0.749-0.247-1.515-0.343-2.276c-0.241-1.926-0.363-3.892-0.363-5.844
				c0-0.425,0.006-0.85,0.018-1.275c0.002-0.075,0.005-0.148,0.008-0.222l0.01-0.244c0.009-0.266,0.019-0.533,0.034-0.803
				c0.005-0.105,0.013-0.209,0.02-0.313l0.019-0.287c0.014-0.219,0.028-0.438,0.045-0.65c0.01-0.116,0.021-0.232,0.032-0.348
				l0.024-0.261c0.02-0.215,0.039-0.43,0.062-0.642c0.014-0.129,0.03-0.257,0.045-0.386l0.022-0.181
				c0.027-0.226,0.054-0.452,0.084-0.675c0.019-0.143,0.04-0.285,0.061-0.427l0.015-0.101c0.034-0.235,0.069-0.469,0.107-0.702
				c0.027-0.164,0.055-0.329,0.084-0.492l0.006-0.034c0.04-0.233,0.082-0.466,0.125-0.693c0.033-0.173,0.068-0.345,0.102-0.518
				c0.047-0.232,0.095-0.463,0.146-0.696c0.036-0.168,0.074-0.336,0.113-0.505c0.053-0.233,0.109-0.464,0.165-0.693
				c0.04-0.164,0.082-0.329,0.124-0.495c0.06-0.234,0.123-0.468,0.187-0.701c0.043-0.158,0.087-0.315,0.131-0.471
				c0.068-0.237,0.139-0.474,0.211-0.713c0.045-0.15,0.091-0.3,0.137-0.447c0.077-0.245,0.157-0.487,0.236-0.725l0.046-0.139
				c0.031-0.094,0.062-0.187,0.095-0.284c0.086-0.251,0.177-0.501,0.268-0.752l0.051-0.142c0.029-0.08,0.057-0.159,0.087-0.239
				c0.1-0.267,0.204-0.532,0.307-0.794l0.129-0.329c0.12-0.297,0.244-0.592,0.374-0.894l0.088-0.209
				c0.156-0.359,0.316-0.716,0.48-1.07c0.009-0.018,0.017-0.036,0.026-0.054c0.343-0.734,0.717-1.48,1.112-2.219
				c0.017-0.032,0.033-0.063,0.048-0.095c3.11-6.518,4.601-12.456,5.077-17.716h22.461c1.261,0,2.284-1.038,2.284-2.318v-5.794
				h7.596v52.146c-3.359,1.003-5.82,4.159-5.82,7.889c0,3.73,2.46,6.886,5.82,7.889V142.087z M50.001,112.165
				c-1.95,0-3.536-1.61-3.536-3.589c0-1.979,1.586-3.588,3.536-3.588c1.95,0,3.536,1.61,3.536,3.588
				C53.536,110.555,51.95,112.165,50.001,112.165z M94.825,102.132c-2.739,21.859-20.924,38.847-42.541,39.956v-25.623
				c3.359-1.003,5.819-4.159,5.819-7.889c0-3.73-2.46-6.886-5.819-7.889V48.541h7.595v5.794c0,1.28,1.023,2.318,2.284,2.318h6.513
				c1.262,0,2.284-1.038,2.284-2.318c0-1.28-1.022-2.318-2.284-2.318h-4.229v-5.794V37.19v-9.034v-9.034V8.9
				c9.56,2.633,19.007,8.219,26.625,15.737c0.788,0.778,1.556,1.576,2.303,2.394c0.118,0.13,0.236,0.26,0.352,0.391
				c-2.971,3.372-9.058,11.813-9.293,24.595h-8.654c-1.262,0-2.284,1.037-2.284,2.318c0,1.28,1.022,2.318,2.284,2.318h8.843
				c0.477,5.261,1.967,11.198,5.077,17.716c0.015,0.032,0.031,0.064,0.048,0.095c0.39,0.729,0.76,1.468,1.101,2.195
				c0.008,0.018,0.016,0.036,0.024,0.054c0.169,0.362,0.332,0.726,0.496,1.103l0.088,0.208c0.126,0.294,0.251,0.589,0.371,0.888
				l0.128,0.326c0.105,0.263,0.208,0.528,0.309,0.799c0.029,0.077,0.057,0.155,0.085,0.232l0.053,0.147
				c0.091,0.25,0.181,0.499,0.267,0.749l0.142,0.424c0.081,0.242,0.16,0.483,0.236,0.724l0.138,0.45
				c0.072,0.239,0.144,0.478,0.211,0.714c0.038,0.132,0.074,0.264,0.11,0.396l0.021,0.077c0.065,0.234,0.127,0.469,0.187,0.699
				c0.042,0.164,0.083,0.329,0.123,0.492c0.057,0.231,0.112,0.464,0.166,0.696c0.039,0.168,0.077,0.337,0.113,0.506
				c0.05,0.231,0.098,0.463,0.146,0.697c0.034,0.17,0.069,0.34,0.102,0.515c0.044,0.231,0.085,0.463,0.126,0.693l0.012,0.067
				c0.027,0.153,0.053,0.306,0.078,0.456c0.038,0.235,0.073,0.47,0.107,0.704l0.02,0.136c0.019,0.131,0.039,0.261,0.057,0.394
				c0.031,0.224,0.057,0.448,0.084,0.674l0.026,0.217c0.014,0.115,0.028,0.23,0.04,0.349c0.023,0.213,0.043,0.427,0.063,0.64
				l0.028,0.297c0.01,0.104,0.019,0.208,0.028,0.308c0.02,0.254,0.036,0.509,0.053,0.765l0.014,0.208
				c0.007,0.095,0.013,0.19,0.019,0.285c0.015,0.281,0.025,0.564,0.035,0.856l0.007,0.165c0.004,0.082,0.007,0.163,0.009,0.248
				c0.012,0.423,0.018,0.847,0.018,1.273C95.188,98.24,95.066,100.206,94.825,102.132z"/>
		</g>
	</g>
</svg>
