<?xml version="1.0" encoding="utf-8"?>
<!DOCTYPE svg PUBLIC "-//W3C//DTD SVG 1.1//EN" "http://www.w3.org/Graphics/SVG/1.1/DTD/svg11.dtd">
<svg version="1.1" xmlns="http://www.w3.org/2000/svg" xmlns:xlink="http://www.w3.org/1999/xlink" x="0px" y="0px" viewBox="-62.5 -64 400 400" enable-background="new -62.5 -64 400 400" xml:space="preserve">
	<filter id="filter-1" filterUnits="objectBoundingBox" y="-90.5%" x="-77.2%" width="254.4%" height="281.0%">
		<feOffset  result="shadowOffsetOuter1" in="SourceAlpha" dy="0" dx="0"></feOffset>
		<feGaussianBlur  stdDeviation="35" result="shadowBlurOuter1" in="shadowOffsetOuter1"></feGaussianBlur>
			<feColorMatrix  values="0 0 0 0 0.412602588   0 0 0 0 0.736894909   0 0 0 0 1  0 0 0 1 0" result="shadowMatrixOuter1" in="shadowBlurOuter1" type="matrix">
			</feColorMatrix>
		<feMerge>
			<feMergeNode  in="shadowMatrixOuter1"></feMergeNode>
			<feMergeNode  in="SourceGraphic"></feMergeNode>
		</feMerge>
	</filter>
	<g transform="translate(-753.000000, -729.000000)">
		<g transform="translate(884.775685, 863.249912) rotate(-22.000000) translate(-884.775685, -863.249912) translate(816.775685, 805.249912)" filter="url(#filter-1)">
			<g transform="translate(0.355859, 0.000000)">
				<path id="Shape_23_" fill="#41AAFF" d="M134.208,49.405L118.726,1.916c-0.448-1.373-1.928-2.125-3.306-1.679L1.814,37.037
					c-1.378,0.446-2.132,1.922-1.684,3.296l7.328,22.479c-0.002,0.044-0.007,0.087-0.007,0.132l0,49.934
					c0,1.444,1.175,2.615,2.624,2.615l119.454,0c1.449,0,2.624-1.171,2.624-2.615l0-49.934c0-1.444-1.175-2.615-2.624-2.615
					l-20.549,0l23.544-7.626C133.901,52.255,134.655,50.779,134.208,49.405z M126.905,65.559l0,44.703l-114.207,0l0-44.703l14.533,0
					l0,29.137c0,1.444,1.175,2.615,2.624,2.615s2.624-1.171,2.624-2.615l0-29.137l59.937,0L126.905,65.559z M92,60.328l-79.835,0
					L5.93,41.203l13.83-4.48l5.29,16.026c0.363,1.101,1.39,1.799,2.492,1.799c0.272,0,0.548-0.042,0.821-0.132
					c1.376-0.452,2.125-1.93,1.672-3.302l-5.284-16.008L114.546,6.02l13.86,42.515L92,60.328z"/>
				<path fill="#41AAFF" d="M110.566,17.484c-0.448-1.373-1.928-2.125-3.306-1.679L38.851,37.964
					c-1.378,0.446-2.132,1.922-1.684,3.296c0.36,1.105,1.389,1.808,2.495,1.808c0.269,0,0.542-0.042,0.812-0.129l68.408-22.159
					C110.259,20.333,111.014,18.857,110.566,17.484z"/>
				<path fill="#41AAFF" d="M99.029,34.472l12.949-4.194c1.378-0.446,2.132-1.922,1.684-3.296
					c-0.448-1.374-1.928-2.125-3.306-1.679l-12.949,4.194c-1.378,0.446-2.132,1.922-1.684,3.296c0.36,1.105,1.389,1.808,2.495,1.808
					C98.486,34.6,98.76,34.559,99.029,34.472z"/>
				<path fill="#41AAFF" d="M109.972,46.486c0.36,1.105,1.389,1.808,2.495,1.808c0.268,0,0.542-0.042,0.812-0.129
					l4.097-1.327c1.378-0.446,2.132-1.922,1.684-3.296c-0.448-1.374-1.928-2.125-3.306-1.679l-4.097,1.327
					C110.279,43.636,109.524,45.112,109.972,46.486z"/>
				<path fill="#41AAFF" d="M102.506,46.154l-4.098,1.327c-1.378,0.446-2.132,1.922-1.684,3.296
					c0.36,1.105,1.389,1.808,2.495,1.808c0.268,0,0.542-0.042,0.812-0.129l4.098-1.327c1.378-0.446,2.132-1.922,1.684-3.296
					C105.364,46.46,103.885,45.708,102.506,46.154z"/>
				<path fill="#41AAFF" d="M65.891,39.706l-23.943,7.756c-1.378,0.446-2.132,1.922-1.684,3.296
					c0.361,1.105,1.389,1.808,2.495,1.808c0.268,0,0.542-0.042,0.812-0.129l23.943-7.756c1.378-0.446,2.132-1.922,1.684-3.296
					C68.749,40.011,67.269,39.26,65.891,39.706z"/>
				<path fill="#41AAFF" d="M29.855,100.787c-1.449,0-2.624,1.171-2.624,2.615v1.024
					c0,1.444,1.175,2.615,2.624,2.615c1.449,0,2.624-1.171,2.624-2.615v-1.024C32.479,101.958,31.304,100.787,29.855,100.787z"/>
				<path fill="#41AAFF" d="M42.388,75.235c0,1.444,1.175,2.615,2.624,2.615l71.929,0
					c1.449,0,2.624-1.171,2.624-2.615s-1.175-2.615-2.624-2.615l-71.929,0C43.562,72.619,42.388,73.79,42.388,75.235z"/>
				<path fill="#41AAFF" d="M116.941,82.606h-13.615c-1.449,0-2.624,1.171-2.624,2.615
					c0,1.444,1.175,2.615,2.624,2.615l13.615,0c1.449,0,2.624-1.171,2.624-2.615C119.565,83.777,118.39,82.606,116.941,82.606z"/>
				<path fill="#41AAFF" d="M116.941,100.019l-4.309,0c-1.449,0-2.624,1.171-2.624,2.615
					c0,1.444,1.175,2.615,2.624,2.615h4.309c1.449,0,2.624-1.171,2.624-2.615C119.565,101.19,118.39,100.019,116.941,100.019z"/>
				<path fill="#41AAFF" d="M103.01,100.019h-4.308c-1.449,0-2.624,1.171-2.624,2.615
					c0,1.444,1.175,2.615,2.624,2.615h4.308c1.449,0,2.624-1.171,2.624-2.615C105.634,101.19,104.459,100.019,103.01,100.019z"/>
				<path fill="#41AAFF" d="M70.187,82.606l-25.175,0c-1.449,0-2.624,1.171-2.624,2.615
					c0,1.444,1.175,2.615,2.624,2.615l25.175,0c1.449,0,2.624-1.171,2.624-2.615C72.811,83.777,71.636,82.606,70.187,82.606z"/>
			</g>
		</g>
	</g>
</svg>
