<?xml version="1.0" encoding="utf-8"?>
<!DOCTYPE svg PUBLIC "-//W3C//DTD SVG 1.1//EN" "http://www.w3.org/Graphics/SVG/1.1/DTD/svg11.dtd">
<svg version="1.1" xmlns="http://www.w3.org/2000/svg" xmlns:xlink="http://www.w3.org/1999/xlink" x="0px" y="0px" viewBox="-85 -56.5 400 400" enable-background="new -85 -56.5 400 400" xml:space="preserve">
	<filter  id="filter-1" filterUnits="objectBoundingBox" y="-70.0%" x="-114.1%" width="328.3%" height="240.0%">
		<feOffset  result="shadowOffsetOuter1" in="SourceAlpha" dy="0" dx="0"></feOffset>
		<feGaussianBlur  stdDeviation="35" result="shadowBlurOuter1" in="shadowOffsetOuter1"></feGaussianBlur>
			<feColorMatrix  values="0 0 0 0 0.412602588   0 0 0 0 0.736894909   0 0 0 0 1  0 0 0 1 0" result="shadowMatrixOuter1" in="shadowBlurOuter1" type="matrix">
			</feColorMatrix>
		<feMerge>
			<feMergeNode  in="shadowMatrixOuter1"></feMergeNode>
			<feMergeNode  in="SourceGraphic"></feMergeNode>
		</feMerge>
	</filter>

	<g transform="translate(-1072.000000, -727.000000)">
		<g transform="translate(1141.000000, 795.000000)" filter="url(#filter-1)">
			<g>
				<path fill="#41AAFF" d="M89.81,31.348H56.952V30.42c0-1.213-0.98-2.197-2.19-2.197
					c-1.21,0-2.19,0.984-2.19,2.197v0.928H39.429V19.043h13.143v2.002c0,1.214,0.98,2.197,2.19,2.197c1.21,0,2.19-0.983,2.19-2.197
					v-2.002h6.571c1.21,0,2.19-0.983,2.19-2.197V2.197c0-1.214-0.98-2.197-2.19-2.197H28.476c-1.209,0-2.19,0.983-2.19,2.197v14.648
					c0,1.214,0.981,2.197,2.19,2.197h6.571v12.305H2.19c-1.209,0-2.19,0.983-2.19,2.197v13.013c0,1.213,0.981,2.197,2.19,2.197
					s2.19-0.984,2.19-2.197V35.742h83.238v109.863H4.381V56.03c0-1.214-0.981-2.197-2.19-2.197S0,54.816,0,56.03v91.772
					C0,149.017,0.981,150,2.19,150H89.81c1.21,0,2.19-0.983,2.19-2.197V33.545C92,32.331,91.02,31.348,89.81,31.348z M30.667,4.395
					h30.667v10.254H30.667V4.395z"/>
				<path fill="#41AAFF" d="M80.07,124.425c1.201,0,2.173-0.982,2.173-2.194V42.848c0-1.213-0.972-2.194-2.173-2.194
					H10.537c-1.2,0-2.173,0.982-2.173,2.194v96.546c0,1.213,0.973,2.194,2.173,2.194H80.07c1.201,0,2.173-0.982,2.173-2.194v-7.802
					c0-1.211-0.972-2.194-2.173-2.194s-2.173,0.983-2.173,2.194v5.608H12.709V45.043h65.187v77.188
					C77.897,123.443,78.869,124.425,80.07,124.425z"/>
				<path fill="#41AAFF" d="M20.909,100.344v23.61c0,1.223,0.986,2.213,2.201,2.213h45.78
					c1.216,0,2.201-0.99,2.201-2.213v-23.61c0-1.223-0.985-2.213-2.201-2.213H23.11C21.895,98.131,20.909,99.121,20.909,100.344z
					 M25.311,102.558h41.378v19.183H25.311V102.558z"/>
				<path fill="#41AAFF" d="M59.143,106.542H32.857c-1.209,0-2.19,0.941-2.19,2.103s0.981,2.103,2.19,2.103h26.286
					c1.21,0,2.19-0.941,2.19-2.103S60.353,106.542,59.143,106.542z"/>
				<path fill="#41AAFF" d="M59.143,113.551H32.857c-1.209,0-2.19,0.941-2.19,2.103s0.981,2.103,2.19,2.103h26.286
					c1.21,0,2.19-0.941,2.19-2.103S60.353,113.551,59.143,113.551z"/>
				<path fill="#41AAFF" d="M54.997,11.215c1.19,0,2.154-0.941,2.154-2.103s-0.964-2.103-2.154-2.103h-16.6
					c-1.19,0-2.154,0.941-2.154,2.103s0.964,2.103,2.154,2.103H54.997z"/>
			</g>
			<g transform="translate(32.060606, 56.074766)">
				<path fill="#41AAFF" d="M25.492,3.963c-1.214-3.737-6.952-3.85-12.249-3.85c-5.407,0-11.035,0.226-12.249,3.963
					c-1.324,3.85-0.772,13.927-0.772,13.927c0,4.303,10.925,11.323,12.911,11.323c2.097,0,12.801-7.133,12.911-11.323
					C26.264,14.493,26.816,7.926,25.492,3.963z M23.616,16.758c-0.221,2.944-8.056,9.285-10.373,9.285
					c-2.428,0-10.373-6.454-10.373-9.285c0-2.151-0.662-8.832,0.441-10.983c1.766-3.284,7.394-3.057,9.821-3.057
					c2.538,0,8.166-0.226,9.821,3.057C24.167,7.926,23.726,14.493,23.616,16.758z"/>
				<path fill="#41AAFF" d="M13.242,2.151c-0.221,0-0.441,0.113-0.552,0.34L9.38,8.605L2.869,9.738
					c-0.331,0.113-0.441,0.226-0.552,0.453s0,0.453,0.11,0.679l4.745,5.095l-0.993,6.68c0,0.226,0.11,0.453,0.221,0.679
					c0.11,0.113,0.221,0.113,0.441,0.113c0.11,0,0.221,0,0.331-0.113l6.069-2.944l6.069,2.944c0.11,0,0.221,0.113,0.331,0.113
					s0.221,0,0.441-0.113s0.331-0.34,0.221-0.679l-0.883-6.794l4.635-4.869c0.221-0.226,0.221-0.453,0.11-0.679
					c-0.11-0.226-0.221-0.453-0.552-0.453l-6.621-1.132l-3.09-6.114C13.684,2.265,13.463,2.151,13.242,2.151L13.242,2.151z"/>
			</g>
		</g>
	</g>

</svg>
