<?xml version="1.0" encoding="utf-8"?>
<!DOCTYPE svg PUBLIC "-//W3C//DTD SVG 1.1//EN" "http://www.w3.org/Graphics/SVG/1.1/DTD/svg11.dtd">
<svg version="1.1" xmlns="http://www.w3.org/2000/svg" xmlns:xlink="http://www.w3.org/1999/xlink" x="0px" y="0px" viewBox="-72 -58 400 400" enable-background="new -72 -58 400 400" xml:space="preserve">
	<filter id="filter-1" filterUnits="objectBoundingBox" y="-70.9%" x="-86.1%" width="272.1%" height="241.9%">
		<feOffset  result="shadowOffsetOuter1" in="SourceAlpha" dy="0" dx="0"></feOffset>
		<feGaussianBlur  stdDeviation="35" result="shadowBlurOuter1" in="shadowOffsetOuter1"></feGaussianBlur>

			<feColorMatrix  values="0 0 0 0 0.412602588   0 0 0 0 0.736894909   0 0 0 0 1  0 0 0 1 0" result="shadowMatrixOuter1" in="shadowBlurOuter1" type="matrix">
			</feColorMatrix>
		<feMerge>
			<feMergeNode  in="shadowMatrixOuter1"></feMergeNode>
			<feMergeNode  in="SourceGraphic"></feMergeNode>
		</feMerge>
	</filter>
	<g transform="translate(-1248.000000, -2846.000000)">
		<g transform="translate(1315.000000, 2913.000000)" filter="url(#filter-1)">
			<path fill="#41AAFF" d="M61,12c-1.656,0-3,1.344-3,3s1.344,3,3,3s3-1.344,3-3S62.656,12,61,12z"/>
			<path fill="#41AAFF" d="M122,60.703C122,27.231,94.635,0,61,0S0,27.231,0,60.703
				c0,27.891,19.34,52.278,46.336,58.928c-0.462,4.081-2.021,9.088-3.941,10.999l-0.038,0.038c-5.49,0.102-9.481,0.91-12.49,2.524
				c-4.398,2.364-6.628,6.374-6.628,11.918c0,1.596,1.301,2.891,2.905,2.891h69.714c1.604,0,2.905-1.294,2.905-2.891
				c0-5.546-2.231-9.556-6.63-11.918c-3.005-1.613-6.995-2.422-12.488-2.524l-0.038-0.038c-1.92-1.91-3.479-6.918-3.941-10.999
				C102.661,112.981,122,88.594,122,60.703z M78.429,136.438c9.653,0,13.159,2.223,14.173,5.781H29.404
				c0.631-2.244,1.993-3.279,3.221-3.939c2.312-1.24,5.894-1.842,10.947-1.842H78.429z M49.241,130.656
				c1.472-3.064,2.393-6.783,2.8-9.906c2.954,0.434,5.956,0.656,8.96,0.656s6.005-0.222,8.96-0.656
				c0.407,3.123,1.327,6.842,2.8,9.906H49.241z M72.042,114.52c-0.006,0.001-0.011,0.002-0.016,0.003
				c-7.2,1.461-14.851,1.462-22.054,0c-0.005-0.001-0.01-0.002-0.015-0.003C24.376,109.331,5.81,86.698,5.81,60.703
				C5.81,30.419,30.568,5.781,61,5.781s55.19,24.638,55.19,54.922C116.19,86.698,97.624,109.331,72.042,114.52z"/>
			<path fill="#41AAFF" d="M99.394,31.327c-6.526-8.46-15.711-14.581-25.862-17.236
				c-1.515-0.397-3.055,0.536-3.442,2.08c-0.388,1.545,0.525,3.117,2.038,3.513c8.955,2.342,17.06,7.745,22.822,15.214
				c0.969,1.256,2.748,1.466,3.972,0.482C100.149,34.395,100.36,32.58,99.394,31.327z"/>
			<path fill="#41AAFF" d="M60,28c-17.645,0-32,14.355-32,32s14.355,32,32,32s32-14.355,32-32S77.645,28,60,28z
				 M60,86.182c-14.437,0-26.182-11.745-26.182-26.182S45.563,33.818,60,33.818S86.182,45.563,86.182,60S74.437,86.182,60,86.182z"
				/>
			<path fill="#41AAFF" d="M60,40c-11.028,0-20,8.972-20,20s8.972,20,20,20s20-8.972,20-20S71.028,40,60,40z
				 M60,74.286c-7.877,0-14.286-6.409-14.286-14.286S52.123,45.714,60,45.714S74.286,52.123,74.286,60S67.877,74.286,60,74.286z"/>
		</g>
	</g>
</svg>
