<?xml version="1.0" encoding="UTF-8"?>
<svg width="16px" height="20px" viewBox="0 0 16 20" version="1.1" xmlns="http://www.w3.org/2000/svg" xmlns:xlink="http://www.w3.org/1999/xlink">
    <!-- Generator: Sketch 51.1 (57501) - http://www.bohemiancoding.com/sketch -->
    <title>Rectangle 12 Copy 32</title>
    <desc>Created with Sketch.</desc>
    <defs></defs>
    <g id="Page-2" stroke="none" stroke-width="1" fill="none" fill-rule="evenodd">
        <g id="Главная-30.06-1920" transform="translate(-883.000000, -1812.000000)" fill="#258FE5">
            <g id="лига-copy" transform="translate(-464.000000, 1535.000000)">
                <g id="Group-3" transform="translate(823.000000, 186.000000)">
                    <g id="Group-2">
                        <g id="Group-37-Copy-2" transform="translate(0.000000, 80.000000)">
                            <g id="Group-36" transform="translate(62.000000, 8.000000)">
                                <path d="M463.406593,4.59075574 L476.593407,4.59075574 L476.593407,17.026649 L470.065054,21.5588169 L463.406593,17.026649 L463.406593,4.59075574 Z M462.248132,3 L470.192882,3.72004042 L478,3 L477.49167,6.11807276 L478,17.4917063 L470.09222,22.4633992 L462,17.4917063 L462.607011,6.23311311 L462.248132,3 Z M463.087162,4.20185186 L477.01152,4.20185186 L477.01152,17.2672785 L470.099098,21.9246747 L463.087162,17.2672785 L463.087162,4.20185186 Z M467.680272,14.136184 L469.283287,14.136184 L469.283287,9.58085358 L469.456274,8.7966448 L468.902715,9.47706124 L467.876324,10.1805426 L467.242037,9.31560649 L469.871443,7.19362981 L470.713314,7.19362981 L470.713314,14.136184 L472.281732,14.136184 L472.281732,15.404757 L467.680272,15.404757 L467.680272,14.136184 Z" id="Rectangle-12-Copy-32"></path>
                            </g>
                        </g>
                    </g>
                </g>
            </g>
        </g>
    </g>
</svg>