<?xml version="1.0" encoding="UTF-8"?>
<svg width="16px" height="19px" viewBox="0 0 16 19" version="1.1" xmlns="http://www.w3.org/2000/svg" xmlns:xlink="http://www.w3.org/1999/xlink">
    <!-- Generator: Sketch 51.1 (57501) - http://www.bohemiancoding.com/sketch -->
    <title>Rectangle 12 Copy 4</title>
    <desc>Created with Sketch.</desc>
    <defs></defs>
    <g id="Page-2" stroke="none" stroke-width="1" fill="none" fill-rule="evenodd">
        <g id="Топ-неделя-прошедший" transform="translate(-880.000000, -1144.000000)" fill="#9013FE">
            <g id="Group-26" transform="translate(383.000000, 1125.000000)">
                <g id="Group-26-Copy" transform="translate(35.000000, 9.000000)">
                    <path d="M463.406593,11.5528818 L476.593407,11.5528818 L476.593407,23.6926921 L470.065054,28.1169547 L463.406593,23.6926921 L463.406593,11.5528818 Z M462.248132,10 L470.192882,10.7028972 L478,10 L477.49167,13.0438353 L478,24.1466769 L470.09222,29 L462,24.1466769 L462.607011,13.1561367 L462.248132,10 Z M463.087162,11.1732373 L477.01152,11.1732373 L477.01152,23.9275924 L470.099098,28.4741019 L463.087162,23.9275924 L463.087162,11.1732373 Z M467.680272,20.8710453 L469.283287,20.8710453 L469.283287,16.4241717 L469.456274,15.6586339 L468.902715,16.3228505 L467.876324,17.0095829 L467.242037,16.1652398 L469.871443,14.0937847 L470.713314,14.0937847 L470.713314,20.8710453 L472.281732,20.8710453 L472.281732,22.1094152 L467.680272,22.1094152 L467.680272,20.8710453 Z" id="Rectangle-12-Copy-4"></path>
                </g>
            </g>
        </g>
    </g>
</svg>