<?xml version="1.0" encoding="UTF-8"?>
<svg width="11px" height="14px" viewBox="0 0 11 14" version="1.1" xmlns="http://www.w3.org/2000/svg" xmlns:xlink="http://www.w3.org/1999/xlink">
    <!-- Generator: Sketch 50.2 (55047) - http://www.bohemiancoding.com/sketch -->
    <title>Shape</title>
    <desc>Created with Sketch.</desc>
    <defs></defs>
    <g id="Page-1" stroke="none" stroke-width="1" fill="none" fill-rule="evenodd">
        <g id="Канал-стрим" transform="translate(-138.000000, -2259.000000)" fill="#A0A0A0" fill-rule="nonzero">
            <g id="Подписчики-канала" transform="translate(39.000000, 2034.000000)">
                <g id="4" transform="translate(17.000000, 184.000000)">
                    <g id="lvl" transform="translate(82.000000, 40.000000)">
                        <path d="M1.3080798,11.8759722 C2.49851122,13.0475043 5.43504794,15 5.43504794,15 C5.43504794,15 8.37158465,13.0475043 9.56201607,11.8759722 C11.038245,10.4235048 10.8636345,8.40387603 10.8636345,2.06240656 L5.43504794,1 L0.0063744016,2.06240656 C0.0063744016,8.40387603 -0.168062126,10.4235048 1.3080798,11.8759722 Z M5.43501246,6.5176273 L6.1065828,7.87859283 L7.60901744,8.09638247 L6.52207771,9.1560828 L6.77865524,10.65199 L5.43501246,9.94552314 L4.09136968,10.65199 L4.3479472,9.1560828 L3.26100748,8.09638247 L4.7633166,7.87859283 L5.43501246,6.5176273 Z M3.26100748,4.12997508 L7.60901744,4.12997508 L7.60901744,5.21697757 L3.26100748,5.21697757 L3.26100748,4.12997508 Z" id="Shape"></path>
                    </g>
                </g>
            </g>
        </g>
    </g>
</svg>