<?xml version="1.0" encoding="utf-8"?>
<!-- Generator: Adobe Illustrator 22.1.0, SVG Export Plug-In . SVG Version: 6.00 Build 0)  -->
<svg version="1.1" id="Layer_1" xmlns="http://www.w3.org/2000/svg" xmlns:xlink="http://www.w3.org/1999/xlink" x="0px" y="0px"
	 viewBox="0 0 48 48" style="enable-background:new 0 0 48 48;" xml:space="preserve">
<style type="text/css">
	.st0{fill:#FFFFFF;}
	.st1{fill:#4DAE48;}
	.st2{fill:#EA3A3A;}
	.st3{fill:#FED24C;}
	.st4{fill:#208FCE;}
</style>
<circle class="st0" cx="24" cy="24" r="24"/>
<g>
	<path class="st1" d="M24,36.3c-2.4,0-4.7-0.7-6.7-2c-2-1.3-3.5-3-4.5-5.1L3,12c-2.1,3.7-3,7.8-3,12c0,6,2,11.2,5.9,15.7
		s8.8,7.1,14.6,8l7-12C26.7,35.9,25.5,36.3,24,36.3z"/>
	<path class="st2" d="M16.5,14.3c2.2-1.7,4.7-2.3,7.5-2.3c0.4,0,20.6,0,20.6,0c-2.1-3.6-5-6.7-8.7-8.8C32.3,1.1,28.3,0,24,0
		c-3.8,0-7.3,0.8-10.5,2.4C10.2,4,7.2,6.3,5,9.3L12,21C12.7,18.3,14.2,16,16.5,14.3z"/>
	<path class="st3" d="M46.2,15H32.2c2.4,2.4,4,5.6,4,9c0,2.6-0.7,4.9-2.2,7l-9.8,17c6.6-0.1,12.2-2.4,16.8-7.1
		C45.7,36.2,48,30.6,48,24C48,20.9,47.5,17.7,46.2,15z"/>
	<circle class="st4" cx="24" cy="24" r="9"/>
</g>
</svg>
