<?xml version="1.0" encoding="utf-8"?>
<!-- Generator: Adobe Illustrator 22.1.0, SVG Export Plug-In . SVG Version: 6.00 Build 0)  -->
<svg version="1.1" id="Layer_1" xmlns="http://www.w3.org/2000/svg" xmlns:xlink="http://www.w3.org/1999/xlink" x="0px" y="0px"
	 viewBox="0 0 48 48" style="enable-background:new 0 0 48 48;" xml:space="preserve">
<style type="text/css">
	.st0{fill:#D42F2F;}
	.st1{fill:#EF4538;}
</style>
<g>
	<path class="st0" d="M16.1,10.5c2.2-2.6,5-4.2,8.2-4.2c7,0,12.7,7.9,12.7,17.7s-5.7,17.7-12.7,17.7c-3.1,0-6-1.6-8.2-4.2
		c3.4,4.5,8.6,7.3,14.3,7.3c3.5,0,6.8-1.1,9.6-2.9c4.9-4.4,8-10.8,8-17.9s-3.1-13.5-8-17.9c-2.8-1.9-6.1-2.9-9.6-2.9
		C24.7,3.2,19.5,6,16.1,10.5"/>
	<path class="st1" d="M24,0C10.7,0,0,10.7,0,24c0,12.9,10.1,23.4,22.9,24c0.4,0,0.8,0,1.1,0c6.1,0,11.7-2.3,16-6.1
		c-2.8,1.9-6.1,2.9-9.6,2.9c-5.7,0-10.8-2.8-14.3-7.3c-2.7-3.1-4.4-7.8-4.5-13c0,0,0-1.1,0-1.1c0.1-5.2,1.8-9.8,4.5-13
		c3.4-4.5,8.6-7.3,14.3-7.3c3.5,0,6.8,1.1,9.6,2.9C35.8,2.3,30.2,0,24,0C24.1,0,24,0,24,0L24,0z"/>
</g>
</svg>
