<?xml version="1.0" encoding="utf-8"?>
<!-- Generator: Adobe Illustrator 22.1.0, SVG Export Plug-In . SVG Version: 6.00 Build 0)  -->
<svg version="1.1" id="Layer_1" xmlns="http://www.w3.org/2000/svg" xmlns:xlink="http://www.w3.org/1999/xlink" x="0px" y="0px"
	 viewBox="0 0 48 48" style="enable-background:new 0 0 48 48;" xml:space="preserve">
<style type="text/css">
	.st0{fill:#FFFFFF;}
	.st1{fill:#4B9CD5;}
	.st2{fill:#F3F3F3;}
	.st3{fill:#CCCCCC;}
	.st4{fill:#F0545F;}
	.st5{fill:#EF4353;}
</style>
<circle class="st0" cx="24" cy="24" r="24"/>
<g>
	<circle class="st1" cx="24" cy="24" r="22.3"/>
	<g>
		<path class="st2" d="M24,5c-0.2,0-0.3-0.1-0.3-0.3V3.5c0-0.2,0.1-0.3,0.3-0.3s0.3,0.1,0.3,0.3v1.2C24.3,4.9,24.2,5,24,5z"/>
		<path class="st2" d="M24,44.8c-0.2,0-0.3-0.1-0.3-0.3v-1.2c0-0.2,0.1-0.3,0.3-0.3s0.3,0.1,0.3,0.3v1.2
			C24.3,44.7,24.2,44.8,24,44.8z"/>
		<path class="st2" d="M20.7,5.3c-0.1,0-0.2-0.1-0.3-0.2l-0.2-1.2c0-0.1,0.1-0.3,0.2-0.3c0.1,0,0.3,0.1,0.3,0.2L20.9,5
			C20.9,5.1,20.9,5.3,20.7,5.3C20.7,5.3,20.7,5.3,20.7,5.3z"/>
		<path class="st2" d="M27.6,44.5c-0.1,0-0.2-0.1-0.3-0.2L27.1,43c0-0.1,0.1-0.3,0.2-0.3c0.1,0,0.3,0.1,0.3,0.2l0.2,1.2
			C27.9,44.3,27.8,44.4,27.6,44.5C27.6,44.5,27.6,44.5,27.6,44.5z"/>
		<path class="st2" d="M17.4,6.2c-0.1,0-0.2-0.1-0.3-0.2l-0.4-1.2c-0.1-0.1,0-0.3,0.2-0.3c0.1-0.1,0.3,0,0.3,0.2l0.4,1.2
			C17.7,5.9,17.6,6.1,17.4,6.2C17.5,6.2,17.4,6.2,17.4,6.2z"/>
		<path class="st2" d="M31,43.5c-0.1,0-0.2-0.1-0.3-0.2l-0.4-1.2c-0.1-0.1,0-0.3,0.2-0.3c0.1-0.1,0.3,0,0.3,0.2l0.4,1.2
			C31.3,43.3,31.2,43.5,31,43.5C31.1,43.5,31,43.5,31,43.5z"/>
		<path class="st2" d="M14.4,7.6c-0.1,0-0.2,0-0.2-0.1l-0.6-1.1c-0.1-0.1,0-0.3,0.1-0.4c0.1-0.1,0.3,0,0.4,0.1l0.6,1.1
			c0.1,0.1,0,0.3-0.1,0.4C14.5,7.6,14.4,7.6,14.4,7.6z"/>
		<path class="st2" d="M34.3,42c-0.1,0-0.2,0-0.2-0.1l-0.6-1.1c-0.1-0.1,0-0.3,0.1-0.4c0.1-0.1,0.3,0,0.4,0.1l0.6,1.1
			c0.1,0.1,0,0.3-0.1,0.4C34.3,42,34.3,42,34.3,42z"/>
		<path class="st2" d="M11.6,9.5c-0.1,0-0.2,0-0.2-0.1l-0.8-1c-0.1-0.1-0.1-0.3,0-0.4C10.8,8,10.9,8,11,8.1l0.8,1
			c0.1,0.1,0.1,0.3,0,0.4C11.7,9.5,11.7,9.5,11.6,9.5z"/>
		<path class="st2" d="M37.2,40c-0.1,0-0.2,0-0.2-0.1l-0.8-1c-0.1-0.1-0.1-0.3,0-0.4c0.1-0.1,0.3-0.1,0.4,0l0.8,1
			c0.1,0.1,0.1,0.3,0,0.4C37.3,40,37.2,40,37.2,40z"/>
		<path class="st2" d="M9.2,11.9c-0.1,0-0.1,0-0.2-0.1l-1-0.8c-0.1-0.1-0.1-0.3,0-0.4c0.1-0.1,0.3-0.1,0.4,0l1,0.8
			c0.1,0.1,0.1,0.3,0,0.4C9.4,11.9,9.3,11.9,9.2,11.9z"/>
		<path class="st2" d="M39.7,37.5c-0.1,0-0.1,0-0.2-0.1l-1-0.8c-0.1-0.1-0.1-0.3,0-0.4c0.1-0.1,0.3-0.1,0.4,0l1,0.8
			c0.1,0.1,0.1,0.3,0,0.4C39.9,37.4,39.8,37.5,39.7,37.5z"/>
		<path class="st2" d="M7.3,14.6c0,0-0.1,0-0.1,0L6.1,14C6,13.9,5.9,13.7,6,13.6c0.1-0.1,0.2-0.2,0.4-0.1l1.1,0.6
			c0.1,0.1,0.2,0.2,0.1,0.4C7.5,14.6,7.4,14.6,7.3,14.6z"/>
		<path class="st2" d="M41.8,34.5c0,0-0.1,0-0.1,0l-1.1-0.6c-0.1-0.1-0.2-0.2-0.1-0.4c0.1-0.1,0.2-0.2,0.4-0.1l1.1,0.6
			c0.1,0.1,0.2,0.2,0.1,0.4C41.9,34.5,41.9,34.5,41.8,34.5z"/>
		<path class="st2" d="M5.9,17.7C5.9,17.7,5.8,17.7,5.9,17.7l-1.3-0.4c-0.1-0.1-0.2-0.2-0.2-0.3c0.1-0.1,0.2-0.2,0.3-0.2L6,17.2
			c0.1,0.1,0.2,0.2,0.2,0.3C6.1,17.6,6,17.7,5.9,17.7z"/>
		<path class="st2" d="M43.3,31.3C43.2,31.3,43.2,31.3,43.3,31.3L42,30.8c-0.1-0.1-0.2-0.2-0.2-0.3c0.1-0.1,0.2-0.2,0.3-0.2l1.2,0.4
			c0.1,0.1,0.2,0.2,0.2,0.3C43.5,31.2,43.4,31.3,43.3,31.3z"/>
		<path class="st2" d="M5,20.9C5,20.9,5,20.9,5,20.9l-1.3-0.2c-0.1,0-0.2-0.2-0.2-0.3s0.2-0.2,0.3-0.2l1.2,0.2
			c0.1,0,0.2,0.2,0.2,0.3C5.3,20.8,5.2,20.9,5,20.9z"/>
		<path class="st2" d="M44.2,27.8C44.2,27.8,44.2,27.8,44.2,27.8l-1.3-0.2c-0.1,0-0.2-0.2-0.2-0.3c0-0.1,0.2-0.2,0.3-0.2l1.2,0.2
			c0.1,0,0.2,0.2,0.2,0.3C44.4,27.7,44.3,27.8,44.2,27.8z"/>
		<path class="st2" d="M4.7,24.3H3.5c-0.2,0-0.3-0.1-0.3-0.3s0.1-0.3,0.3-0.3h1.2C4.9,23.7,5,23.8,5,24S4.9,24.3,4.7,24.3z"/>
		<path class="st2" d="M44.5,24.3h-1.2c-0.2,0-0.3-0.1-0.3-0.3s0.1-0.3,0.3-0.3h1.2c0.2,0,0.3,0.1,0.3,0.3S44.7,24.3,44.5,24.3z"/>
		<path class="st2" d="M3.8,27.8c-0.1,0-0.2-0.1-0.3-0.2c0-0.1,0.1-0.3,0.2-0.3L5,27.1c0.1,0,0.3,0.1,0.3,0.2c0,0.1-0.1,0.3-0.2,0.3
			L3.8,27.8C3.8,27.8,3.8,27.8,3.8,27.8z"/>
		<path class="st2" d="M43,20.9c-0.1,0-0.2-0.1-0.3-0.2c0-0.1,0.1-0.3,0.2-0.3l1.2-0.2c0.1,0,0.3,0.1,0.3,0.2c0,0.1-0.1,0.3-0.2,0.3
			L43,20.9C43,20.9,43,20.9,43,20.9z"/>
		<path class="st2" d="M4.7,31.3c-0.1,0-0.2-0.1-0.3-0.2c-0.1-0.1,0-0.3,0.2-0.3l1.2-0.4c0.1-0.1,0.3,0,0.3,0.2
			c0.1,0.1,0,0.3-0.2,0.3L4.7,31.3C4.8,31.3,4.8,31.3,4.7,31.3z"/>
		<path class="st2" d="M42.1,17.7c-0.1,0-0.2-0.1-0.3-0.2c-0.1-0.1,0-0.3,0.2-0.3l1.2-0.4c0.1-0.1,0.3,0,0.3,0.2
			c0.1,0.1,0,0.3-0.2,0.3L42.1,17.7C42.2,17.7,42.1,17.7,42.1,17.7z"/>
		<path class="st2" d="M6.2,34.5c-0.1,0-0.2,0-0.2-0.1c-0.1-0.1,0-0.3,0.1-0.4l1.1-0.6c0.1-0.1,0.3,0,0.4,0.1c0.1,0.1,0,0.3-0.1,0.4
			l-1.1,0.6C6.3,34.5,6.3,34.5,6.2,34.5z"/>
		<path class="st2" d="M40.7,14.6c-0.1,0-0.2,0-0.2-0.1c-0.1-0.1,0-0.3,0.1-0.4l1.1-0.6c0.1-0.1,0.3,0,0.4,0.1
			c0.1,0.1,0,0.3-0.1,0.4l-1.1,0.6C40.8,14.6,40.7,14.6,40.7,14.6z"/>
		<path class="st2" d="M8.3,37.5c-0.1,0-0.2,0-0.2-0.1C8,37.2,8,37.1,8.1,37l1-0.8c0.1-0.1,0.3-0.1,0.4,0s0.1,0.3,0,0.4l-1,0.8
			C8.4,37.4,8.4,37.5,8.3,37.5z"/>
		<path class="st2" d="M38.8,11.9c-0.1,0-0.2,0-0.2-0.1c-0.1-0.1-0.1-0.3,0-0.4l1-0.8c0.1-0.1,0.3-0.1,0.4,0c0.1,0.1,0.1,0.3,0,0.4
			l-1,0.8C38.9,11.9,38.8,11.9,38.8,11.9z"/>
		<path class="st2" d="M10.8,40c-0.1,0-0.1,0-0.2-0.1c-0.1-0.1-0.1-0.3,0-0.4l0.8-1c0.1-0.1,0.3-0.1,0.4,0c0.1,0.1,0.1,0.3,0,0.4
			l-0.8,1C11,39.9,10.9,40,10.8,40z"/>
		<path class="st2" d="M36.4,9.5c-0.1,0-0.1,0-0.2-0.1c-0.1-0.1-0.1-0.3,0-0.4l0.8-1c0.1-0.1,0.3-0.1,0.4,0c0.1,0.1,0.1,0.3,0,0.4
			l-0.8,1C36.5,9.5,36.5,9.5,36.4,9.5z"/>
		<path class="st2" d="M13.7,42c0,0-0.1,0-0.1,0c-0.1-0.1-0.2-0.2-0.1-0.4l0.6-1.1c0.1-0.1,0.2-0.2,0.4-0.1c0.1,0.1,0.2,0.2,0.1,0.4
			L14,41.9C13.9,42,13.8,42,13.7,42z"/>
		<path class="st2" d="M33.6,7.6c0,0-0.1,0-0.1,0c-0.1-0.1-0.2-0.2-0.1-0.4L34,6.1C34.1,6,34.3,5.9,34.4,6c0.1,0.1,0.2,0.2,0.1,0.4
			l-0.6,1.1C33.8,7.5,33.7,7.6,33.6,7.6z"/>
		<path class="st2" d="M17,43.5C17,43.5,16.9,43.5,17,43.5c-0.2-0.1-0.3-0.2-0.3-0.4l0.4-1.2c0.1-0.1,0.2-0.2,0.3-0.2
			c0.1,0.1,0.2,0.2,0.2,0.3l-0.4,1.2C17.2,43.5,17.1,43.5,17,43.5z"/>
		<path class="st2" d="M30.6,6.2C30.6,6.2,30.5,6.2,30.6,6.2c-0.2-0.1-0.3-0.2-0.3-0.4l0.4-1.2c0.1-0.1,0.2-0.2,0.3-0.2
			c0.1,0.1,0.2,0.2,0.2,0.3L30.8,6C30.8,6.1,30.7,6.2,30.6,6.2z"/>
		<path class="st2" d="M20.4,44.5C20.4,44.5,20.4,44.5,20.4,44.5c-0.2,0-0.3-0.2-0.3-0.3l0.2-1.2c0-0.1,0.2-0.2,0.3-0.2
			c0.1,0,0.2,0.2,0.2,0.3l-0.2,1.2C20.7,44.4,20.6,44.5,20.4,44.5z"/>
		<path class="st2" d="M27.3,5.3C27.3,5.3,27.3,5.3,27.3,5.3c-0.2,0-0.3-0.2-0.3-0.3l0.2-1.2c0-0.1,0.2-0.2,0.3-0.2
			c0.1,0,0.2,0.2,0.2,0.3l-0.2,1.2C27.6,5.2,27.5,5.3,27.3,5.3z"/>
		<path class="st2" d="M22.5,7.1c-0.1,0-0.3-0.1-0.3-0.2l-0.3-3.2c0-0.1,0.1-0.3,0.2-0.3c0.1,0,0.3,0.1,0.3,0.2l0.3,3.2
			C22.8,6.9,22.7,7.1,22.5,7.1C22.5,7.1,22.5,7.1,22.5,7.1z"/>
		<path class="st2" d="M25.8,44.7c-0.1,0-0.3-0.1-0.3-0.2l-0.3-3.2c0-0.1,0.1-0.3,0.2-0.3c0.2,0,0.3,0.1,0.3,0.2l0.3,3.2
			C26.1,44.6,26,44.7,25.8,44.7C25.8,44.7,25.8,44.7,25.8,44.7z"/>
		<path class="st2" d="M19.5,7.6c-0.1,0-0.2-0.1-0.3-0.2l-0.8-3.2c0-0.1,0-0.3,0.2-0.3c0.1,0,0.3,0,0.3,0.2l0.8,3.2
			C19.8,7.4,19.8,7.6,19.5,7.6C19.6,7.6,19.6,7.6,19.5,7.6z"/>
		<path class="st2" d="M29.3,44.1c-0.1,0-0.2-0.1-0.3-0.2l-0.8-3.2c0-0.1,0-0.3,0.2-0.3c0.1,0,0.3,0,0.3,0.2l0.8,3.2
			C29.6,43.9,29.5,44,29.3,44.1C29.4,44.1,29.3,44.1,29.3,44.1z"/>
		<path class="st2" d="M16.7,8.6c-0.1,0-0.2-0.1-0.2-0.2l-1.4-3c-0.1-0.1,0-0.3,0.1-0.4c0.1-0.1,0.3,0,0.4,0.1l1.4,3
			c0.1,0.1,0,0.3-0.1,0.4C16.8,8.6,16.8,8.6,16.7,8.6z"/>
		<path class="st2" d="M32.7,42.9c-0.1,0-0.2-0.1-0.2-0.2l-1.4-3c-0.1-0.1,0-0.3,0.1-0.4c0.1-0.1,0.3,0,0.4,0.1l1.4,3
			c0.1,0.1,0,0.3-0.1,0.4C32.7,42.8,32.7,42.9,32.7,42.9z"/>
		<path class="st2" d="M14.1,10.1c-0.1,0-0.2,0-0.2-0.1L12,7.4C11.9,7.2,12,7.1,12.1,7c0.1-0.1,0.3-0.1,0.4,0.1l1.9,2.7
			c0.1,0.1,0.1,0.3-0.1,0.4C14.2,10.1,14.2,10.1,14.1,10.1z"/>
		<path class="st2" d="M35.8,41.1c-0.1,0-0.2,0-0.2-0.1l-1.9-2.7c-0.1-0.1-0.1-0.3,0.1-0.4c0.1-0.1,0.3-0.1,0.4,0.1l1.9,2.7
			c0.1,0.1,0.1,0.3-0.1,0.4C35.9,41.1,35.8,41.1,35.8,41.1z"/>
		<path class="st2" d="M11.8,12.1c-0.1,0-0.1,0-0.2-0.1L9.3,9.7c-0.1-0.1-0.1-0.3,0-0.4s0.3-0.1,0.4,0l2.3,2.3
			c0.1,0.1,0.1,0.3,0,0.4C11.9,12.1,11.9,12.1,11.8,12.1z"/>
		<path class="st2" d="M38.5,38.8c-0.1,0-0.1,0-0.2-0.1L36,36.4c-0.1-0.1-0.1-0.3,0-0.4c0.1-0.1,0.3-0.1,0.4,0l2.3,2.3
			c0.1,0.1,0.1,0.3,0,0.4C38.6,38.7,38.6,38.8,38.5,38.8z"/>
		<path class="st2" d="M9.9,14.4c-0.1,0-0.1,0-0.2,0L7,12.5c-0.1-0.1-0.2-0.3-0.1-0.4C7.1,12,7.2,11.9,7.4,12l2.7,1.9
			c0.1,0.1,0.2,0.3,0.1,0.4C10,14.3,10,14.4,9.9,14.4z"/>
		<path class="st2" d="M40.8,36c-0.1,0-0.1,0-0.2,0L38,34.1c-0.1-0.1-0.2-0.3-0.1-0.4c0.1-0.1,0.3-0.2,0.4-0.1l2.7,1.9
			c0.1,0.1,0.2,0.3,0.1,0.4C41,36,40.9,36,40.8,36z"/>
		<path class="st2" d="M8.4,17c0,0-0.1,0-0.1,0l-3-1.4c-0.1-0.1-0.2-0.2-0.1-0.4c0.1-0.1,0.2-0.2,0.4-0.1l3,1.4
			c0.1,0.1,0.2,0.2,0.1,0.4C8.6,16.9,8.5,17,8.4,17z"/>
		<path class="st2" d="M42.6,32.9c0,0-0.1,0-0.1,0l-3-1.4c-0.1-0.1-0.2-0.2-0.1-0.4c0.1-0.1,0.2-0.2,0.4-0.1l3,1.4
			c0.1,0.1,0.2,0.2,0.1,0.4C42.8,32.9,42.7,32.9,42.6,32.9z"/>
		<path class="st2" d="M7.3,19.8C7.3,19.8,7.3,19.8,7.3,19.8L4.1,19c-0.1,0-0.2-0.2-0.2-0.3c0-0.1,0.2-0.2,0.3-0.2l3.2,0.8
			c0.1,0,0.2,0.2,0.2,0.3C7.6,19.7,7.5,19.8,7.3,19.8z"/>
		<path class="st2" d="M43.8,29.6C43.8,29.6,43.8,29.6,43.8,29.6l-3.2-0.9c-0.1,0-0.2-0.2-0.2-0.3c0-0.1,0.2-0.2,0.3-0.2l3.2,0.8
			c0.1,0,0.2,0.2,0.2,0.3C44,29.5,43.9,29.6,43.8,29.6z"/>
		<path class="st2" d="M6.8,22.8C6.8,22.8,6.8,22.8,6.8,22.8l-3.3-0.3c-0.1,0-0.3-0.1-0.2-0.3c0-0.1,0.1-0.3,0.3-0.2l3.2,0.3
			c0.1,0,0.3,0.1,0.2,0.3C7.1,22.7,7,22.8,6.8,22.8z"/>
		<path class="st2" d="M44.4,26.1C44.4,26.1,44.4,26.1,44.4,26.1l-3.3-0.3c-0.1,0-0.3-0.1-0.2-0.3c0-0.1,0.1-0.3,0.3-0.2l3.2,0.3
			c0.1,0,0.3,0.1,0.2,0.3C44.7,26,44.6,26.1,44.4,26.1z"/>
		<path class="st2" d="M3.6,26.1c-0.1,0-0.3-0.1-0.3-0.2c0-0.1,0.1-0.3,0.2-0.3l3.2-0.3c0.2,0,0.3,0.1,0.3,0.2
			c0,0.1-0.1,0.3-0.2,0.3L3.6,26.1C3.6,26.1,3.6,26.1,3.6,26.1z"/>
		<path class="st2" d="M41.2,22.8c-0.1,0-0.3-0.1-0.3-0.2c0-0.1,0.1-0.3,0.2-0.3l3.2-0.3c0.2,0,0.3,0.1,0.3,0.2
			c0,0.1-0.1,0.3-0.2,0.3L41.2,22.8C41.2,22.8,41.2,22.8,41.2,22.8z"/>
		<path class="st2" d="M4.2,29.6c-0.1,0-0.2-0.1-0.3-0.2c0-0.1,0-0.3,0.2-0.3l3.2-0.8c0.1,0,0.3,0,0.3,0.2c0,0.1,0,0.3-0.2,0.3
			L4.2,29.6C4.2,29.6,4.2,29.6,4.2,29.6z"/>
		<path class="st2" d="M40.7,19.8c-0.1,0-0.2-0.1-0.3-0.2c0-0.1,0-0.3,0.2-0.3l3.2-0.8c0.1,0,0.3,0,0.3,0.2c0,0.1,0,0.3-0.2,0.3
			L40.7,19.8C40.7,19.8,40.7,19.8,40.7,19.8z"/>
		<path class="st2" d="M5.4,32.9c-0.1,0-0.2-0.1-0.2-0.2c-0.1-0.1,0-0.3,0.1-0.4l3-1.4c0.1-0.1,0.3,0,0.4,0.1c0.1,0.1,0,0.3-0.1,0.4
			l-3,1.4C5.5,32.9,5.5,32.9,5.4,32.9z"/>
		<path class="st2" d="M39.6,17c-0.1,0-0.2-0.1-0.2-0.2c-0.1-0.1,0-0.3,0.1-0.4l3-1.4c0.1-0.1,0.3,0,0.4,0.1c0.1,0.1,0,0.3-0.1,0.4
			l-3,1.4C39.7,17,39.7,17,39.6,17z"/>
		<path class="st2" d="M7.2,36C7.1,36,7,36,7,35.9c-0.1-0.1-0.1-0.3,0.1-0.4l2.7-1.9c0.1-0.1,0.3-0.1,0.4,0.1
			c0.1,0.1,0.1,0.3-0.1,0.4L7.4,36C7.3,36,7.3,36,7.2,36z"/>
		<path class="st2" d="M38.1,14.4c-0.1,0-0.2,0-0.2-0.1c-0.1-0.1-0.1-0.3,0.1-0.4l2.7-1.9c0.1-0.1,0.3-0.1,0.4,0.1
			c0.1,0.1,0.1,0.3-0.1,0.4l-2.7,1.9C38.2,14.4,38.2,14.4,38.1,14.4z"/>
		<path class="st2" d="M9.5,38.8c-0.1,0-0.1,0-0.2-0.1c-0.1-0.1-0.1-0.3,0-0.4l2.3-2.3c0.1-0.1,0.3-0.1,0.4,0c0.1,0.1,0.1,0.3,0,0.4
			l-2.3,2.3C9.6,38.7,9.6,38.8,9.5,38.8z"/>
		<path class="st2" d="M36.2,12.1c-0.1,0-0.1,0-0.2-0.1c-0.1-0.1-0.1-0.3,0-0.4l2.3-2.3c0.1-0.1,0.3-0.1,0.4,0
			c0.1,0.1,0.1,0.3,0,0.4L36.4,12C36.3,12.1,36.3,12.1,36.2,12.1z"/>
		<path class="st2" d="M12.2,41.1c-0.1,0-0.1,0-0.2,0c-0.1-0.1-0.2-0.3-0.1-0.4l1.9-2.7c0.1-0.1,0.3-0.2,0.4-0.1
			c0.1,0.1,0.2,0.3,0.1,0.4L12.5,41C12.4,41,12.3,41.1,12.2,41.1z"/>
		<path class="st2" d="M33.9,10.1c-0.1,0-0.1,0-0.2,0c-0.1-0.1-0.2-0.3-0.1-0.4L35.5,7c0.1-0.1,0.3-0.2,0.4-0.1
			C36,7.1,36.1,7.2,36,7.4L34.1,10C34.1,10.1,34,10.1,33.9,10.1z"/>
		<path class="st2" d="M15.3,42.9c0,0-0.1,0-0.1,0c-0.1-0.1-0.2-0.2-0.1-0.4l1.4-3c0.1-0.1,0.2-0.2,0.4-0.1c0.1,0.1,0.2,0.2,0.1,0.4
			l-1.4,3C15.5,42.8,15.4,42.9,15.3,42.9z"/>
		<path class="st2" d="M31.3,8.6c0,0-0.1,0-0.1,0C31,8.6,31,8.4,31,8.3l1.4-3c0.1-0.1,0.2-0.2,0.4-0.1c0.1,0.1,0.2,0.2,0.1,0.4
			l-1.4,3C31.5,8.6,31.4,8.6,31.3,8.6z"/>
		<path class="st2" d="M18.7,44.1C18.7,44.1,18.6,44.1,18.7,44.1c-0.2,0-0.3-0.2-0.3-0.3l0.8-3.2c0-0.1,0.2-0.2,0.3-0.2
			c0.1,0,0.2,0.2,0.2,0.3L19,43.9C18.9,44,18.8,44.1,18.7,44.1z"/>
		<path class="st2" d="M28.5,7.6C28.4,7.6,28.4,7.6,28.5,7.6c-0.2,0-0.3-0.2-0.3-0.3L29,4.1c0-0.1,0.2-0.2,0.3-0.2
			c0.1,0,0.2,0.2,0.2,0.3l-0.8,3.2C28.7,7.5,28.6,7.6,28.5,7.6z"/>
		<path class="st2" d="M22.2,44.7C22.2,44.7,22.2,44.7,22.2,44.7c-0.2,0-0.3-0.1-0.3-0.3l0.3-3.2c0-0.1,0.1-0.3,0.3-0.2
			c0.1,0,0.3,0.1,0.2,0.3l-0.3,3.2C22.5,44.6,22.4,44.7,22.2,44.7z"/>
		<path class="st2" d="M25.5,7.1C25.5,7.1,25.5,7.1,25.5,7.1c-0.2,0-0.3-0.1-0.3-0.3l0.3-3.2c0-0.1,0.1-0.3,0.3-0.2
			c0.1,0,0.3,0.1,0.2,0.3l-0.3,3.2C25.8,7,25.6,7.1,25.5,7.1z"/>
		<polygon class="st2" points="26.7,26.7 38.7,9.3 21.3,21.3 9.3,38.7 		"/>
	</g>
	<polygon class="st3" points="26.7,26.7 38.7,9.3 9.3,38.7 	"/>
	<polygon class="st4" points="26.7,26.7 38.7,9.3 21.3,21.3 	"/>
	<polygon class="st5" points="26.7,26.7 38.7,9.3 24,24 	"/>
</g>
</svg>
