<?xml version="1.0" encoding="utf-8"?>
<!-- Generator: Adobe Illustrator 22.1.0, SVG Export Plug-In . SVG Version: 6.00 Build 0)  -->
<svg version="1.1" id="Layer_1" xmlns="http://www.w3.org/2000/svg" xmlns:xlink="http://www.w3.org/1999/xlink" x="0px" y="0px"
	 viewBox="0 0 48 48" style="enable-background:new 0 0 48 48;" xml:space="preserve">
<style type="text/css">
	.st0{fill:#208FCE;}
</style>
<g>
	<path class="st0" d="M17.2,27.6L17.2,27.6c0,1.7,0.4,3.2,1.1,4.6c0.9,1.5,2,2.7,3.5,3.6c1.5,0.9,3.1,1.3,4.9,1.3s3.5-0.4,4.9-1.3
		c1.5-0.9,2.6-2.1,3.5-3.6h11.8c-1.5,4.3-4.1,7.8-7.9,10.5c-3.8,2.7-8,4.1-12.6,4.1c-3.5,0-6.8-0.8-9.9-2.3
		c-6.9,3.4-11.9,3.5-14.9,0.5c-1.1-1-1.6-2.6-1.6-4.9c0-2.3,0.4-4.9,1.3-7.7c0.9-2.8,2.4-5.9,4.4-9.3c2.1-3.4,4.5-6.5,7.4-9.2
		c1.6-1.7,2.7-2.8,3.2-3.2c-4.1,2-7.8,5-11.1,9.2c1.2-4.8,3.7-8.7,7.7-11.8c3.9-3.1,8.4-4.6,13.5-4.6c0.5,0,1.1,0,1.6,0.1
		C31.6,1.9,35,1,38,0.8c3-0.2,5.2,0.3,6.4,1.5c2.5,2.6,2.7,6.6,0.7,12c1.9,3.4,2.9,7,2.9,10.8c0,0.9,0,1.7-0.1,2.5H36.2L17.2,27.6
		L17.2,27.6z M15.1,43.8c-4.4-2.7-7.5-6.5-9.3-11.3c-3,5.8-3.4,9.8-1.2,11.9C6.6,46.3,10,46.1,15.1,43.8z M35.5,21.9
		c-0.1-2.4-1.1-4.4-2.9-6.1c-1.8-1.7-3.9-2.5-6.3-2.5c-2.4,0-4.5,0.8-6.3,2.5c-1.8,1.7-2.7,3.7-2.9,6.1H35.5z M34.4,5.1
		c4.2,1.7,7.6,4.5,10.1,8.3c1.5-4.1,1.4-6.9-0.2-8.6C42.5,2.9,39.2,3,34.4,5.1z"/>
</g>
</svg>
