<?xml version="1.0" encoding="UTF-8"?>
<svg width="16px" height="15px" viewBox="0 0 16 15" version="1.1" xmlns="http://www.w3.org/2000/svg" xmlns:xlink="http://www.w3.org/1999/xlink">
    <!-- Generator: Sketch 51.1 (57501) - http://www.bohemiancoding.com/sketch -->
    <title>ui/icons/regular/like 2</title>
    <desc>Created with Sketch.</desc>
    <defs></defs>
    <g id="Page-1" stroke="none" stroke-width="1" fill="none" fill-rule="evenodd">
        <g id="ui/buttons/withicon/Amazing-1-norm" transform="translate(-21.000000, -8.000000)" fill="#FFFFFF">
            <g id="ui/icons/regular/like-2" transform="translate(21.000000, 8.000000)">
                <path d="M3.22109132,5.50333461 L0.501825815,5.50333461 C0.224645853,5.50333461 0,5.73723526 0,6.02583427 L0,14.4108337 C0,14.6989118 0.224645853,14.9333333 0.501825815,14.9333333 L3.22109132,14.9333333 C3.49827129,14.9333333 3.72291714,14.6989118 3.72291714,14.4108337 L3.72291714,6.02583427 C3.72291714,5.73775619 3.49827129,5.50333461 3.22109132,5.50333461 M15.9933839,6.62386976 C16.0929485,5.45071999 15.0422663,5.10846449 14.6254957,5.10846449 C13.0099468,5.10794355 11.3933973,5.10846449 9.77784836,5.10690168 C10.0104994,4.58023453 10.2936833,3.18256098 9.93645134,1.25717841 C9.79535973,0.496089685 9.36407972,-0.010260926 8.81472304,0.00015781084 C8.37193556,0.00797186348 7.94916107,0.36325079 7.90463216,0.806568043 C7.85660097,1.29364399 7.74152626,1.98753186 7.63245544,2.46210533 C7.32175372,3.81654112 5.80576945,5.55751204 4.64601647,6.41341128 C4.3968547,6.59730198 4.2457566,6.89006849 4.2457566,7.2083609 L4.2457566,13.5158642 C4.2457566,13.8872922 4.4613966,14.2279848 4.7936123,14.3639494 C5.43602939,14.6270225 6.11797215,14.7223539 6.83543797,14.7082886 C8.29638651,14.6791162 12.4700963,14.7046421 13.2265875,14.6994327 C13.7614347,14.6957861 14.2952813,14.4301083 14.551948,13.7570579 C14.9026757,12.8386463 13.9985887,12.37918 13.9985887,12.37918 C13.9985887,12.37918 14.9882313,12.4302318 15.2143781,11.5055689 C15.4465288,10.5569429 14.5359376,10.1813475 14.5359376,10.1813475 C15.1518375,10.1115419 15.5460935,9.94432119 15.6951903,9.36712317 C15.8703039,8.68625872 15.4500311,8.17469874 14.7840987,7.87932755 C14.8851643,7.86890881 15.9018244,7.69752059 15.9933839,6.62386976" id="Fill-1"></path>
            </g>
        </g>
    </g>
</svg>