<?xml version="1.0" encoding="utf-8"?>
<!-- Generator: Adobe Illustrator 21.0.0, SVG Export Plug-In . SVG Version: 6.00 Build 0)  -->
<svg version="1.1" id="Layer_1" xmlns="http://www.w3.org/2000/svg" xmlns:xlink="http://www.w3.org/1999/xlink" x="0px" y="0px"
	 viewBox="0 0 500 500" style="enable-background:new 0 0 500 500;" xml:space="preserve">
<path id="Shape" d="M479.9,6H114.2c-8.1,0-14.1,6.7-14.1,14.1v365.7c0,8.1,6.7,14.1,14.1,14.1h365.7c8.1,0,14.1-6.7,14.1-14.1V20.1
	C494,12,488,6,479.9,6z M128.3,371.7V34.2h336.8v337.4H128.3V371.7z M399.9,479.9c0,8.1-6.7,14.1-14.1,14.1H20.1
	C12,494,6,487.3,6,479.9V114.2c0-8.1,6.7-14.1,14.1-14.1s14.1,6.7,14.1,14.1v351.5h351.5C393.8,465.8,399.9,471.8,399.9,479.9z
	 M203.6,202.9c0-8.1,6.7-14.1,14.1-14.1h64.5v-64.5c0-8.1,6.7-14.1,14.1-14.1c8.1,0,14.1,6.7,14.1,14.1v64.5H375
	c8.1,0,14.1,6.7,14.1,14.1c0,8.1-6.7,14.1-14.1,14.1h-64.5v64.5c0,8.1-6.7,14.1-14.1,14.1c-8.1,0-14.1-6.7-14.1-14.1V217h-64.5
	C210.3,217.1,203.6,211,203.6,202.9z"/>
</svg>
