<?xml version="1.0" encoding="utf-8"?>
<!DOCTYPE svg PUBLIC "-//W3C//DTD SVG 1.1//EN" "http://www.w3.org/Graphics/SVG/1.1/DTD/svg11.dtd">
<svg version="1.1" xmlns="http://www.w3.org/2000/svg" xmlns:xlink="http://www.w3.org/1999/xlink" x="0px" y="0px" viewBox="0 0 60 107" enable-background="new 0 0 60 107" xml:space="preserve">
	<g transform="translate(-944.000000, -455.000000)">
		<g transform="translate(944.000000, 455.000000)">
			<path fill="#C71026" d="M27.424,0.021c1.351,4.515,0.684,7.033-0.867,8.967c-1.635,2.185-4.254,3.808-6.055,6.991
				C18.083,20.244,17.666,29.566,26.39,32c-3.67-2.414-4.454-9.404-0.5-13.753c-1.018,4.224,0.884,6.928,3.236,5.951
				c2.319-0.978,3.837,1.103,3.786,3.475c-0.033,1.623-0.517,2.996-1.885,3.766C36.731,30.211,39,24.322,39,19.87
				c0-5.909-4.22-6.7-2.085-11.672c-2.535,0.27-3.386,2.351-3.153,5.722c0.15,2.247-1.701,3.745-3.103,2.767
				c-1.118-0.853-1.101-2.476-0.1-3.704c2.085-2.559,2.919-8.51-3.136-12.941L27.39,0L27.424,0.021z"/>
			<path fill="#FFFFFF" d="M48.947,63.091c0,8.766-6.043,16.108-14.211,18.2v16.3h9.474
				c0.873,0,1.579,0.703,1.579,1.568c0,0.867-0.706,1.568-1.579,1.568H15.789c-0.873,0-1.579-0.701-1.579-1.568
				c0-0.866,0.706-1.568,1.579-1.568h9.474v-16.3c-8.168-2.092-14.211-9.434-14.211-18.2C4.948,63.091,0,58.176,0,52.114v-3.136
				c0-0.866,0.706-1.568,1.579-1.568h9.474v-1.568c0-2.598-2.121-4.705-4.737-4.705c-0.873,0-1.579-0.703-1.579-1.568
				C4.737,38.703,5.443,38,6.316,38h47.368c0.873,0,1.579,0.703,1.579,1.568c0,0.866-0.706,1.568-1.579,1.568
				c-2.616,0-4.737,2.106-4.737,4.705v1.568h9.474c0.873,0,1.579,0.703,1.579,1.568v3.136C60,58.176,55.052,63.091,48.947,63.091z
				 M28.421,97.591h3.158V81.829c-0.521,0.044-1.045,0.08-1.579,0.08s-1.058-0.036-1.579-0.08V97.591z M3.158,50.545v1.568
				c0,4.331,3.534,7.841,7.895,7.841v-9.409H3.158z M12.597,41.136c0.998,1.314,1.614,2.931,1.614,4.705v17.25
				c0,8.661,7.069,15.682,15.789,15.682c8.719,0,15.789-7.021,15.789-15.682v-17.25c0-1.774,0.616-3.39,1.614-4.705H12.597z
				 M56.842,50.545h-7.895v9.409c4.361,0,7.895-3.51,7.895-7.841V50.545z M11.053,103.864h37.895c0.873,0,1.579,0.703,1.579,1.568
				c0,0.867-0.706,1.568-1.579,1.568H11.053c-0.873,0-1.579-0.701-1.579-1.568C9.474,104.566,10.179,103.864,11.053,103.864z
				 M39.835,56.916c0.301,0.22,0.478,0.568,0.482,0.939c0.003,0.371-0.17,0.721-0.467,0.945L27.164,68.37
				c-0.209,0.159-0.463,0.24-0.716,0.24c-0.18,0-0.359-0.041-0.527-0.122c-0.403-0.198-0.658-0.608-0.658-1.054v-11.41
				c0-0.649,0.531-1.176,1.184-1.176c0.654,0,1.184,0.527,1.184,1.176v9.04l9.524-7.185l-11.411-8.345
				c-0.527-0.385-0.639-1.122-0.251-1.645c0.388-0.524,1.131-0.634,1.656-0.249L39.835,56.916z"/>
		</g>
	</g>
</svg>
