<?xml version="1.0" encoding="utf-8"?>
<!-- Generator: Adobe Illustrator 21.0.0, SVG Export Plug-In . SVG Version: 6.00 Build 0)  -->
<svg version="1.1" id="Layer_1" xmlns="http://www.w3.org/2000/svg" xmlns:xlink="http://www.w3.org/1999/xlink" x="0px" y="0px"
	 viewBox="0 0 500 500" style="enable-background:new 0 0 500 500;" xml:space="preserve">
<path d="M80.1,465.9L55.5,143.6h387l-24.7,322.2c-1.3,14.8-13.7,26.2-28.7,26.1H108.8C93.9,492.1,81.4,480.7,80.1,465.9z M458,39.5
	c9.1,0,16.6,7.5,16.6,16.8v33.4c0,9.2-7.3,16.7-16.5,16.8H40c-9.1,0-16.5-7.6-16.5-16.8V56.3c0-9.2,7.4-16.8,16.5-16.8h141.9V22.8
	c0-9.2,7.4-16.8,16.5-16.8h101.1c9.1,0,16.5,7.5,16.5,16.8v16.7H458L458,39.5z"/>
</svg>
