<?xml version="1.0" encoding="utf-8"?>
<!-- Generator: Adobe Illustrator 21.0.0, SVG Export Plug-In . SVG Version: 6.00 Build 0)  -->
<svg version="1.1" id="Layer_2" xmlns="http://www.w3.org/2000/svg" xmlns:xlink="http://www.w3.org/1999/xlink" x="0px" y="0px"
	 viewBox="0 0 500 500" style="enable-background:new 0 0 500 500;" xml:space="preserve">
<path id="donate" d="M336.4,416.6c-16.8,12.5-37.8,20.9-60.8,24.3V492h-53.7v-52.1c-54.5-10-102.2-47.3-102.2-110v-26.5h53.7v26.5
	c0,41,40.7,59.7,78.5,59.7c20.1,0,39.1-5.6,52.1-15.3c13.4-10,20.1-24,20.1-41.7c0-28.4-30.1-42-79.6-61.1
	c-49.8-19.2-111.7-43-111.7-107.6c0-57.4,41.1-92.3,89.1-103V8h53.7v51c50.9,7.6,96.6,42,96.6,101.3v26.5h-53.7v-26.5
	c0-15.4-5.8-27.2-17.8-36.1c-11.7-8.7-28.8-13.8-46.7-13.8c-25.1,0-67.6,11.3-67.6,53.5c0,26.4,29.3,39.6,77.5,58.2
	c50.7,19.5,113.8,43.8,113.8,110.5C377.8,366.9,363.1,396.7,336.4,416.6z"/>
</svg>
