<?xml version="1.0" encoding="utf-8"?>
<!-- Generator: Adobe Illustrator 21.0.0, SVG Export Plug-In . SVG Version: 6.00 Build 0)  -->
<svg version="1.1" id="Layer_1" xmlns="http://www.w3.org/2000/svg" xmlns:xlink="http://www.w3.org/1999/xlink" x="0px" y="0px"
	 viewBox="0 0 500 500" style="enable-background:new 0 0 500 500;" xml:space="preserve">
<path d="M371.8,18.1c-12.6,0-24.4,5-33.2,13.8L68.2,302.4c-5.5,5.7-9.6,12.5-11.9,20.1L18.1,453.7c-2.5,7.5,0,15.7,5.6,22
	c4.4,4.4,10.1,6.3,15.7,6.3c1.9,0,4.4,0,6.3-0.6l131-38.3c7.5-2.3,14.4-6.4,20.1-11.9l270.3-270.5c18.4-18.4,18.4-48.1,0-66.5
	L405,31.9C396.2,23.1,384.2,18.1,371.8,18.1z M179.9,385.8l-66.4-66.5l181.9-182l66.4,66.5L179.9,385.8L179.9,385.8z M91.5,358.9
	l48.9,49l-69,20.1C71.4,427.9,91.5,358.9,91.5,358.9z M437,127.3c0,0.6,0,1.2-0.6,2.5l-43.3,42.7L326.6,106l42.6-42.7
	c0.7-0.6,1.9-0.6,2.5-0.6c0.6,0,1.3,0,2.5,0.6l62.1,62.1C436.4,126,437,126.7,437,127.3L437,127.3z"/>
</svg>
