<?xml version="1.0" encoding="utf-8"?>
<!-- Generator: Adobe Illustrator 21.0.0, SVG Export Plug-In . SVG Version: 6.00 Build 0)  -->
<svg version="1.1" id="Layer_1" xmlns="http://www.w3.org/2000/svg" xmlns:xlink="http://www.w3.org/1999/xlink" x="0px" y="0px"
	 viewBox="0 0 500 500" style="enable-background:new 0 0 500 500;" xml:space="preserve">
<g id="Symbols">
	<g id="ui_x2F_icons_x2F_menu-burger_x2F_exit">
		<path id="exit" d="M79.5,43.5l85,45.3c16.2,8.6,29.3,30.5,29.3,48.8v244.6h108.5c9.8,0,17.7-7.9,17.7-17.7v-81.4
			c0-9.2,7.4-16.6,16.6-16.6h3.3c9.2,0,16.6,7.4,16.6,16.6v102.4c0,18.3-14.9,33.2-33.2,33.2H193.9v53.1c0,18.3-13.1,26.2-29.3,17.6
			L25.4,415.4c-0.7-0.3-1.4-0.7-2-1.1l-4.6-3.2c-7.4-6.1-12.1-15.3-12.1-25.6V40.2C6.8,21.9,21.7,7,40,7h283.4
			c18.3,0,33.2,14.9,33.2,33.2v102.4c0,9.2-7.4,16.6-16.6,16.6h-3.3c-9.2,0-16.6-7.4-16.6-16.6V61.2c0-9.8-7.9-17.7-17.7-17.7H79.5z
			 M388.7,238.9h-88.6c-14.7,0-26.6-11.9-26.6-26.6c0-14.7,11.9-26.6,26.6-26.6h88.6v-22.7c0-18.3,12.2-24.7,27.2-14.2l63.9,44.5
			c15,10.5,15,27.5,0,37.9l-63.9,44.5c-15,10.5-27.2,4.1-27.2-14.2V238.9z"/>
	</g>
</g>
</svg>
