<?xml version="1.0" encoding="utf-8"?>
<!-- Generator: Adobe Illustrator 21.0.0, SVG Export Plug-In . SVG Version: 6.00 Build 0)  -->
<svg version="1.1" id="Layer_1" xmlns="http://www.w3.org/2000/svg" xmlns:xlink="http://www.w3.org/1999/xlink" x="0px" y="0px"
	 viewBox="0 0 500 500" style="enable-background:new 0 0 500 500;" xml:space="preserve">
<g>
	<path d="M485.2,223.9l-209-209c-14.4-14.4-37.8-14.4-52.3,0l-209,209c-14.4,14.4-14.4,37.8,0,52.3l209,209
		c14.4,14.4,37.8,14.4,52.3,0l209-209C499.6,261.7,499.6,238.3,485.2,223.9z M231.4,339.8l-29.5-51.9l-6.5-17.8l-6.2,17.8
		l-29.8,51.9h-35.8l51.6-85.5l-46.8-82.6H168l25.9,48.5l5.8,17.1l5.5-17.1l27.1-48.5h35.8l-48.5,80.9l50.9,87.2H231.4z M399,251.7
		c-3.7,7.3-8.6,13.3-14.7,17.9c-6.1,4.6-13,8-20.8,10.1c-7.8,2.1-15.8,3.1-24.1,3.1h-3.8c-1.8,0-3.6,0-5.5-0.1
		c-1.9-0.1-3.8-0.2-5.6-0.4c-1.8-0.2-3.2-0.3-4-0.5v57.9h-32.9V173.3c6.7-1.3,14.1-2.3,22.2-3c8.1-0.7,16.1-1.1,24.1-1.1
		c8.3,0,16.7,0.7,25.1,2c8.4,1.4,16,4.1,22.7,8.2s12.2,9.8,16.5,17.1c4.2,7.3,6.4,16.8,6.4,28.5C404.6,235.5,402.7,244.4,399,251.7z
		"/>
	<path d="M359.5,203.1c-3.1-2.1-6.7-3.5-10.7-4.3c-4-0.8-8.1-1.2-12.3-1.2c-3.2,0-6.2,0.1-9.1,0.4c-2.9,0.2-5.2,0.5-7,0.8v54.5
		c0.6,0.2,1.6,0.3,2.9,0.5c1.3,0.2,2.6,0.3,4.1,0.4s2.8,0.1,4.2,0.1c1.4,0,2.4,0,3,0c4.3,0,8.6-0.4,12.9-1.2c4.2-0.8,8-2.3,11.4-4.4
		c3.4-2.2,6-5.2,8-9c2-3.8,3-8.9,3-15.1c0-5.3-1-9.6-2.9-13.1S362.7,205.2,359.5,203.1z"/>
</g>
</svg>
