<?xml version="1.0" encoding="utf-8"?>
<!-- Generator: Adobe Illustrator 21.0.0, SVG Export Plug-In . SVG Version: 6.00 Build 0)  -->
<svg version="1.1" id="Layer_1" xmlns="http://www.w3.org/2000/svg" xmlns:xlink="http://www.w3.org/1999/xlink" x="0px" y="0px"
	 viewBox="0 0 500 500" style="enable-background:new 0 0 500 500;" xml:space="preserve">
<g id="Symbols">
	<g id="ui_x2F_icons_x2F_regular_x2F_hide">
		<path id="hide" d="M490.1,189.9l-27.9-16.1c0.6-1.1,1.3-2.1,1.9-3.3c3.6-6.7,1-15-5.6-18.6c-6.7-3.6-15-1-18.6,5.6
			c-37.6,70.3-110.3,114-189.9,114c-79.6,0-152.4-43.7-189.9-113.9c-3.6-6.7-11.9-9.2-18.6-5.6c-6.7,3.6-9.2,11.9-5.6,18.6
			c0.6,1.1,1.3,2.2,1.9,3.3L9.9,189.9c-6.6,3.8-8.8,12.2-5,18.7c2.5,4.4,7.2,6.9,11.9,6.9c2.3,0,4.7-0.6,6.9-1.8L52.4,197
			c6.7,9.4,13.9,18.3,21.8,26.5l-24.3,24.3c-5.4,5.4-5.4,14,0,19.4c2.7,2.7,6.2,4,9.7,4c3.5,0,7-1.3,9.7-4l25-25
			c8.7,7.3,17.8,13.9,27.3,19.9l-18.1,31.4c-3.8,6.6-1.5,15,5,18.7c2.2,1.3,4.5,1.8,6.9,1.8c4.7,0,9.4-2.5,11.9-6.9l18.4-31.9
			c10,4.8,20.4,8.9,31.1,12.3l-9.7,36.2c-2,7.3,2.4,14.8,9.7,16.8c1.2,0.3,2.4,0.5,3.6,0.5c6.1,0,11.6-4,13.2-10.2l9.8-36.4
			c10.8,2.1,21.8,3.5,33,4.1v37.9c0,7.6,6.1,13.7,13.7,13.7c7.6,0,13.7-6.1,13.7-13.7v-37.9c11.2-0.6,22.2-2,33-4.1l9.8,36.4
			c1.6,6.1,7.2,10.2,13.2,10.2c1.2,0,2.4-0.2,3.6-0.5c7.3-2,11.7-9.5,9.7-16.8l-9.7-36.2c10.7-3.4,21-7.5,31.1-12.3l18.4,31.9
			c2.5,4.4,7.2,6.9,11.9,6.9c2.3,0,4.7-0.6,6.9-1.8c6.6-3.8,8.8-12.2,5-18.7l-18.1-31.4c9.6-6,18.7-12.6,27.3-19.9l25,25
			c2.7,2.7,6.2,4,9.7,4c3.5,0,7-1.3,9.7-4c5.4-5.4,5.4-14,0-19.4l-24.3-24.3c7.8-8.2,15.1-17.1,21.8-26.5l28.8,16.6
			c2.2,1.3,4.5,1.8,6.9,1.8c4.7,0,9.4-2.5,11.9-6.9C498.9,202.1,496.7,193.7,490.1,189.9z"/>
	</g>
</g>
</svg>
