<?xml version="1.0" encoding="utf-8"?>
<!DOCTYPE svg PUBLIC "-//W3C//DTD SVG 1.1//EN" "http://www.w3.org/Graphics/SVG/1.1/DTD/svg11.dtd">
<svg version="1.1" xmlns="http://www.w3.org/2000/svg" xmlns:xlink="http://www.w3.org/1999/xlink" x="0px" y="0px" viewBox="-0.5 -1.5 90 130" enable-background="new -0.5 -1.5 90 130" xml:space="preserve">
	<g transform="translate(-916.000000, -3729.000000)">
		<g transform="translate(916.000000, 3729.000000)">
			<path fill="#FFFFFF" d="M34.5,98.5h-6v-6c0-0.828-0.672-1.5-1.5-1.5h-6c-0.828,0-1.5,0.672-1.5,1.5v6h-6
				c-0.828,0-1.5,0.672-1.5,1.5v6c0,0.828,0.672,1.5,1.5,1.5h6v6c0,0.828,0.672,1.5,1.5,1.5h6c0.828,0,1.5-0.672,1.5-1.5v-6h6
				c0.828,0,1.5-0.672,1.5-1.5v-6C36,99.172,35.328,98.5,34.5,98.5z M33,104.5h-6c-0.828,0-1.5,0.672-1.5,1.5v6h-3v-6
				c0-0.828-0.672-1.5-1.5-1.5h-6v-3h6c0.828,0,1.5-0.672,1.5-1.5v-6h3v6c0,0.828,0.672,1.5,1.5,1.5h6V104.5z"/>
			<path fill="#FFFFFF" d="M88.845,100.556C87.707,90.334,78.109,80.771,67.88,79.681
				c-0.869-0.096-1.742-0.145-2.616-0.148H48.949V73.6h-2.966v-2.967c0-3.277-2.656-5.933-5.932-5.933h-7.416
				c-1.638,0-2.966-1.328-2.966-2.967s1.328-2.967,2.966-2.967h23.73c3.276,0,5.932-2.656,5.932-5.933S59.641,46.9,56.365,46.9
				h-7.416c-1.638,0-2.966-1.328-2.966-2.967V0.965h-2.966v42.969c0,3.277,2.656,5.933,5.932,5.933h7.416
				c1.638,0,2.966,1.328,2.966,2.967c0,1.639-1.328,2.967-2.966,2.967h-23.73c-3.276,0-5.932,2.656-5.932,5.933
				c0,3.277,2.656,5.933,5.932,5.933h7.416c1.638,0,2.966,1.328,2.966,2.967V73.6H40.05v5.933H23.736
				c-0.875,0.002-1.75,0.052-2.619,0.148C10.883,80.779,1.291,90.342,0.156,100.563c-1.49,13.022,7.857,24.787,20.878,26.277
				c5.302,0.607,10.654-0.592,15.191-3.402c1.953-1.279,4.186-2.068,6.509-2.301c1.148-0.091,2.3-0.095,3.448-0.012
				c2.36,0.228,4.629,1.026,6.612,2.326c11.148,6.891,25.771,3.438,32.661-7.712C88.26,111.204,89.453,105.854,88.845,100.556z
				 M43.017,76.566h2.966v2.967h-2.966V76.566z M80.74,117.111c-6.705,7.501-17.825,9.111-26.382,3.82
				c-2.389-1.556-5.123-2.505-7.963-2.763c-0.626-0.045-1.258-0.068-1.895-0.068c-0.675,0-1.335,0.028-1.999,0.08
				c-2.797,0.268-5.487,1.207-7.843,2.738c-9.752,6.034-22.548,3.02-28.582-6.733c-2.456-3.97-3.503-8.653-2.971-13.291
				c0.976-8.784,9.539-17.316,18.331-18.261c0.764-0.085,1.532-0.129,2.3-0.132h41.527c0.768,0.001,1.536,0.042,2.3,0.123
				c8.79,0.945,17.352,9.477,18.331,18.261C86.594,106.783,84.715,112.697,80.74,117.111z"/>
			<path fill="#FFFFFF" d="M65,88c-3.314,0-6,2.686-6,6s2.686,6,6,6c3.314,0,6-2.686,6-6S68.314,88,65,88z M65,97
				c-1.657,0-3-1.343-3-3s1.343-3,3-3s3,1.343,3,3S66.657,97,65,97z"/>
			<path fill="#FFFFFF" d="M65,106c-3.314,0-6,2.686-6,6s2.686,6,6,6c3.314,0,6-2.686,6-6S68.314,106,65,106z M65,115
				c-1.657,0-3-1.343-3-3s1.343-3,3-3s3,1.343,3,3S66.657,115,65,115z"/>
			<path fill="#FFFFFF" d="M55,97c-3.314,0-6,2.686-6,6s2.686,6,6,6s6-2.686,6-6S58.314,97,55,97z M55,106
				c-1.657,0-3-1.343-3-3s1.343-3,3-3s3,1.343,3,3S56.657,106,55,106z"/>
			<path fill="#FFFFFF" d="M76,97c-3.314,0-6,2.686-6,6s2.686,6,6,6s6-2.686,6-6S79.314,97,76,97z M76,106
				c-1.657,0-3-1.343-3-3s1.343-3,3-3s3,1.343,3,3S77.657,106,76,106z"/>
		</g>
	</g>
</svg>
