<?xml version="1.0" encoding="utf-8"?>
<!-- Generator: Adobe Illustrator 21.0.0, SVG Export Plug-In . SVG Version: 6.00 Build 0)  -->
<svg version="1.1" id="Layer_1" xmlns="http://www.w3.org/2000/svg" xmlns:xlink="http://www.w3.org/1999/xlink" x="0px" y="0px"
	 viewBox="0 0 500 500" style="enable-background:new 0 0 500 500;" xml:space="preserve">
<g>
	<path d="M483.8,226.5c2.9-33-27.8-42.6-40-42.6c-47.3,0-94.5,0-141.8,0c6.8-14.8,15.1-54.1,4.6-108.1
		c-4.1-21.2-16.5-35.3-32.3-35.3c-0.1,0-0.3,0-0.5,0c-13,0.2-25.3,10.2-26.6,22.7c-1.4,13.7-4.8,33.2-8,46.5
		c-9.1,38-53.4,87-87.4,111c-7.3,5.2-11.7,13.4-11.7,22.3v177.2c0,10.4,6.3,20,16,23.8c17.6,6.9,36.2,9.7,55.7,9.7c1.3,0,2.6,0,4,0
		c16.2-0.3,43.8-0.4,73-0.4c40.3,0,83.7,0.2,104.6,0.2c4,0,7.1,0,9.3,0c15.6-0.1,31.3-7.6,38.8-26.5c10.3-25.8-16.2-38.7-16.2-38.7
		s0.3,0,0.8,0c4.7,0,28.8-1.2,34.8-24.6c6.8-26.6-19.8-37.2-19.8-37.2c18-2,29.5-6.7,33.9-22.9c5.1-19.1-7.2-33.5-26.6-41.8
		C451.4,261.5,481.1,256.7,483.8,226.5z M454.7,223.9c-0.4,4.8-3.7,7.8-9.7,8.8c-13,1.5-23.5,11.6-25.5,24.6
		c-2,13.2,5.2,26.1,17.4,31.4c7.1,3,9.8,6,10,6.4c0,0,0,0.2-0.1,0.7c-1.3,0.4-4,1-8.9,1.6c-13.4,1.5-24,11.9-25.8,25.2
		s5.7,26.2,18.2,31.1c0,0,1.7,1.1,2.4,2c0,0.2-0.1,0.5-0.1,0.8c-0.2,0.6-0.3,1-0.3,1c-0.7,0.7-3.8,1.6-5.5,1.6
		c-1-0.1-1.9-0.1-2.9-0.1c-13.3,0-25.3,8.6-28.6,21.7c-3.5,14,3.3,28.1,16.6,33.7c0.8,0.4,1.8,1.2,2.4,1.9v0c-1.9,4.8-4.6,8-11.8,8
		l-9.1,0c-8.8,0-21.5,0-36.2-0.1c-20.5-0.1-45-0.1-68.4-0.1c-35.3,0-59.3,0.1-73.6,0.4l-3.4,0c-16,0-30-2.2-42.5-6.7V244
		c39.7-28.4,87.5-82.5,98.3-127.6c3-12.5,6-29.1,7.7-42.9c0.9,1.9,1.8,4.5,2.4,7.9c9.5,49,1.4,81.9-2.5,90.4
		c-4.2,9.1-3.4,19.6,1.9,28c5.4,8.4,14.7,13.5,24.6,13.5c33.3,0,66.7,0,100,0l41.6,0c2.1,0.1,7.5,1.8,9.8,4.4
		C453.9,218.2,455,219.5,454.7,223.9z"/>
	<path d="M110.2,195H30.7c-8.1,0-14.7,6.6-14.7,14.7v235.6c0,8.1,6.6,14.7,14.7,14.7h79.5c8.1,0,14.7-6.6,14.7-14.7V209.7
		C124.9,201.6,118.3,195,110.2,195z M96,431H45V224h51V431z"/>
</g>
</svg>
