<?xml version="1.0" encoding="utf-8"?>
<!-- Generator: Adobe Illustrator 21.0.0, SVG Export Plug-In . SVG Version: 6.00 Build 0)  -->
<svg version="1.1" id="Layer_1" xmlns="http://www.w3.org/2000/svg" xmlns:xlink="http://www.w3.org/1999/xlink" x="0px" y="0px"
	 viewBox="0 0 500 500" style="enable-background:new 0 0 500 500;" xml:space="preserve">
<path id="Fill-1" d="M110.2,193H30.7c-8.1,0-14.7,6.8-14.7,15.3v245.3c0,8.4,6.6,15.3,14.7,15.3h79.5c8.1,0,14.7-6.9,14.7-15.3
				V208.3C124.9,199.9,118.3,193,110.2,193 M483.8,225.8c2.9-34.3-27.8-44.3-40-44.3c-47.3,0-94.5,0-141.8,0
				c6.8-15.4,15.1-56.3,4.6-112.6c-4.1-22.3-16.7-37.1-32.8-36.8c-13,0.2-25.3,10.6-26.6,23.6c-1.4,14.2-4.8,34.5-8,48.4
				c-9.1,39.6-53.4,90.5-87.4,115.6c-7.3,5.4-11.7,13.9-11.7,23.3v184.5c0,10.9,6.3,20.8,16,24.8c18.8,7.7,38.7,10.5,59.7,10.1
				c42.7-0.9,164.8-0.1,186.9-0.3c15.6-0.1,31.3-7.9,38.8-27.6c10.3-26.9-16.2-40.3-16.2-40.3s28.9,1.5,35.6-25.6
				c6.8-27.7-19.8-38.7-19.8-38.7c18-2,29.5-6.9,33.9-23.8c5.1-19.9-7.2-34.9-26.6-43.5C451.4,262.2,481.1,257.2,483.8,225.8"/>
</svg>
