<?xml version="1.0" encoding="utf-8"?>
<!DOCTYPE svg PUBLIC "-//W3C//DTD SVG 1.1//EN" "http://www.w3.org/Graphics/SVG/1.1/DTD/svg11.dtd">
<svg version="1.1" xmlns="http://www.w3.org/2000/svg" xmlns:xlink="http://www.w3.org/1999/xlink" x="0px" y="0px" viewBox="0 0 73 69" enable-background="new 0 0 73 69" xml:space="preserve">
	<g transform="translate(-924.000000, -1215.000000)">
		<g transform="translate(924.000000, 1215.000000)">
			<path fill="#FFFFFF" d="M23.561,11.439c-0.587-0.585-1.536-0.585-2.122,0c-0.585,0.587-0.585,1.536,0,2.122
				c0.586,0.585,1.536,0.585,2.122,0C24.146,12.975,24.146,12.025,23.561,11.439z"/>
			<path fill="#FFFFFF" d="M72.587,54.534L59.455,41.34c2.733-4.302,4.173-9.243,4.173-14.363
				C63.628,12.102,51.459,0,36.5,0S9.372,12.102,9.372,26.977c0,5.12,1.44,10.061,4.173,14.363L0.413,54.534
				c-0.37,0.371-0.504,0.914-0.351,1.414c0.153,0.5,0.57,0.875,1.085,0.977l8.231,1.637c0.277,0.055,0.53,0.189,0.727,0.385
				c0.2,0.2,0.336,0.453,0.392,0.727l1.645,8.184c0.103,0.515,0.484,0.931,0.989,1.082c0.135,0.04,0.273,0.06,0.411,0.06
				c0.375,0,0.742-0.147,1.014-0.42l15.376-15.427c2.142,0.531,4.346,0.802,6.567,0.802c2.221,0,4.426-0.27,6.567-0.802
				L58.443,68.58c0.272,0.273,0.639,0.42,1.014,0.42c0.137,0,0.275-0.02,0.411-0.06c0.505-0.151,0.886-0.567,0.989-1.082l1.644-8.18
				c0.057-0.278,0.193-0.531,0.39-0.727c0.201-0.199,0.454-0.333,0.731-0.388l8.23-1.637c0.515-0.103,0.932-0.478,1.085-0.977
				C73.091,55.448,72.956,54.905,72.587,54.534z M14.417,64.686l-1.12-5.572c-0.072-0.352-0.189-0.689-0.343-1.008l4.947-5.042
				c0.551-0.561,0.54-1.46-0.025-2.008c-0.565-0.547-1.468-0.537-2.019,0.025l-4.93,5.024c-0.314-0.147-0.645-0.259-0.99-0.327
				l-5.63-1.12l10.914-10.966c3.049,3.829,7.086,6.774,11.644,8.503L14.417,64.686z M43.103,50.206
				c-0.001,0-0.003,0.001-0.004,0.001c-2.14,0.602-4.36,0.907-6.599,0.907s-4.459-0.305-6.599-0.907
				c-0.001,0-0.002-0.001-0.003-0.001c-0.003-0.001-0.006-0.001-0.009-0.002c-5.386-1.517-10.123-4.889-13.34-9.495
				c-2.827-4.048-4.321-8.797-4.321-13.732C12.227,13.667,23.116,2.84,36.5,2.84s24.272,10.828,24.272,24.137
				c0,4.936-1.494,9.684-4.321,13.732c-3.217,4.606-7.954,7.978-13.34,9.495C43.108,50.205,43.105,50.205,43.103,50.206z
				 M63.063,55.778c-0.345,0.068-0.676,0.18-0.989,0.327l-4.521-4.615c-0.55-0.562-1.454-0.574-2.019-0.026
				c-0.565,0.547-0.577,1.446-0.027,2.008l4.539,4.634c-0.155,0.32-0.272,0.658-0.345,1.013l-1.119,5.568L46.134,52.195
				c4.558-1.729,8.596-4.675,11.644-8.503l10.914,10.965L63.063,55.778z"/>
			<path fill="#FFFFFF" d="M50.929,21.21c-0.17-0.511-0.624-0.883-1.169-0.96l-8.266-1.169l-3.695-7.294
				C37.555,11.305,37.052,11,36.501,11c0,0,0,0,0,0c-0.551,0-1.054,0.305-1.298,0.786l-3.697,7.295L23.24,20.25
				c-0.545,0.077-0.998,0.449-1.169,0.96c-0.17,0.51-0.028,1.071,0.366,1.445l5.981,5.678l-1.412,8.018
				c-0.093,0.529,0.13,1.064,0.576,1.379c0.446,0.315,1.037,0.357,1.525,0.107l7.393-3.786l7.392,3.786
				C44.104,37.946,44.335,38,44.566,38c0.3,0,0.599-0.091,0.851-0.269c0.446-0.315,0.669-0.85,0.576-1.379l-1.412-8.018l5.981-5.678
				C50.957,22.28,51.099,21.72,50.929,21.21z M42.015,26.831c-0.341,0.324-0.497,0.791-0.417,1.248l1.045,5.932l-5.469-2.801
				c-0.422-0.216-0.926-0.216-1.348,0l-5.47,2.801l1.045-5.933c0.081-0.457-0.075-0.924-0.416-1.248l-4.426-4.201l6.116-0.865
				c0.472-0.067,0.879-0.355,1.09-0.771l2.735-5.397l2.734,5.397c0.211,0.416,0.618,0.705,1.09,0.772l6.116,0.865L42.015,26.831z"/>
			<path fill="#FFFFFF" d="M36.5,6c-3.587,0-7.143,0.906-10.282,2.621c-0.695,0.379-0.95,1.25-0.571,1.945
				c0.379,0.695,1.25,0.95,1.945,0.571c2.719-1.485,5.799-2.27,8.908-2.27c10.275,0,18.633,8.359,18.633,18.633
				S46.775,46.133,36.5,46.133S17.867,37.774,17.867,27.5c0-3.111,0.785-6.191,2.271-8.909c0.38-0.695,0.124-1.565-0.57-1.945
				c-0.694-0.379-1.565-0.124-1.945,0.57C15.907,20.354,15,23.91,15,27.5C15,39.355,24.645,49,36.5,49S58,39.355,58,27.5
				S48.355,6,36.5,6z"/>
		</g>
	</g>
</svg>
