<?xml version="1.0" encoding="utf-8"?>
<!-- Generator: Adobe Illustrator 21.0.0, SVG Export Plug-In . SVG Version: 6.00 Build 0)  -->
<svg version="1.1" id="Layer_1" xmlns="http://www.w3.org/2000/svg" xmlns:xlink="http://www.w3.org/1999/xlink" x="0px" y="0px"
	 viewBox="0 0 500 500" style="enable-background:new 0 0 500 500;" xml:space="preserve">
<g id="Symbols">
	<g id="ui_x2F_icons_x2F_menu-burger_x2F_my-channel">
		<path id="my-channel" d="M483.1,218.1c-6-3.4-13.3-3.4-19.2,0.1l-79.7,47.2v-4.9c0-36.6-27.5-64.2-63.9-64.2H71.1
			c-36.4,0-63.9,27.6-63.9,64.2v141.3c0,36.6,27.5,64.2,63.9,64.2h249.1c36.4,0,63.9-27.6,63.9-64.2v-6.5l80.5,42.8
			c5.9,3.2,13.1,3,18.9-0.5c5.8-3.5,9.3-9.7,9.3-16.5V234.8C492.8,227.9,489.1,221.5,483.1,218.1z M277,196.3
			c44.6,0,80.9-36.3,80.9-80.9S321.6,34.4,277,34.4c-44.6,0-80.9,36.3-80.9,80.9S232.4,196.3,277,196.3z M277,92.9
			c12.4,0,22.5,10.1,22.5,22.5s-10.1,22.5-22.5,22.5s-22.5-10.1-22.5-22.5S264.6,92.9,277,92.9z M115.1,196.3
			c44.6,0,80.9-36.3,80.9-80.9s-36.3-80.9-80.9-80.9s-80.9,36.3-80.9,80.9S70.5,196.3,115.1,196.3z M115.2,92.9
			c12.4,0,22.5,10.1,22.5,22.5s-10.1,22.5-22.5,22.5c-12.4,0-22.5-10.1-22.5-22.5S102.7,92.9,115.2,92.9z"/>
	</g>
</g>
</svg>
