<?xml version="1.0" encoding="utf-8"?>
<!-- Generator: Adobe Illustrator 21.0.0, SVG Export Plug-In . SVG Version: 6.00 Build 0)  -->
<svg version="1.1" id="Layer_1" xmlns="http://www.w3.org/2000/svg" xmlns:xlink="http://www.w3.org/1999/xlink" x="0px" y="0px"
	 viewBox="0 0 500 500" style="enable-background:new 0 0 500 500;" xml:space="preserve">
<g id="Symbols">
	<g id="ui_x2F_icons_x2F_menu-burger_x2F_my-profile">
		<path id="my-profile" d="M250,494C60.2,494,6,439.6,6,250S60.2,6,250,6s244,54.4,244,244S439.8,494,250,494z M253.4,439.8H250
			H253.4z M250,60.2C90.3,60.2,60.2,90.4,60.2,250c0,75,6.9,121.2,30.5,149.3c4.5-12.3,13.2-22.1,24.5-27.8
			c15.5-7.7,58.2-29.1,91.5-45.8l10.7-32.2c-15-9.2-25.5-24.5-28-42.3l-6.5-53c-1.1-4.6-1.7-9.8-1.7-15.1c0-38,30.8-68.8,68.8-68.8
			s68.8,30.8,68.8,68.8c0,5.4-0.6,10.6-1.8,15.6l-6.3,52.2c-2.4,18.4-12.8,33.9-27.5,43.2l10.2,31.6l91.7,45.9
			c11.4,5.5,20.2,15.1,24.5,26.8c23.4-27.9,30.2-74,30.2-148.6C439.8,90.3,409.7,60.2,250,60.2z"/>
	</g>
</g>
</svg>
