<?xml version="1.0" encoding="utf-8"?>
<!-- Generator: Adobe Illustrator 21.0.0, SVG Export Plug-In . SVG Version: 6.00 Build 0)  -->
<svg version="1.1" id="Layer_1" xmlns="http://www.w3.org/2000/svg" xmlns:xlink="http://www.w3.org/1999/xlink" x="0px" y="0px"
	 viewBox="0 0 500 500" style="enable-background:new 0 0 500 500;" xml:space="preserve">
<path id="Shape" d="M463.9,3.5c-16,0-29.1,13.1-29.1,29.1v61.9C388.9,41.3,321.2,9.3,249.2,9.3C114.5,9.3,5.3,118.5,5.3,253.2
	S114.5,497,249.2,497c87.3,0,168.9-47.3,211.8-123.7c8-13.8,2.9-32-10.9-40c-13.8-8-32-2.9-40,10.9c-32.8,58.2-94.6,93.9-161.6,93.9
	c-102.6,0-185.6-83-185.6-185.6S146.6,67.6,249.2,67.6c55.3,0,107,24.7,141.9,66.2h-57.5c-16,0-29.1,13.1-29.1,29.1
	c0,16,13.1,29.1,29.1,29.1h130.3c16,0,29.1-13.1,29.1-29.1V32.6C493,16.6,479.9,3.5,463.9,3.5z"/>
</svg>
