<?xml version="1.0" encoding="utf-8"?>
<!-- Generator: Adobe Illustrator 21.0.0, SVG Export Plug-In . SVG Version: 6.00 Build 0)  -->
<svg version="1.1" id="Layer_1" xmlns="http://www.w3.org/2000/svg" xmlns:xlink="http://www.w3.org/1999/xlink" x="0px" y="0px"
	 viewBox="0 0 500 500" style="enable-background:new 0 0 500 500;" xml:space="preserve">
<path d="M217.2,405.7l-61.1,61.1c-6.1,6.1-6.1,18.3,0,24.4c6.1,0,9.2,3.1,12.2,3.1h3.1c3.1,0,6.1-3.1,9.2-6.1l61.1-61.1
	c6.1-6.1,6.1-18.3,0-24.4c-3.1-3.1-6.1-6.1-12.2-6.1C226.3,399.6,220.2,402.7,217.2,405.7z"/>
<path d="M189.7,289.7l-51.9,51.9c-6.1,6.1-6.1,18.3,0,24.4s18.3,6.1,24.4,0l51.9-51.9c6.1-6.1,6.1-18.3,0-24.4
	c-6.1-3.1-9.2-6.1-15.3-6.1C195.8,283.6,192.7,286.6,189.7,289.7z"/>
<path d="M70.6,259.2L9.5,320.2c-6.1,6.1-6.1,18.3,0,24.4c6.1,6.1,18.3,6.1,24.4,0L95,283.6c6.1-6.1,6.1-18.3,0-24.4
	c-3.1-3.1-9.2-3.1-12.2-3.1S73.6,256.1,70.6,259.2z"/>
<path d="M473.6,5.7L101.1,155.3c-6.1,3.1-9.2,9.2-9.2,15.3c0,6.1,6.1,12.2,12.2,15.3l164.9,48.9L321,396.6
	c3.1,6.1,6.1,9.2,15.3,12.2l0,0c6.1,0,12.2-3.1,15.3-9.2L495,27.1V14.9c0-3.1-3.1-3.1-3.1-6.1c-3.1,0-9.2-3.1-12.2-3.1
	C479.7,5.7,476.7,5.7,473.6,5.7z"/>
</svg>
