<?xml version="1.0" encoding="utf-8"?>
<!-- Generator: Adobe Illustrator 21.0.0, SVG Export Plug-In . SVG Version: 6.00 Build 0)  -->
<svg version="1.1" id="Layer_1" xmlns="http://www.w3.org/2000/svg" xmlns:xlink="http://www.w3.org/1999/xlink" x="0px" y="0px"
	 viewBox="0 0 500 500" style="enable-background:new 0 0 500 500;" xml:space="preserve">
<g id="Symbols">
	<g id="ui_x2F_icons_x2F_regular_x2F_show">
		<path id="Show" d="M470,305.9c2.7-4.3,2.7-9.7,0-14c-45.5-73.6-129.5-119.3-220-119.3S75.5,218.3,30,291.4c-2.7,4.3-2.7,9.7,0,14
			C75.5,379,159.5,424.7,250,424.7S424.5,379,470,305.9z M250,397.8c-78,0-150.6-37.6-192.3-98.9C99.4,237.7,172,199.5,250,199.5
			s150.6,37.6,192.3,98.9C400.6,359.6,328,397.8,250,397.8z M256,134.6c0,7.9-5.3,14.1-12,14.1c-6.7,0-12-6.2-12-14.1V90.7
			c0-7.9,5.3-14.1,12-14.1c6.7,0,12,6.2,12,14.1V134.6z M171.4,160.7c-5.6,0-10.8-4.5-12.8-10.8l-10.2-43.2
			c-1.5-8,2.6-15.4,9.2-17.6c7.2-1.7,13.8,2.8,15.9,10.2l10.2,43.2c1.5,8-2.6,15.4-9.2,17.6C173.4,160.7,172.4,160.7,171.4,160.7z
			 M110.8,184.7c-4.9,0-9.2-2.6-11.9-6.1l-21.1-34.7c-3.8-6.1-1.6-13.8,4.9-17.4c6.5-3.6,14.6-1.5,18.4,4.6l21.1,34.7
			c3.8,6.1,1.6,13.8-4.9,17.4C115.7,184.1,113,184.7,110.8,184.7z M49.4,232.7c-3.4,0-6.9-1.7-9.7-4L8.3,197.1
			c-5.7-5.2-5.7-14.4,0-20.1c5.1-5.7,14.3-5.7,20,0l31.4,31.6c5.7,5.2,5.7,14.4,0,20.1C56.9,231.5,52.9,232.7,49.4,232.7z
			 M317.2,160.7c-1,0-2-0.6-3.5-0.6c-7.1-2.3-11.1-10.2-9.1-17.6l10.1-43.1c2-7.9,9.1-12.5,15.7-10.2c7.1,2.3,11.1,10.2,9.1,17.6
			l-10.1,43.1C327.8,156.7,322.8,160.7,317.2,160.7z M417.3,126.4c6.5,3.6,8.6,11.8,4.9,16.9L401.1,178c-2.7,4.6-7,6.6-11.9,6.6
			c-2.2,0-4.3-0.5-6.5-1.5c-6.5-3.6-8.6-11.2-4.9-17.4l21.1-34.7C402.7,124.9,410.8,122.8,417.3,126.4z M471.4,177
			c5.7-5.7,14.7-5.7,20.4,0c5.7,5.2,5.7,14.4,0,20.1l-31.1,31.6c-2.8,2.9-6.2,4-10.2,4c-4,0-7.4-1.1-10.2-4
			c-5.7-5.2-5.7-14.4,0-20.1L471.4,177z M250,232.7c-36.4,0-66,29.6-66,66s29.6,66,66,66s66-29.6,66-66S286.4,232.7,250,232.7z
			 M250,338.3c-21.6,0-39.6-18-39.6-39.6c0-21.6,18-39.6,39.6-39.6s39.6,18,39.6,39.6C289.6,320.3,271.6,338.3,250,338.3z"/>
	</g>
</g>
</svg>
