<?xml version="1.0" encoding="utf-8"?>
<!-- Generator: Adobe Illustrator 21.0.0, SVG Export Plug-In . SVG Version: 6.00 Build 0)  -->
<svg version="1.1" id="Layer_1" xmlns="http://www.w3.org/2000/svg" xmlns:xlink="http://www.w3.org/1999/xlink" x="0px" y="0px"
	 viewBox="0 0 500 500" style="enable-background:new 0 0 500 500;" xml:space="preserve">
<path d="M141.1,302.7c3.5,0,10.5,3.5,14.1,7c21.1,28.1,56.2,49.2,94.9,49.2s73.8-17.6,94.9-49.2c3.5-3.5,7-7,14.1-7
	s10.5,3.5,14.1,10.5c3.5,3.5,0,10.5,0,14.1c-28.1,35.1-70.3,59.7-119.5,59.7s-94.9-24.6-119.5-59.7c-3.5-3.5-3.5-10.5,0-14.1
	C130.5,306.2,137.5,302.7,141.1,302.7z M341.4,134c21.1,0,38.7,17.6,38.7,38.7s-17.6,38.7-38.7,38.7c-21.1,0-38.7-17.6-38.7-38.7
	S320.3,134,341.4,134z M158.6,134c21.1,0,38.7,17.6,38.7,38.7s-17.6,38.7-38.7,38.7S120,193.8,120,172.7S137.5,134,158.6,134z
	 M250,4C112.9,4,4,112.9,4,250s108.9,246,246,246s246-108.9,246-246S387.1,4,250,4z"/>
</svg>
