<?xml version="1.0" encoding="utf-8"?>
<!DOCTYPE svg PUBLIC "-//W3C//DTD SVG 1.1//EN" "http://www.w3.org/Graphics/SVG/1.1/DTD/svg11.dtd">
<svg version="1.1" id="Layer_1" xmlns="http://www.w3.org/2000/svg" xmlns:xlink="http://www.w3.org/1999/xlink" x="0px" y="0px" viewBox="0 0 61 60" enable-background="new 0 0 61 60" xml:space="preserve">
	<g transform="translate(-930.000000, -2562.000000)">
		<g transform="translate(930.000000, 2562.000000)">
			<path fill="#FFFFFF" d="M50.9,22.369c-0.241-0.719-0.882-1.242-1.652-1.351l-11.686-1.646L32.337,9.106
				C31.992,8.429,31.281,8,30.501,8c0,0,0,0,0,0c-0.779,0-1.491,0.429-1.836,1.106l-5.226,10.266l-11.687,1.646
				c-0.771,0.109-1.412,0.632-1.652,1.351c-0.241,0.718-0.04,1.507,0.518,2.034l8.456,7.992L17.078,43.68
				c-0.132,0.744,0.184,1.497,0.815,1.941c0.63,0.444,1.466,0.502,2.156,0.151l10.452-5.329l10.45,5.329
				c0.3,0.153,0.627,0.228,0.953,0.228c0.424,0,0.847-0.128,1.203-0.379c0.63-0.444,0.946-1.196,0.815-1.941l-1.996-11.285
				l8.456-7.992C50.94,23.876,51.14,23.088,50.9,22.369z M37.767,29.862c-0.481,0.457-0.7,1.116-0.587,1.762L38.652,40l-7.702-3.955
				c-0.594-0.305-1.304-0.305-1.898,0L21.348,40l1.471-8.376c0.113-0.646-0.106-1.305-0.586-1.762L16,23.931l8.614-1.222
				c0.664-0.094,1.238-0.502,1.535-1.089L30.001,14l3.85,7.619c0.297,0.588,0.871,0.995,1.535,1.089L44,23.931L37.767,29.862z"/>
			<path fill="#FFFFFF" d="M30.5,0c-5.089,0-10.133,1.264-14.586,3.657c-0.986,0.529-1.348,1.745-0.81,2.714
				c0.538,0.97,1.774,1.326,2.759,0.797C21.721,5.095,26.09,4,30.5,4c14.576,0,26.433,11.663,26.433,26S45.076,56,30.5,56
				S4.067,44.336,4.067,30c0-4.34,1.114-8.639,3.222-12.431c0.539-0.969,0.176-2.184-0.809-2.714
				c-0.985-0.529-2.221-0.174-2.759,0.796C1.286,20.029,0,24.991,0,30c0,16.542,13.682,30,30.5,30S61,46.542,61,30S47.318,0,30.5,0z
				"/>
		</g>
	</g>
</svg>
