<?xml version="1.0" encoding="utf-8"?>
<!-- Generator: Adobe Illustrator 21.0.0, SVG Export Plug-In . SVG Version: 6.00 Build 0)  -->
<svg version="1.1" id="Layer_1" xmlns="http://www.w3.org/2000/svg" xmlns:xlink="http://www.w3.org/1999/xlink" x="0px" y="0px"
	 viewBox="0 0 500 500" style="enable-background:new 0 0 500 500;" xml:space="preserve">
<g id="Symbols">
	<g id="ui_x2F_icons_x2F_menu-burger_x2F_start-action">
		<path id="start-action" d="M372.2,5.6c-25.2,2.2-50.1,7.5-73.6,16.5c-91.3,34.7-160.1,133.1-160.1,133.1l-50.1,3.3L3.4,321.6
			c0,0,50.4-7.2,78.8,14.3l-13,13l38.9,38.9l3.6,3.6l38.9,38.8l13-13c21.5,28.4,14.4,78.8,14.4,78.8l163-85.1l3.3-50.1
			c0,0,98.5-68.8,133.1-160.1c10-26.2,15.4-54.1,17.1-82.3c1.3-21.9,0.4-44.1-2.6-65.9c-0.8-5.6-1.7-11.2-2.8-16.8
			c-0.4-2.1-0.8-4.2-1.3-6.4c-1.2-5.7-1.3-12-7.3-15c-5-2.7-11.1-2.9-16.6-3.9c-7.9-1.5-15.8-2.7-23.8-3.6
			c-13.2-1.5-26.4-2.3-39.6-2.3C391.1,4.4,381.6,4.8,372.2,5.6z M305.7,193.7c-17.9-17.9-18.3-46.6-0.8-64.1
			c17.4-17.4,46.2-17.1,64.1,0.8c18,17.9,18.3,46.6,0.8,64.1c-8.6,8.6-19.9,12.8-31.3,12.8C326.7,207.4,314.8,202.8,305.7,193.7z
			 M116.7,305.6c-1.5-0.6-2.9-1.5-4-2.6c-3.2-3.2-4.4-8-2.8-12.4c38.7-101.5,104.6-142.2,107.4-143.9c5.3-3.3,12.5-1.4,15.9,4
			c3.4,5.5,1.8,12.5-3.6,15.8c-0.9,0.6-62.4,39.1-98.1,132.8c-1.7,4.5-5.9,7.2-10.5,7.2C119.6,306.4,118.2,306.2,116.7,305.6z"/>
	</g>
</g>
</svg>
