<?xml version="1.0" encoding="utf-8"?>
<!-- Generator: Adobe Illustrator 21.0.0, SVG Export Plug-In . SVG Version: 6.00 Build 0)  -->
<svg version="1.1" id="Layer_1" xmlns="http://www.w3.org/2000/svg" xmlns:xlink="http://www.w3.org/1999/xlink" x="0px" y="0px"
	 viewBox="0 0 500 500" style="enable-background:new 0 0 500 500;" xml:space="preserve">
<g id="Symbols">
	<g id="ui_x2F_icons_x2F_menu-burger_x2F_start-stream">
		<path id="start-stream" d="M249.9,294.6c-24.7,0-44.7-20-44.7-44.7s20-44.7,44.7-44.7s44.7,20,44.7,44.7S274.6,294.6,249.9,294.6z
			 M425.3,80.9c44.3,45.7,68.7,106,68.7,169.8c0,63.7-24.4,124-68.7,169.8c-3.8,4-9.1,6.2-14.6,6.3c-0.1,0-0.1,0-0.2,0
			c-5.5,0-10.7-2.2-14.6-6l-2.1-2.1c-8-8-8.1-20.9-0.3-29c36.3-37.5,56.2-86.8,56.2-139c0-52.2-20-101.5-56.2-139
			c-7.8-8.1-7.7-21,0.2-28.9l2.1-2.1c3.9-3.9,9.1-6.1,14.6-6.1c0,0,0.1,0,0.2,0C416.1,74.7,421.4,76.9,425.3,80.9z M50,250.7
			c0,52.2,20,101.5,56.3,139c7.8,8.1,7.7,21-0.2,28.9l-2.1,2.1c-3.9,3.9-9.1,6-14.6,6c-0.1,0-0.1,0-0.2,0c-5.5,0-10.8-2.3-14.7-6.3
			c-44.3-45.7-68.7-106-68.7-169.8c0-63.7,24.4-124,68.7-169.8c3.8-4,9.1-6.2,14.6-6.3c0.1,0,0.1,0,0.2,0c5.5,0,10.7,2.2,14.6,6
			l2.1,2.1c8,8,8.1,20.8,0.2,28.9C70,149.2,50,198.5,50,250.7z M357.2,160.1c23.7,24.4,36.7,56.6,36.7,90.6c0,34-13,66.2-36.7,90.6
			c-3.9,4-9.1,6.2-14.7,6.3c0,0-0.1,0-0.1,0c-5.5,0-10.8-2.2-14.6-6.1l-1-1c-7.9-8-8-20.8-0.2-28.9c15.9-16.4,24.6-38,24.6-60.9
			c0-22.8-8.7-44.5-24.6-60.9c-7.8-8.1-7.7-20.9,0.2-28.9l1-1c3.9-3.9,9.1-6.1,14.6-6.1c0,0,0.1,0,0.1,0
			C348.1,153.8,353.4,156.1,357.2,160.1z M173,160.9c8,8,8.1,20.8,0.2,28.9c-15.9,16.4-24.6,38-24.6,60.9c0,22.9,8.8,44.5,24.6,60.9
			c7.8,8.1,7.7,21-0.2,28.9l-1,1c-3.9,3.9-9.1,6-14.6,6c0,0-0.1,0-0.2,0c-5.5,0-10.8-2.3-14.7-6.3c-23.7-24.4-36.7-56.6-36.7-90.6
			s13-66.2,36.7-90.6c3.9-4,9.1-6.2,14.7-6.3c0.1,0,0.1,0,0.2,0c5.5,0,10.7,2.2,14.6,6L173,160.9z"/>
	</g>
</g>
</svg>
