<?xml version="1.0" encoding="utf-8"?>
<!-- Generator: Adobe Illustrator 21.0.0, SVG Export Plug-In . SVG Version: 6.00 Build 0)  -->
<svg version="1.1" id="Layer_1" xmlns="http://www.w3.org/2000/svg" xmlns:xlink="http://www.w3.org/1999/xlink" x="0px" y="0px"
	 viewBox="0 0 500 500" style="enable-background:new 0 0 500 500;" xml:space="preserve">
<path d="M383,180c10.5-7,14-17.5,14-28V64.5h28V5H75v59.5h24.5V152c0,10.5,7,21,14,28l84,56v31.5l-84,59.5c-10.5,7-14,17.5-14,28
	v80.5H75V495h350v-59.5h-28V355c0-10.5-7-21-14-28l-84-59.5V236L383,180z M281.5,295.5l84,63V439H341v-63l-77-59.5
	c-10.5-7-21-7-31.5,0l-80.5,56v63h-21V355l84-59.5c10.5-7,14-17.5,14-28v-28c0-14-3.5-24.5-14-31.5l-84-56V64.5h238v91L281.5,208
	c-7,7-14,17.5-14,28v31.5C267.5,278,274.5,288.5,281.5,295.5z"/>
</svg>
