<?xml version="1.0" encoding="utf-8"?>
<!DOCTYPE svg PUBLIC "-//W3C//DTD SVG 1.1//EN" "http://www.w3.org/Graphics/SVG/1.1/DTD/svg11.dtd">
<svg version="1.1" xmlns="http://www.w3.org/2000/svg" xmlns:xlink="http://www.w3.org/1999/xlink" x="0px" y="0px" viewBox="0 0 25 31" enable-background="new 0 0 25 31" xml:space="preserve">
	<g transform="translate(-643.000000, -1940.000000)">
		<g transform="translate(643.000000, 1940.000000)">
			<path fill="#FFFFFF" d="M11.883,25.751C9.384,25.751,7.036,25.114,5,24v5.53c0,0.296,0.154,0.572,0.41,0.732
				c0.256,0.161,0.578,0.184,0.856,0.063l5.617-2.455l5.617,2.455c0.118,0.051,0.243,0.077,0.368,0.077
				c0.17,0,0.34-0.047,0.488-0.14c0.256-0.161,0.41-0.436,0.41-0.732V24C16.73,25.114,14.382,25.751,11.883,25.751z"/>
			<path fill="#FFFFFF" d="M12.27,0C5.504,0,0,5.346,0,11.916c0,4.144,2.19,7.8,5.505,9.936
				c0.033,0.021,0.066,0.042,0.099,0.063c0.04,0.025,0.08,0.05,0.121,0.075c0.033,0.021,0.067,0.041,0.101,0.061
				c0.04,0.024,0.08,0.048,0.12,0.072c0.054,0.032,0.109,0.063,0.163,0.094c0.05,0.028,0.1,0.056,0.151,0.084
				c0.037,0.02,0.073,0.04,0.11,0.06c0.04,0.022,0.081,0.043,0.121,0.064c0.038,0.02,0.076,0.039,0.114,0.058
				c0.039,0.02,0.079,0.04,0.118,0.06c0.065,0.032,0.13,0.064,0.196,0.095c0.041,0.02,0.083,0.039,0.125,0.058
				c0.043,0.02,0.085,0.039,0.129,0.058c0.039,0.017,0.078,0.035,0.118,0.052c0.043,0.019,0.087,0.037,0.13,0.055
				c0.038,0.016,0.075,0.032,0.113,0.047c0.074,0.03,0.149,0.06,0.224,0.089c0.033,0.013,0.065,0.025,0.098,0.037
				c0.05,0.019,0.101,0.038,0.152,0.056c0.037,0.013,0.074,0.027,0.112,0.04c0.049,0.017,0.099,0.034,0.149,0.051
				c0.035,0.012,0.07,0.024,0.105,0.035c0.079,0.026,0.159,0.051,0.239,0.076c0.027,0.008,0.054,0.016,0.081,0.024
				c0.059,0.018,0.119,0.035,0.179,0.052c0.034,0.01,0.069,0.019,0.104,0.028c0.056,0.015,0.112,0.03,0.168,0.044
				c0.032,0.008,0.064,0.017,0.097,0.025c0.084,0.021,0.169,0.041,0.254,0.06c0.02,0.005,0.04,0.009,0.06,0.013
				c0.069,0.015,0.138,0.03,0.208,0.044c0.032,0.006,0.064,0.013,0.096,0.019c0.062,0.012,0.123,0.023,0.185,0.035
				c0.03,0.005,0.06,0.011,0.09,0.016c0.089,0.015,0.178,0.03,0.267,0.043c0.013,0.002,0.025,0.003,0.038,0.005
				c0.079,0.012,0.158,0.022,0.237,0.032c0.03,0.004,0.06,0.007,0.09,0.011c0.066,0.008,0.132,0.015,0.199,0.022
				c0.029,0.003,0.057,0.006,0.086,0.009c0.092,0.009,0.184,0.017,0.277,0.024c0.006,0,0.012,0.001,0.018,0.001
				c0.088,0.006,0.176,0.012,0.264,0.016c0.029,0.002,0.057,0.003,0.086,0.004c0.069,0.003,0.138,0.006,0.208,0.008
				c0.028,0.001,0.057,0.002,0.085,0.002c0.095,0.002,0.19,0.004,0.285,0.004s0.19-0.001,0.285-0.004
				c0.028-0.001,0.057-0.002,0.085-0.002c0.069-0.002,0.139-0.005,0.208-0.008c0.029-0.001,0.057-0.002,0.086-0.004
				c0.088-0.005,0.176-0.01,0.264-0.016c0.006,0,0.012-0.001,0.018-0.001c0.093-0.007,0.185-0.015,0.277-0.024
				c0.029-0.003,0.057-0.006,0.086-0.009c0.066-0.007,0.133-0.014,0.199-0.022c0.03-0.004,0.06-0.007,0.09-0.011
				c0.079-0.01,0.158-0.021,0.237-0.032c0.013-0.002,0.025-0.003,0.038-0.005c0.089-0.013,0.178-0.028,0.267-0.043
				c0.03-0.005,0.06-0.011,0.09-0.016c0.062-0.011,0.124-0.023,0.185-0.035c0.032-0.006,0.064-0.012,0.096-0.019
				c0.07-0.014,0.139-0.029,0.208-0.044c0.02-0.004,0.04-0.009,0.06-0.013c0.085-0.019,0.169-0.039,0.254-0.06
				c0.032-0.008,0.064-0.016,0.097-0.025c0.056-0.014,0.112-0.029,0.168-0.044c0.035-0.009,0.069-0.019,0.104-0.028
				c0.06-0.017,0.119-0.034,0.179-0.052c0.027-0.008,0.054-0.016,0.081-0.024c0.08-0.024,0.16-0.05,0.239-0.076
				c0.035-0.011,0.07-0.023,0.105-0.035c0.05-0.017,0.099-0.034,0.149-0.051c0.037-0.013,0.075-0.026,0.112-0.04
				c0.051-0.018,0.101-0.037,0.152-0.056c0.033-0.012,0.066-0.024,0.098-0.037c0.075-0.029,0.15-0.059,0.224-0.089
				c0.038-0.015,0.075-0.031,0.113-0.047c0.044-0.018,0.087-0.037,0.13-0.055c0.039-0.017,0.079-0.034,0.118-0.052
				c0.043-0.019,0.086-0.039,0.129-0.058c0.042-0.019,0.083-0.038,0.125-0.058c0.066-0.031,0.131-0.063,0.196-0.095
				c0.04-0.02,0.079-0.04,0.118-0.06c0.038-0.019,0.076-0.039,0.114-0.058c0.041-0.021,0.081-0.042,0.121-0.064
				c0.037-0.02,0.073-0.04,0.11-0.06c0.051-0.028,0.101-0.055,0.151-0.084c0.055-0.031,0.109-0.062,0.163-0.094
				c0.04-0.024,0.08-0.048,0.12-0.072c0.034-0.02,0.067-0.041,0.101-0.061c0.04-0.025,0.08-0.05,0.121-0.075
				c0.033-0.021,0.066-0.042,0.099-0.063c3.315-2.136,5.505-5.792,5.505-9.936C24.54,5.346,19.036,0,12.27,0z M8.08,10.172H7.183
				v4.36c0,0.482-0.402,0.872-0.898,0.872s-0.898-0.39-0.898-0.872v-4.36H4.489c-0.496,0-0.898-0.39-0.898-0.872
				s0.402-0.872,0.898-0.872H8.08c0.496,0,0.898,0.39,0.898,0.872S8.576,10.172,8.08,10.172z M14.964,13.369
				c0,1.122-0.94,2.034-2.095,2.034h-1.197c-1.155,0-2.095-0.913-2.095-2.034v-2.906c0-1.122,0.94-2.034,2.095-2.034h1.197
				c1.155,0,2.095,0.913,2.095,2.034V13.369z M20.949,10.754c0,1.122-0.94,2.034-2.095,2.034h-1.496v1.744
				c0,0.482-0.402,0.872-0.898,0.872c-0.496,0-0.898-0.39-0.898-0.872v-4.069c0-1.122,0.94-2.034,2.095-2.034h1.197
				c1.155,0,2.095,0.913,2.095,2.034V10.754z"/>
			<path fill="#FFFFFF" d="M18.496,10h-1.197C17.134,10,17,10.13,17,10.291v0.581h1.496
				c0.165,0,0.299-0.13,0.299-0.291v-0.291C18.796,10.13,18.661,10,18.496,10z"/>
			<path fill="#FFFFFF" d="M12.496,10h-1.197C11.134,10,11,10.13,11,10.291v2.906c0,0.16,0.134,0.291,0.299,0.291
				h1.197c0.165,0,0.299-0.13,0.299-0.291v-2.906C12.796,10.13,12.661,10,12.496,10z"/>
		</g>
	</g>
</svg>
