<?xml version="1.0" encoding="utf-8"?>
<!-- Generator: Adobe Illustrator 21.0.0, SVG Export Plug-In . SVG Version: 6.00 Build 0)  -->
<svg version="1.1" id="Layer_1" xmlns="http://www.w3.org/2000/svg" xmlns:xlink="http://www.w3.org/1999/xlink" x="0px" y="0px"
	 viewBox="0 0 500 500" style="enable-background:new 0 0 500 500;" xml:space="preserve">
<path d="M250,175.9c-43.2,0-77.2,34-77.2,74.1s34,74.1,77.2,74.1s77.2-34,77.2-74.1S293.2,175.9,250,175.9z M497,253.1
	c-3.1,6.2-105,135.8-250.1,135.8c-83.4,0-166.7-46.3-243.9-135.8c0,0,0-3.1,0-6.2c3.1-6.2,105-135.9,250.1-135.9
	c83.4,0,166.7,46.3,240.8,135.9C497,246.9,497,253.1,497,253.1z"/>
</svg>
