<?xml version="1.0" encoding="utf-8"?>
<!-- Generator: Adobe Illustrator 21.0.0, SVG Export Plug-In . SVG Version: 6.00 Build 0)  -->
<svg version="1.1" id="Layer_1" xmlns="http://www.w3.org/2000/svg" xmlns:xlink="http://www.w3.org/1999/xlink" x="0px" y="0px"
	 viewBox="0 0 500 500" style="enable-background:new 0 0 500 500;" xml:space="preserve">
<path id="Shape" d="M434.5,99.6H331.9l43.9-43.5c12-11.9,12-31.2,0-43.1c-12-11.9-31.5-11.9-43.5,0L250,94.5l-82.3-81.6
	c-12-11.9-31.5-11.9-43.5,0s-12,31.2,0,43.1l43.9,43.5H65.5c-34,0-61.5,27.3-61.5,61V435c0,33.7,27.5,61,61.5,61h369
	c34,0,61.5-27.3,61.5-61V160.6C496,126.9,468.5,99.6,434.5,99.6z M231.1,234.5c-7.4,8.2-11.8,19-11.8,30.9
	c0,25.5,20.7,46.1,46.1,46.1s46.1-20.7,46.1-46.1c0-5.3-0.9-10.4-2.6-15.2c15.7,9.9,31.1,24,45.8,42.2c0.9,0.9,0.9,2.3,0,3.5
	c-1.7,2.3-44.8,59.9-106.2,59.6c-36.1,0-71-20-103.3-59.6c-0.9-0.9-0.9-2.3,0-3.5C146.8,290,180.7,244.9,231.1,234.5z M434.5,435
	h-369V160.6h369V435z"/>
</svg>
