<?xml version="1.0" encoding="utf-8"?>
<!-- Generator: Adobe Illustrator 21.0.0, SVG Export Plug-In . SVG Version: 6.00 Build 0)  -->
<svg version="1.1" id="Layer_1" xmlns="http://www.w3.org/2000/svg" xmlns:xlink="http://www.w3.org/1999/xlink" x="0px" y="0px"
	 viewBox="0 0 77 120" style="enable-background:new 0 0 77 120;" xml:space="preserve">
<style type="text/css">
	.st0{fill-opacity:0;}
	.st1{filter:url(#filter-2);}
	.st2{fill:#4A90E2;}
	.st3{opacity:0.6952;fill:url(#Rectangle-5_1_);enable-background:new    ;}
	.st4{fill:#FFFFFF;}
</style>
<filter  filterUnits="objectBoundingBox" height="1543.7%" id="filter-2" width="218.3%" x="-59.2%" y="-538.8%">
	<feOffset  dx="0" dy="7" in="SourceAlpha" result="shadowOffsetOuter1"></feOffset>
	<feGaussianBlur  in="shadowOffsetOuter1" result="shadowBlurOuter1" stdDeviation="8"></feGaussianBlur>
	
		<feColorMatrix  in="shadowBlurOuter1" result="shadowMatrixOuter1" type="matrix" values="0 0 0 0 0.149936869   0 0 0 0 0.542399811   0 0 0 0 1  0 0 0 1 0">
		</feColorMatrix>
	<feOffset  dx="0" dy="2" in="SourceAlpha" result="shadowOffsetOuter2"></feOffset>
	<feGaussianBlur  in="shadowOffsetOuter2" result="shadowBlurOuter2" stdDeviation="4"></feGaussianBlur>
	
		<feColorMatrix  in="shadowBlurOuter2" result="shadowMatrixOuter2" type="matrix" values="0 0 0 0 0.288655698   0 0 0 0 0.56455189   0 0 0 0 0.886238694  0 0 0 1 0">
		</feColorMatrix>
	<feMerge>
		<feMergeNode  in="shadowMatrixOuter1"></feMergeNode>
		<feMergeNode  in="shadowMatrixOuter2"></feMergeNode>
	</feMerge>
</filter>
<title>Group 19</title>
<desc>Created with Sketch.</desc>
<g id="Page-2">
	<g id="ui" transform="translate(-770.000000, -2047.000000)">
		<g id="Group-19" transform="translate(777.000000, 2023.000000)">
			<rect id="Rectangle-2-Copy-5" x="-7" y="24" class="st0" width="76" height="120"/>
			<g id="Group" transform="translate(0.000000, 21.000000)">
				<g id="duplicate_3_original_Rectangle-2_25635729">
					<g class="st1">
						<path id="path-1_2_" d="M3.5,87h55.1c1.4,0,2.5,1.1,2.5,2.5l0,0c0,1.4-1.1,2.5-2.5,2.5H3.5c-1.4,0-2.5-1.1-2.5-2.5l0,0
							C1,88.1,2.1,87,3.5,87z"/>
					</g>
					<g>
						<path id="path-1_1_" class="st2" d="M3.5,87h55.1c1.4,0,2.5,1.1,2.5,2.5l0,0c0,1.4-1.1,2.5-2.5,2.5H3.5
							c-1.4,0-2.5-1.1-2.5-2.5l0,0C1,88.1,2.1,87,3.5,87z"/>
					</g>
				</g>
				
					<radialGradient id="Rectangle-5_1_" cx="-214.3462" cy="325.9062" r="0.8611" gradientTransform="matrix(3.980103e-15 65 42.3974 -2.596089e-15 -13786.0645 14015.3506)" gradientUnits="userSpaceOnUse">
					<stop  offset="0" style="stop-color:#4A90E2"/>
					<stop  offset="1" style="stop-color:#2D7DDC;stop-opacity:0"/>
				</radialGradient>
				<rect id="Rectangle-5" x="-7" y="24" class="st3" width="77" height="65"/>
				<path id="Shape-Copy" class="st4" d="M43,51c0,5.6-3.8,10.3-9,11.6V73h6c0.6,0,1,0.4,1,1c0,0.6-0.4,1-1,1H22c-0.6,0-1-0.4-1-1
					c0-0.6,0.4-1,1-1h6V62.6c-5.2-1.3-9-6-9-11.6c-3.9,0-7-3.1-7-7v-2c0-0.6,0.4-1,1-1h6v-1c0-1.7-1.3-3-3-3c-0.6,0-1-0.4-1-1
					s0.4-1,1-1h30c0.6,0,1,0.4,1,1s-0.4,1-1,1c-1.7,0-3,1.3-3,3v1h6c0.6,0,1,0.4,1,1v2C50,47.9,46.9,51,43,51z M30,73h2V62.9
					c-0.3,0-0.7,0.1-1,0.1s-0.7,0-1-0.1V73z M14,43v1c0,2.8,2.2,5,5,5v-6H14z M20,37c0.6,0.8,1,1.9,1,3v11c0,5.5,4.5,10,10,10
					c5.5,0,10-4.5,10-10V40c0-1.1,0.4-2.2,1-3H20z M48,43h-5v6c2.8,0,5-2.2,5-5V43z M19,77h24c0.6,0,1,0.4,1,1c0,0.6-0.4,1-1,1H19
					c-0.6,0-1-0.4-1-1C18,77.4,18.4,77,19,77z"/>
				<polygon id="Path" class="st4" points="36,42.5 29.7,48.8 26.7,45.8 25.3,47.1 29.6,51.4 29.6,51.4 37.3,43.8 				"/>
			</g>
		</g>
	</g>
</g>
</svg>
