<?xml version="1.0" encoding="UTF-8" standalone="no"?><!DOCTYPE svg PUBLIC "-//W3C//DTD SVG 1.1//EN" "http://www.w3.org/Graphics/SVG/1.1/DTD/svg11.dtd"><svg width="100%" height="100%" viewBox="0 0 76 120" version="1.1" xmlns="http://www.w3.org/2000/svg" xmlns:xlink="http://www.w3.org/1999/xlink" xml:space="preserve" xmlns:serif="http://www.serif.com/" style="fill-rule:evenodd;clip-rule:evenodd;stroke-linejoin:round;stroke-miterlimit:1.41421;"><g id="Group-22"><rect id="Rectangle-2-Copy" x="0" y="0" width="76" height="120" style="fill-opacity:0;"/><g id="Group-13-Copy-2"><path id="duplicate_3_original_Rectangle-2_25635729_1_" d="M10.5,83l55.1,0c1.4,0 2.5,1.1 2.5,2.5c0,1.4 -1.1,2.5 -2.5,2.5l-55.1,0c-1.4,0 -2.5,-1.1 -2.5,-2.5c0,-1.4 1.1,-2.5 2.5,-2.5Z" style="fill:#4a90e2;fill-rule:nonzero;"/><path id="Shape_1_" d="M36.4,7c0.9,2.8 0.4,4.4 -0.6,5.7c-1,1.4 -2.7,2.4 -3.9,4.4c-1.5,2.7 -1.8,8.6 3.8,10.1c-2.3,-1.5 -2.8,-5.9 -0.3,-8.7c-0.7,2.7 0.6,4.4 2.1,3.8c1.5,-0.6 2.5,0.7 2.4,2.2c0,1 -0.3,1.9 -1.2,2.4c3.6,-0.8 5.1,-4.5 5.1,-7.3c0,-3.7 -2.7,-4.2 -1.3,-7.4c-1.6,0.2 -2.2,1.5 -2,3.6c0.1,1.4 -1.1,2.4 -2,1.7c-0.7,-0.5 -0.7,-1.6 -0.1,-2.3c1.3,-1.6 1.9,-5.4 -2,-8.2Z" style="fill:#c71026;fill-rule:nonzero;"/><path id="Shape-Copy_1_" d="M50,47c0,5.6 -3.8,10.3 -9,11.6l0,10.4l6,0c0.6,0 1,0.4 1,1c0,0.6 -0.4,1 -1,1l-18,0c-0.6,0 -1,-0.4 -1,-1c0,-0.6 0.4,-1 1,-1l6,0l0,-10.4c-5.2,-1.3 -9,-6 -9,-11.6c-3.9,0 -7,-3.1 -7,-7l0,-2c0,-0.6 0.4,-1 1,-1l6,0l0,-1c0,-1.7 -1.3,-3 -3,-3c-0.6,0 -1,-0.4 -1,-1c0,-0.6 0.4,-1 1,-1l30,0c0.6,0 1,0.4 1,1c0,0.6 -0.4,1 -1,1c-1.7,0 -3,1.3 -3,3l0,1l6,0c0.6,0 1,0.4 1,1l0,2c0,3.9 -3.1,7 -7,7Zm-13,22l2,0l0,-10.1c-0.3,0 -0.7,0.1 -1,0.1c-0.3,0 -0.7,0 -1,-0.1l0,10.1Zm-16,-30l0,1c0,2.8 2.2,5 5,5l0,-6l-5,0Zm6,-6c0.6,0.8 1,1.9 1,3l0,11c0,5.5 4.5,10 10,10c5.5,0 10,-4.5 10,-10l0,-11c0,-1.1 0.4,-2.2 1,-3l-22,0Zm28,6l-5,0l0,6c2.8,0 5,-2.2 5,-5l0,-1Zm-29,34l24,0c0.6,0 1,0.4 1,1c0,0.6 -0.4,1 -1,1l-24,0c-0.6,0 -1,-0.4 -1,-1c0,-0.6 0.4,-1 1,-1Zm18.2,-29.9c0.2,0.1 0.3,0.4 0.3,0.6c0,0.2 -0.1,0.5 -0.3,0.6l-8,6.1c-0.1,0.1 -0.3,0.2 -0.5,0.2c-0.1,0 -0.2,0 -0.3,-0.1c-0.3,-0.1 -0.4,-0.4 -0.4,-0.7l0,-7.3c0,-0.4 0.3,-0.8 0.8,-0.8c0.5,0 0.8,0.3 0.8,0.8l0,5.8l6,-4.6l-7.2,-5.3c-0.3,-0.2 -0.4,-0.7 -0.2,-1c0.2,-0.3 0.7,-0.4 1,-0.2l8,5.9Z" style="fill:#258fe5;fill-rule:nonzero;"/></g></g></svg>