<?xml version="1.0" encoding="utf-8"?>
<!-- Generator: Adobe Illustrator 21.0.0, SVG Export Plug-In . SVG Version: 6.00 Build 0)  -->
<svg version="1.1" id="Layer_1" xmlns="http://www.w3.org/2000/svg" xmlns:xlink="http://www.w3.org/1999/xlink" x="0px" y="0px"
	 viewBox="0 0 224 167.5" style="enable-background:new 0 0 224 167.5;" xml:space="preserve">
<style type="text/css">
	.st0{opacity:0;}
	.st1{fill:url(#Rectangle-5_1_);}
	.st2{opacity:0.5423;}
	.st3{fill:#258FE5;fill-opacity:0;}
	.st4{fill:#F9A74E;}
	.st5{opacity:0.2;fill:#382673;enable-background:new    ;}
	.st6{fill:#FFDE39;}
	.st7{fill:#FEC632;}
	.st8{fill:none;stroke:#F9A74E;stroke-width:4;stroke-linecap:round;stroke-linejoin:round;}
	.st9{fill:none;stroke:#FEC632;stroke-width:4;stroke-linecap:round;stroke-linejoin:round;}
	
		.st10{opacity:0.3;fill:none;stroke:#FFFFFF;stroke-width:2;stroke-linecap:round;stroke-linejoin:round;enable-background:new    ;}
	.st11{fill:#B0999A;}
	.st12{fill:#BD0F12;}
</style>
<title>Group 4</title>
<desc>Created with Sketch.</desc>
<g id="Page-2">
	<g id="ui" transform="translate(-672.000000, -1674.000000)">
		<g id="Group-4" transform="translate(625.000000, 1674.000000)">
			<g id="Group-36-Copy-2" transform="translate(0.000000, 35.000000)" class="st0">
				
					<radialGradient id="Rectangle-5_1_" cx="-88.1204" cy="277.6233" r="0.578" gradientTransform="matrix(8.143902e-15 133 170.3247 -1.042938e-14 -47133.0234 11852.5537)" gradientUnits="userSpaceOnUse">
					<stop  offset="0" style="stop-color:#4A90E2;stop-opacity:0.5417"/>
					<stop  offset="1" style="stop-color:#2D7DDC;stop-opacity:0"/>
				</radialGradient>
				<rect id="Rectangle-5" x="47" y="-0.5" class="st1" width="224" height="133"/>
			</g>
			<g id="Cup-Copy" transform="translate(49.000000, 0.000000)" class="st2">
				<g id="Layer_1_1_">
					<path id="Shape" class="st3" d="M147,161.6H71v-34.3c0-2.1,1.7-3.8,3.8-3.8h68.4c2.1,0,3.8,1.7,3.8,3.8V161.6z"/>
					<rect id="Rectangle-path" x="100.1" y="82.8" class="st4" width="20" height="31.4"/>
					<rect id="Rectangle-path_1_" x="114.2" y="82.8" class="st5" width="5.7" height="31.4"/>
					<path id="Shape_1_" class="st6" d="M127.2,112.3H92.8c-6.3,0-11.4,5.1-11.4,11.4h57.2C138.6,117.5,133.5,112.3,127.2,112.3z"/>
					<path id="Shape_2_" class="st7" d="M127.2,112.3h-9.5c6.3,0,11.4,5.1,11.4,11.4h9.5C138.6,117.5,133.5,112.3,127.2,112.3z"/>
					<path id="Shape_3_" class="st6" d="M119.7,99h-19.5c-5.2,0-9.3-4.2-9.3-9.3v-2.1h38.2v2.1C129.1,94.8,124.9,99,119.7,99z"/>
					<path id="Shape_4_" class="st7" d="M121.4,87.6v2.1c0,5.1-2.3,9.3-7.4,9.3h5.7c5.2,0,9.3-4.2,9.3-9.3v-2.1H121.4z"/>
					<path id="Shape_5_" class="st4" d="M142.4,123.7H77.6c0-2.1,1.7-3.8,3.8-3.8h57.2C140.7,119.9,142.4,121.6,142.4,123.7z"/>
					<path id="Shape_6_" class="st5" d="M138.6,119.9h-9.5c2.1,0,3.8,1.7,3.8,3.8h9.5C142.4,121.6,140.7,119.9,138.6,119.9z"/>
					<path id="Shape_7_" class="st4" d="M132.9,83.8H87.1v5.7c0,2.1,1.7,3.8,3.8,3.8h38.2c2.1,0,3.8-1.7,3.8-3.8V83.8z"/>
					<path id="Shape_8_" class="st4" d="M132.9,83.8H87.1v5.7c0,2.1,1.7,3.8,3.8,3.8h38.2c2.1,0,3.8-1.7,3.8-3.8V83.8z"/>
					<path id="Shape_9_" class="st5" d="M123.4,83.8l-3.8,5.7c1.9,0,2.1,3.8,0,3.8h9.5c2.1,0,3.8-1.7,3.8-3.8v-5.7H123.4z"/>
					<path id="Shape_10_" class="st8" d="M136.7,22.8H173v1.9c0,20-16.2,36.2-36.2,36.2"/>
					<path id="Shape_11_" class="st9" d="M83.3,22.8H47v1.9c0,20,16.2,36.2,36.2,36.2"/>
					<path id="Shape_12_" class="st6" d="M126.2,89.5H93.8c-12.2,0-21.9-9.7-21.9-21.9v-60h76.3v60
						C148.2,79.8,138.4,89.5,126.2,89.5z"/>
					<path id="Shape_13_" class="st10" d="M83.3,13.3c0,0,0,32.4,0,38.1"/>
					<path id="Shape_14_" class="st7" d="M138.6,7.6v60c0,12.2-9.7,21.9-21.9,21.9h9.5c12.2,0,21.9-9.7,21.9-21.9v-60H138.6z"/>
					<polygon id="Shape_15_" class="st4" points="153.9,7.6 66.1,7.6 71.8,13.3 148.2,13.3 					"/>
					<polygon id="Shape_16_" class="st5" points="142.4,7.6 138.6,13.3 148.2,13.3 153.9,7.6 					"/>
					<path id="Shape_17_" class="st6" d="M155.8,0H64.2c-2.1,0-3.8,1.7-3.8,3.8s1.7,3.8,3.8,3.8h91.6c2.1,0,3.8-1.7,3.8-3.8
						S157.9,0,155.8,0z"/>
					<path id="Shape_18_" class="st7" d="M155.8,0h-11.4c2.1,0,3.8,1.7,3.8,3.8s-1.7,3.8-3.8,3.8h11.4c2.1,0,3.8-1.7,3.8-3.8
						S157.9,0,155.8,0z"/>
					<path id="Shape_19_" class="st10" d="M83.3,59.8v4.4"/>
					<path id="Shape_20_" class="st7" d="M110,56.2l8.2,4.4c1.1,0.6,2.7-0.4,2.5-1.7l-1.7-9.3l6.7-6.5c1-1,0.4-2.7-1-2.9l-9.2-1.3
						l-4.2-8.4c-0.6-1.1-2.3-1.1-2.9,0l-4.2,8.4l-9.2,1.3c-1.3,0.2-1.9,1.9-1,2.9l6.7,6.5l-1.5,9.1c-0.2,1.3,1.1,2.3,2.5,1.7
						L110,56.2z"/>
					<g>
						<path class="st11" d="M109,27c0.7,0,1.7,0,2.7,0c1.7,0,3.3,0.1,5,0.3c0.8,0.1,1.6,0.1,2.4,0.3c1.8,0.4,3.5,0.8,5.1,1.7
							c1.8,1,2.8,2.6,3.3,4.5c0.4,1.7,0.7,3.4,0.8,5.2c0.1,1.3,0.1,2.7,0.2,4c0.1,1.7,0,3.4,0,5.1c0,1.3-0.1,2.7-0.1,4
							c0,0.5,0,1.1-0.1,1.6c-0.2,0.7-0.4,1.4-0.8,2c-0.8,1.4-1.8,2.6-2.9,3.7c-1.7,1.8-3.6,3.4-5.6,4.9c-1.7,1.3-3.5,2.4-5.3,3.5
							c-1,0.6-2.1,1.1-3.2,1.5c-0.4,0.2-0.8,0.3-1.2,0.4c-0.8,0.1-1.6-0.1-2.4-0.4c-0.4-0.2-0.8-0.4-1.2-0.6
							c-0.9-0.4-1.7-0.8-2.6-1.3c-0.9-0.5-1.8-1.1-2.7-1.7c-1.8-1.2-3.5-2.5-5.1-3.9c-0.9-0.8-1.6-1.6-2.5-2.4c-1.1-1-2-2.2-2.7-3.5
							c-0.5-0.9-0.9-2-0.9-3.1c0-1.2-0.1-2.3-0.1-3.5C89,47.6,89,45.8,89,44c0-1.4,0.1-2.7,0.2-4.1c0.1-2.1,0.4-4.1,0.8-6.1
							c0.2-0.9,0.4-1.7,1-2.4c0.7-0.9,1.5-1.7,2.5-2.2c1-0.5,2.1-0.9,3.3-1.2c1.5-0.3,3-0.6,4.6-0.7C103.8,27.1,106.2,27,109,27z
							 M108.7,27.4c-0.5,0-0.9,0-1.4,0c-2.8,0-5.6,0.1-8.3,0.5c-1.9,0.3-3.7,0.7-5.3,1.6c-1.3,0.7-2.3,1.7-3,3.1
							c-0.3,0.7-0.5,1.4-0.6,2.2c-0.5,2.5-0.7,5-0.7,7.5c-0.1,3.6,0,7.3,0.1,10.9c0,0.8,0.3,1.6,0.6,2.4c0.8,1.5,1.8,2.8,3,4
							c3.1,3.1,6.6,5.7,10.4,7.8c1.2,0.7,2.5,1.4,3.9,1.9c0.8,0.3,1.6,0.4,2.4,0.1c0.7-0.2,1.3-0.5,1.9-0.8c3.2-1.6,6.2-3.6,8.9-5.9
							c2-1.6,3.9-3.4,5.4-5.4c1.1-1.5,1.8-3.2,1.8-5.1c0-1.6,0.1-3.1,0.1-4.7c0.1-3.6,0.1-7.2-0.4-10.8c-0.2-1.1-0.4-2.2-0.7-3.2
							c-0.6-2.2-2.2-3.5-4.2-4.3c-2.2-0.9-4.5-1.2-6.9-1.4C113.4,27.4,111.1,27.4,108.7,27.4z"/>
						<path class="st12" d="M108.7,27.4c2.3,0,4.7,0,7,0.2c2.3,0.2,4.7,0.5,6.9,1.4c2,0.8,3.6,2.1,4.2,4.3c0.3,1.1,0.5,2.1,0.7,3.2
							c0.5,3.6,0.5,7.2,0.4,10.8c-0.1,1.6-0.2,3.1-0.1,4.7c0.1,2-0.6,3.6-1.8,5.1c-1.6,2.1-3.4,3.8-5.4,5.4
							c-2.8,2.2-5.7,4.2-8.9,5.9c-0.6,0.3-1.3,0.6-1.9,0.8c-0.8,0.3-1.6,0.2-2.4-0.1c-1.3-0.5-2.6-1.2-3.9-1.9
							c-3.8-2.1-7.3-4.7-10.4-7.8c-1.2-1.2-2.3-2.5-3-4c-0.4-0.8-0.6-1.6-0.6-2.4c-0.2-3.6-0.2-7.3-0.1-10.9c0.1-2.5,0.2-5,0.7-7.5
							c0.1-0.7,0.3-1.5,0.6-2.2c0.6-1.4,1.6-2.3,3-3.1c1.7-0.9,3.5-1.3,5.3-1.6c2.8-0.4,5.5-0.5,8.3-0.5
							C107.8,27.4,108.3,27.4,108.7,27.4z M93.2,40.5c0,0.2,0,0.3,0,0.5c0,0.3,0.1,0.4,0.4,0.3c3.1-0.6,6.3-1.1,9.4-1.6
							c0.2,0,0.3-0.1,0.3-0.3c1.4-2.6,2.8-5.1,4.2-7.7c0.2-0.4,0.2-0.4-0.2-0.4c-1.9,0-3.7,0-5.6,0.3c-1.8,0.3-3.5,0.7-5.1,1.6
							c-1.3,0.8-2.4,1.8-2.8,3.3C93.3,37.8,93.3,39.1,93.2,40.5z M93.2,43.3C93.2,43.3,93.1,43.3,93.2,43.3
							c-0.1,0.4-0.1,0.7-0.1,1.1c0.1,2.2,0.2,4.4,0.2,6.6c0,0.9,0.3,1.7,0.7,2.4c0.8,1.4,1.9,2.7,3.1,3.8c0.4,0.4,0.8,0.8,1.2,1.1
							c0.2,0.2,0.4,0.3,0.4-0.1c0,0,0-0.1,0-0.1c0.4-2.5,0.7-5,1.1-7.4c0-0.3,0-0.5-0.2-0.7c-1.8-1.9-3.6-3.8-5.4-5.7
							C93.8,43.9,93.5,43.6,93.2,43.3z M100.7,60.3c0.1,0.2,0.3,0.3,0.4,0.5c0.9,0.7,1.8,1.3,2.7,1.9c0.9,0.6,1.8,1.1,2.8,1.5
							c1.3,0.6,2.5,0.7,3.8,0.1c2.1-1,4-2.2,5.8-3.7c0.4-0.3,0.4-0.3-0.1-0.5c-2.4-1.2-4.8-2.3-7.2-3.5c-0.2-0.1-0.4-0.1-0.6,0
							c-1.2,0.6-2.3,1.1-3.5,1.7c-0.7,0.3-1.4,0.6-2,0.9C102.2,59.6,101.4,60,100.7,60.3z M111.4,31.2c-0.4,0-0.6,0-0.9,0
							c-0.6,0-0.7,0-0.4,0.6c1.3,2.5,2.6,4.9,3.9,7.4c0.2,0.3,0.3,0.4,0.7,0.5c2,0.3,4,0.7,6,1c1,0.2,2,0.4,3,0.5
							c0.5,0.1,0.5,0.1,0.5-0.5c-0.1-1.3-0.2-2.6-0.5-3.9c-0.4-1.4-1.1-2.5-2.3-3.3c-1-0.7-2.1-1.2-3.3-1.5
							C115.9,31.4,113.6,31.3,111.4,31.2z M124.2,43.4c0,0-0.1-0.1-0.1-0.1c-0.1,0.2-0.3,0.4-0.4,0.6c-1.9,1.9-3.8,3.9-5.7,5.8
							c-0.2,0.3-0.3,0.5-0.3,0.8c0.2,1.2,0.3,2.4,0.5,3.5c0.2,1.4,0.4,2.7,0.6,4.1c0,0.3,0.1,0.3,0.3,0.1c1.4-1.3,2.8-2.8,3.8-4.4
							c0.6-1,1-2,1-3.1c0-1.6,0.2-3.2,0.2-4.8C124.3,45,124.2,44.2,124.2,43.4z"/>
						<path class="st11" d="M93.2,40.5c0.1-1.3,0.2-2.7,0.6-4c0.5-1.5,1.5-2.5,2.8-3.3c1.6-0.9,3.3-1.3,5.1-1.6
							c1.8-0.3,3.7-0.3,5.6-0.3c0.4,0,0.4,0,0.2,0.4c-1.4,2.6-2.8,5.1-4.2,7.7c-0.1,0.1-0.2,0.3-0.3,0.3c-3.1,0.5-6.3,1.1-9.4,1.6
							c-0.3,0.1-0.4,0-0.4-0.3C93.2,40.8,93.2,40.7,93.2,40.5z M106.2,31.5c-0.4,0-0.7,0-1,0c-1.2,0-2.4,0.1-3.7,0.3
							c-2.1,0.3-4,0.9-5.7,2.2c-1,0.8-1.6,1.8-1.9,3c-0.2,1-0.3,2-0.4,3c-0.1,0.6,0.1,0.8,0.7,0.7c1.2-0.2,2.5-0.4,3.7-0.6
							c1.5-0.3,3-0.5,4.5-0.8c0.4-0.1,0.6-0.3,0.8-0.6c0.5-0.8,0.9-1.6,1.3-2.3c0.7-1.3,1.5-2.7,2.2-4c0.1-0.2,0.5-0.4,0.3-0.7
							C106.7,31.4,106.4,31.6,106.2,31.5z"/>
						<path class="st11" d="M93.2,43.3c0.3,0.3,0.6,0.6,0.9,0.9c1.8,1.9,3.6,3.8,5.4,5.7c0.2,0.2,0.3,0.4,0.2,0.7
							c-0.4,2.5-0.7,5-1.1,7.4c0,0,0,0.1,0,0.1c0,0.4-0.2,0.3-0.4,0.1c-0.4-0.4-0.8-0.7-1.2-1.1c-1.1-1.2-2.2-2.4-3.1-3.8
							c-0.4-0.7-0.7-1.5-0.7-2.4c0-2.2-0.1-4.4-0.2-6.6C93.1,44,93.1,43.7,93.2,43.3C93.1,43.3,93.2,43.3,93.2,43.3z M99.4,50.8
							c0-0.4-0.1-0.6-0.3-0.8c-0.6-0.6-1.1-1.2-1.7-1.8c-1.2-1.3-2.3-2.5-3.5-3.7c-0.1-0.1-0.2-0.2-0.3-0.1
							c-0.1,0.1-0.1,0.2-0.1,0.3c0,0.4,0.1,0.7,0.1,1.1c0,1.7,0.2,3.4,0.2,5.1c0,0.8,0.2,1.5,0.5,2.2c1,1.8,2.3,3.2,3.7,4.6
							c0.2,0.2,0.4,0.1,0.4-0.2c0-0.2,0.1-0.4,0.1-0.6c0.2-1.3,0.4-2.6,0.6-3.9C99.1,52.3,99.3,51.5,99.4,50.8z"/>
						<path class="st11" d="M100.7,60.3c0.7-0.4,1.4-0.7,2.2-1c0.7-0.3,1.4-0.6,2-0.9c1.2-0.6,2.4-1.1,3.5-1.7
							c0.2-0.1,0.4-0.1,0.6,0c2.4,1.2,4.8,2.3,7.2,3.5c0.4,0.2,0.4,0.2,0.1,0.5c-1.8,1.4-3.7,2.7-5.8,3.7c-1.3,0.6-2.5,0.5-3.8-0.1
							c-1-0.5-1.9-1-2.8-1.5c-0.9-0.6-1.9-1.2-2.7-1.9C101,60.7,100.8,60.6,100.7,60.3z M108.8,64.4c0.1,0,0.3-0.1,0.5-0.1
							c0.2,0,0.4-0.1,0.6-0.2c2.1-0.8,3.9-2,5.6-3.4c0.4-0.3,0.4-0.5-0.1-0.7c-0.8-0.4-1.5-0.7-2.3-1.1c-1.2-0.6-2.4-1.1-3.5-1.7
							c-0.6-0.4-1.2-0.3-1.8,0c-2,1-4,1.9-6,2.9c-0.4,0.2-0.5,0.4-0.1,0.7c0.5,0.4,1,0.7,1.5,1c1,0.7,2.1,1.3,3.2,1.8
							C107.2,64,107.9,64.3,108.8,64.4z"/>
						<path class="st11" d="M111.4,31.2c2.2,0.1,4.5,0.2,6.7,0.8c1.2,0.3,2.3,0.8,3.3,1.5c1.1,0.8,1.9,1.9,2.3,3.3
							c0.3,1.3,0.5,2.6,0.5,3.9c0,0.5,0,0.5-0.5,0.5c-1-0.2-2-0.3-3-0.5c-2-0.3-4-0.7-6-1c-0.3-0.1-0.5-0.2-0.7-0.5
							c-1.3-2.5-2.6-4.9-3.9-7.4c-0.3-0.6-0.3-0.6,0.4-0.6C110.8,31.2,111.1,31.2,111.4,31.2z M111.9,31.5c-0.3,0-0.7,0-1,0
							c-0.4,0-0.5,0.2-0.3,0.5c0.9,1.7,1.8,3.4,2.7,5.1c0.3,0.6,0.6,1.2,0.9,1.7c0.1,0.2,0.3,0.4,0.6,0.5c0.5,0.1,1.1,0.2,1.6,0.3
							c2.3,0.4,4.6,0.8,6.8,1.2c0.5,0.1,0.6,0,0.6-0.5c0-0.9-0.2-1.7-0.3-2.6c-0.2-1.4-0.8-2.6-1.8-3.5c-0.9-0.8-1.9-1.3-3.1-1.7
							C116.5,31.8,114.2,31.6,111.9,31.5z"/>
						<path class="st11" d="M124.2,43.4c0,0.8,0,1.6,0,2.4c-0.1,1.6-0.2,3.2-0.2,4.8c0,1.2-0.4,2.2-1,3.1c-1.1,1.6-2.4,3.1-3.8,4.4
							c-0.2,0.2-0.3,0.2-0.3-0.1c-0.2-1.4-0.4-2.7-0.6-4.1c-0.2-1.2-0.3-2.4-0.5-3.5c-0.1-0.3,0-0.6,0.3-0.8
							c1.9-1.9,3.8-3.9,5.7-5.8c0.2-0.2,0.3-0.4,0.4-0.6C124.1,43.3,124.2,43.3,124.2,43.4z M124,45.5C124,45.5,124,45.5,124,45.5
							c0-0.3,0-0.7,0-1c0-0.2-0.2-0.3-0.4-0.2c-0.1,0.1-0.2,0.2-0.2,0.2c-1.4,1.4-2.8,2.8-4.1,4.2c-0.2,0.2-0.4,0.5-0.7,0.7
							c-0.5,0.4-0.6,0.9-0.5,1.6c0.2,1.1,0.3,2.3,0.5,3.4c0.1,1,0.3,1.9,0.4,2.9c0,0.2,0,0.3,0.2,0.4c0.2,0,0.2-0.1,0.3-0.2
							c1-1,2-2.1,2.9-3.3c0.7-1,1.3-2.1,1.3-3.4C123.8,49,123.9,47.2,124,45.5z"/>
					</g>
				</g>
			</g>
		</g>
	</g>
</g>
</svg>
