<?xml version="1.0" encoding="utf-8"?>
<!-- Generator: Adobe Illustrator 21.0.0, SVG Export Plug-In . SVG Version: 6.00 Build 0)  -->
<svg version="1.1" id="Layer_1" xmlns="http://www.w3.org/2000/svg" xmlns:xlink="http://www.w3.org/1999/xlink" x="0px" y="0px"
	 viewBox="0 0 224 167.5" style="enable-background:new 0 0 224 167.5;" xml:space="preserve">
<style type="text/css">
	.st0{fill:url(#Rectangle-5_2_);}
	.st1{fill:url(#Rectangle-5_3_);}
	.st2{fill:#258FE5;}
	.st3{fill:#056FA4;}
	.st4{fill:#F9A74E;}
	.st5{opacity:0.2;fill:#382673;enable-background:new    ;}
	.st6{fill:#FFDE39;}
	.st7{fill:#FEC632;}
	.st8{fill:none;stroke:#F9A74E;stroke-width:4;stroke-linecap:round;stroke-linejoin:round;}
	.st9{fill:none;stroke:#FEC632;stroke-width:4;stroke-linecap:round;stroke-linejoin:round;}
	
		.st10{opacity:0.3;fill:none;stroke:#FFFFFF;stroke-width:2;stroke-linecap:round;stroke-linejoin:round;enable-background:new    ;}
	.st11{fill:#B0999A;}
	.st12{fill:#BD0F12;}
</style>
<title>Group 7</title>
<desc>Created with Sketch.</desc>
<g id="Page-2">
	<g id="ui" transform="translate(-1100.000000, -1674.000000)">
		<g id="Group-7" transform="translate(1100.000000, 1674.000000)">
			<g id="Group-36-Copy-2">
				
					<radialGradient id="Rectangle-5_2_" cx="-276.5649" cy="-1.588" r="1.0025" gradientTransform="matrix(1.028703e-14 168 -107.8049 6.601148e-15 -65.1159 46630.4336)" gradientUnits="userSpaceOnUse">
					<stop  offset="0" style="stop-color:#4A90E2;stop-opacity:0.5417"/>
					<stop  offset="1" style="stop-color:#2D7DDC;stop-opacity:0"/>
				</radialGradient>
				<rect id="Rectangle-5" y="-0.5" class="st0" width="224" height="168"/>
				
					<radialGradient id="Rectangle-5_3_" cx="-275.2636" cy="-2.0653" r="1" gradientTransform="matrix(6.184469e-15 101 -91.0188 5.573293e-15 -81.8958 27969.166)" gradientUnits="userSpaceOnUse">
					<stop  offset="0" style="stop-color:#4A90E2;stop-opacity:0.5417"/>
					<stop  offset="1" style="stop-color:#2D7DDC;stop-opacity:0"/>
				</radialGradient>
				<rect id="Rectangle-5_1_" y="66.5" class="st1" width="224" height="101"/>
			</g>
			<g id="Cup-Copy" transform="translate(49.000000, 0.000000)">
				<g id="Layer_1_1_">
					<path id="Shape" class="st2" d="M100,161.6H24v-34.3c0-2.1,1.7-3.8,3.8-3.8h68.4c2.1,0,3.8,1.7,3.8,3.8V161.6z"/>
					<polygon id="Shape_1_" class="st3" points="106.8,167.5 19,167.5 20.9,160.5 104.8,160.5 					"/>
					<rect id="Rectangle-path" x="53.1" y="82.8" class="st4" width="20" height="31.4"/>
					<rect id="Rectangle-path_1_" x="67.2" y="82.8" class="st5" width="5.7" height="31.4"/>
					<path id="Shape_2_" class="st6" d="M80.2,112.3H45.8c-6.3,0-11.4,5.1-11.4,11.4h57.2C91.6,117.4,86.5,112.3,80.2,112.3z"/>
					<path id="Shape_3_" class="st7" d="M80.2,112.3h-9.5c6.3,0,11.4,5.1,11.4,11.4h9.5C91.6,117.4,86.5,112.3,80.2,112.3z"/>
					<path id="Shape_4_" class="st6" d="M72.7,99H53.3c-5.2,0-9.3-4.2-9.3-9.3v-2.2h38.2v2.1C82.1,94.8,77.9,99,72.7,99z"/>
					<path id="Shape_5_" class="st7" d="M74.4,87.5v2.1c0,5.1-2.3,9.3-7.4,9.3h5.7c5.2,0,9.3-4.2,9.3-9.3v-2.1H74.4z"/>
					<path id="Shape_6_" class="st4" d="M95.4,123.7H30.6c0-2.1,1.7-3.8,3.8-3.8h57.2C93.7,119.9,95.4,121.6,95.4,123.7z"/>
					<path id="Shape_7_" class="st5" d="M91.6,119.9h-9.5c2.1,0,3.8,1.7,3.8,3.8h9.5C95.4,121.6,93.7,119.9,91.6,119.9z"/>
					<path id="Shape_8_" class="st4" d="M85.9,83.7H40.1v5.7c0,2.1,1.7,3.8,3.8,3.8h38.2c2.1,0,3.8-1.7,3.8-3.8V83.7z"/>
					<path id="Shape_9_" class="st4" d="M85.9,83.7H40.1v5.7c0,2.1,1.7,3.8,3.8,3.8h38.2c2.1,0,3.8-1.7,3.8-3.8V83.7z"/>
					<path id="Shape_10_" class="st5" d="M76.4,83.7l-3.8,5.7c1.9,0,2.1,3.8,0,3.8h9.5c2.1,0,3.8-1.7,3.8-3.8v-5.7H76.4z"/>
					<path id="Shape_11_" class="st8" d="M89.7,22.8H126v1.9c0,20-16.2,36.2-36.2,36.2"/>
					<path id="Shape_12_" class="st9" d="M36.3,22.8H0v1.9c0,20,16.2,36.2,36.2,36.2"/>
					<path id="Shape_13_" class="st6" d="M79.2,89.4H46.8c-12.2,0-21.9-9.7-21.9-21.9v-60h76.3v60C101.2,79.7,91.4,89.4,79.2,89.4z"
						/>
					<path id="Shape_14_" class="st10" d="M36.3,13.3c0,0,0,32.4,0,38.1"/>
					<path id="Shape_15_" class="st7" d="M91.6,7.6v60c0,12.2-9.7,21.9-21.9,21.9h9.5c12.2,0,21.9-9.7,21.9-21.9v-60
						C101.1,7.6,91.6,7.6,91.6,7.6z"/>
					<polygon id="Shape_16_" class="st4" points="106.9,7.6 19.1,7.6 24.8,13.3 101.2,13.3 					"/>
					<polygon id="Shape_17_" class="st5" points="95.4,7.6 91.6,13.3 101.2,13.3 106.9,7.6 					"/>
					<path id="Shape_18_" class="st6" d="M108.8,0H17.2c-2.1,0-3.8,1.7-3.8,3.8s1.7,3.8,3.8,3.8h91.6c2.1,0,3.8-1.7,3.8-3.8
						S110.9,0,108.8,0z"/>
					<path id="Shape_19_" class="st7" d="M108.8,0H97.3c2.1,0,3.8,1.7,3.8,3.8s-1.7,3.8-3.8,3.8h11.4c2.1,0,3.8-1.7,3.8-3.8
						S110.9,0,108.8,0z"/>
					<path id="Shape_20_" class="st10" d="M36.3,59.7v4.4"/>
					<path id="Shape_21_" class="st7" d="M63,56.1l8.2,4.4c1.1,0.6,2.7-0.4,2.5-1.7L72,49.5l6.7-6.5c1-1,0.4-2.7-1-2.9l-9.2-1.3
						l-4.2-8.4c-0.6-1.1-2.3-1.1-2.9,0l-4.2,8.4L48,40.1c-1.3,0.2-1.9,1.9-1,2.9l6.7,6.5l-1.5,9.1c-0.2,1.3,1.1,2.3,2.5,1.7L63,56.1
						z"/>
					<g>
						<path class="st11" d="M42,45.8c0-0.2,0-0.4,0-0.6c0-2,0-4,0.2-5.9c0.1-1.9,0.3-3.7,0.8-5.6c0.3-1.2,0.8-2.2,1.7-3.1
							c0.8-0.7,1.6-1.3,2.6-1.8c0.7-0.3,1.3-0.6,2-0.7c1.6-0.4,3.2-0.7,4.9-0.8c3.9-0.3,7.8-0.2,11.7-0.2c2.5,0,5,0.3,7.5,0.9
							c1.7,0.4,3.3,1,4.6,2.1c1.1,0.9,1.8,2.1,2.1,3.5c0.4,1.4,0.6,2.9,0.8,4.4c0.1,1.3,0.2,2.7,0.2,4c0.1,1.2,0.1,2.3,0,3.5
							c0,1.6-0.1,3.3-0.2,4.9c0,0.7-0.1,1.4-0.1,2.2c0,1.3-0.4,2.5-1.1,3.6c-1,1.7-2.3,3.1-3.7,4.4c-0.4,0.4-0.8,0.7-1.2,1
							c-0.5,0.5-1.1,0.9-1.6,1.4c-0.3,0.4-0.8,0.5-1.2,0.8c-1.2,1.1-2.6,1.9-3.9,2.8c-1.7,1.1-3.5,2.1-5.4,2.9
							c-1.2,0.5-2.3,0.3-3.3-0.2c-1.1-0.5-2.3-1.1-3.4-1.7c-2.2-1.2-4.2-2.6-6.2-4.1c-1.8-1.3-3.4-2.8-4.9-4.4
							c-0.9-1-1.8-2.1-2.4-3.4c-0.4-1-0.7-2-0.7-3C42.1,50.3,42,48,42,45.8z M61.7,27.3c-0.3,0-0.6,0-1,0c-2.5,0-5.1,0-7.6,0.3
							c-1.7,0.2-3.4,0.5-5,1.1c-2.6,1-4.4,2.7-4.9,5.6c-0.5,2.6-0.7,5.2-0.8,7.9c-0.1,3.5,0,7.1,0.1,10.6c0.1,1.1,0.4,2.1,1,3.1
							c1.3,2.2,3.1,4,5.1,5.7c2.5,2.1,5.1,4,7.9,5.6c1.3,0.7,2.5,1.4,3.8,1.9c0.9,0.4,1.8,0.4,2.8,0c1.3-0.5,2.5-1.2,3.7-1.9
							c3.1-1.8,6-3.9,8.6-6.3c1.6-1.4,3.1-3,4.3-4.8c0.6-1,1.1-2.1,1.1-3.3c0.1-2,0.2-4,0.2-6c0.1-3.6,0.1-7.2-0.5-10.8
							c-0.2-1.2-0.4-2.3-0.9-3.4c-0.7-1.8-2.2-2.9-4-3.7c-2.2-0.9-4.6-1.2-6.9-1.4C66.4,27.3,64,27.3,61.7,27.3z"/>
						<path class="st12" d="M61.7,27.3c2.3,0,4.7,0,7,0.2c2.4,0.2,4.7,0.5,6.9,1.4c1.8,0.7,3.2,1.8,4,3.7c0.4,1.1,0.7,2.3,0.9,3.4
							c0.6,3.6,0.6,7.2,0.5,10.8c0,2-0.1,4-0.2,6c0,1.2-0.5,2.3-1.1,3.3c-1.1,1.8-2.7,3.4-4.3,4.8c-2.7,2.4-5.5,4.5-8.6,6.3
							c-1.2,0.7-2.4,1.3-3.7,1.9c-0.9,0.4-1.8,0.4-2.8,0c-1.3-0.5-2.6-1.2-3.8-1.9c-2.8-1.6-5.5-3.5-7.9-5.6
							c-1.9-1.7-3.8-3.4-5.1-5.7c-0.6-1-0.9-2-1-3.1c-0.2-3.5-0.2-7.1-0.1-10.6c0.1-2.6,0.3-5.3,0.8-7.9c0.5-2.9,2.3-4.6,4.9-5.6
							c1.6-0.6,3.3-0.9,5-1.1c2.5-0.3,5.1-0.3,7.6-0.3C61,27.3,61.3,27.3,61.7,27.3z M46.1,43.2c0,0.2,0,0.3,0,0.3
							c0,1.9,0.1,3.8,0.2,5.7c0,0.7,0,1.4,0.1,2.2c0.1,1.1,0.6,2.1,1.3,3c1,1.4,2.1,2.6,3.4,3.8c0.2,0.2,0.3,0.4,0.5,0.4
							c0.2-0.1,0.1-0.4,0.2-0.6c0.3-2.3,0.7-4.7,1-7c0.1-0.4,0-0.8-0.3-1.1c-1.5-1.6-3-3.2-4.5-4.8C47.3,44.4,46.7,43.8,46.1,43.2z
							 M61.7,64.7c0.5,0,0.9-0.1,1.3-0.3c2.3-0.9,4.3-2.3,6.3-3.9c0.3-0.2,0.2-0.3-0.1-0.4c-2.4-1.2-4.8-2.3-7.3-3.5
							c-0.2-0.1-0.3-0.1-0.5,0c-2.5,1.2-5,2.4-7.4,3.6c-0.4,0.2-0.4,0.2,0,0.5c0.9,0.8,2,1.4,3,2.1c0.8,0.5,1.7,1,2.6,1.4
							C60.3,64.4,60.9,64.6,61.7,64.7z M64.4,31.2c-0.5,0-0.8,0-1.2,0s-0.5,0.1-0.3,0.4c1.3,2.5,2.6,5,4,7.5
							c0.1,0.3,0.3,0.4,0.6,0.4c2,0.3,4,0.7,6,1c1,0.2,2,0.3,3,0.5c0.5,0.1,0.6,0.1,0.5-0.5c-0.1-1.2-0.2-2.4-0.4-3.5
							c-0.4-1.7-1.3-3-2.8-3.9c-0.9-0.6-1.9-1-2.9-1.3C68.8,31.4,66.6,31.2,64.4,31.2z M77.2,43.3L77.2,43.3
							c-0.2,0.1-0.4,0.3-0.5,0.5c-1.9,1.9-3.8,3.9-5.7,5.8c-0.3,0.3-0.3,0.5-0.3,0.8c0.2,1,0.3,2,0.4,3c0.2,1.5,0.4,3,0.7,4.6
							c0,0.3,0.1,0.4,0.3,0.1c1.4-1.3,2.8-2.8,3.8-4.4c0.6-1,1-2,1-3.1c0-1.6,0.2-3.2,0.2-4.8C77.2,44.9,77.2,44.1,77.2,43.3z
							 M59,31.2c-1.4,0-2.9,0.1-4.3,0.3c-1.8,0.3-3.5,0.7-5.1,1.6c-1.2,0.7-2.1,1.6-2.7,2.8c-0.7,1.6-0.8,3.4-0.8,5.1
							c0,0.2,0.1,0.2,0.3,0.2c0.4-0.1,0.7-0.1,1.1-0.2c2.7-0.5,5.5-1,8.2-1.4c0.3,0,0.5-0.2,0.6-0.4c0.8-1.5,1.6-3,2.4-4.5
							c0.6-1,1.1-2.1,1.7-3.1c0.1-0.3,0.1-0.4-0.2-0.4C59.8,31.2,59.4,31.2,59,31.2z"/>
						<path class="st11" d="M46.1,43.2c0.6,0.7,1.2,1.2,1.8,1.8c1.5,1.6,3,3.2,4.5,4.8c0.3,0.3,0.4,0.6,0.3,1.1
							c-0.4,2.3-0.7,4.7-1,7c0,0.2,0,0.5-0.2,0.6s-0.4-0.2-0.5-0.4c-1.2-1.2-2.4-2.4-3.4-3.8c-0.6-0.9-1.2-1.8-1.3-3
							c0-0.7-0.1-1.4-0.1-2.2c0-1.9-0.2-3.8-0.2-5.7C46.1,43.4,46.1,43.3,46.1,43.2z M46.4,45c0,0.3,0.1,0.5,0.1,0.8
							c0,1.7,0.2,3.3,0.2,5c0,0.8,0.2,1.6,0.6,2.2c1,1.7,2.3,3.2,3.7,4.6c0.2,0.2,0.4,0.1,0.4-0.2c0.1-0.7,0.2-1.3,0.3-2
							c0.2-1.5,0.4-3,0.7-4.5c0.1-0.4,0-0.7-0.3-1c-0.2-0.2-0.4-0.5-0.6-0.7c-1.4-1.5-2.9-3-4.3-4.5c-0.1-0.2-0.3-0.5-0.5-0.4
							C46.3,44.5,46.5,44.8,46.4,45z"/>
						<path class="st11" d="M61.7,64.7c-0.7,0-1.4-0.3-2-0.6c-0.9-0.4-1.8-0.9-2.6-1.4c-1-0.6-2.1-1.3-3-2.1c-0.4-0.3-0.4-0.3,0-0.5
							c2.5-1.2,5-2.4,7.4-3.6c0.2-0.1,0.4-0.1,0.5,0c2.4,1.2,4.8,2.3,7.3,3.5c0.3,0.1,0.3,0.2,0.1,0.4c-2,1.5-4,3-6.3,3.9
							C62.6,64.5,62.1,64.6,61.7,64.7z M61.6,64.3c0.9,0,1.6-0.4,2.3-0.7c1-0.5,1.9-1,2.8-1.6c0.6-0.4,1.2-0.8,1.8-1.3
							c0.4-0.3,0.4-0.4-0.1-0.7h-0.1c-1.9-0.9-3.8-1.8-5.7-2.8c-0.7-0.3-1.2-0.3-1.8,0c-2,1-4,1.9-6,2.9c-0.4,0.2-0.5,0.4-0.1,0.7
							c0.5,0.4,1,0.7,1.6,1.1c1,0.7,2.1,1.3,3.2,1.8C60.2,64,60.9,64.3,61.6,64.3z"/>
						<path class="st11" d="M64.4,31.2c2.1,0.1,4.4,0.2,6.6,0.8c1,0.3,2,0.7,2.9,1.3c1.4,0.9,2.4,2.2,2.8,3.9
							c0.3,1.2,0.4,2.4,0.4,3.5c0,0.5,0,0.6-0.5,0.5c-1-0.2-2-0.3-3-0.5c-2-0.3-4-0.7-6-1c-0.3,0-0.5-0.2-0.6-0.4
							c-1.3-2.5-2.6-5-4-7.5c-0.2-0.4-0.2-0.4,0.3-0.4C63.6,31.2,64,31.2,64.4,31.2z M64.9,31.5c-0.3,0-0.7,0-1,0
							c-0.4,0-0.5,0.2-0.3,0.5c0.9,1.7,1.8,3.4,2.7,5.1c0.3,0.6,0.6,1.2,0.9,1.7c0.1,0.2,0.3,0.4,0.6,0.5c0.5,0.1,1.1,0.2,1.6,0.3
							c2.3,0.4,4.6,0.8,6.8,1.2c0.5,0.1,0.6,0,0.6-0.5c0-0.9-0.2-1.7-0.3-2.6c-0.2-1.4-0.8-2.6-1.8-3.5c-0.9-0.8-1.9-1.3-3.1-1.7
							C69.5,31.7,67.2,31.5,64.9,31.5z"/>
						<path class="st11" d="M77.2,43.3c0,0.8,0,1.6,0,2.4c-0.1,1.6-0.2,3.2-0.2,4.8c0,1.2-0.4,2.2-1,3.1c-1.1,1.7-2.4,3.1-3.8,4.4
							c-0.2,0.2-0.3,0.2-0.3-0.1c-0.2-1.5-0.4-3-0.7-4.6c-0.1-1-0.3-2-0.4-3c-0.1-0.3,0-0.6,0.3-0.8c1.9-1.9,3.8-3.9,5.7-5.8
							c0.2-0.2,0.3-0.4,0.4-0.6C77.1,43.3,77.2,43.3,77.2,43.3z M77,45.4L77,45.4c0-0.3,0-0.6,0-1c0-0.1,0-0.2-0.1-0.3
							s-0.2,0-0.3,0.1c-0.1,0.1-0.1,0.1-0.2,0.2c-1.4,1.4-2.8,2.8-4.2,4.2c-0.2,0.2-0.4,0.4-0.7,0.7c-0.5,0.4-0.6,0.9-0.5,1.6
							c0.2,1.1,0.3,2.3,0.5,3.4c0.1,1,0.3,1.9,0.4,2.9c0,0.2,0,0.3,0.2,0.4c0.2,0.1,0.3-0.1,0.4-0.2c1-1,2-2.1,2.9-3.2
							c0.7-1,1.3-2.1,1.4-3.4C76.8,48.9,76.9,47.2,77,45.4z"/>
						<path class="st11" d="M59,31.2c0.4,0,0.8,0,1.2,0c0.3,0,0.4,0.1,0.2,0.4c-0.6,1-1.1,2.1-1.7,3.1c-0.8,1.5-1.6,3-2.4,4.5
							c-0.1,0.3-0.3,0.4-0.6,0.4c-2.7,0.5-5.5,1-8.2,1.4c-0.4,0.1-0.7,0.1-1.1,0.2c-0.2,0-0.3,0-0.3-0.2c0-1.7,0.1-3.5,0.8-5.1
							c0.5-1.3,1.5-2.2,2.7-2.8c1.6-0.9,3.3-1.3,5.1-1.6C56.1,31.3,57.6,31.2,59,31.2z M46.3,40.2C46.3,40.2,46.4,40.2,46.3,40.2
							c0,0.1,0,0.1,0,0.2c0,0.5,0.1,0.6,0.6,0.5c0.3,0,0.6-0.1,0.9-0.1c1-0.2,2.1-0.2,3.2-0.5c0.5-0.1,0.9-0.1,1.4-0.2
							c0.8-0.1,1.6-0.3,2.4-0.4c0.6-0.1,1.1-0.2,1.4-0.7c0.6-1.2,1.3-2.3,1.9-3.5c0.6-1.1,1.2-2.2,1.8-3.3c0.2-0.5,0.1-0.6-0.4-0.6
							c-1.7,0-3.3,0.1-4.9,0.3c-1.8,0.2-3.5,0.7-5,1.5c-1.1,0.6-2,1.4-2.5,2.6c-0.4,0.8-0.6,1.6-0.6,2.5
							C46.5,38.9,46.4,39.6,46.3,40.2z"/>
					</g>
				</g>
			</g>
		</g>
	</g>
</g>
</svg>
