<?xml version="1.0" encoding="utf-8"?>
<!-- Generator: Adobe Illustrator 21.0.0, SVG Export Plug-In . SVG Version: 6.00 Build 0)  -->
<svg version="1.1" id="Layer_1" xmlns="http://www.w3.org/2000/svg" xmlns:xlink="http://www.w3.org/1999/xlink" x="0px" y="0px"
	 viewBox="0 0 500 400" style="enable-background:new 0 0 500 400;" xml:space="preserve">
<g id="Layer_1_1_">
	<path d="M387.9,230.7c58.2,0,107.4-49.1,107.4-107.4S446.3,16,387.9,16S280.5,65.1,280.5,123.4S329.7,230.7,387.9,230.7z
		 M403.3,108h61.3v30.7h-61.3V200h-30.7v-61.3h-61.3V108h61.3V46.7h30.7V108z M4.7,77.3h214.7V108H4.7V77.3z M4.7,169.3h214.7V200
		H4.7V169.3z M4.7,261.3h490.7V292H4.7V261.3z M4.7,353.3h490.7V384H4.7V353.3z"/>
</g>
</svg>
