<?xml version="1.0" encoding="utf-8"?>
<!-- Generator: Adobe Illustrator 21.0.0, SVG Export Plug-In . SVG Version: 6.00 Build 0)  -->
<svg version="1.1" id="Layer_1" xmlns="http://www.w3.org/2000/svg" xmlns:xlink="http://www.w3.org/1999/xlink" x="0px" y="0px"
	 viewBox="0 0 500 400" style="enable-background:new 0 0 500 400;" xml:space="preserve">
<path d="M442.5,170l-55-12.5c-2.5-7.5-5-17.5-10-25l30-47.5c2.5-2.5,2.5-7.5,0-10L375,42.5c-2.5-2.5-7.5-2.5-10,0l-47.5,30
	c-7.5-5-15-7.5-25-10L280,7.5c0-5-2.5-7.5-7.5-7.5h-45c-5,0-7.5,2.5-7.5,7.5l-12.5,52.5c-7.5,2.5-17.5,5-25,10l-47.5-30
	c-2.5,0-7.5,0-10,2.5L92.5,75c-2.5,2.5-2.5,7.5,0,10l30,47.5c-5,7.5-7.5,17.5-10,25l-55,12.5c-5,0-7.5,2.5-7.5,7.5v45
	c0,5,2.5,7.5,7.5,7.5l55,12.5c2.5,10,5,17.5,10,25l-30,47.5c-2.5,2.5-2.5,7.5,0,10l32.5,32.5c2.5,2.5,7.5,2.5,10,0l47.5-30
	c7.5,5,17.5,7.5,25,10l12.5,55c0,5,5,7.5,7.5,7.5h45c5,0,7.5-2.5,7.5-7.5l12.5-55c10-2.5,17.5-5,25-10l47.5,30c2.5,2.5,7.5,2.5,10,0
	l32.5-32.5c2.5-2.5,2.5-7.5,0-10l-30-47.5c5-7.5,7.5-17.5,10-25l55-12.5c5,0,7.5-5,7.5-7.5v-45C450,172.5,447.5,170,442.5,170z
	 M250,277.5c-42.5,0-77.5-35-77.5-77.5s35-77.5,77.5-77.5s77.5,35,77.5,77.5S292.5,277.5,250,277.5z"/>
</svg>
