<?xml version="1.0" encoding="utf-8"?>
<!DOCTYPE svg PUBLIC "-//W3C//DTD SVG 1.1//EN" "http://www.w3.org/Graphics/SVG/1.1/DTD/svg11.dtd">
<svg version="1.1" xmlns="http://www.w3.org/2000/svg" xmlns:xlink="http://www.w3.org/1999/xlink" x="0px" y="0px" viewBox="0 0 260 70" enable-background="new 0 0 260 70" xml:space="preserve">
	<g transform="translate(-527.000000, -1835.000000)">
		<g transform="translate(528.000000, 1810.000000)">
			<path id="Path-2-Copy-4" fill="none" stroke="#258EE4" stroke-width="3" d="M1.002,69C0.849,81.652,11.508,87.978,32.976,87.978
				s47.395,0,77.78,0C122.919,88.713,129,91.053,129,95"/>
			<path id="Path-2-Copy-5" fill="none" stroke="#258EE4" stroke-width="3" d="M256.998,69
				c0.152,12.652-10.506,18.978-31.975,18.978s-47.395,0-77.78,0C135.081,88.713,129,91.053,129,95"/>
			<g id="Group-19-Copy-9" transform="translate(180.000000, 0.000000)">
				<rect id="Rectangle-2-Copy-5" fill-opacity="0" width="76" height="120"/>
				<g id="Group" transform="translate(1.000000, 22.000000)">

						<radialGradient id="Rectangle-5_4_" cx="-1045.4539" cy="1041.734" r="0.8611" gradientTransform="matrix(3.980103e-15 65 42.3974 -2.596089e-15 -44128.2734 68013.3516)" gradientUnits="userSpaceOnUse">
						<stop  offset="0" style="stop-color:#4A90E2"/>
						<stop  offset="1" style="stop-color:#2D7DDC;stop-opacity:0"/>
					</radialGradient>
					<rect id="Rectangle-5" opacity="0.6952" fill="url(#Rectangle-5_4_)" enable-background="new    " width="77" height="65"/>
					<path id="Shape-Copy" fill="#FFFFFF" d="M49,26c0,5.59-3.827,10.272-9,11.606V48h6c0.553,0,1,0.448,1,1c0,0.553-0.447,1-1,1H28
						c-0.553,0-1-0.447-1-1c0-0.552,0.447-1,1-1h6V37.606C28.827,36.272,25,31.59,25,26c-3.866,0-7-3.134-7-7v-2
						c0-0.552,0.447-1,1-1h6v-1c0-1.657-1.343-3-3-3c-0.553,0-1-0.448-1-1s0.447-1,1-1h30c0.553,0,1,0.448,1,1s-0.447,1-1,1
						c-1.657,0-3,1.343-3,3v1h6c0.553,0,1,0.448,1,1v2C56,22.866,52.866,26,49,26z M36,48h2V37.949C37.67,37.977,37.338,38,37,38
						s-0.67-0.023-1-0.051V48z M20,18v1c0,2.762,2.238,5,5,5v-6H20z M25.978,12C26.61,12.838,27,13.869,27,15v11
						c0,5.523,4.477,10,10,10c5.522,0,10-4.477,10-10V15c0-1.131,0.39-2.162,1.022-3H25.978z M54,18h-5v6c2.762,0,5-2.238,5-5V18z
						 M25,52h24c0.553,0,1,0.448,1,1c0,0.553-0.447,1-1,1H25c-0.553,0-1-0.447-1-1C24,52.448,24.447,52,25,52z"/>
					<polygon id="Path" fill="#FFFFFF" points="42.01,17.479 35.684,23.804 32.65,20.77 31.302,22.122 35.626,26.445 35.628,26.445
						43.303,18.77 					"/>
				</g>
			</g>
			<g id="Group-19-Copy-10" transform="translate(120.000000, 0.000000)">
				<g id="Group_1_" transform="translate(1.000000, 22.000000)">

						<radialGradient id="Rectangle-5_5_" cx="-985.85" cy="1041.4384" r="0.8611" gradientTransform="matrix(4.286265e-15 70 45.6587 -2.795788e-15 -47512.2109 69072.875)" gradientUnits="userSpaceOnUse">
						<stop  offset="0" style="stop-color:#4A90E2"/>
						<stop  offset="1" style="stop-color:#2D7DDC;stop-opacity:0"/>
					</radialGradient>
					<polygon id="Rectangle-5_1_" opacity="0.6952" fill="url(#Rectangle-5_5_)" enable-background="new    " points="0,0 77,0
						77,65 22.5,65 8.5,70 0,65 					"/>
					<path id="Shape-Copy_1_" fill="#FFFFFF" d="M49,26c0,5.59-3.827,10.272-9,11.606V48h6c0.553,0,1,0.448,1,1c0,0.553-0.447,1-1,1
						H28c-0.553,0-1-0.447-1-1c0-0.552,0.447-1,1-1h6V37.606C28.827,36.272,25,31.59,25,26c-3.866,0-7-3.134-7-7v-2
						c0-0.552,0.447-1,1-1h6v-1c0-1.657-1.343-3-3-3c-0.553,0-1-0.448-1-1s0.447-1,1-1h30c0.553,0,1,0.448,1,1s-0.447,1-1,1
						c-1.657,0-3,1.343-3,3v1h6c0.553,0,1,0.448,1,1v2C56,22.866,52.866,26,49,26z M36,48h2V37.949C37.67,37.977,37.338,38,37,38
						s-0.67-0.023-1-0.051V48z M20,18v1c0,2.762,2.238,5,5,5v-6H20z M25.978,12C26.61,12.838,27,13.869,27,15v11
						c0,5.523,4.477,10,10,10c5.522,0,10-4.477,10-10V15c0-1.131,0.39-2.162,1.022-3H25.978z M54,18h-5v6c2.762,0,5-2.238,5-5V18z
						 M25,52h24c0.553,0,1,0.448,1,1c0,0.553-0.447,1-1,1H25c-0.553,0-1-0.447-1-1C24,52.448,24.447,52,25,52z"/>
					<polygon id="Path_1_" fill="#FFFFFF" points="42.01,17.479 35.684,23.804 32.65,20.77 31.302,22.122 35.626,26.445
						35.628,26.445 43.303,18.77 					"/>
				</g>
			</g>
			<g id="Group-19-Copy-11" transform="translate(61.000000, 0.000000)">
				<rect id="Rectangle-2-Copy-5_1_" fill-opacity="0" width="76" height="120"/>
				<g id="Group_2_" transform="translate(1.000000, 22.000000)">

						<radialGradient id="Rectangle-5_6_" cx="-926.9225" cy="1041.3842" r="0.8611" gradientTransform="matrix(4.347497e-15 71 46.311 -2.835728e-15 -48189 65875.7812)" gradientUnits="userSpaceOnUse">
						<stop  offset="0" style="stop-color:#4A90E2"/>
						<stop  offset="1" style="stop-color:#2D7DDC;stop-opacity:0"/>
					</radialGradient>
					<polygon id="Rectangle-5_2_" opacity="0.6952" fill="url(#Rectangle-5_6_)" enable-background="new    " points="0,0 77,0
						77,65 67,71 51,65 0,65 					"/>
					<path id="Shape-Copy_2_" fill="#FFFFFF" d="M49,26c0,5.59-3.827,10.272-9,11.606V48h6c0.553,0,1,0.448,1,1c0,0.553-0.447,1-1,1
						H28c-0.553,0-1-0.447-1-1c0-0.552,0.447-1,1-1h6V37.606C28.827,36.272,25,31.59,25,26c-3.866,0-7-3.134-7-7v-2
						c0-0.552,0.447-1,1-1h6v-1c0-1.657-1.343-3-3-3c-0.553,0-1-0.448-1-1s0.447-1,1-1h30c0.553,0,1,0.448,1,1s-0.447,1-1,1
						c-1.657,0-3,1.343-3,3v1h6c0.553,0,1,0.448,1,1v2C56,22.866,52.866,26,49,26z M36,48h2V37.949C37.67,37.977,37.338,38,37,38
						s-0.67-0.023-1-0.051V48z M20,18v1c0,2.762,2.238,5,5,5v-6H20z M25.978,12C26.61,12.838,27,13.869,27,15v11
						c0,5.523,4.477,10,10,10c5.522,0,10-4.477,10-10V15c0-1.131,0.39-2.162,1.022-3H25.978z M54,18h-5v6c2.762,0,5-2.238,5-5V18z
						 M25,52h24c0.553,0,1,0.448,1,1c0,0.553-0.447,1-1,1H25c-0.553,0-1-0.447-1-1C24,52.448,24.447,52,25,52z"/>
					<polygon id="Path_2_" fill="#FFFFFF" points="42.01,17.479 35.684,23.804 32.65,20.77 31.302,22.122 35.626,26.445
						35.628,26.445 43.303,18.77 					"/>
				</g>
			</g>
			<g id="Group-19-Copy-12">
				<rect id="Rectangle-2-Copy-5_2_" fill-opacity="0" width="76" height="120"/>
				<g id="Group_3_" transform="translate(1.000000, 22.000000)">

						<radialGradient id="Rectangle-5_7_" cx="-865.4539" cy="1041.734" r="0.8611" gradientTransform="matrix(3.980103e-15 65 42.3974 -2.596089e-15 -44128.2734 56313.3516)" gradientUnits="userSpaceOnUse">
						<stop  offset="0" style="stop-color:#4A90E2"/>
						<stop  offset="1" style="stop-color:#2D7DDC;stop-opacity:0"/>
					</radialGradient>
					<rect id="Rectangle-5_3_" opacity="0.6952" fill="url(#Rectangle-5_7_)" enable-background="new    " width="77" height="65"/>
					<path id="Shape-Copy_3_" fill="#FFFFFF" d="M49,26c0,5.59-3.827,10.272-9,11.606V48h6c0.553,0,1,0.448,1,1c0,0.553-0.447,1-1,1
						H28c-0.553,0-1-0.447-1-1c0-0.552,0.447-1,1-1h6V37.606C28.827,36.272,25,31.59,25,26c-3.866,0-7-3.134-7-7v-2
						c0-0.552,0.447-1,1-1h6v-1c0-1.657-1.343-3-3-3c-0.553,0-1-0.448-1-1s0.447-1,1-1h30c0.553,0,1,0.448,1,1s-0.447,1-1,1
						c-1.657,0-3,1.343-3,3v1h6c0.553,0,1,0.448,1,1v2C56,22.866,52.866,26,49,26z M36,48h2V37.949C37.67,37.977,37.338,38,37,38
						s-0.67-0.023-1-0.051V48z M20,18v1c0,2.762,2.238,5,5,5v-6H20z M25.978,12C26.61,12.838,27,13.869,27,15v11
						c0,5.523,4.477,10,10,10c5.522,0,10-4.477,10-10V15c0-1.131,0.39-2.162,1.022-3H25.978z M54,18h-5v6c2.762,0,5-2.238,5-5V18z
						 M25,52h24c0.553,0,1,0.448,1,1c0,0.553-0.447,1-1,1H25c-0.553,0-1-0.447-1-1C24,52.448,24.447,52,25,52z"/>
					<polygon id="Path_3_" fill="#FFFFFF" points="42.01,17.479 35.684,23.804 32.65,20.77 31.302,22.122 35.626,26.445
						35.628,26.445 43.303,18.77 					"/>
				</g>
			</g>
		</g>
	</g>
</svg>
