<?xml version="1.0" encoding="utf-8"?>
<!DOCTYPE svg PUBLIC "-//W3C//DTD SVG 1.1//EN" "http://www.w3.org/Graphics/SVG/1.1/DTD/svg11.dtd">
<svg version="1.1" xmlns="http://www.w3.org/2000/svg" xmlns:xlink="http://www.w3.org/1999/xlink" x="0px" y="0px" viewBox="0 -0.5 502 260" enable-background="new 0 -0.5 502 260" xml:space="preserve">
	<g transform="translate(-404.000000, -4023.000000)">
		<g transform="translate(383.000000, 4025.000000)">
			<path fill="none" stroke="#258EE4" stroke-width="3" d="M272.983,118v12.486c0,11.046-8.954,20-20,20H80
				c-11.046,0-20,8.954-20,20v10.663"/>
			<path fill="none" stroke="#258EE4" stroke-width="3" d="M272,118v12.486c0,11.046,8.954,20,20,20h172.983
				c11.046,0,20,8.954,20,20v10.663"/>
			<path fill="none" stroke="#258EE4" stroke-width="3" d="M272,118v12.486c0,11.046,8.954,20,20,20h39
				c11.046,0,20,8.954,20,20v10.663"/>
			<path fill="none" stroke="#258EE4" stroke-width="3" d="M273,118v12.486c0,11.046-8.954,20-20,20h-39
				c-11.046,0-20,8.954-20,20v10.663"/>
			<circle id="Oval-2" fill="#258EE4" cx="60.5" cy="217.5" r="39.5"/>
			<circle id="Oval-2-Copy" fill="#258EE4" cx="483.5" cy="217.5" r="39.5"/>
			<circle id="Oval-2-Copy-2" fill="#258EE4" cx="351.5" cy="217.5" r="39.5"/>
			<circle id="Oval-2-Copy-3" fill="#258EE4" cx="194.5" cy="217.5" r="39.5"/>
			<circle id="Oval" fill="none" stroke="#258EE4" stroke-width="3" cx="273" cy="59" r="59"/>
			<g transform="translate(224.000000, 10.000000)"></g>
		</g>
	</g>
</svg>
