<?xml version="1.0" encoding="UTF-8"?>
<svg width="81px" height="16px" viewBox="0 0 81 16" version="1.1" xmlns="http://www.w3.org/2000/svg" xmlns:xlink="http://www.w3.org/1999/xlink">
    <!-- Generator: sketchtool 50.2 (55047) - http://www.bohemiancoding.com/sketch -->
    <title>0D052704-195F-4B2F-9B52-DC31C6189BC5</title>
    <desc>Created with sketchtool.</desc>
    <defs></defs>
    <g id="Page-1" stroke="none" stroke-width="1" fill="none" fill-rule="evenodd" opacity="0.400000006">
        <g id="Главная-30.06-1920" transform="translate(-57.000000, -5584.000000)">
            <g id="Подвал" transform="translate(0.000000, 5557.000000)">
                <g id="Лого" transform="translate(57.000000, 27.000000)">
                    <path d="M1.13866667,0 C0.51,0 0,0.509666667 0,1.139 L0,14.861 C0,15.4903333 0.51,16 1.13866667,16 L14.861,16 C15.4903333,16 16,15.4903333 16,14.861 L16,1.139 C16,0.509666667 15.4903333,0 14.861,0 L1.13866667,0 Z" id="Fill-1" fill="#FFFFFF"></path>
                    <path d="M18.4723333,0 C17.8433333,0 17.3333333,0.509666667 17.3333333,1.139 L17.3333333,14.861 C17.3333333,15.4903333 17.8433333,16 18.4723333,16 L32.1943333,16 C32.8233333,16 33.3333333,15.4903333 33.3333333,14.861 L33.3333333,1.139 C33.3333333,0.509666667 32.8233333,0 32.1943333,0 L18.4723333,0 Z" id="Fill-4" fill="#FFFFFF"></path>
                    <path d="M35.8056667,0 C35.1763333,0 34.6666667,0.509666667 34.6666667,1.139 L34.6666667,14.861 C34.6666667,15.4903333 35.1763333,16 35.8056667,16 L49.5276667,16 C50.157,16 50.6666667,15.4903333 50.6666667,14.861 L50.6666667,1.139 C50.6666667,0.509666667 50.157,0 49.5276667,0 L35.8056667,0 Z" id="Fill-7" fill="#FFFFFF"></path>
                    <path d="M53.139,0 C52.51,0 52,0.509666667 52,1.139 L52,14.861 C52,15.4903333 52.51,16 53.139,16 L66.861,16 C67.49,16 68,15.4903333 68,14.861 L68,1.139 C68,0.509666667 67.49,0 66.861,0 L53.139,0 Z" id="Fill-10" fill="#FFFFFF"></path>
                    <path d="M75.3499333,6.5039 L74.2886,6.5039 L74.2886,9.9919 C74.2886,10.1925667 74.2439333,10.3415667 74.1542667,10.4389 C74.0649333,10.5359 73.9492667,10.5845667 73.8072667,10.5845667 C73.6629333,10.5845667 73.5459333,10.5355667 73.4549333,10.4372333 C73.3646,10.3389 73.3192667,10.1905667 73.3192667,9.9919 L73.3192667,6.5039 L72.2582667,6.5039 C72.0922667,6.5039 71.9686,6.46756667 71.8879333,6.39423333 C71.8072667,6.3209 71.7669333,6.22456667 71.7669333,6.10456667 C71.7669333,5.9799 71.8089333,5.8819 71.8929333,5.80956667 C71.9772667,5.73756667 72.0989333,5.70156667 72.2582667,5.70156667 L75.3499333,5.70156667 C75.5179333,5.70156667 75.6429333,5.73856667 75.7249333,5.8129 C75.8066,5.8869 75.8476,5.98423333 75.8476,6.10456667 C75.8476,6.22456667 75.8059333,6.3209 75.7229333,6.39423333 C75.6399333,6.46756667 75.5156,6.5039 75.3499333,6.5039 Z M77.8014333,6.25846667 L78.8887667,9.47746667 L79.9791,6.23546667 C80.0361,6.06513333 80.0784333,5.94646667 80.1071,5.88013333 C80.1354333,5.81346667 80.1824333,5.75346667 80.2477667,5.6998 C80.3131,5.64646667 80.4027667,5.6198 80.5164333,5.6198 C80.5994333,5.6198 80.6764333,5.64046667 80.7474333,5.68213333 C80.8181,5.72346667 80.8737667,5.7788 80.9144333,5.84746667 C80.9547667,5.91613333 80.9751,5.98546667 80.9751,6.05546667 C80.9751,6.10313333 80.9684333,6.15513333 80.9551,6.2108 C80.9421,6.26646667 80.9257667,6.3208 80.9057667,6.3748 C80.8864333,6.42813333 80.8667667,6.48313333 80.8471,6.54013333 L79.6844333,9.67746667 C79.6427667,9.79746667 79.6014333,9.91146667 79.5601,10.0194667 C79.5184333,10.1274667 79.4704333,10.2228 79.4161,10.3044667 C79.3614333,10.3864667 79.2887667,10.4534667 79.1981,10.5058 C79.1074333,10.5581333 78.9967667,10.5848 78.8657667,10.5848 C78.7347667,10.5848 78.6241,10.5588 78.5331,10.5074667 C78.4427667,10.4564667 78.3694333,10.3888 78.3137667,10.3044667 C78.2581,10.2204667 78.2097667,10.1251333 78.1684333,10.0178 C78.1267667,9.9108 78.0854333,9.79746667 78.0437667,9.67746667 L76.9007667,6.56613333 C76.8811,6.50946667 76.8611,6.4538 76.8401,6.39913333 C76.8194333,6.3448 76.8021,6.28546667 76.7877667,6.22246667 C76.7734333,6.1588 76.7667667,6.10546667 76.7667667,6.0618 C76.7667667,5.95046667 76.8111,5.8488 76.9007667,5.75713333 C76.9901,5.6658 77.1027667,5.6198 77.2381,5.6198 C77.4041,5.6198 77.5214333,5.67046667 77.5901,5.77213333 C77.6587667,5.87346667 77.7294333,6.03546667 77.8014333,6.25846667 Z M70.6634,10.5846333 C70.5280667,10.5846333 70.4110667,10.5406333 70.3127333,10.4533 C70.2144,10.3663 70.1654,10.2439667 70.1654,10.0866333 C70.1654,9.9533 70.2120667,9.83896667 70.3064,9.74296667 C70.4000667,9.64696667 70.5160667,9.59863333 70.6534,9.59863333 C70.7910667,9.59863333 70.9080667,9.6463 71.0054,9.7413 C71.1024,9.8363 71.1514,9.9513 71.1514,10.0866333 C71.1514,10.2419667 71.1024,10.3633 71.0054,10.4519667 C70.9080667,10.5403 70.7944,10.5846333 70.6634,10.5846333 Z" id="Fill-15" fill="#FFFFFF"></path>
                    <path d="M63.8278,7.58756667 L58.4718,3.64356667 C58.2501333,3.48023333 57.9361333,3.5269 57.7724667,3.74956667 C57.6088,3.9719 57.6561333,4.28523333 57.8784667,4.4489 L62.6964667,7.99656667 L58.6751333,11.0512333 L58.6751333,7.20823333 C58.6751333,6.93223333 58.4511333,6.70823333 58.1751333,6.70823333 C57.8991333,6.70823333 57.6751333,6.93223333 57.6751333,7.20823333 L57.6751333,12.0589 C57.6751333,12.2485667 57.7828,12.4225667 57.9528,12.5069 C58.0234667,12.5415667 58.0991333,12.5589 58.1751333,12.5589 C58.2821333,12.5589 58.3891333,12.5245667 58.4774667,12.4569 L63.8338,8.38823333 C63.9594667,8.2929 64.0324667,8.14423333 64.0311333,7.98656667 C64.0298,7.8289 63.9548,7.6809 63.8278,7.58756667 M42.9108,7.5078 C43.9821333,7.98213333 45.1251333,8.60213333 45.1251333,9.96513333 C45.1251333,11.3341333 43.9121333,12.1528 42.7394667,12.1528 C41.3448,12.1528 39.9374667,11.3538 39.9374667,9.56946667 C39.9374667,9.29313333 40.1611333,9.06946667 40.4374667,9.06946667 C40.7138,9.06946667 40.9374667,9.29313333 40.9374667,9.56946667 C40.9374667,11.0384667 42.3168,11.1528 42.7394667,11.1528 C43.4204667,11.1528 44.1251333,10.7084667 44.1251333,9.96513333 C44.1251333,9.44213333 43.8601333,9.0218 42.5058,8.42246667 C41.5041333,7.9788 40.3541333,7.3018 40.3541333,5.98913333 C40.3541333,5.01313333 41.1481333,3.97546667 42.6198,3.97546667 C44.1028,3.97546667 45.0208,5.17013333 45.0208,6.27713333 C45.0208,6.55313333 44.7968,6.77713333 44.5208,6.77713333 C44.2448,6.77713333 44.0208,6.55313333 44.0208,6.27713333 C44.0208,5.75213333 43.5754667,4.97546667 42.6198,4.97546667 C41.6188,4.97546667 41.3541333,5.6388 41.3541333,5.98913333 C41.3541333,6.42013333 41.5428,6.90246667 42.9108,7.5078 Z M25.7970333,3.95506667 L28.6943667,11.1320667 C28.7977,11.3884 28.6740333,11.6797333 28.4180333,11.7827333 C28.3567,11.8077333 28.2933667,11.8194 28.2310333,11.8194 C28.0330333,11.8194 27.8457,11.7010667 27.7670333,11.5064 L27.2723667,10.2814 L25.3333667,10.2814 C25.0237,10.2814 24.7727,10.0304 24.7727,9.72073333 C24.7727,9.41106667 25.0237,9.16006667 25.3333667,9.16006667 L26.8197,9.16006667 L25.3333667,5.47773333 L22.8997,11.5064 C22.7963667,11.7624 22.5050333,11.8857333 22.2487,11.7827333 C21.9927,11.6797333 21.8687,11.3884 21.9720333,11.1320667 L24.8697,3.95506667 C24.9460333,3.76606667 25.1293667,3.6424 25.3333667,3.6424 C25.5373667,3.6424 25.7207,3.76606667 25.7970333,3.95506667 Z M8.52066667,6.1198 C8.77666667,6.22346667 8.90033333,6.5148 8.797,6.7708 L6.89133333,11.4861333 C6.81466667,11.6751333 6.63133333,11.7984667 6.42766667,11.7984667 L6.419,11.7984667 C6.212,11.7948 6.02866667,11.6641333 5.958,11.4698 L3.466,4.62613333 C3.37166667,4.36613333 3.50533333,4.07946667 3.76466667,3.98513333 C4.024,3.89013333 4.311,4.02413333 4.40566667,4.28346667 L6.452,9.90413333 L7.86966667,6.3958 C7.973,6.14013333 8.26466667,6.01613333 8.52066667,6.1198 Z M12.9018667,3.98503333 C13.1612,4.07936667 13.2952,4.36636667 13.2005333,4.62603333 L10.7088667,11.4697 C10.6378667,11.6640333 10.4545333,11.7950333 10.2478667,11.7983667 L10.2388667,11.7983667 C10.0355333,11.7983667 9.85186667,11.6750333 9.77553333,11.4860333 L8.92286667,9.3767 C8.8192,9.12036667 8.9432,8.82903333 9.1992,8.7257 C9.45453333,8.62203333 9.7462,8.74536667 9.84986667,9.0017 L10.2145333,9.90403333 L12.2608667,4.2837 C12.3558667,4.02436667 12.6428667,3.89103333 12.9018667,3.98503333 Z" id="Fill-28" fill="#000000"></path>
                </g>
            </g>
        </g>
    </g>
</svg>