<?xml version="1.0" encoding="UTF-8"?>
<svg width="17px" height="15px" viewBox="0 0 17 15" version="1.1" xmlns="http://www.w3.org/2000/svg" xmlns:xlink="http://www.w3.org/1999/xlink">
    <!-- Generator: Sketch 51.1 (57501) - http://www.bohemiancoding.com/sketch -->
    <title>Fill 1</title>
    <desc>Created with Sketch.</desc>
    <defs>
        <linearGradient x1="0%" y1="0%" x2="100%" y2="0%" id="linearGradient-1">
            <stop stop-color="#483CB8" offset="0%"></stop>
            <stop stop-color="#258FE5" offset="100%"></stop>
        </linearGradient>
    </defs>
    <g id="Page-2" stroke="none" stroke-width="1" fill="none" fill-rule="evenodd">
        <g id="Главная-30.06-1920" transform="translate(-469.000000, -1567.000000)" fill="url(#linearGradient-1)">
            <g id="лига-copy" transform="translate(-464.000000, 1535.000000)">
                <g id="Group-4" transform="translate(824.000000, 20.000000)">
                    <path d="M119.138447,24.2939856 C119.071056,24.4095871 119.003405,24.5213006 118.934718,24.6293854 C118.665154,25.054467 118.354119,25.4173415 118.001612,25.718009 C117.649106,26.0186764 117.24476,26.2519529 116.788575,26.4178384 C116.33239,26.5837239 115.793262,26.6666667 115.171191,26.6666667 C114.424706,26.6666667 113.719693,26.5163329 113.056151,26.2156655 C112.392609,25.914998 111.81201,25.4743646 111.314353,24.8937654 C110.816697,24.3131662 110.422719,23.6029689 110.132419,22.7631735 C109.84212,21.9233782 109.69697,20.9643527 109.69697,19.8860969 C109.69697,19.0774051 109.811016,18.2531615 110.039109,17.4133662 C110.267201,16.5735709 110.614524,15.8115343 111.081077,15.1272567 C111.54763,14.442979 112.148965,13.8831154 112.885082,13.447666 C113.621199,13.0122166 114.507649,12.7944918 115.544434,12.7944918 C116.353125,12.7944918 117.037403,12.913722 117.597267,13.1521824 C118.15713,13.3906429 118.623683,13.7224139 118.996925,14.1474954 C119.370168,14.572577 119.681203,15.0650496 119.930031,15.6249132 C120.143091,16.1041667 120.333341,16.6137463 120.500781,17.1539109 C120.809743,18.2277603 121.225234,20.0221749 121.368051,20.6478742 C121.541194,21.5483214 121.709931,22.2691458 121.874002,22.8098288 C122.050255,23.3904281 122.221325,23.8362453 122.38721,24.1472807 C122.553096,24.458316 122.729349,24.6604889 122.91597,24.7537995 C123.102592,24.8471101 123.289213,24.8937654 123.475834,24.8937654 C123.703926,24.8937654 123.916467,24.8574779 124.113456,24.784903 C124.310445,24.7123281 124.55409,24.6242015 124.844389,24.520523 C124.927332,24.6242015 124.994723,24.7641674 125.046562,24.9404207 C125.098401,25.116674 125.103585,25.2877435 125.062114,25.453629 C124.709607,25.7439286 124.294894,26.0186764 123.817973,26.2778725 C123.341052,26.5370686 122.864131,26.6666667 122.38721,26.6666667 C122.013968,26.6666667 121.687381,26.6251953 121.407449,26.5422525 C121.127517,26.4593098 120.878689,26.2934243 120.660964,26.044596 C120.44324,25.7957678 120.256618,25.4432611 120.101101,24.987076 C119.951545,24.5485162 119.826094,23.9756928 119.724489,23.2686059 C119.722415,23.2468334 119.719823,23.2255794 119.716195,23.2048437 C119.627809,22.6797124 119.373278,21.1880389 119.215687,20.2647824 C119.147778,19.763238 119.049024,19.2222957 118.919167,18.6419557 C118.742913,17.8539996 118.499269,17.1282505 118.188234,16.4647085 C117.877198,15.8011665 117.48322,15.2413029 117.006299,14.7851178 C116.529379,14.3289327 115.969515,14.1008401 115.326709,14.1008401 C114.414339,14.1008401 113.68859,14.5362896 113.149462,15.4071884 C112.610334,16.2780873 112.34077,17.5325964 112.34077,19.1707157 C112.34077,20.9954562 112.620702,22.4417704 113.180565,23.5096583 C113.740429,24.5775462 114.559488,25.1114901 115.637744,25.1114901 C116.467172,25.1114901 117.141081,24.7434317 117.659474,24.0073148 C118.003686,23.5184709 118.35723,22.8808486 118.719845,22.0947068 L119.138447,24.2939856 Z M120.932083,15.9833814 C120.946858,15.8942179 120.960336,15.805832 120.972,15.7182238 C121.044575,15.1790959 121.132701,14.5673931 121.23638,13.8831154 C121.277851,13.6550229 121.376346,13.5046891 121.531863,13.4321142 C121.687381,13.3595393 122.024336,13.250677 122.542728,13.1055272 C122.667142,13.0640558 122.838212,13.0174005 123.055936,12.9655613 C123.273661,12.913722 123.413627,12.8878024 123.475834,12.8878024 C123.683191,12.8878024 123.786869,13.1055272 123.786869,13.5409766 C123.786869,13.9556903 123.600248,14.7591982 123.227006,15.9515002 C122.935669,16.881755 122.486742,17.9983718 121.879964,19.3010913 L120.932083,15.9833814 Z" id="Fill-1"></path>
                </g>
            </g>
        </g>
    </g>
</svg>